<?xml version="1.0" encoding="UTF-8"?>
<svg width="237px" height="58px" viewBox="0 0 237 58" version="1.1" xmlns="http://www.w3.org/2000/svg" xmlns:xlink="http://www.w3.org/1999/xlink">
    <!-- Generator: Sketch 43.2 (39069) - http://www.bohemiancoding.com/sketch -->
    <title>logo-with-text</title>
    <desc>Created with Sketch.</desc>
    <defs></defs>
    <g id="Page-1" stroke="none" stroke-width="1" fill="none" fill-rule="evenodd">
        <g id="logo-for-export" transform="translate(-212.000000, -351.000000)">
            <g id="logo-with-text" transform="translate(212.000000, 351.000000)">
                <path d="M95.712,20.488 C94.2079925,19.6719959 92.7200074,19.264 91.248,19.264 C89.5519915,19.264 88.008007,19.6879958 86.616,20.536 C85.223993,21.3840042 84.128004,22.5519926 83.328,24.04 C82.527996,25.5280074 82.128,27.1839909 82.128,29.008 C82.128,30.8320091 82.527996,32.4879926 83.328,33.976 C84.128004,35.4640074 85.223993,36.6319958 86.616,37.48 C88.008007,38.3280042 89.5519915,38.752 91.248,38.752 C92.6240069,38.752 94.0639925,38.4000035 95.568,37.696 C97.0720075,36.9919965 98.4159941,36.0320061 99.6,34.816 L104.736,40.336 C102.911991,42.2560096 100.744013,43.7839943 98.232,44.92 C95.7199874,46.0560057 93.2320123,46.624 90.768,46.624 C87.4399834,46.624 84.4320134,45.8560077 81.744,44.32 C79.0559866,42.7839923 76.9440077,40.6880133 75.408,38.032 C73.8719923,35.3759867 73.104,32.4000165 73.104,29.104 C73.104,25.8399837 73.8879922,22.8960131 75.456,20.272 C77.0240078,17.6479869 79.1759863,15.5840075 81.912,14.08 C84.6480137,12.5759925 87.711983,11.824 91.104,11.824 C93.6000125,11.824 96.0639878,12.3439948 98.496,13.384 C100.928012,14.4240052 102.991992,15.839991 104.688,17.632 L99.6,23.776 C98.5119946,22.3999931 97.2160075,21.3040041 95.712,20.488 Z M128.256,22.168 C130.24001,23.8160082 131.248,26.1279851 131.28,29.104 L131.28,46 L122.88,46 L122.88,43.072 C121.151991,45.280011 118.544017,46.384 115.056,46.384 C112.303986,46.384 110.136008,45.6400074 108.552,44.152 C106.967992,42.6639926 106.176,40.7040122 106.176,38.272 C106.176,35.8079877 107.031991,33.8880069 108.744,32.512 C110.456009,31.1359931 112.911984,30.4320002 116.112,30.4 L122.88,30.4 L122.88,30.112 C122.88,28.8639938 122.456004,27.9040034 121.608,27.232 C120.759996,26.5599966 119.536008,26.224 117.936,26.224 C116.847995,26.224 115.624007,26.3999982 114.264,26.752 C112.903993,27.1040018 111.536007,27.6159966 110.16,28.288 L107.808,22.528 C109.920011,21.5679952 111.94399,20.8560023 113.88,20.392 C115.81601,19.9279977 117.82399,19.696 119.904,19.696 C123.488018,19.696 126.27199,20.5199918 128.256,22.168 Z M121.056,39.64 C122.016005,39.0159969 122.623999,38.208005 122.88,37.216 L122.88,34.96 L117.792,34.96 C115.391988,34.96 114.192,35.855991 114.192,37.648 C114.192,38.5440045 114.503997,39.2559974 115.128,39.784 C115.752003,40.3120026 116.607995,40.576 117.696,40.576 C118.976006,40.576 120.095995,40.2640031 121.056,39.64 Z M159.792,21.4 C161.616009,22.5040055 163.031995,24.0719898 164.04,26.104 C165.048005,28.1360102 165.552,30.4799867 165.552,33.136 C165.552,35.7600131 165.064005,38.0639901 164.088,40.048 C163.111995,42.0320099 161.720009,43.5679946 159.912,44.656 C158.103991,45.7440054 156.016012,46.288 153.648,46.288 C152.015992,46.288 150.536007,45.9760031 149.208,45.352 C147.879993,44.7279969 146.752005,43.8240059 145.824,42.64 L145.824,55.312 L137.28,55.312 L137.28,20.032 L145.824,20.032 L145.824,23.392 C147.712009,20.9599878 150.255984,19.744 153.456,19.744 C155.856012,19.744 157.967991,20.2959945 159.792,21.4 Z M155.4,37.6 C156.440005,36.4159941 156.96,34.8640096 156.96,32.944 C156.96,31.0239904 156.440005,29.464006 155.4,28.264 C154.359995,27.063994 153.008008,26.464 151.344,26.464 C149.711992,26.464 148.384005,27.063994 147.36,28.264 C146.335995,29.464006 145.824,31.0239904 145.824,32.944 C145.824,34.8640096 146.335995,36.4159941 147.36,37.6 C148.384005,38.7840059 149.711992,39.376 151.344,39.376 C153.008008,39.376 154.359995,38.7840059 155.4,37.6 Z M179.04,25.6 C178.303996,25.6 177.712002,25.7359986 177.264,26.008 C176.815998,26.2800014 176.592,26.6879973 176.592,27.232 C176.592,27.8080029 176.943996,28.2719982 177.648,28.624 C178.352004,28.9760018 179.471992,29.3599979 181.008,29.776 C182.864009,30.3200027 184.407994,30.8559974 185.64,31.384 C186.872006,31.9120026 187.935996,32.7119946 188.832,33.784 C189.728004,34.8560054 190.176,36.2559914 190.176,37.984 C190.176,40.6080131 189.16001,42.6639926 187.128,44.152 C185.09599,45.6400074 182.448016,46.384 179.184,46.384 C176.975989,46.384 174.86401,46.0720031 172.848,45.448 C170.83199,44.8239969 169.040008,43.9040061 167.472,42.688 L170.16,37.168 C171.632007,38.1920051 173.175992,38.9839972 174.792,39.544 C176.408008,40.1040028 177.935993,40.384 179.376,40.384 C180.208004,40.384 180.871998,40.2480014 181.368,39.976 C181.864002,39.7039986 182.112,39.3120026 182.112,38.8 C182.112,38.1599968 181.752004,37.6640018 181.032,37.312 C180.311996,36.9599982 179.184008,36.5760021 177.648,36.16 C175.823991,35.6159973 174.320006,35.0800026 173.136,34.552 C171.951994,34.0239974 170.920004,33.2320053 170.04,32.176 C169.159996,31.1199947 168.72,29.7440085 168.72,28.048 C168.72,25.4239869 169.71199,23.3680074 171.696,21.88 C173.68001,20.3919926 176.239984,19.648 179.376,19.648 C181.264009,19.648 183.127991,19.9039974 184.968,20.416 C186.808009,20.9280026 188.543992,21.679995 190.176,22.672 L187.296,28.24 C183.935983,26.4799912 181.184011,25.6 179.04,25.6 Z M194.784,20.032 L203.28,20.032 L203.28,46 L194.784,46 L194.784,20.032 Z M202.2,9.352 C203.048004,10.2000042 203.472,11.2959933 203.472,12.64 C203.472,13.9520066 203.048004,15.0399957 202.2,15.904 C201.351996,16.7680043 200.272007,17.2 198.96,17.2 C197.647993,17.2 196.568004,16.7680043 195.72,15.904 C194.871996,15.0399957 194.448,13.9520066 194.448,12.64 C194.448,11.2959933 194.871996,10.2000042 195.72,9.352 C196.568004,8.50399576 197.647993,8.08 198.96,8.08 C200.272007,8.08 201.351996,8.50399576 202.2,9.352 Z M236.016,10.384 L236.016,46 L227.472,46 L227.472,42.64 C226.575996,43.8560061 225.480006,44.7759969 224.184,45.4 C222.887994,46.0240031 221.424008,46.336 219.792,46.336 C217.391988,46.336 215.280009,45.7760056 213.456,44.656 C211.631991,43.5359944 210.216005,41.9600102 209.208,39.928 C208.199995,37.8959898 207.696,35.5520133 207.696,32.896 C207.696,30.2719869 208.191995,27.9680099 209.184,25.984 C210.176005,23.9999901 211.567991,22.4640054 213.36,21.376 C215.152009,20.2879946 217.231988,19.744 219.6,19.744 C221.264008,19.744 222.759993,20.0639968 224.088,20.704 C225.416007,21.3440032 226.543995,22.2559941 227.472,23.44 L227.472,10.384 L236.016,10.384 Z M225.936,37.816 C226.960005,36.615994 227.472,35.0560096 227.472,33.136 C227.472,31.1839902 226.960005,29.6160059 225.936,28.432 C224.911995,27.2479941 223.568008,26.656 221.904,26.656 C220.239992,26.656 218.888005,27.255994 217.848,28.456 C216.807995,29.656006 216.288,31.2159904 216.288,33.136 C216.288,35.0560096 216.807995,36.615994 217.848,37.816 C218.888005,39.016006 220.239992,39.616 221.904,39.616 C223.568008,39.616 224.911995,39.016006 225.936,37.816 Z" id="Capsid" fill="#050923"></path>
                <g id="Group-2">
                    <g id="jade" transform="translate(44.000000, 44.000000) scale(-1, -1) translate(-44.000000, -44.000000) translate(30.000000, 30.000000)">
                        <circle id="Oval" fill="#050923" cx="13.6241611" cy="13.6241611" r="13.6241611"></circle>
                        <path d="M14.0296888,20.9654783 L14.0296888,21.0138647 C9.48127011,21.0008079 5.79810003,17.3095793 5.79810003,12.7581001 C5.79810003,8.22602513 9.44993238,4.5468813 13.9715628,4.50270289 L13.9715632,4.50270289 C13.9909065,4.50243513 14.0102819,4.50230082 14.0296888,4.50230082 C16.3027792,4.50230082 18.1454831,6.34500472 18.1454831,8.61809519 C18.1454831,10.8911856 16.3027792,12.7338896 14.0296888,12.7338896 C11.7565983,12.7338896 9.9138944,14.5765935 9.9138944,16.8496839 C9.9138944,19.1227744 11.7565983,20.9654783 14.0296888,20.9654783 L14.0296888,20.9654783 Z" id="Combined-Shape" fill="#FFFFFF" transform="translate(11.971792, 12.758083) rotate(30.000000) translate(-11.971792, -12.758083) "></path>
                    </g>
                    <g id="jade" transform="translate(44.000000, 14.000000) scale(-1, 1) translate(-44.000000, -14.000000) translate(30.000000, 0.000000)">
                        <circle id="Oval" fill="#050923" cx="13.6241611" cy="13.6241611" r="13.6241611"></circle>
                        <path d="M14.0296888,20.9654783 L14.0296888,21.0138647 C9.48127011,21.0008079 5.79810003,17.3095793 5.79810003,12.7581001 C5.79810003,8.22602513 9.44993238,4.5468813 13.9715628,4.50270289 L13.9715632,4.50270289 C13.9909065,4.50243513 14.0102819,4.50230082 14.0296888,4.50230082 C16.3027792,4.50230082 18.1454831,6.34500472 18.1454831,8.61809519 C18.1454831,10.8911856 16.3027792,12.7338896 14.0296888,12.7338896 C11.7565983,12.7338896 9.9138944,14.5765935 9.9138944,16.8496839 C9.9138944,19.1227744 11.7565983,20.9654783 14.0296888,20.9654783 L14.0296888,20.9654783 Z" id="Combined-Shape" fill="#FFFFFF" transform="translate(11.971792, 12.758083) rotate(30.000000) translate(-11.971792, -12.758083) "></path>
                    </g>
                    <g id="jade">
                        <circle id="Oval" fill="#050923" cx="13.6241611" cy="13.6241611" r="13.6241611"></circle>
                        <path d="M14.0296888,20.9654783 L14.0296888,21.0138647 C9.48127011,21.0008079 5.79810003,17.3095793 5.79810003,12.7581001 C5.79810003,8.22602513 9.44993238,4.5468813 13.9715628,4.50270289 L13.9715632,4.50270289 C13.9909065,4.50243513 14.0102819,4.50230082 14.0296888,4.50230082 C16.3027792,4.50230082 18.1454831,6.34500472 18.1454831,8.61809519 C18.1454831,10.8911856 16.3027792,12.7338896 14.0296888,12.7338896 C11.7565983,12.7338896 9.9138944,14.5765935 9.9138944,16.8496839 C9.9138944,19.1227744 11.7565983,20.9654783 14.0296888,20.9654783 L14.0296888,20.9654783 Z" id="Combined-Shape" fill="#FFFFFF" transform="translate(11.971792, 12.758083) rotate(30.000000) translate(-11.971792, -12.758083) "></path>
                    </g>
                    <g id="jade" transform="translate(14.000000, 44.000000) scale(1, -1) translate(-14.000000, -44.000000) translate(0.000000, 30.000000)">
                        <circle id="Oval" fill="#050923" cx="13.6241611" cy="13.6241611" r="13.6241611"></circle>
                        <path d="M14.0296888,20.9654783 L14.0296888,21.0138647 C9.48127011,21.0008079 5.79810003,17.3095793 5.79810003,12.7581001 C5.79810003,8.22602513 9.44993238,4.5468813 13.9715628,4.50270289 L13.9715632,4.50270289 C13.9909065,4.50243513 14.0102819,4.50230082 14.0296888,4.50230082 C16.3027792,4.50230082 18.1454831,6.34500472 18.1454831,8.61809519 C18.1454831,10.8911856 16.3027792,12.7338896 14.0296888,12.7338896 C11.7565983,12.7338896 9.9138944,14.5765935 9.9138944,16.8496839 C9.9138944,19.1227744 11.7565983,20.9654783 14.0296888,20.9654783 L14.0296888,20.9654783 Z" id="Combined-Shape" fill="#FFFFFF" transform="translate(11.971792, 12.758083) rotate(30.000000) translate(-11.971792, -12.758083) "></path>
                    </g>
                </g>
            </g>
        </g>
    </g>
</svg>