<?xml version="1.0" encoding="UTF-8"?>
<svg width="550px" height="691px" viewBox="0 0 550 691" version="1.1" xmlns="http://www.w3.org/2000/svg" xmlns:xlink="http://www.w3.org/1999/xlink">
    <!-- Generator: Sketch 42 (36781) - http://www.bohemiancoding.com/sketch -->
    <title>example-bg</title>
    <desc>Created with Sketch.</desc>
    <defs></defs>
    <g id="Page-1" stroke="none" stroke-width="1" fill="none" fill-rule="evenodd">
        <g id="coelement-and-component" transform="translate(-894.000000, -75.000000)">
            <g id="example-bg" transform="translate(894.000000, 75.000000)">
                <rect id="Rectangle" fill="#FFFFFF" x="0" y="0" width="550" height="691"></rect>
                <g id="example" transform="translate(85.000000, 71.000000)">
                    <circle id="Oval-1" fill="#050923" cx="190" cy="190" r="190"></circle>
                    <path d="M190,360 L190,360.999282 C96.0653786,360.729633 20,284.497827 20,190.5 C20,96.9029107 95.418187,20.9206828 188.799574,20.0083038 L188.799583,20.0083037 C189.199062,20.0027739 189.599207,20 190,20 C236.944204,20 275,58.0557963 275,105 C275,151.944204 236.944204,190 190,190 C143.055796,190 105,228.055796 105,275 C105,321.944204 143.055796,360 190,360 L190,360 Z" id="Combined-Shape" fill="#FFFFFF"></path>
                    <path d="M106,190.494088 C106,96.8969989 181.418187,20.914771 274.799574,20.0023919 C275.199062,19.9968621 275.599207,19.9940881 276,19.9940881 C322.944204,19.9940881 361,58.0498844 361,104.994088 C361,151.938292 322.944204,189.994088 276,189.994088 C229.055796,189.994088 191,228.049884 191,274.994088 C191,321.938292 229.055796,359.994088 276,359.994088 C182.065379,360.723721 106,284.491915 106,190.494088 Z" id="Combined-Shape" fill="#050923" transform="translate(233.500000, 189.996685) scale(-1, -1) translate(-233.500000, -189.996685) "></path>
                    <path d="M141.3,261 L157.71,261 L157.71,263.64 L150.93,263.64 L150.93,282 L148.05,282 L148.05,263.64 L141.3,263.64 L141.3,261 Z M160.74,266.13 L163.53,266.13 L163.53,282 L160.74,282 L160.74,266.13 Z M163.365,260.31 C163.695002,260.650002 163.86,261.079997 163.86,261.6 C163.86,262.120003 163.695002,262.549998 163.365,262.89 C163.034998,263.230002 162.620003,263.4 162.12,263.4 C161.619998,263.4 161.205002,263.230002 160.875,262.89 C160.544998,262.549998 160.38,262.120003 160.38,261.6 C160.38,261.079997 160.544998,260.650002 160.875,260.31 C161.205002,259.969998 161.619998,259.8 162.12,259.8 C162.620003,259.8 163.034998,259.969998 163.365,260.31 Z M193.74,267.69 C194.780005,268.790006 195.3,270.28999 195.3,272.19 L195.3,282 L192.48,282 L192.48,272.94 C192.48,271.599993 192.115004,270.550004 191.385,269.79 C190.654996,269.029996 189.650006,268.65 188.37,268.65 C186.869993,268.69 185.690004,269.219995 184.83,270.24 C183.969996,271.260005 183.54,272.569992 183.54,274.17 L183.54,282 L180.72,282 L180.72,272.94 C180.72,271.599993 180.360004,270.550004 179.64,269.79 C178.919996,269.029996 177.910007,268.65 176.61,268.65 C175.109993,268.69 173.925004,269.219995 173.055,270.24 C172.184996,271.260005 171.75,272.569992 171.75,274.17 L171.75,282 L168.96,282 L168.96,266.13 L171.75,266.13 L171.75,269.46 C172.790005,267.219989 174.759986,266.08 177.66,266.04 C179.120007,266.04 180.334995,266.389996 181.305,267.09 C182.275005,267.790004 182.929998,268.769994 183.27,270.03 C184.250005,267.409987 186.309984,266.08 189.45,266.04 C191.270009,266.04 192.699995,266.589994 193.74,267.69 Z M212.22,268.215 C213.480006,269.665007 214.11,271.679987 214.11,274.26 C214.11,274.660002 214.1,274.959999 214.08,275.16 L201.54,275.16 C201.760001,276.580007 202.354995,277.709996 203.325,278.55 C204.295005,279.390004 205.489993,279.81 206.91,279.81 C207.850005,279.81 208.724996,279.640002 209.535,279.3 C210.345004,278.959998 211.049997,278.480003 211.65,277.86 L213.18,279.45 C212.399996,280.290004 211.460006,280.939998 210.36,281.4 C209.259995,281.860002 208.040007,282.09 206.7,282.09 C205.139992,282.09 203.755006,281.755003 202.545,281.085 C201.334994,280.414997 200.395003,279.470006 199.725,278.25 C199.054997,277.029994 198.72,275.640008 198.72,274.08 C198.72,272.519992 199.054997,271.135006 199.725,269.925 C200.395003,268.714994 201.329994,267.765003 202.53,267.075 C203.730006,266.384997 205.099992,266.04 206.64,266.04 C209.100012,266.04 210.959994,266.764993 212.22,268.215 Z M211.59,273 C211.51,271.559993 211.030004,270.425004 210.15,269.595 C209.269996,268.764996 208.110007,268.35 206.67,268.35 C205.269993,268.35 204.105005,268.769996 203.175,269.61 C202.244995,270.450004 201.690001,271.579993 201.51,273 L211.59,273 Z M222.93,266.955 C223.890005,266.364997 225.029993,266.06 226.35,266.04 L226.35,268.74 C224.729992,268.68 223.420005,269.099995 222.42,270 C221.419995,270.900005 220.850001,272.109992 220.71,273.63 L220.71,282 L217.92,282 L217.92,266.13 L220.71,266.13 L220.71,269.55 C221.230003,268.409994 221.969995,267.545003 222.93,266.955 Z M243.84,268.53 C242.799995,268.53 241.875004,268.759998 241.065,269.22 C240.254996,269.680002 239.620002,270.329996 239.16,271.17 C238.699998,272.010004 238.47,272.979994 238.47,274.08 C238.47,275.180005 238.694998,276.149996 239.145,276.99 C239.595002,277.830004 240.214996,278.484998 241.005,278.955 C241.795004,279.425002 242.699995,279.66 243.72,279.66 C244.740005,279.66 245.659996,279.490002 246.48,279.15 C247.300004,278.809998 247.979997,278.320003 248.52,277.68 L250.11,279.3 C249.389996,280.200004 248.475006,280.889998 247.365,281.37 C246.254994,281.850002 245.000007,282.09 243.6,282.09 C242.059992,282.09 240.690006,281.750003 239.49,281.07 C238.289994,280.389997 237.355003,279.445006 236.685,278.235 C236.014997,277.024994 235.68,275.640008 235.68,274.08 C235.68,272.519992 236.014997,271.130006 236.685,269.91 C237.355003,268.689994 238.289994,267.740003 239.49,267.06 C240.690006,266.379997 242.059992,266.04 243.6,266.04 C244.940007,266.04 246.144995,266.244998 247.215,266.655 C248.285005,267.065002 249.179996,267.659996 249.9,268.44 L248.37,270.36 C247.109994,269.139994 245.600009,268.53 243.84,268.53 Z M254.25,259.74 L257.04,259.74 L257.04,282 L254.25,282 L254.25,259.74 Z M272.34,282 L272.34,279.78 C271.159994,281.340008 269.310013,282.12 266.79,282.12 C265.689995,282.12 264.725004,281.910002 263.895,281.49 C263.064996,281.069998 262.425002,280.490004 261.975,279.75 C261.524998,279.009996 261.3,278.180005 261.3,277.26 C261.3,275.839993 261.824995,274.715004 262.875,273.885 C263.925005,273.054996 265.389991,272.63 267.27,272.61 L272.31,272.61 L272.31,271.86 C272.31,270.739994 271.965003,269.875003 271.275,269.265 C270.584997,268.654997 269.580007,268.35 268.26,268.35 C266.659992,268.35 265.030008,268.919994 263.37,270.06 L262.2,268.14 C263.340006,267.399996 264.394995,266.865002 265.365,266.535 C266.335005,266.204998 267.489993,266.04 268.83,266.04 C270.81001,266.04 272.339995,266.524995 273.42,267.495 C274.500005,268.465005 275.05,269.819991 275.07,271.56 L275.1,282 L272.34,282 Z M270.675,278.865 C271.585005,278.234997 272.129999,277.400005 272.31,276.36 L272.31,274.77 L267.66,274.77 C266.399994,274.77 265.465003,274.959998 264.855,275.34 C264.244997,275.720002 263.94,276.319996 263.94,277.14 C263.94,277.960004 264.249997,278.609998 264.87,279.09 C265.490003,279.570002 266.319995,279.81 267.36,279.81 C268.660007,279.81 269.764995,279.495003 270.675,278.865 Z M286.575,268.68 C285.784996,268.439999 285.030004,268.32 284.31,268.32 C283.469996,268.32 282.795003,268.474998 282.285,268.785 C281.774997,269.095002 281.52,269.569997 281.52,270.21 C281.52,270.850003 281.804997,271.334998 282.375,271.665 C282.945003,271.995002 283.809994,272.329998 284.97,272.67 C286.070006,272.990002 286.969997,273.309998 287.67,273.63 C288.370004,273.950002 288.964998,274.419997 289.455,275.04 C289.945002,275.660003 290.19,276.479995 290.19,277.5 C290.19,279.000007 289.625006,280.139996 288.495,280.92 C287.364994,281.700004 285.960008,282.09 284.28,282.09 C283.099994,282.09 281.955006,281.900002 280.845,281.52 C279.734994,281.139998 278.800004,280.600004 278.04,279.9 L279.09,277.86 C279.750003,278.460003 280.564995,278.939998 281.535,279.3 C282.505005,279.660002 283.449995,279.84 284.37,279.84 C285.290005,279.84 286.029997,279.670002 286.59,279.33 C287.150003,278.989998 287.43,278.470004 287.43,277.77 C287.43,277.049996 287.135003,276.510002 286.545,276.15 C285.954997,275.789998 285.060006,275.430002 283.86,275.07 C282.799995,274.769998 281.935003,274.465002 281.265,274.155 C280.594997,273.844998 280.025002,273.390003 279.555,272.79 C279.084998,272.189997 278.85,271.410005 278.85,270.45 C278.85,268.969993 279.389995,267.860004 280.47,267.12 C281.550005,266.379996 282.899992,266.01 284.52,266.01 C285.480005,266.01 286.424995,266.144999 287.355,266.415 C288.285005,266.685001 289.089997,267.049998 289.77,267.51 L288.75,269.64 C288.089997,269.239998 287.365004,268.920001 286.575,268.68 Z M300.375,268.68 C299.584996,268.439999 298.830004,268.32 298.11,268.32 C297.269996,268.32 296.595003,268.474998 296.085,268.785 C295.574997,269.095002 295.32,269.569997 295.32,270.21 C295.32,270.850003 295.604997,271.334998 296.175,271.665 C296.745003,271.995002 297.609994,272.329998 298.77,272.67 C299.870006,272.990002 300.769997,273.309998 301.47,273.63 C302.170004,273.950002 302.764998,274.419997 303.255,275.04 C303.745002,275.660003 303.99,276.479995 303.99,277.5 C303.99,279.000007 303.425006,280.139996 302.295,280.92 C301.164994,281.700004 299.760008,282.09 298.08,282.09 C296.899994,282.09 295.755006,281.900002 294.645,281.52 C293.534994,281.139998 292.600004,280.600004 291.84,279.9 L292.89,277.86 C293.550003,278.460003 294.364995,278.939998 295.335,279.3 C296.305005,279.660002 297.249995,279.84 298.17,279.84 C299.090005,279.84 299.829997,279.670002 300.39,279.33 C300.950003,278.989998 301.23,278.470004 301.23,277.77 C301.23,277.049996 300.935003,276.510002 300.345,276.15 C299.754997,275.789998 298.860006,275.430002 297.66,275.07 C296.599995,274.769998 295.735003,274.465002 295.065,274.155 C294.394997,273.844998 293.825002,273.390003 293.355,272.79 C292.884998,272.189997 292.65,271.410005 292.65,270.45 C292.65,268.969993 293.189995,267.860004 294.27,267.12 C295.350005,266.379996 296.699992,266.01 298.32,266.01 C299.280005,266.01 300.224995,266.144999 301.155,266.415 C302.085005,266.685001 302.889997,267.049998 303.57,267.51 L302.55,269.64 C301.889997,269.239998 301.165004,268.920001 300.375,268.68 Z" id="Timer-class" fill="#FFFFFF"></path>
                    <path d="M103.74,105.38 L103.74,107.6 L93,112.22 L103.74,116.84 L103.74,119.06 L91.08,113.48 L91.08,110.96 L103.74,105.38 Z M114.045,108.68 C113.254996,108.439999 112.500004,108.32 111.78,108.32 C110.939996,108.32 110.265003,108.474998 109.755,108.785 C109.244997,109.095002 108.99,109.569997 108.99,110.21 C108.99,110.850003 109.274997,111.334998 109.845,111.665 C110.415003,111.995002 111.279994,112.329998 112.44,112.67 C113.540005,112.990002 114.439996,113.309998 115.14,113.63 C115.840003,113.950002 116.434998,114.419997 116.925,115.04 C117.415002,115.660003 117.66,116.479995 117.66,117.5 C117.66,119.000007 117.095006,120.139996 115.965,120.92 C114.834994,121.700004 113.430008,122.09 111.75,122.09 C110.569994,122.09 109.425006,121.900002 108.315,121.52 C107.204994,121.139998 106.270004,120.600003 105.51,119.9 L106.56,117.86 C107.220003,118.460003 108.034995,118.939998 109.005,119.3 C109.975005,119.660002 110.919995,119.84 111.84,119.84 C112.760005,119.84 113.499997,119.670002 114.06,119.33 C114.620003,118.989998 114.9,118.470003 114.9,117.77 C114.9,117.049996 114.605003,116.510002 114.015,116.15 C113.424997,115.789998 112.530006,115.430002 111.33,115.07 C110.269995,114.769998 109.405003,114.465002 108.735,114.155 C108.064997,113.844998 107.495002,113.390003 107.025,112.79 C106.554998,112.189997 106.32,111.410005 106.32,110.45 C106.32,108.969993 106.859995,107.860004 107.94,107.12 C109.020005,106.379996 110.369992,106.01 111.99,106.01 C112.950005,106.01 113.894995,106.144999 114.825,106.415 C115.755005,106.685001 116.559997,107.049998 117.24,107.51 L116.22,109.64 C115.559997,109.239998 114.835004,108.920001 114.045,108.68 Z M134.13,107.06 C135.290006,107.740003 136.189997,108.689994 136.83,109.91 C137.470003,111.130006 137.79,112.529992 137.79,114.11 C137.79,115.670008 137.475003,117.054994 136.845,118.265 C136.214997,119.475006 135.325006,120.414997 134.175,121.085 C133.024994,121.755003 131.710007,122.09 130.23,122.09 C128.889993,122.09 127.710005,121.810003 126.69,121.25 C125.669995,120.689997 124.870003,119.890005 124.29,118.85 L124.29,127.82 L121.5,127.82 L121.5,106.13 L124.29,106.13 L124.29,109.28 C124.870003,108.239995 125.664995,107.440003 126.675,106.88 C127.685005,106.319997 128.849993,106.04 130.17,106.04 C131.650007,106.04 132.969994,106.379997 134.13,107.06 Z M132.375,118.94 C133.185004,118.459998 133.814998,117.790004 134.265,116.93 C134.715002,116.069996 134.94,115.100005 134.94,114.02 C134.94,112.959995 134.710002,112.000004 134.25,111.14 C133.789998,110.279996 133.160004,109.610002 132.36,109.13 C131.559996,108.649998 130.650005,108.41 129.63,108.41 C128.609995,108.41 127.695004,108.649998 126.885,109.13 C126.074996,109.610002 125.440002,110.279996 124.98,111.14 C124.519998,112.000004 124.29,112.959995 124.29,114.02 C124.29,115.120005 124.519998,116.094996 124.98,116.945 C125.440002,117.795004 126.074996,118.459998 126.885,118.94 C127.695004,119.420002 128.609995,119.66 129.63,119.66 C130.650005,119.66 131.564996,119.420002 132.375,118.94 Z M151.38,122 L151.38,119.78 C150.199994,121.340008 148.350013,122.12 145.83,122.12 C144.729994,122.12 143.765004,121.910002 142.935,121.49 C142.104996,121.069998 141.465002,120.490004 141.015,119.75 C140.564998,119.009996 140.34,118.180005 140.34,117.26 C140.34,115.839993 140.864995,114.715004 141.915,113.885 C142.965005,113.054996 144.429991,112.63 146.31,112.61 L151.35,112.61 L151.35,111.86 C151.35,110.739994 151.005003,109.875003 150.315,109.265 C149.624997,108.654997 148.620007,108.35 147.3,108.35 C145.699992,108.35 144.070008,108.919994 142.41,110.06 L141.24,108.14 C142.380006,107.399996 143.434995,106.865002 144.405,106.535 C145.375005,106.204998 146.529993,106.04 147.87,106.04 C149.85001,106.04 151.379995,106.524995 152.46,107.495 C153.540005,108.465005 154.09,109.819991 154.11,111.56 L154.14,122 L151.38,122 Z M149.715,118.865 C150.625005,118.234997 151.169999,117.400005 151.35,116.36 L151.35,114.77 L146.7,114.77 C145.439994,114.77 144.505003,114.959998 143.895,115.34 C143.284997,115.720002 142.98,116.319996 142.98,117.14 C142.98,117.960004 143.289997,118.609998 143.91,119.09 C144.530003,119.570002 145.359995,119.81 146.4,119.81 C147.700006,119.81 148.804995,119.495003 149.715,118.865 Z M172.32,107.675 C173.380005,108.765005 173.91,110.26999 173.91,112.19 L173.91,122 L171.12,122 L171.12,112.94 C171.12,111.599993 170.745004,110.555004 169.995,109.805 C169.244996,109.054996 168.210007,108.68 166.89,108.68 C165.469993,108.7 164.315004,109.154996 163.425,110.045 C162.534996,110.935004 162.030001,112.089993 161.91,113.51 L161.91,122 L159.12,122 L159.12,106.13 L161.91,106.13 L161.91,109.49 C162.970005,107.229989 164.979985,106.08 167.94,106.04 C169.800009,106.04 171.259995,106.584995 172.32,107.675 Z M177.24,118.94 L177.24,116.72 L187.98,112.1 L177.24,107.48 L177.24,105.26 L189.9,110.84 L189.9,113.36 L177.24,118.94 Z" id="&lt;span&gt;" fill="#050923"></path>
                    <path d="M46.004,517.986 C46.1720008,518.286001 46.256,518.615998 46.256,518.976 C46.256,519.552003 46.0700019,520.025998 45.698,520.398 C45.3259981,520.770002 44.8640028,520.956 44.312,520.956 C43.7839974,520.956 43.3340019,520.776002 42.962,520.416 C42.5899981,520.055998 42.404,519.576003 42.404,518.976 C42.404,518.711999 42.4579995,518.436001 42.566,518.148 C42.6740005,517.859999 42.7879994,517.584001 42.908,517.32 L44.852,513.216 L46.688,513.216 L45.248,517.284 C45.5840017,517.452001 45.8359992,517.685998 46.004,517.986 Z M50.9,517.986 C51.0680008,518.286001 51.152,518.615998 51.152,518.976 C51.152,519.552003 50.9660019,520.025998 50.594,520.398 C50.2219981,520.770002 49.7600028,520.956 49.208,520.956 C48.6799974,520.956 48.2300019,520.776002 47.858,520.416 C47.4859981,520.055998 47.3,519.576003 47.3,518.976 C47.3,518.711999 47.3539995,518.436001 47.462,518.148 C47.5700005,517.859999 47.6839994,517.584001 47.804,517.32 L49.748,513.216 L51.584,513.216 L50.144,517.284 C50.4800017,517.452001 50.7319992,517.685998 50.9,517.986 Z M66.74,538.74 C65.2759927,539.676005 63.7880076,540.144 62.276,540.144 C60.7639924,540.144 59.5400047,539.694005 58.604,538.794 C57.6679953,537.893995 57.2,536.532009 57.2,534.708 L57.2,524.16 L54.5,524.16 L54.5,521.604 L57.2,521.604 L57.2,516.492 L60.584,516.492 L60.584,521.604 L66.416,521.604 L66.416,524.16 L60.584,524.16 L60.584,534.096 C60.584,535.152005 60.7759981,535.907998 61.16,536.364 C61.5440019,536.820002 62.1199962,537.048 62.888,537.048 C63.8000046,537.048 64.7839947,536.748003 65.84,536.148 L66.74,538.74 Z M70.808,520.956 L74.156,520.956 L74.156,540 L70.808,540 L70.808,520.956 Z M73.958,513.972 C74.354002,514.380002 74.552,514.895997 74.552,515.52 C74.552,516.144003 74.354002,516.659998 73.958,517.068 C73.561998,517.476002 73.064003,517.68 72.464,517.68 C71.863997,517.68 71.366002,517.476002 70.97,517.068 C70.573998,516.659998 70.376,516.144003 70.376,515.52 C70.376,514.895997 70.573998,514.380002 70.97,513.972 C71.366002,513.563998 71.863997,513.36 72.464,513.36 C73.064003,513.36 73.561998,513.563998 73.958,513.972 Z M110.408,522.828 C111.656006,524.148007 112.28,525.947989 112.28,528.228 L112.28,540 L108.896,540 L108.896,529.128 C108.896,527.519992 108.458004,526.260005 107.582,525.348 C106.705996,524.435995 105.500008,523.98 103.964,523.98 C102.163991,524.028 100.748005,524.663994 99.716,525.888 C98.6839948,527.112006 98.168,528.68399 98.168,530.604 L98.168,540 L94.784,540 L94.784,529.128 C94.784,527.519992 94.3520043,526.260005 93.488,525.348 C92.6239957,524.435995 91.4120078,523.98 89.852,523.98 C88.051991,524.028 86.6300052,524.663994 85.586,525.888 C84.5419948,527.112006 84.02,528.68399 84.02,530.604 L84.02,540 L80.672,540 L80.672,520.956 L84.02,520.956 L84.02,524.952 C85.2680062,522.263987 87.6319826,520.896 91.112,520.848 C92.8640088,520.848 94.3219942,521.267996 95.486,522.108 C96.6500058,522.948004 97.435998,524.123992 97.844,525.636 C99.0200059,522.491984 101.491981,520.896 105.26,520.848 C107.444011,520.848 109.159994,521.507993 110.408,522.828 Z M132.584,523.458 C134.096008,525.198009 134.852,527.615985 134.852,530.712 C134.852,531.192002 134.84,531.551999 134.816,531.792 L119.768,531.792 C120.032001,533.496009 120.745994,534.851995 121.91,535.86 C123.074006,536.868005 124.507991,537.372 126.212,537.372 C127.340006,537.372 128.389995,537.168002 129.362,536.76 C130.334005,536.351998 131.179996,535.776004 131.9,535.032 L133.736,536.94 C132.799995,537.948005 131.672007,538.727997 130.352,539.28 C129.031993,539.832003 127.568008,540.108 125.96,540.108 C124.087991,540.108 122.426007,539.706004 120.974,538.902 C119.521993,538.097996 118.394004,536.964007 117.59,535.5 C116.785996,534.035993 116.384,532.368009 116.384,530.496 C116.384,528.623991 116.785996,526.962007 117.59,525.51 C118.394004,524.057993 119.515993,522.918004 120.956,522.09 C122.396007,521.261996 124.039991,520.848 125.888,520.848 C128.840015,520.848 131.071992,521.717991 132.584,523.458 Z M131.828,529.2 C131.732,527.471991 131.156005,526.110005 130.1,525.114 C129.043995,524.117995 127.652009,523.62 125.924,523.62 C124.243992,523.62 122.846006,524.123995 121.73,525.132 C120.613994,526.140005 119.948001,527.495991 119.732,529.2 L131.828,529.2 Z M145.436,521.946 C146.588006,521.237996 147.955992,520.872 149.54,520.848 L149.54,524.088 C147.59599,524.016 146.024006,524.519995 144.824,525.6 C143.623994,526.680005 142.940001,528.131991 142.772,529.956 L142.772,540 L139.424,540 L139.424,520.956 L142.772,520.956 L142.772,525.06 C143.396003,523.691993 144.283994,522.654004 145.436,521.946 Z M154.994,513.828 C155.366002,514.188002 155.552,514.667997 155.552,515.268 C155.552,515.532001 155.498001,515.807999 155.39,516.096 C155.281999,516.384001 155.168001,516.659999 155.048,516.924 L153.104,521.028 L151.268,521.028 L152.708,516.96 C152.371998,516.791999 152.120001,516.558002 151.952,516.258 C151.783999,515.957999 151.7,515.628002 151.7,515.268 C151.7,514.691997 151.885998,514.218002 152.258,513.846 C152.630002,513.473998 153.091997,513.288 153.644,513.288 C154.172003,513.288 154.621998,513.467998 154.994,513.828 Z M159.89,513.828 C160.262002,514.188002 160.448,514.667997 160.448,515.268 C160.448,515.532001 160.394001,515.807999 160.286,516.096 C160.177999,516.384001 160.064001,516.659999 159.944,516.924 L158,521.028 L156.164,521.028 L157.604,516.96 C157.267998,516.791999 157.016001,516.558002 156.848,516.258 C156.679999,515.957999 156.596,515.628002 156.596,515.268 C156.596,514.691997 156.781998,514.218002 157.154,513.846 C157.526002,513.473998 157.987997,513.288 158.54,513.288 C159.068003,513.288 159.517998,513.467998 159.89,513.828 Z M182.768,523.836 C181.519994,523.836 180.410005,524.111997 179.438,524.664 C178.465995,525.216003 177.704003,525.995995 177.152,527.004 C176.599997,528.012005 176.324,529.175993 176.324,530.496 C176.324,531.816007 176.593997,532.979995 177.134,533.988 C177.674003,534.996005 178.417995,535.781997 179.366,536.346 C180.314005,536.910003 181.399994,537.192 182.624,537.192 C183.848006,537.192 184.951995,536.988002 185.936,536.58 C186.920005,536.171998 187.735997,535.584004 188.384,534.816 L190.292,536.76 C189.427996,537.840005 188.330007,538.667997 186.998,539.244 C185.665993,539.820003 184.160008,540.108 182.48,540.108 C180.631991,540.108 178.988007,539.700004 177.548,538.884 C176.107993,538.067996 174.986004,536.934007 174.182,535.482 C173.377996,534.029993 172.976,532.368009 172.976,530.496 C172.976,528.623991 173.377996,526.956007 174.182,525.492 C174.986004,524.027993 176.107993,522.888004 177.548,522.072 C178.988007,521.255996 180.631991,520.848 182.48,520.848 C184.088008,520.848 185.533994,521.093998 186.818,521.586 C188.102006,522.078002 189.175996,522.791995 190.04,523.728 L188.204,526.032 C186.691992,524.567993 184.880011,523.836 182.768,523.836 Z M207.23,522.072 C208.706007,522.888004 209.857996,524.021993 210.686,525.474 C211.514004,526.926007 211.928,528.587991 211.928,530.46 C211.928,532.332009 211.514004,533.999993 210.686,535.464 C209.857996,536.928007 208.706007,538.067996 207.23,538.884 C205.753993,539.700004 204.068009,540.108 202.172,540.108 C200.25199,540.108 198.554007,539.700004 197.078,538.884 C195.601993,538.067996 194.450004,536.934007 193.622,535.482 C192.793996,534.029993 192.38,532.356009 192.38,530.46 C192.38,528.587991 192.793996,526.926007 193.622,525.474 C194.450004,524.021993 195.601993,522.888004 197.078,522.072 C198.554007,521.255996 200.25199,520.848 202.172,520.848 C204.068009,520.848 205.753993,521.255996 207.23,522.072 Z M198.842,524.628 C197.869995,525.204003 197.114003,526.001995 196.574,527.022 C196.033997,528.042005 195.764,529.199994 195.764,530.496 C195.764,531.816007 196.033997,532.991995 196.574,534.024 C197.114003,535.056005 197.869995,535.853997 198.842,536.418 C199.814005,536.982003 200.923994,537.264 202.172,537.264 C203.396006,537.264 204.493995,536.982003 205.466,536.418 C206.438005,535.853997 207.193997,535.056005 207.734,534.024 C208.274003,532.991995 208.544,531.816007 208.544,530.496 C208.544,529.199994 208.274003,528.042005 207.734,527.022 C207.193997,526.001995 206.438005,525.204003 205.466,524.628 C204.493995,524.051997 203.396006,523.764 202.172,523.764 C200.923994,523.764 199.814005,524.051997 198.842,524.628 Z M246.344,522.828 C247.592006,524.148007 248.216,525.947989 248.216,528.228 L248.216,540 L244.832,540 L244.832,529.128 C244.832,527.519992 244.394004,526.260005 243.518,525.348 C242.641996,524.435995 241.436008,523.98 239.9,523.98 C238.099991,524.028 236.684005,524.663994 235.652,525.888 C234.619995,527.112006 234.104,528.68399 234.104,530.604 L234.104,540 L230.72,540 L230.72,529.128 C230.72,527.519992 230.288004,526.260005 229.424,525.348 C228.559996,524.435995 227.348008,523.98 225.788,523.98 C223.987991,524.028 222.566005,524.663994 221.522,525.888 C220.477995,527.112006 219.956,528.68399 219.956,530.604 L219.956,540 L216.608,540 L216.608,520.956 L219.956,520.956 L219.956,524.952 C221.204006,522.263987 223.567983,520.896 227.048,520.848 C228.800009,520.848 230.257994,521.267996 231.422,522.108 C232.586006,522.948004 233.371998,524.123992 233.78,525.636 C234.956006,522.491984 237.427981,520.896 241.196,520.848 C243.380011,520.848 245.095994,521.507993 246.344,522.828 Z M269.528,522.072 C270.920007,522.888004 271.999996,524.027993 272.768,525.492 C273.536004,526.956007 273.92,528.635991 273.92,530.532 C273.92,532.404009 273.542004,534.065993 272.786,535.518 C272.029996,536.970007 270.962007,538.097996 269.582,538.902 C268.201993,539.706004 266.624009,540.108 264.848,540.108 C263.239992,540.108 261.824006,539.772003 260.6,539.1 C259.375994,538.427997 258.416003,537.468006 257.72,536.22 L257.72,546.984 L254.372,546.984 L254.372,520.956 L257.72,520.956 L257.72,524.736 C258.416003,523.487994 259.369994,522.528003 260.582,521.856 C261.794006,521.183997 263.191992,520.848 264.776,520.848 C266.552009,520.848 268.135993,521.255996 269.528,522.072 Z M267.422,536.328 C268.394005,535.751997 269.149997,534.948005 269.69,533.916 C270.230003,532.883995 270.5,531.720006 270.5,530.424 C270.5,529.151994 270.224003,528.000005 269.672,526.968 C269.119997,525.935995 268.364005,525.132003 267.404,524.556 C266.443995,523.979997 265.352006,523.692 264.128,523.692 C262.903994,523.692 261.806005,523.979997 260.834,524.556 C259.861995,525.132003 259.100003,525.935995 258.548,526.968 C257.995997,528.000005 257.72,529.151994 257.72,530.424 C257.72,531.744007 257.995997,532.913995 258.548,533.934 C259.100003,534.954005 259.861995,535.751997 260.834,536.328 C261.806005,536.904003 262.903994,537.192 264.128,537.192 C265.352006,537.192 266.449995,536.904003 267.422,536.328 Z M291.578,522.072 C293.054007,522.888004 294.205996,524.021993 295.034,525.474 C295.862004,526.926007 296.276,528.587991 296.276,530.46 C296.276,532.332009 295.862004,533.999993 295.034,535.464 C294.205996,536.928007 293.054007,538.067996 291.578,538.884 C290.101993,539.700004 288.416009,540.108 286.52,540.108 C284.59999,540.108 282.902007,539.700004 281.426,538.884 C279.949993,538.067996 278.798004,536.934007 277.97,535.482 C277.141996,534.029993 276.728,532.356009 276.728,530.46 C276.728,528.587991 277.141996,526.926007 277.97,525.474 C278.798004,524.021993 279.949993,522.888004 281.426,522.072 C282.902007,521.255996 284.59999,520.848 286.52,520.848 C288.416009,520.848 290.101993,521.255996 291.578,522.072 Z M283.19,524.628 C282.217995,525.204003 281.462003,526.001995 280.922,527.022 C280.381997,528.042005 280.112,529.199994 280.112,530.496 C280.112,531.816007 280.381997,532.991995 280.922,534.024 C281.462003,535.056005 282.217995,535.853997 283.19,536.418 C284.162005,536.982003 285.271994,537.264 286.52,537.264 C287.744006,537.264 288.841995,536.982003 289.814,536.418 C290.786005,535.853997 291.541997,535.056005 292.082,534.024 C292.622003,532.991995 292.892,531.816007 292.892,530.496 C292.892,529.199994 292.622003,528.042005 292.082,527.022 C291.541997,526.001995 290.786005,525.204003 289.814,524.628 C288.841995,524.051997 287.744006,523.764 286.52,523.764 C285.271994,523.764 284.162005,524.051997 283.19,524.628 Z M316.796,522.81 C318.068006,524.118007 318.704,525.923988 318.704,528.228 L318.704,540 L315.356,540 L315.356,529.128 C315.356,527.519992 314.906004,526.266005 314.006,525.366 C313.105996,524.465995 311.864008,524.016 310.28,524.016 C308.575991,524.04 307.190005,524.585995 306.122,525.654 C305.053995,526.722005 304.448001,528.107991 304.304,529.812 L304.304,540 L300.956,540 L300.956,520.956 L304.304,520.956 L304.304,524.988 C305.576006,522.275986 307.987982,520.896 311.54,520.848 C313.772011,520.848 315.523994,521.501993 316.796,522.81 Z M339.008,523.458 C340.520008,525.198009 341.276,527.615985 341.276,530.712 C341.276,531.192002 341.264,531.551999 341.24,531.792 L326.192,531.792 C326.456001,533.496009 327.169994,534.851995 328.334,535.86 C329.498006,536.868005 330.931991,537.372 332.636,537.372 C333.764006,537.372 334.813995,537.168002 335.786,536.76 C336.758005,536.351998 337.603996,535.776004 338.324,535.032 L340.16,536.94 C339.223995,537.948005 338.096007,538.727997 336.776,539.28 C335.455993,539.832003 333.992008,540.108 332.384,540.108 C330.511991,540.108 328.850007,539.706004 327.398,538.902 C325.945993,538.097996 324.818004,536.964007 324.014,535.5 C323.209996,534.035993 322.808,532.368009 322.808,530.496 C322.808,528.623991 323.209996,526.962007 324.014,525.51 C324.818004,524.057993 325.939993,522.918004 327.38,522.09 C328.820007,521.261996 330.463991,520.848 332.312,520.848 C335.264015,520.848 337.495992,521.717991 339.008,523.458 Z M338.252,529.2 C338.156,527.471991 337.580005,526.110005 336.524,525.114 C335.467995,524.117995 334.076009,523.62 332.348,523.62 C330.667992,523.62 329.270006,524.123995 328.154,525.132 C327.037994,526.140005 326.372001,527.495991 326.156,529.2 L338.252,529.2 Z M361.688,522.81 C362.960006,524.118007 363.596,525.923988 363.596,528.228 L363.596,540 L360.248,540 L360.248,529.128 C360.248,527.519992 359.798005,526.266005 358.898,525.366 C357.997996,524.465995 356.756008,524.016 355.172,524.016 C353.467991,524.04 352.082005,524.585995 351.014,525.654 C349.945995,526.722005 349.340001,528.107991 349.196,529.812 L349.196,540 L345.848,540 L345.848,520.956 L349.196,520.956 L349.196,524.988 C350.468006,522.275986 352.879982,520.896 356.432,520.848 C358.664011,520.848 360.415994,521.501993 361.688,522.81 Z M379.796,538.74 C378.331993,539.676005 376.844008,540.144 375.332,540.144 C373.819992,540.144 372.596005,539.694005 371.66,538.794 C370.723995,537.893995 370.256,536.532009 370.256,534.708 L370.256,524.16 L367.556,524.16 L367.556,521.604 L370.256,521.604 L370.256,516.492 L373.64,516.492 L373.64,521.604 L379.472,521.604 L379.472,524.16 L373.64,524.16 L373.64,534.096 C373.64,535.152005 373.831998,535.907998 374.216,536.364 C374.600002,536.820002 375.175996,537.048 375.944,537.048 C376.856005,537.048 377.839995,536.748003 378.896,536.148 L379.796,538.74 Z" id="“timer”-component" fill="#050923"></path>
                    <polyline id="Path-2" stroke="#050923" stroke-width="3" points="43 401.551326 43 438.390625 336.364281 438.390625 336.364281 406.404577"></polyline>
                    <path d="M170,438 L170,488.390625" id="Path-3" stroke="#050923" stroke-width="3"></path>
                </g>
            </g>
        </g>
    </g>
</svg>