<?xml version="1.0" encoding="UTF-8"?>
<svg width="550px" height="691px" viewBox="0 0 550 691" version="1.1" xmlns="http://www.w3.org/2000/svg" xmlns:xlink="http://www.w3.org/1999/xlink">
    <!-- Generator: Sketch 42 (36781) - http://www.bohemiancoding.com/sketch -->
    <title>basic-bg</title>
    <desc>Created with Sketch.</desc>
    <defs></defs>
    <g id="Page-1" stroke="none" stroke-width="1" fill="none" fill-rule="evenodd">
        <g id="coelement-and-component" transform="translate(-239.000000, -75.000000)">
            <g id="basic-bg" transform="translate(239.000000, 75.000000)">
                <rect id="Rectangle" fill="#FFFFFF" x="0" y="0" width="550" height="691"></rect>
                <g id="basic" transform="translate(93.000000, 75.000000)">
                    <circle id="Oval-1" fill="#050923" cx="190" cy="190" r="190"></circle>
                    <path d="M190,360 L190,360.999282 C96.0653786,360.729633 20,284.497827 20,190.5 C20,96.9029107 95.418187,20.9206828 188.799574,20.0083038 L188.799583,20.0083037 C189.199062,20.0027739 189.599207,20 190,20 C236.944204,20 275,58.0557963 275,105 C275,151.944204 236.944204,190 190,190 C143.055796,190 105,228.055796 105,275 C105,321.944204 143.055796,360 190,360 L190,360 Z" id="Combined-Shape" fill="#FFFFFF"></path>
                    <path d="M106,190.494088 C106,96.8969989 181.418187,20.914771 274.799574,20.0023919 C275.199062,19.9968621 275.599207,19.9940881 276,19.9940881 C322.944204,19.9940881 361,58.0498844 361,104.994088 C361,151.938292 322.944204,189.994088 276,189.994088 C229.055796,189.994088 191,228.049884 191,274.994088 C191,321.938292 229.055796,359.994088 276,359.994088 C182.065379,360.723721 106,284.491915 106,190.494088 Z" id="Combined-Shape" fill="#050923" transform="translate(233.500000, 189.996685) scale(-1, -1) translate(-233.500000, -189.996685) "></path>
                    <path d="M140.33,268.53 C139.289995,268.53 138.365004,268.759998 137.555,269.22 C136.744996,269.680002 136.110002,270.329996 135.65,271.17 C135.189998,272.010004 134.96,272.979994 134.96,274.08 C134.96,275.180005 135.184998,276.149996 135.635,276.99 C136.085002,277.830004 136.704996,278.484998 137.495,278.955 C138.285004,279.425002 139.189995,279.66 140.21,279.66 C141.230005,279.66 142.149996,279.490002 142.97,279.15 C143.790004,278.809998 144.469997,278.320003 145.01,277.68 L146.6,279.3 C145.879996,280.200004 144.965006,280.889998 143.855,281.37 C142.744994,281.850002 141.490007,282.09 140.09,282.09 C138.549992,282.09 137.180006,281.750003 135.98,281.07 C134.779994,280.389997 133.845003,279.445006 133.175,278.235 C132.504997,277.024994 132.17,275.640008 132.17,274.08 C132.17,272.519992 132.504997,271.130006 133.175,269.91 C133.845003,268.689994 134.779994,267.740003 135.98,267.06 C137.180006,266.379997 138.549992,266.04 140.09,266.04 C141.430007,266.04 142.634995,266.244998 143.705,266.655 C144.775005,267.065002 145.669996,267.659996 146.39,268.44 L144.86,270.36 C143.599994,269.139994 142.090009,268.53 140.33,268.53 Z M160.715,267.06 C161.945006,267.740003 162.904997,268.684994 163.595,269.895 C164.285003,271.105006 164.63,272.489992 164.63,274.05 C164.63,275.610008 164.285003,276.999994 163.595,278.22 C162.904997,279.440006 161.945006,280.389997 160.715,281.07 C159.484994,281.750003 158.080008,282.09 156.5,282.09 C154.899992,282.09 153.485006,281.750003 152.255,281.07 C151.024994,280.389997 150.065003,279.445006 149.375,278.235 C148.684997,277.024994 148.34,275.630008 148.34,274.05 C148.34,272.489992 148.684997,271.105006 149.375,269.895 C150.065003,268.684994 151.024994,267.740003 152.255,267.06 C153.485006,266.379997 154.899992,266.04 156.5,266.04 C158.080008,266.04 159.484994,266.379997 160.715,267.06 Z M153.725,269.19 C152.914996,269.670002 152.285002,270.334996 151.835,271.185 C151.384998,272.035004 151.16,272.999995 151.16,274.08 C151.16,275.180005 151.384998,276.159996 151.835,277.02 C152.285002,277.880004 152.914996,278.544998 153.725,279.015 C154.535004,279.485002 155.459995,279.72 156.5,279.72 C157.520005,279.72 158.434996,279.485002 159.245,279.015 C160.055004,278.544998 160.684998,277.880004 161.135,277.02 C161.585002,276.159996 161.81,275.180005 161.81,274.08 C161.81,272.999995 161.585002,272.035004 161.135,271.185 C160.684998,270.334996 160.055004,269.670002 159.245,269.19 C158.434996,268.709998 157.520005,268.47 156.5,268.47 C155.459995,268.47 154.535004,268.709998 153.725,269.19 Z M180.47,268.215 C181.730006,269.665007 182.36,271.679987 182.36,274.26 C182.36,274.660002 182.35,274.959999 182.33,275.16 L169.79,275.16 C170.010001,276.580007 170.604995,277.709996 171.575,278.55 C172.545005,279.390004 173.739993,279.81 175.16,279.81 C176.100005,279.81 176.974996,279.640002 177.785,279.3 C178.595004,278.959998 179.299997,278.480003 179.9,277.86 L181.43,279.45 C180.649996,280.290004 179.710006,280.939998 178.61,281.4 C177.509995,281.860002 176.290007,282.09 174.95,282.09 C173.389992,282.09 172.005006,281.755003 170.795,281.085 C169.584994,280.414997 168.645003,279.470006 167.975,278.25 C167.304997,277.029994 166.97,275.640008 166.97,274.08 C166.97,272.519992 167.304997,271.135006 167.975,269.925 C168.645003,268.714994 169.579994,267.765003 170.78,267.075 C171.980006,266.384997 173.349992,266.04 174.89,266.04 C177.350012,266.04 179.209994,266.764993 180.47,268.215 Z M179.84,273 C179.76,271.559993 179.280004,270.425004 178.4,269.595 C177.519996,268.764996 176.360007,268.35 174.92,268.35 C173.519993,268.35 172.355005,268.769996 171.425,269.61 C170.494995,270.450004 169.940001,271.579993 169.76,273 L179.84,273 Z M186.32,259.74 L189.11,259.74 L189.11,282 L186.32,282 L186.32,259.74 Z M206.66,268.215 C207.920006,269.665007 208.55,271.679987 208.55,274.26 C208.55,274.660002 208.54,274.959999 208.52,275.16 L195.98,275.16 C196.200001,276.580007 196.794995,277.709996 197.765,278.55 C198.735005,279.390004 199.929993,279.81 201.35,279.81 C202.290005,279.81 203.164996,279.640002 203.975,279.3 C204.785004,278.959998 205.489997,278.480003 206.09,277.86 L207.62,279.45 C206.839996,280.290004 205.900006,280.939998 204.8,281.4 C203.699995,281.860002 202.480007,282.09 201.14,282.09 C199.579992,282.09 198.195006,281.755003 196.985,281.085 C195.774994,280.414997 194.835003,279.470006 194.165,278.25 C193.494997,277.029994 193.16,275.640008 193.16,274.08 C193.16,272.519992 193.494997,271.135006 194.165,269.925 C194.835003,268.714994 195.769994,267.765003 196.97,267.075 C198.170006,266.384997 199.539992,266.04 201.08,266.04 C203.540012,266.04 205.399994,266.764993 206.66,268.215 Z M206.03,273 C205.95,271.559993 205.470004,270.425004 204.59,269.595 C203.709996,268.764996 202.550007,268.35 201.11,268.35 C199.709993,268.35 198.545005,268.769996 197.615,269.61 C196.684995,270.450004 196.130001,271.579993 195.95,273 L206.03,273 Z M237.14,267.69 C238.180005,268.790006 238.7,270.28999 238.7,272.19 L238.7,282 L235.88,282 L235.88,272.94 C235.88,271.599993 235.515004,270.550004 234.785,269.79 C234.054996,269.029996 233.050006,268.65 231.77,268.65 C230.269993,268.69 229.090004,269.219995 228.23,270.24 C227.369996,271.260005 226.94,272.569992 226.94,274.17 L226.94,282 L224.12,282 L224.12,272.94 C224.12,271.599993 223.760004,270.550004 223.04,269.79 C222.319996,269.029996 221.310007,268.65 220.01,268.65 C218.509993,268.69 217.325004,269.219995 216.455,270.24 C215.584996,271.260005 215.15,272.569992 215.15,274.17 L215.15,282 L212.36,282 L212.36,266.13 L215.15,266.13 L215.15,269.46 C216.190005,267.219989 218.159986,266.08 221.06,266.04 C222.520007,266.04 223.734995,266.389996 224.705,267.09 C225.675005,267.790004 226.329998,268.769994 226.67,270.03 C227.650005,267.409987 229.709984,266.08 232.85,266.04 C234.670009,266.04 236.099995,266.589994 237.14,267.69 Z M255.62,268.215 C256.880006,269.665007 257.51,271.679987 257.51,274.26 C257.51,274.660002 257.5,274.959999 257.48,275.16 L244.94,275.16 C245.160001,276.580007 245.754995,277.709996 246.725,278.55 C247.695005,279.390004 248.889993,279.81 250.31,279.81 C251.250005,279.81 252.124996,279.640002 252.935,279.3 C253.745004,278.959998 254.449997,278.480003 255.05,277.86 L256.58,279.45 C255.799996,280.290004 254.860006,280.939998 253.76,281.4 C252.659995,281.860002 251.440007,282.09 250.1,282.09 C248.539992,282.09 247.155006,281.755003 245.945,281.085 C244.734994,280.414997 243.795003,279.470006 243.125,278.25 C242.454997,277.029994 242.12,275.640008 242.12,274.08 C242.12,272.519992 242.454997,271.135006 243.125,269.925 C243.795003,268.714994 244.729994,267.765003 245.93,267.075 C247.130006,266.384997 248.499992,266.04 250.04,266.04 C252.500012,266.04 254.359994,266.764993 255.62,268.215 Z M254.99,273 C254.91,271.559993 254.430004,270.425004 253.55,269.595 C252.669996,268.764996 251.510007,268.35 250.07,268.35 C248.669993,268.35 247.505005,268.769996 246.575,269.61 C245.644995,270.450004 245.090001,271.579993 244.91,273 L254.99,273 Z M274.52,267.675 C275.580005,268.765005 276.11,270.26999 276.11,272.19 L276.11,282 L273.32,282 L273.32,272.94 C273.32,271.599993 272.945004,270.555004 272.195,269.805 C271.444996,269.054996 270.410007,268.68 269.09,268.68 C267.669993,268.7 266.515004,269.154996 265.625,270.045 C264.734996,270.935004 264.230001,272.089993 264.11,273.51 L264.11,282 L261.32,282 L261.32,266.13 L264.11,266.13 L264.11,269.49 C265.170005,267.229989 267.179985,266.08 270.14,266.04 C272.000009,266.04 273.459995,266.584995 274.52,267.675 Z M289.61,280.95 C288.389994,281.730004 287.150006,282.12 285.89,282.12 C284.629994,282.12 283.610004,281.745004 282.83,280.995 C282.049996,280.244996 281.66,279.110008 281.66,277.59 L281.66,268.8 L279.41,268.8 L279.41,266.67 L281.66,266.67 L281.66,262.41 L284.48,262.41 L284.48,266.67 L289.34,266.67 L289.34,268.8 L284.48,268.8 L284.48,277.08 C284.48,277.960004 284.639998,278.589998 284.96,278.97 C285.280002,279.350002 285.759997,279.54 286.4,279.54 C287.160004,279.54 287.979996,279.290003 288.86,278.79 L289.61,280.95 Z" id="coelement" fill="#FFFFFF"></path>
                    <path d="M104.67,106.215 C105.930006,107.665007 106.56,109.679987 106.56,112.26 C106.56,112.660002 106.55,112.959999 106.53,113.16 L93.99,113.16 C94.2100011,114.580007 94.8049952,115.709996 95.775,116.55 C96.7450049,117.390004 97.9399929,117.81 99.36,117.81 C100.300005,117.81 101.174996,117.640002 101.985,117.3 C102.795004,116.959998 103.499997,116.480003 104.1,115.86 L105.63,117.45 C104.849996,118.290004 103.910006,118.939998 102.81,119.4 C101.709995,119.860002 100.490007,120.09 99.15,120.09 C97.5899922,120.09 96.2050061,119.755003 94.995,119.085 C93.784994,118.414997 92.8450034,117.470006 92.175,116.25 C91.5049967,115.029994 91.17,113.640008 91.17,112.08 C91.17,110.519992 91.5049967,109.135006 92.175,107.925 C92.8450034,106.714994 93.779994,105.765003 94.98,105.075 C96.180006,104.384997 97.5499923,104.04 99.09,104.04 C101.550012,104.04 103.409994,104.764993 104.67,106.215 Z M104.04,111 C103.96,109.559993 103.480004,108.425004 102.6,107.595 C101.719996,106.764996 100.560007,106.35 99.12,106.35 C97.719993,106.35 96.5550047,106.769996 95.625,107.61 C94.6949954,108.450004 94.1400009,109.579993 93.96,111 L104.04,111 Z M110.52,97.74 L113.31,97.74 L113.31,120 L110.52,120 L110.52,97.74 Z M130.86,106.215 C132.120006,107.665007 132.75,109.679987 132.75,112.26 C132.75,112.660002 132.74,112.959999 132.72,113.16 L120.18,113.16 C120.400001,114.580007 120.994995,115.709996 121.965,116.55 C122.935005,117.390004 124.129993,117.81 125.55,117.81 C126.490005,117.81 127.364996,117.640002 128.175,117.3 C128.985004,116.959998 129.689997,116.480003 130.29,115.86 L131.82,117.45 C131.039996,118.290004 130.100006,118.939998 129,119.4 C127.899995,119.860002 126.680007,120.09 125.34,120.09 C123.779992,120.09 122.395006,119.755003 121.185,119.085 C119.974994,118.414997 119.035003,117.470006 118.365,116.25 C117.694997,115.029994 117.36,113.640008 117.36,112.08 C117.36,110.519992 117.694997,109.135006 118.365,107.925 C119.035003,106.714994 119.969994,105.765003 121.17,105.075 C122.370006,104.384997 123.739992,104.04 125.28,104.04 C127.740012,104.04 129.599994,104.764993 130.86,106.215 Z M130.23,111 C130.15,109.559993 129.670004,108.425004 128.79,107.595 C127.909996,106.764996 126.750007,106.35 125.31,106.35 C123.909993,106.35 122.745005,106.769996 121.815,107.61 C120.884995,108.450004 120.330001,109.579993 120.15,111 L130.23,111 Z M161.34,105.69 C162.380005,106.790006 162.9,108.289991 162.9,110.19 L162.9,120 L160.08,120 L160.08,110.94 C160.08,109.599993 159.715004,108.550004 158.985,107.79 C158.254996,107.029996 157.250006,106.65 155.97,106.65 C154.469993,106.69 153.290004,107.219995 152.43,108.24 C151.569996,109.260005 151.14,110.569992 151.14,112.17 L151.14,120 L148.32,120 L148.32,110.94 C148.32,109.599993 147.960004,108.550004 147.24,107.79 C146.519996,107.029996 145.510007,106.65 144.21,106.65 C142.709993,106.69 141.525004,107.219995 140.655,108.24 C139.784996,109.260005 139.35,110.569992 139.35,112.17 L139.35,120 L136.56,120 L136.56,104.13 L139.35,104.13 L139.35,107.46 C140.390005,105.219989 142.359986,104.08 145.26,104.04 C146.720007,104.04 147.934995,104.389996 148.905,105.09 C149.875005,105.790003 150.529998,106.769994 150.87,108.03 C151.850005,105.409987 153.909984,104.08 157.05,104.04 C158.870009,104.04 160.299995,104.589995 161.34,105.69 Z M179.82,106.215 C181.080006,107.665007 181.71,109.679987 181.71,112.26 C181.71,112.660002 181.7,112.959999 181.68,113.16 L169.14,113.16 C169.360001,114.580007 169.954995,115.709996 170.925,116.55 C171.895005,117.390004 173.089993,117.81 174.51,117.81 C175.450005,117.81 176.324996,117.640002 177.135,117.3 C177.945004,116.959998 178.649997,116.480003 179.25,115.86 L180.78,117.45 C179.999996,118.290004 179.060006,118.939998 177.96,119.4 C176.859995,119.860002 175.640007,120.09 174.3,120.09 C172.739992,120.09 171.355006,119.755003 170.145,119.085 C168.934994,118.414997 167.995003,117.470006 167.325,116.25 C166.654997,115.029994 166.32,113.640008 166.32,112.08 C166.32,110.519992 166.654997,109.135006 167.325,107.925 C167.995003,106.714994 168.929994,105.765003 170.13,105.075 C171.330006,104.384997 172.699992,104.04 174.24,104.04 C176.700012,104.04 178.559994,104.764993 179.82,106.215 Z M179.19,111 C179.11,109.559993 178.630004,108.425004 177.75,107.595 C176.869996,106.764996 175.710007,106.35 174.27,106.35 C172.869993,106.35 171.705005,106.769996 170.775,107.61 C169.844995,108.450004 169.290001,109.579993 169.11,111 L179.19,111 Z M198.72,105.675 C199.780005,106.765005 200.31,108.26999 200.31,110.19 L200.31,120 L197.52,120 L197.52,110.94 C197.52,109.599993 197.145004,108.555004 196.395,107.805 C195.644996,107.054996 194.610007,106.68 193.29,106.68 C191.869993,106.7 190.715004,107.154996 189.825,108.045 C188.934996,108.935004 188.430001,110.089993 188.31,111.51 L188.31,120 L185.52,120 L185.52,104.13 L188.31,104.13 L188.31,107.49 C189.370005,105.229989 191.379985,104.08 194.34,104.04 C196.200009,104.04 197.659995,104.584995 198.72,105.675 Z M213.81,118.95 C212.589994,119.730004 211.350006,120.12 210.09,120.12 C208.829994,120.12 207.810004,119.745004 207.03,118.995 C206.249996,118.244996 205.86,117.110008 205.86,115.59 L205.86,106.8 L203.61,106.8 L203.61,104.67 L205.86,104.67 L205.86,100.41 L208.68,100.41 L208.68,104.67 L213.54,104.67 L213.54,106.8 L208.68,106.8 L208.68,115.08 C208.68,115.960004 208.839998,116.589998 209.16,116.97 C209.480002,117.350002 209.959997,117.54 210.6,117.54 C211.360004,117.54 212.179996,117.290002 213.06,116.79 L213.81,118.95 Z" id="element" fill="#050923"></path>
                    <path d="M101.196,523.836 C99.9479938,523.836 98.8380049,524.111997 97.866,524.664 C96.8939951,525.216003 96.1320028,525.995995 95.58,527.004 C95.0279972,528.012005 94.752,529.175993 94.752,530.496 C94.752,531.816007 95.0219973,532.979995 95.562,533.988 C96.1020027,534.996005 96.8459953,535.781997 97.794,536.346 C98.7420047,536.910003 99.8279939,537.192 101.052,537.192 C102.276006,537.192 103.379995,536.988002 104.364,536.58 C105.348005,536.171998 106.163997,535.584004 106.812,534.816 L108.72,536.76 C107.855996,537.840005 106.758007,538.667997 105.426,539.244 C104.093993,539.820003 102.588008,540.108 100.908,540.108 C99.0599908,540.108 97.4160072,539.700004 95.976,538.884 C94.5359928,538.067996 93.414004,536.934007 92.61,535.482 C91.805996,534.029993 91.404,532.368009 91.404,530.496 C91.404,528.623991 91.805996,526.956007 92.61,525.492 C93.414004,524.027993 94.5359928,522.888004 95.976,522.072 C97.4160072,521.255996 99.0599908,520.848 100.908,520.848 C102.516008,520.848 103.961994,521.093998 105.246,521.586 C106.530006,522.078002 107.603996,522.791995 108.468,523.728 L106.632,526.032 C105.119992,524.567993 103.308011,523.836 101.196,523.836 Z M125.658,522.072 C127.134007,522.888004 128.285996,524.021993 129.114,525.474 C129.942004,526.926007 130.356,528.587991 130.356,530.46 C130.356,532.332009 129.942004,533.999993 129.114,535.464 C128.285996,536.928007 127.134007,538.067996 125.658,538.884 C124.181993,539.700004 122.496009,540.108 120.6,540.108 C118.67999,540.108 116.982007,539.700004 115.506,538.884 C114.029993,538.067996 112.878004,536.934007 112.05,535.482 C111.221996,534.029993 110.808,532.356009 110.808,530.46 C110.808,528.587991 111.221996,526.926007 112.05,525.474 C112.878004,524.021993 114.029993,522.888004 115.506,522.072 C116.982007,521.255996 118.67999,520.848 120.6,520.848 C122.496009,520.848 124.181993,521.255996 125.658,522.072 Z M117.27,524.628 C116.297995,525.204003 115.542003,526.001995 115.002,527.022 C114.461997,528.042005 114.192,529.199994 114.192,530.496 C114.192,531.816007 114.461997,532.991995 115.002,534.024 C115.542003,535.056005 116.297995,535.853997 117.27,536.418 C118.242005,536.982003 119.351994,537.264 120.6,537.264 C121.824006,537.264 122.921995,536.982003 123.894,536.418 C124.866005,535.853997 125.621997,535.056005 126.162,534.024 C126.702003,532.991995 126.972,531.816007 126.972,530.496 C126.972,529.199994 126.702003,528.042005 126.162,527.022 C125.621997,526.001995 124.866005,525.204003 123.894,524.628 C122.921995,524.051997 121.824006,523.764 120.6,523.764 C119.351994,523.764 118.242005,524.051997 117.27,524.628 Z M164.772,522.828 C166.020006,524.148007 166.644,525.947989 166.644,528.228 L166.644,540 L163.26,540 L163.26,529.128 C163.26,527.519992 162.822004,526.260005 161.946,525.348 C161.069996,524.435995 159.864008,523.98 158.328,523.98 C156.527991,524.028 155.112005,524.663994 154.08,525.888 C153.047995,527.112006 152.532,528.68399 152.532,530.604 L152.532,540 L149.148,540 L149.148,529.128 C149.148,527.519992 148.716004,526.260005 147.852,525.348 C146.987996,524.435995 145.776008,523.98 144.216,523.98 C142.415991,524.028 140.994005,524.663994 139.95,525.888 C138.905995,527.112006 138.384,528.68399 138.384,530.604 L138.384,540 L135.036,540 L135.036,520.956 L138.384,520.956 L138.384,524.952 C139.632006,522.263987 141.995983,520.896 145.476,520.848 C147.228009,520.848 148.685994,521.267996 149.85,522.108 C151.014006,522.948004 151.799998,524.123992 152.208,525.636 C153.384006,522.491984 155.855981,520.896 159.624,520.848 C161.808011,520.848 163.523994,521.507993 164.772,522.828 Z M187.956,522.072 C189.348007,522.888004 190.427996,524.027993 191.196,525.492 C191.964004,526.956007 192.348,528.635991 192.348,530.532 C192.348,532.404009 191.970004,534.065993 191.214,535.518 C190.457996,536.970007 189.390007,538.097996 188.01,538.902 C186.629993,539.706004 185.052009,540.108 183.276,540.108 C181.667992,540.108 180.252006,539.772003 179.028,539.1 C177.803994,538.427997 176.844003,537.468006 176.148,536.22 L176.148,546.984 L172.8,546.984 L172.8,520.956 L176.148,520.956 L176.148,524.736 C176.844003,523.487994 177.797994,522.528003 179.01,521.856 C180.222006,521.183997 181.619992,520.848 183.204,520.848 C184.980009,520.848 186.563993,521.255996 187.956,522.072 Z M185.85,536.328 C186.822005,535.751997 187.577997,534.948005 188.118,533.916 C188.658003,532.883995 188.928,531.720006 188.928,530.424 C188.928,529.151994 188.652003,528.000005 188.1,526.968 C187.547997,525.935995 186.792005,525.132003 185.832,524.556 C184.871995,523.979997 183.780006,523.692 182.556,523.692 C181.331994,523.692 180.234005,523.979997 179.262,524.556 C178.289995,525.132003 177.528003,525.935995 176.976,526.968 C176.423997,528.000005 176.148,529.151994 176.148,530.424 C176.148,531.744007 176.423997,532.913995 176.976,533.934 C177.528003,534.954005 178.289995,535.751997 179.262,536.328 C180.234005,536.904003 181.331994,537.192 182.556,537.192 C183.780006,537.192 184.877995,536.904003 185.85,536.328 Z M210.006,522.072 C211.482007,522.888004 212.633996,524.021993 213.462,525.474 C214.290004,526.926007 214.704,528.587991 214.704,530.46 C214.704,532.332009 214.290004,533.999993 213.462,535.464 C212.633996,536.928007 211.482007,538.067996 210.006,538.884 C208.529993,539.700004 206.844009,540.108 204.948,540.108 C203.02799,540.108 201.330007,539.700004 199.854,538.884 C198.377993,538.067996 197.226004,536.934007 196.398,535.482 C195.569996,534.029993 195.156,532.356009 195.156,530.46 C195.156,528.587991 195.569996,526.926007 196.398,525.474 C197.226004,524.021993 198.377993,522.888004 199.854,522.072 C201.330007,521.255996 203.02799,520.848 204.948,520.848 C206.844009,520.848 208.529993,521.255996 210.006,522.072 Z M201.618,524.628 C200.645995,525.204003 199.890003,526.001995 199.35,527.022 C198.809997,528.042005 198.54,529.199994 198.54,530.496 C198.54,531.816007 198.809997,532.991995 199.35,534.024 C199.890003,535.056005 200.645995,535.853997 201.618,536.418 C202.590005,536.982003 203.699994,537.264 204.948,537.264 C206.172006,537.264 207.269995,536.982003 208.242,536.418 C209.214005,535.853997 209.969997,535.056005 210.51,534.024 C211.050003,532.991995 211.32,531.816007 211.32,530.496 C211.32,529.199994 211.050003,528.042005 210.51,527.022 C209.969997,526.001995 209.214005,525.204003 208.242,524.628 C207.269995,524.051997 206.172006,523.764 204.948,523.764 C203.699994,523.764 202.590005,524.051997 201.618,524.628 Z M235.224,522.81 C236.496006,524.118007 237.132,525.923988 237.132,528.228 L237.132,540 L233.784,540 L233.784,529.128 C233.784,527.519992 233.334004,526.266005 232.434,525.366 C231.533996,524.465995 230.292008,524.016 228.708,524.016 C227.003991,524.04 225.618005,524.585995 224.55,525.654 C223.481995,526.722005 222.876001,528.107991 222.732,529.812 L222.732,540 L219.384,540 L219.384,520.956 L222.732,520.956 L222.732,524.988 C224.004006,522.275986 226.415982,520.896 229.968,520.848 C232.200011,520.848 233.951994,521.501993 235.224,522.81 Z M257.436,523.458 C258.948008,525.198009 259.704,527.615985 259.704,530.712 C259.704,531.192002 259.692,531.551999 259.668,531.792 L244.62,531.792 C244.884001,533.496009 245.597994,534.851995 246.762,535.86 C247.926006,536.868005 249.359991,537.372 251.064,537.372 C252.192006,537.372 253.241995,537.168002 254.214,536.76 C255.186005,536.351998 256.031996,535.776004 256.752,535.032 L258.588,536.94 C257.651995,537.948005 256.524007,538.727997 255.204,539.28 C253.883993,539.832003 252.420008,540.108 250.812,540.108 C248.939991,540.108 247.278007,539.706004 245.826,538.902 C244.373993,538.097996 243.246004,536.964007 242.442,535.5 C241.637996,534.035993 241.236,532.368009 241.236,530.496 C241.236,528.623991 241.637996,526.962007 242.442,525.51 C243.246004,524.057993 244.367993,522.918004 245.808,522.09 C247.248007,521.261996 248.891991,520.848 250.74,520.848 C253.692015,520.848 255.923992,521.717991 257.436,523.458 Z M256.68,529.2 C256.584,527.471991 256.008005,526.110005 254.952,525.114 C253.895995,524.117995 252.504009,523.62 250.776,523.62 C249.095992,523.62 247.698006,524.123995 246.582,525.132 C245.465994,526.140005 244.800001,527.495991 244.584,529.2 L256.68,529.2 Z M280.116,522.81 C281.388006,524.118007 282.024,525.923988 282.024,528.228 L282.024,540 L278.676,540 L278.676,529.128 C278.676,527.519992 278.226004,526.266005 277.326,525.366 C276.425995,524.465995 275.184008,524.016 273.6,524.016 C271.895991,524.04 270.510005,524.585995 269.442,525.654 C268.373995,526.722005 267.768001,528.107991 267.624,529.812 L267.624,540 L264.276,540 L264.276,520.956 L267.624,520.956 L267.624,524.988 C268.896006,522.275986 271.307982,520.896 274.86,520.848 C277.092011,520.848 278.843994,521.501993 280.116,522.81 Z M298.224,538.74 C296.759993,539.676005 295.272008,540.144 293.76,540.144 C292.247992,540.144 291.024005,539.694005 290.088,538.794 C289.151995,537.893995 288.684,536.532009 288.684,534.708 L288.684,524.16 L285.984,524.16 L285.984,521.604 L288.684,521.604 L288.684,516.492 L292.068,516.492 L292.068,521.604 L297.9,521.604 L297.9,524.16 L292.068,524.16 L292.068,534.096 C292.068,535.152005 292.259998,535.907998 292.644,536.364 C293.028002,536.820002 293.603996,537.048 294.372,537.048 C295.284005,537.048 296.267995,536.748003 297.324,536.148 L298.224,538.74 Z" id="component" fill="#050923"></path>
                    <polyline id="Path-2" stroke="#050923" stroke-width="3" points="43 401.551326 43 438.390625 336.364281 438.390625 336.364281 406.404577"></polyline>
                    <path d="M170,438 L170,488.390625" id="Path-3" stroke="#050923" stroke-width="3"></path>
                </g>
            </g>
        </g>
    </g>
</svg>