<?xml version="1.0" encoding="UTF-8"?>
<svg width="297px" height="72px" viewBox="0 0 297 72" version="1.1" xmlns="http://www.w3.org/2000/svg" xmlns:xlink="http://www.w3.org/1999/xlink">
    <!-- Generator: Sketch 41.2 (35397) - http://www.bohemiancoding.com/sketch -->
    <title>capsid</title>
    <desc>Created with Sketch.</desc>
    <defs>
        <linearGradient x1="50%" y1="0%" x2="50%" y2="100%" id="linearGradient-1">
            <stop stop-color="#0C1548" offset="0%"></stop>
            <stop stop-color="#050923" offset="100%"></stop>
        </linearGradient>
    </defs>
    <g id="Page-1" stroke="none" stroke-width="1" fill="none" fill-rule="evenodd">
        <g id="logo-for-export" transform="translate(-644.000000, -306.000000)">
            <g id="capsid" transform="translate(644.000000, 306.000000)">
                <ellipse id="Oval" fill="url(#linearGradient-1)" cx="35" cy="35" rx="35" ry="35"></ellipse>
                <path d="M108.776,65.08 C118.856,65.08 127.064,58.888 127.064,48.232 C127.064,47.512 126.488,41.752 125.48,41.752 C124.832,41.752 123.824,52.264 112.088,52.264 C105.824,52.264 96.464,46.72 96.464,32.968 C96.464,23.968 100.928,13.24 111.44,13.24 C120.584,13.24 116.624,20.008 119.576,20.008 C124.112,20.008 126.992,17.632 126.992,13.456 C126.992,5.68 117.344,3.016 111.08,3.016 C93.584,3.016 84.8,20.08 84.8,35.704 C84.8,50.248 92.432,65.08 108.776,65.08 Z M153.272,49.816 C153.272,53.344 153.128,55.504 148.88,55.504 C145.064,55.504 141.536,53.128 141.536,49.096 C141.536,44.704 146,41.104 150.248,41.104 C153.704,41.104 153.272,44.128 153.272,46.648 L153.272,49.816 Z M131.816,50.752 C131.816,55.072 133.04,64 150.392,64 C156.8,64 163.568,63.856 163.568,62.344 C163.568,59.896 162.992,58.024 162.992,54.856 C162.992,52.336 162.848,31.024 161.336,26.848 C157.664,16.768 147.8,16.84 145.496,16.84 C138.872,16.84 132.896,20.296 132.896,25.624 C132.896,28.72 135.416,31.528 137.72,31.528 C139.304,31.528 138.224,25.336 145.568,25.336 C148.736,25.336 152.552,27.28 152.552,30.952 C152.552,33.328 150.896,33.688 148.808,34.048 C140.744,35.416 131.816,41.68 131.816,50.752 Z M183.224,45.352 C179.984,45.352 179.912,42.472 179.912,39.952 C179.912,25.624 182.648,25.336 186.464,25.336 C191,25.336 194.816,28.576 194.816,33.256 C194.816,39.232 189.632,45.352 183.224,45.352 Z M179.336,64 C180.128,64 181.64,64.144 181.64,62.992 C181.64,62.2 180.272,56.44 180.272,51.4 C180.272,50.104 180.056,48.808 180.776,48.808 C181.28,48.808 182.216,50.176 183.368,51.472 C184.52,52.84 185.888,54.568 187.184,54.568 C192.728,54.568 203.744,43.264 203.744,32.032 C203.744,24.4 199.712,16.84 183.584,16.84 C171.344,16.84 170.192,15.76 170.192,31.096 L170.192,52.264 C170.192,64.648 171.448176,65.0375977 173.680176,65.0375977 C173.680176,65.0375977 176.28733,71.834748 177.265625,71.6552734 C178.172605,71.4888821 179.336,64 179.336,64 Z M222.68,65.08 C231.32,65.08 239.096,59.752 239.096,50.392 C239.096,35.776 218.072,35.92 218.072,28.504 C218.072,26.344 221.096,25.336 223.328,25.336 C229.952,25.336 230.384,30.88 232.256,30.88 C233.912,30.88 237.944,25.048 237.944,23.68 C237.944,22.24 232.976,16.84 223.976,16.84 C216.2,16.84 209.144,21.592 209.144,30.376 C209.144,44.704 228.584,42.76 228.584,50.176 C228.584,53.848 225.128,55.36 222.176,55.36 C211.952,55.36 210.152,44.488 209.792,44.488 C209.216,44.488 207.488,48.808 207.488,52.192 C207.488,60.616 215.048,65.08 222.68,65.08 Z M253.928,64 C255.584,64 257.744,64.432 257.744,62.128 C257.744,61.48 254.936,50.32 254.936,32.176 C254.936,24.328 255.8,21.664 255.8,19 C255.8,18.136 255.728,17.92 252.704,17.92 L248.744,17.92 C246.368,17.92 245.216,15.544 245.216,40.168 C245.216,65.512 245.504,64 249.032,64 L253.928,64 Z M251.552,12.304 C254.432,12.304 257.096,10.648 257.096,7.552 C257.096,4.456 254.432,2.584 251.552,2.584 C248.672,2.584 246.008,4.456 246.008,7.552 C246.008,10.648 248.672,12.304 251.552,12.304 Z M280.28,53.488 C274.16,53.488 272.288,45.784 272.288,40.816 C272.288,27.712 279.344,23.68 282.44,23.68 C285.104,23.68 287.048,24.544 287.048,37.216 C287.048,42.4 288.056,53.488 280.28,53.488 Z M294.536,64 C297.056,64 296.768,39.88 296.768,38.224 C296.768,34.84 297.056,2.584 293.816,2.584 L286.328,2.584 C285.608,2.584 283.808,2.584 283.808,3.592 C283.808,6.328 285.608,8.92 285.608,14.752 C285.608,15.904 285.392,18.496 283.952,18.496 C282.944,18.496 281.36,16.84 279.848,16.84 C273.512,16.84 262.568,25.84 262.568,42.328 C262.568,56.872 269.624,64 277.688,64 L294.536,64 Z" id="Capsid" fill="url(#linearGradient-1)"></path>
                <path d="M36.0417867,58.3094416 L36.0417867,58.4337445 C24.357056,58.4002022 14.8951191,48.917563 14.8951191,37.22497 C14.8951191,25.5822257 24.2765504,16.130632 35.892463,16.0171392 L35.8924642,16.0171392 C35.9421562,16.0164514 35.9919312,16.0161063 36.0417867,16.0161063 C41.8812777,16.0161063 46.6151205,20.7499491 46.6151205,26.5894401 C46.6151205,32.4289311 41.8812777,37.1627739 36.0417867,37.1627739 C30.2022957,37.1627739 25.4684529,41.8966167 25.4684529,47.7361077 C25.4684529,53.5755988 30.2022957,58.3094416 36.0417867,58.3094416 L36.0417867,58.3094416 Z" id="Combined-Shape" fill="#FFFFFF" transform="translate(30.755120, 37.224925) scale(1, -1) rotate(30.000000) translate(-30.755120, -37.224925) "></path>
            </g>
        </g>
    </g>
</svg>