<?xml version="1.0" encoding="UTF-8"?>
<svg width="252px" height="70px" viewBox="0 0 252 70" version="1.1" xmlns="http://www.w3.org/2000/svg" xmlns:xlink="http://www.w3.org/1999/xlink">
    <!-- Generator: Sketch 41.2 (35397) - http://www.bohemiancoding.com/sketch -->
    <title>Group</title>
    <desc>Created with Sketch.</desc>
    <defs></defs>
    <g id="Page-1" stroke="none" stroke-width="1" fill="none" fill-rule="evenodd">
        <g id="logo-for-export" transform="translate(-575.000000, -618.000000)">
            <g id="Group" transform="translate(575.000000, 618.000000)">
                <g id="jade" transform="translate(35.000000, 35.000000) scale(1, -1) translate(-35.000000, -35.000000) ">
                    <ellipse id="Oval" fill="#050923" cx="35" cy="35" rx="35" ry="35"></ellipse>
                    <path d="M36.0417867,53.8595908 L36.0417867,53.9838937 C24.357056,53.9503514 14.8951191,44.4677122 14.8951191,32.7751192 C14.8951191,21.1323749 24.2765504,11.6807813 35.892463,11.5672885 L35.8924642,11.5672885 C35.9421562,11.5666006 35.9919312,11.5662555 36.0417867,11.5662555 C41.8812777,11.5662555 46.6151205,16.3000983 46.6151205,22.1395894 C46.6151205,27.9790804 41.8812777,32.7129232 36.0417867,32.7129232 C30.2022957,32.7129232 25.4684529,37.446766 25.4684529,43.286257 C25.4684529,49.125748 30.2022957,53.8595908 36.0417867,53.8595908 L36.0417867,53.8595908 Z" id="Combined-Shape" fill="#FFFFFF" transform="translate(30.755120, 32.775075) rotate(30.000000) translate(-30.755120, -32.775075) "></path>
                </g>
                <path d="M108.536,45.376 C112.216018,45.376 115.223988,43.9200146 117.56,41.008 L122.36,45.952 C118.551981,50.2400214 114.064026,52.384 108.896,52.384 C103.727974,52.384 99.4720167,50.7520163 96.128,47.488 C92.7839833,44.2239837 91.112,40.1040249 91.112,35.128 C91.112,30.1519751 92.815983,26.0000166 96.224,22.672 C99.632017,19.3439834 103.799975,17.68 108.728,17.68 C114.232028,17.68 118.839981,19.775979 122.552,23.968 L117.896,29.248 C115.527988,26.3039853 112.584018,24.832 109.064,24.832 C106.247986,24.832 103.84001,25.7519908 101.84,27.592 C99.83999,29.4320092 98.84,31.9119844 98.84,35.032 C98.84,38.1520156 99.7839906,40.6559906 101.672,42.544 C103.560009,44.4320094 105.847987,45.376 108.536,45.376 Z M149.192,52 L142.424,52 L142.424,48.88 C140.567991,51.2160117 138.272014,52.384 135.536,52.384 C132.799986,52.384 130.504009,51.5920079 128.648,50.008 C126.791991,48.4239921 125.864,46.3120132 125.864,43.672 C125.864,41.0319868 126.82399,39.0560066 128.744,37.744 C130.66401,36.4319934 133.287983,35.776 136.616,35.776 L141.992,35.776 L141.992,35.632 C141.992,32.8799862 140.536015,31.504 137.624,31.504 C136.375994,31.504 135.056007,31.7519975 133.664,32.248 C132.271993,32.7440025 131.096005,33.3599963 130.136,34.096 L126.92,29.44 C130.312017,26.9759877 134.183978,25.744 138.536,25.744 C141.672016,25.744 144.23199,26.5279922 146.216,28.096 C148.20001,29.6640078 149.192,32.143983 149.192,35.536 L149.192,52 Z M141.944,42.16 L141.944,40.912 L137.432,40.912 C134.551986,40.912 133.112,41.807991 133.112,43.6 C133.112,44.5280046 133.455997,45.2399975 134.144,45.736 C134.832003,46.2320025 135.815994,46.48 137.096,46.48 C138.376006,46.48 139.503995,46.0880039 140.48,45.304 C141.456005,44.5199961 141.944,43.4720066 141.944,42.16 Z M178.832,29.512 C181.184012,32.0240126 182.36,35.183981 182.36,38.992 C182.36,42.800019 181.184012,45.9839872 178.832,48.544 C176.479988,51.1040128 173.728016,52.384 170.576,52.384 C167.423984,52.384 164.88801,51.1200126 162.968,48.592 L162.968,61.312 L155.768,61.312 L155.768,26.176 L162.968,26.176 L162.968,29.056 C165.176011,26.847989 167.783985,25.744 170.792,25.744 C173.800015,25.744 176.479988,26.9999874 178.832,29.512 Z M164.624,44.248 C165.792006,45.5760066 167.207992,46.24 168.872,46.24 C170.536008,46.24 171.991994,45.5760066 173.24,44.248 C174.488006,42.9199934 175.112,41.2160104 175.112,39.136 C175.112,37.0559896 174.504006,35.312007 173.288,33.904 C172.071994,32.495993 170.616008,31.792 168.92,31.792 C167.223992,31.792 165.792006,32.487993 164.624,33.88 C163.455994,35.272007 162.872,37.0159895 162.872,39.112 C162.872,41.2080105 163.455994,42.9199934 164.624,44.248 Z M204.128,50.08 C202.255991,51.6160077 199.880014,52.384 197,52.384 C195.07999,52.384 193.08001,52.0400034 191,51.352 C188.91999,50.6639966 187.048008,49.6480067 185.384,48.304 L188.552,43.792 C191.240013,45.8720104 194.103985,46.912 197.144,46.912 C198.072005,46.912 198.807997,46.7280018 199.352,46.36 C199.896003,45.9919982 200.168,45.504003 200.168,44.896 C200.168,44.287997 199.792004,43.7280026 199.04,43.216 C198.287996,42.7039974 197.200007,42.2240022 195.776,41.776 C194.351993,41.3279978 193.264004,40.9440016 192.512,40.624 C191.759996,40.3039984 190.904005,39.840003 189.944,39.232 C187.99199,38.0159939 187.016,36.2160119 187.016,33.832 C187.016,31.4479881 187.97599,29.5040075 189.896,28 C191.81601,26.4959925 194.295985,25.744 197.336,25.744 C200.376015,25.744 203.415985,26.7679898 206.456,28.816 L203.768,33.616 C201.527989,32.0799923 199.296011,31.312 197.072,31.312 C194.847989,31.312 193.736,31.9199939 193.736,33.136 C193.736,33.8080034 194.087996,34.3359981 194.792,34.72 C195.496004,35.1040019 196.663992,35.5519974 198.296,36.064 C199.928008,36.5760026 201.087997,36.9679986 201.776,37.24 C202.464003,37.5120014 203.287995,37.9359971 204.248,38.512 C206.040009,39.6000054 206.936,41.4159873 206.936,43.96 C206.936,46.5040127 206.000009,48.5439923 204.128,50.08 Z M219.656,52 L212.456,52 L212.456,26.176 L219.656,26.176 L219.656,52 Z M211.832,19.888 C211.832,18.7039941 212.239996,17.7040041 213.056,16.888 C213.872004,16.0719959 214.871994,15.664 216.056,15.664 C217.240006,15.664 218.239996,16.0719959 219.056,16.888 C219.872004,17.7040041 220.28,18.7039941 220.28,19.888 C220.28,21.0720059 219.872004,22.0719959 219.056,22.888 C218.239996,23.7040041 217.240006,24.112 216.056,24.112 C214.871994,24.112 213.872004,23.7040041 213.056,22.888 C212.239996,22.0719959 211.832,21.0720059 211.832,19.888 Z M228.632,48.496 C226.231988,45.903987 225.032,42.6880192 225.032,38.848 C225.032,35.0079808 226.199988,31.8640122 228.536,29.416 C230.872012,26.9679878 233.607984,25.744 236.744,25.744 C239.880016,25.744 242.43999,26.847989 244.424,29.056 L244.424,16.384 L251.624,16.384 L251.624,52 L244.424,52 L244.424,48.592 C242.40799,51.1200126 239.872015,52.384 236.816,52.384 C233.759985,52.384 231.032012,51.088013 228.632,48.496 Z M234.152,44.248 C235.400006,45.5760066 236.855992,46.24 238.52,46.24 C240.184008,46.24 241.599994,45.5760066 242.768,44.248 C243.936006,42.9199934 244.52,41.2080105 244.52,39.112 C244.52,37.0159895 243.936006,35.272007 242.768,33.88 C241.599994,32.487993 240.168008,31.792 238.472,31.792 C236.775992,31.792 235.320006,32.495993 234.104,33.904 C232.887994,35.312007 232.28,37.0559896 232.28,39.136 C232.28,41.2160104 232.903994,42.9199934 234.152,44.248 Z" id="Capsid" fill="#050923"></path>
            </g>
        </g>
    </g>
</svg>