<?xml version="1.0" encoding="UTF-8" standalone="no"?>
<svg width="129px" height="51px" viewBox="0 0 129 51" version="1.1" xmlns="http://www.w3.org/2000/svg" xmlns:xlink="http://www.w3.org/1999/xlink" xmlns:sketch="http://www.bohemiancoding.com/sketch/ns">
    <!-- Generator: Sketch 3.3.3 (12072) - http://www.bohemiancoding.com/sketch -->
    <title>class-component</title>
    <desc>Created with Sketch.</desc>
    <defs></defs>
    <g id="Page-1" stroke="none" stroke-width="1" fill="none" fill-rule="evenodd" sketch:type="MSPage">
        <g id="Artboard-1" sketch:type="MSArtboardGroup" transform="translate(-69.000000, -80.000000)" fill="#9A29C1">
            <g id="class-component" sketch:type="MSLayerGroup" transform="translate(69.000000, 80.000000)">
                <path d="M29.104,5.984 C27.952,5.984 26.992,6.624 26.224,6.624 C25.84,6.624 22.64,5.792 21.808,5.664 C20.656,5.408 20.976,4.128 20.976,3.232 C20.976,-0.032 20.272,0.416 17.264,0.416 C14.128,0.416 13.936,0.288 13.936,3.488 C13.936,5.216 14.128,5.408 12.464,5.728 C6.384,6.944 1.2,12.064 1.2,18.464 C1.2,25.376 7.28,29.408 13.104,31.456 C20.016,33.952 20.592,34.336 20.592,36.256 C20.592,38.368 17.328,39.008 15.92,39.008 C6,39.008 6.896,30.048 2.48,30.048 C0.816,30.048 0.176,31.584 0.176,33.056 C0.176,35.616 1.456,41.312 3.696,42.976 C5.552,44.32 10.544,45.408 12.976,45.728 C14.256,45.856 13.936,47.072 13.936,48.096 C13.936,51.36 14.704,50.912 17.648,50.912 C20.784,50.912 20.976,50.976 20.976,47.84 C20.976,46.304 20.784,45.792 22.32,45.664 C26.992,45.28 36.08,40.8 36.08,32.416 C36.08,17.696 16.56,21.344 16.56,15.2 C16.56,13.152 18.16,12.256 20.016,12.256 C25.904,12.256 28.4,18.72 31.856,18.72 C34.032,18.72 35.248,16.992 35.248,14.88 C35.248,10.912 31.472,5.984 29.104,5.984 L29.104,5.984 Z" id="dollar" sketch:type="MSShapeGroup"></path>
                <path d="M56.112,37.152 C56.112,32.864 52.656,29.408 48.368,29.408 C44.08,29.408 40.624,32.864 40.624,37.152 C40.624,41.44 44.08,44.896 48.368,44.896 C52.656,44.896 56.112,41.44 56.112,37.152 L56.112,37.152 Z" id="Path" sketch:type="MSShapeGroup"></path>
                <path d="M59.568,28 C59.568,37.792 67.376,44.896 77.04,44.896 C86,44.896 91.76,40.032 91.76,36.256 C91.76,34.72 90.608,32.8 88.88,32.8 C87.536,32.8 86.192,34.464 82.16,34.464 C77.104,34.464 73.584,29.664 73.584,24.928 C73.584,22.368 75.12,19.488 77.936,19.488 C82.992,19.488 79.792,27.424 86.704,27.424 C90.288,27.424 92.976,24.672 92.976,21.088 C92.976,16.608 87.92,11.296 78.32,11.296 C67.568,11.296 59.568,18.784 59.568,28 L59.568,28 Z" id="Path" sketch:type="MSShapeGroup"></path>
                <path d="M94.96,28 C94.96,37.792 102.768,44.896 112.432,44.896 C121.392,44.896 127.152,40.032 127.152,36.256 C127.152,34.72 126,32.8 124.272,32.8 C122.928,32.8 121.584,34.464 117.552,34.464 C112.496,34.464 108.976,29.664 108.976,24.928 C108.976,22.368 110.512,19.488 113.328,19.488 C118.384,19.488 115.184,27.424 122.096,27.424 C125.68,27.424 128.368,24.672 128.368,21.088 C128.368,16.608 123.312,11.296 113.712,11.296 C102.96,11.296 94.96,18.784 94.96,28 L94.96,28 Z" id="Path" sketch:type="MSShapeGroup"></path>
            </g>
        </g>
    </g>
</svg>