<?xml version="1.0" encoding="UTF-8"?>
<svg width="372px" height="70px" viewBox="0 0 372 70" version="1.1" xmlns="http://www.w3.org/2000/svg" xmlns:xlink="http://www.w3.org/1999/xlink">
    <!-- Generator: Sketch 41.2 (35397) - http://www.bohemiancoding.com/sketch -->
    <title>classclamp</title>
    <desc>Created with Sketch.</desc>
    <defs></defs>
    <g id="Page-1" stroke="none" stroke-width="1" fill="none" fill-rule="evenodd">
        <g id="logo-for-export" transform="translate(-204.000000, -132.000000)">
            <g id="classclamp" transform="translate(204.000000, 132.000000)">
                <ellipse id="Oval" fill="#050923" transform="translate(35.000000, 35.000000) scale(1, -1) translate(-35.000000, -35.000000) " cx="35" cy="35" rx="35" ry="35"></ellipse>
                <path d="M36.0417867,58.3094416 L36.0417867,58.4337445 C24.357056,58.4002022 14.8951191,48.917563 14.8951191,37.22497 C14.8951191,25.5822257 24.2765504,16.130632 35.892463,16.0171392 L35.8924642,16.0171392 C35.9421562,16.0164514 35.9919312,16.0161063 36.0417867,16.0161063 C41.8812777,16.0161063 46.6151205,20.7499491 46.6151205,26.5894401 C46.6151205,32.4289311 41.8812777,37.1627739 36.0417867,37.1627739 C30.2022957,37.1627739 25.4684529,41.8966167 25.4684529,47.7361077 C25.4684529,53.5755988 30.2022957,58.3094416 36.0417867,58.3094416 L36.0417867,58.3094416 Z" id="Combined-Shape" fill="#FFFFFF" transform="translate(30.755120, 37.224925) scale(1, -1) rotate(30.000000) translate(-30.755120, -37.224925) "></path>
                <path d="M105.125,43.4375 L104.59375,49.40625 C102.697907,50.406255 100.125016,50.90625 96.875,50.90625 C91.4999731,50.90625 87.3698061,49.406265 84.484375,46.40625 C81.5989439,43.406235 80.15625,39.8021044 80.15625,35.59375 C80.15625,31.2187281 81.6666516,27.401058 84.6875,24.140625 C87.7083484,20.880192 91.8437237,19.25 97.09375,19.25 C99.6562628,19.25 101.93749,19.5416637 103.9375,20.125 L102.875,26.5 C100.958324,25.7083294 98.8125119,25.3125 96.4375,25.3125 C93.9166541,25.3125 91.9270906,26.2031161 90.46875,27.984375 C89.0104094,29.7656339 88.28125,31.9583203 88.28125,34.5625 C88.28125,37.3958475 89.1458247,39.7916569 90.875,41.75 C92.6041753,43.7083431 95.0520675,44.6875 98.21875,44.6875 C100.072926,44.6875 102.374986,44.2708375 105.125,43.4375 Z M119.3125,50 L110.78125,50 C111.093752,42.8541309 111.25,35.114625 111.25,26.78125 C111.25,18.6562094 110.927087,11.7500284 110.28125,6.0625 L119.3125,5.5625 C118.999998,11.4583628 118.84375,18.5312088 118.84375,26.78125 C118.84375,35.1562919 118.999998,42.8957978 119.3125,50 Z M151.90625,49.96875 L144.53125,50.21875 C144.197915,49.3437456 144.03125,48.5520869 144.03125,47.84375 L143.625,47.84375 C141.333322,49.8020931 138.239603,50.78125 134.34375,50.78125 C131.73957,50.78125 129.578134,50.0572989 127.859375,48.609375 C126.140616,47.1614511 125.28125,45.2395953 125.28125,42.84375 C125.28125,39.6770675 126.619778,37.0833434 129.296875,35.0625 C131.973972,33.0416566 136.666633,31.9687506 143.375,31.84375 C143.416667,31.4687481 143.4375,31.114585 143.4375,30.78125 C143.4375,28.5312387 142.895839,27.0468786 141.8125,26.328125 C140.729161,25.6093714 138.739598,25.25 135.84375,25.25 C132.697901,25.25 129.625015,25.6666625 126.625,26.5 L127.3125,20.75 C130.145848,19.7708284 134.145807,19.28125 139.3125,19.28125 C143.083352,19.28125 145.994781,20.0729087 148.046875,21.65625 C150.098969,23.2395913 151.125,26.0103969 151.125,29.96875 C151.125,30.8437544 151.088542,32.4374884 151.015625,34.75 C150.942708,37.0625116 150.90625,38.6041628 150.90625,39.375 C150.90625,43.6875216 151.23958,47.2187362 151.90625,49.96875 Z M143.5625,43.46875 C143.437499,40.6562359 143.375,38.2291769 143.375,36.1875 C136.270798,36.1875 132.71875,37.9895653 132.71875,41.59375 C132.71875,44.0729291 134.281234,45.3125 137.40625,45.3125 C139.864596,45.3125 141.916658,44.6979228 143.5625,43.46875 Z M179.15625,41.46875 C179.15625,47.7187812 174.531296,50.84375 165.28125,50.84375 C161.906233,50.84375 158.958346,50.4791703 156.4375,49.75 L157.5,43.59375 C160.10418,44.5312547 162.697904,45 165.28125,45 C167.781262,45 169.51562,44.7916687 170.484375,44.375 C171.45313,43.9583313 171.9375,43.2604216 171.9375,42.28125 C171.9375,40.7604091 170.187518,39.3125069 166.6875,37.9375 C163.624985,36.7291606 161.39584,35.5416725 160,34.375 C158.083324,32.7499919 157.125,30.7604284 157.125,28.40625 C157.125,25.6354028 158.15624,23.4062584 160.21875,21.71875 C162.28126,20.0312416 165.28123,19.1875 169.21875,19.1875 C172.906268,19.1875 175.802073,19.5104134 177.90625,20.15625 L176.84375,26.34375 C174.489572,25.4270787 171.94793,24.96875 169.21875,24.96875 C165.8854,24.96875 164.21875,25.8229081 164.21875,27.53125 C164.21875,28.4062544 164.572913,29.1093723 165.28125,29.640625 C165.989587,30.1718777 167.437489,30.8437459 169.625,31.65625 C172.645848,32.7604222 174.843743,33.8958275 176.21875,35.0625 C178.177093,36.729175 179.15625,38.8645703 179.15625,41.46875 Z M206,41.46875 C206,47.7187812 201.375046,50.84375 192.125,50.84375 C188.749983,50.84375 185.802096,50.4791703 183.28125,49.75 L184.34375,43.59375 C186.94793,44.5312547 189.541654,45 192.125,45 C194.625012,45 196.35937,44.7916687 197.328125,44.375 C198.29688,43.9583313 198.78125,43.2604216 198.78125,42.28125 C198.78125,40.7604091 197.031268,39.3125069 193.53125,37.9375 C190.468735,36.7291606 188.23959,35.5416725 186.84375,34.375 C184.927074,32.7499919 183.96875,30.7604284 183.96875,28.40625 C183.96875,25.6354028 184.99999,23.4062584 187.0625,21.71875 C189.12501,20.0312416 192.12498,19.1875 196.0625,19.1875 C199.750018,19.1875 202.645823,19.5104134 204.75,20.15625 L203.6875,26.34375 C201.333322,25.4270787 198.79168,24.96875 196.0625,24.96875 C192.72915,24.96875 191.0625,25.8229081 191.0625,27.53125 C191.0625,28.4062544 191.416663,29.1093723 192.125,29.640625 C192.833337,30.1718777 194.281239,30.8437459 196.46875,31.65625 C199.489598,32.7604222 201.687493,33.8958275 203.0625,35.0625 C205.020843,36.729175 206,38.8645703 206,41.46875 Z M235.25,43.4375 L234.71875,49.40625 C232.822907,50.406255 230.250016,50.90625 227,50.90625 C221.624973,50.90625 217.494806,49.406265 214.609375,46.40625 C211.723944,43.406235 210.28125,39.8021044 210.28125,35.59375 C210.28125,31.2187281 211.791652,27.401058 214.8125,24.140625 C217.833348,20.880192 221.968724,19.25 227.21875,19.25 C229.781263,19.25 232.06249,19.5416637 234.0625,20.125 L233,26.5 C231.083324,25.7083294 228.937512,25.3125 226.5625,25.3125 C224.041654,25.3125 222.052091,26.2031161 220.59375,27.984375 C219.135409,29.7656339 218.40625,31.9583203 218.40625,34.5625 C218.40625,37.3958475 219.270825,39.7916569 221,41.75 C222.729175,43.7083431 225.177068,44.6875 228.34375,44.6875 C230.197926,44.6875 232.499986,44.2708375 235.25,43.4375 Z M249.4375,50 L240.90625,50 C241.218752,42.8541309 241.375,35.114625 241.375,26.78125 C241.375,18.6562094 241.052087,11.7500284 240.40625,6.0625 L249.4375,5.5625 C249.124998,11.4583628 248.96875,18.5312088 248.96875,26.78125 C248.96875,35.1562919 249.124998,42.8957978 249.4375,50 Z M282.03125,49.96875 L274.65625,50.21875 C274.322915,49.3437456 274.15625,48.5520869 274.15625,47.84375 L273.75,47.84375 C271.458322,49.8020931 268.364603,50.78125 264.46875,50.78125 C261.86457,50.78125 259.703134,50.0572989 257.984375,48.609375 C256.265616,47.1614511 255.40625,45.2395953 255.40625,42.84375 C255.40625,39.6770675 256.744778,37.0833434 259.421875,35.0625 C262.098972,33.0416566 266.791633,31.9687506 273.5,31.84375 C273.541667,31.4687481 273.5625,31.114585 273.5625,30.78125 C273.5625,28.5312387 273.020839,27.0468786 271.9375,26.328125 C270.854161,25.6093714 268.864598,25.25 265.96875,25.25 C262.822901,25.25 259.750015,25.6666625 256.75,26.5 L257.4375,20.75 C260.270848,19.7708284 264.270807,19.28125 269.4375,19.28125 C273.208352,19.28125 276.119781,20.0729087 278.171875,21.65625 C280.223969,23.2395913 281.25,26.0103969 281.25,29.96875 C281.25,30.8437544 281.213542,32.4374884 281.140625,34.75 C281.067708,37.0625116 281.03125,38.6041628 281.03125,39.375 C281.03125,43.6875216 281.36458,47.2187362 282.03125,49.96875 Z M273.6875,43.46875 C273.562499,40.6562359 273.5,38.2291769 273.5,36.1875 C266.395798,36.1875 262.84375,37.9895653 262.84375,41.59375 C262.84375,44.0729291 264.406234,45.3125 267.53125,45.3125 C269.989596,45.3125 272.041658,44.6979228 273.6875,43.46875 Z M334.34375,50 L326.0625,50 C326.500002,44.7291403 326.71875,39.6041916 326.71875,34.625 C326.71875,30.8958147 326.239588,28.4583391 325.28125,27.3125 C324.322912,26.1666609 322.791677,25.59375 320.6875,25.59375 C318.999992,25.59375 317.218759,26.2083272 315.34375,27.4375 C315.260416,30.0416797 315.21875,32.3749897 315.21875,34.4375 C315.21875,37.9166841 315.281249,43.1041322 315.40625,50 L307.03125,50 C307.489586,44.2916381 307.71875,38.7396103 307.71875,33.34375 C307.71875,30.5520694 307.328129,28.5625059 306.546875,27.375 C305.765621,26.1874941 304.145846,25.59375 301.6875,25.59375 C299.416655,25.59375 297.531257,26.3541591 296.03125,27.875 C296.135417,36.1250412 296.1875,43.4999675 296.1875,50 L287.78125,50 C288.156252,43.4999675 288.34375,38.3750187 288.34375,34.625 C288.34375,29.7499756 287.833338,25.0521059 286.8125,20.53125 L294.8125,19.65625 L295.34375,22.96875 L295.84375,22.96875 C298.552097,20.5104044 301.60415,19.28125 305,19.28125 C309.250021,19.28125 312.239575,20.5104044 313.96875,22.96875 L314.46875,22.96875 C317.552099,20.5104044 320.604152,19.28125 323.625,19.28125 C327.166684,19.28125 329.838533,20.0468673 331.640625,21.578125 C333.442717,23.1093827 334.34375,25.8853966 334.34375,29.90625 C334.34375,30.3020853 334.322917,31.0572861 334.28125,32.171875 C334.239583,33.2864639 334.21875,34.0416647 334.21875,34.4375 C334.21875,37.9166841 334.260416,43.1041322 334.34375,50 Z M371.4375,33.875 C371.4375,38.3958559 370.145846,42.3645662 367.5625,45.78125 C364.979154,49.1979338 361.447939,50.90625 356.96875,50.90625 C353.6354,50.90625 351.343756,50.1979238 350.09375,48.78125 L349.71875,48.78125 C349.71875,53.8854422 349.791666,59.0520572 349.9375,64.28125 L341.4375,64.28125 C341.812502,58.3020534 342,51.4062891 342,43.59375 C342,33.5103663 341.458339,25.8229431 340.375,20.53125 L348.375,19.65625 L348.84375,22.34375 L349.34375,22.34375 C351.572928,20.2812397 354.604148,19.25 358.4375,19.25 C362.43752,19.25 365.604155,20.6926939 367.9375,23.578125 C370.270845,26.4635561 371.4375,29.8958134 371.4375,33.875 Z M363.125,34.6875 C363.125,32.0624869 362.468757,29.8020928 361.15625,27.90625 C359.843743,26.0104072 358.031262,25.0625 355.71875,25.0625 C352.843736,25.0625 350.73959,25.9062416 349.40625,27.59375 C349.718752,33.4479459 349.875,38.8124756 349.875,43.6875 C351.187507,44.7083384 352.885406,45.21875 354.96875,45.21875 C357.739597,45.21875 359.79166,44.1927186 361.125,42.140625 C362.45834,40.0885314 363.125,37.6041812 363.125,34.6875 Z" fill="#050923"></path>
            </g>
        </g>
    </g>
</svg>