<?xml version="1.0" encoding="UTF-8"?>
<svg width="330px" height="70px" viewBox="0 0 330 70" version="1.1" xmlns="http://www.w3.org/2000/svg" xmlns:xlink="http://www.w3.org/1999/xlink">
    <!-- Generator: Sketch 41.2 (35397) - http://www.bohemiancoding.com/sketch -->
    <title>classcaps</title>
    <desc>Created with Sketch.</desc>
    <defs>
        <linearGradient x1="50%" y1="0%" x2="50%" y2="100%" id="linearGradient-1">
            <stop stop-color="#0C1548" offset="0%"></stop>
            <stop stop-color="#050923" offset="100%"></stop>
        </linearGradient>
        <linearGradient x1="50%" y1="0%" x2="50%" y2="100%" id="linearGradient-2">
            <stop stop-color="#050923" offset="0%"></stop>
            <stop stop-color="#0C1548" offset="100%"></stop>
        </linearGradient>
    </defs>
    <g id="Page-1" stroke="none" stroke-width="1" fill="none" fill-rule="evenodd">
        <g id="logo-for-export" transform="translate(-122.000000, -478.000000)">
            <g id="classcaps" transform="translate(122.000000, 478.000000)">
                <ellipse id="Oval" fill="url(#linearGradient-1)" transform="translate(35.000000, 35.000000) scale(1, -1) translate(-35.000000, -35.000000) " cx="35" cy="35" rx="35" ry="35"></ellipse>
                <path d="M106.125,46.4375 L105.59375,52.40625 C103.697907,53.406255 101.125016,53.90625 97.875,53.90625 C92.4999731,53.90625 88.3698061,52.406265 85.484375,49.40625 C82.5989439,46.406235 81.15625,42.8021044 81.15625,38.59375 C81.15625,34.2187281 82.6666516,30.401058 85.6875,27.140625 C88.7083484,23.880192 92.8437237,22.25 98.09375,22.25 C100.656263,22.25 102.93749,22.5416637 104.9375,23.125 L103.875,29.5 C101.958324,28.7083294 99.8125119,28.3125 97.4375,28.3125 C94.9166541,28.3125 92.9270906,29.2031161 91.46875,30.984375 C90.0104094,32.7656339 89.28125,34.9583203 89.28125,37.5625 C89.28125,40.3958475 90.1458247,42.7916569 91.875,44.75 C93.6041753,46.7083431 96.0520675,47.6875 99.21875,47.6875 C101.072926,47.6875 103.374986,47.2708375 106.125,46.4375 Z M120.3125,53 L111.78125,53 C112.093752,45.8541309 112.25,38.114625 112.25,29.78125 C112.25,21.6562094 111.927087,14.7500284 111.28125,9.0625 L120.3125,8.5625 C119.999998,14.4583628 119.84375,21.5312088 119.84375,29.78125 C119.84375,38.1562919 119.999998,45.8957978 120.3125,53 Z M152.90625,52.96875 L145.53125,53.21875 C145.197915,52.3437456 145.03125,51.5520869 145.03125,50.84375 L144.625,50.84375 C142.333322,52.8020931 139.239603,53.78125 135.34375,53.78125 C132.73957,53.78125 130.578134,53.0572989 128.859375,51.609375 C127.140616,50.1614511 126.28125,48.2395953 126.28125,45.84375 C126.28125,42.6770675 127.619778,40.0833434 130.296875,38.0625 C132.973972,36.0416566 137.666633,34.9687506 144.375,34.84375 C144.416667,34.4687481 144.4375,34.114585 144.4375,33.78125 C144.4375,31.5312387 143.895839,30.0468786 142.8125,29.328125 C141.729161,28.6093714 139.739598,28.25 136.84375,28.25 C133.697901,28.25 130.625015,28.6666625 127.625,29.5 L128.3125,23.75 C131.145848,22.7708284 135.145807,22.28125 140.3125,22.28125 C144.083352,22.28125 146.994781,23.0729088 149.046875,24.65625 C151.098969,26.2395912 152.125,29.0103969 152.125,32.96875 C152.125,33.8437544 152.088542,35.4374884 152.015625,37.75 C151.942708,40.0625116 151.90625,41.6041628 151.90625,42.375 C151.90625,46.6875216 152.23958,50.2187363 152.90625,52.96875 Z M144.5625,46.46875 C144.437499,43.6562359 144.375,41.2291769 144.375,39.1875 C137.270798,39.1875 133.71875,40.9895653 133.71875,44.59375 C133.71875,47.0729291 135.281234,48.3125 138.40625,48.3125 C140.864596,48.3125 142.916658,47.6979228 144.5625,46.46875 Z M180.15625,44.46875 C180.15625,50.7187813 175.531296,53.84375 166.28125,53.84375 C162.906233,53.84375 159.958346,53.4791703 157.4375,52.75 L158.5,46.59375 C161.10418,47.5312547 163.697904,48 166.28125,48 C168.781263,48 170.51562,47.7916687 171.484375,47.375 C172.45313,46.9583313 172.9375,46.2604216 172.9375,45.28125 C172.9375,43.7604091 171.187518,42.3125069 167.6875,40.9375 C164.624985,39.7291606 162.39584,38.5416725 161,37.375 C159.083324,35.7499919 158.125,33.7604284 158.125,31.40625 C158.125,28.6354028 159.15624,26.4062584 161.21875,24.71875 C163.28126,23.0312416 166.28123,22.1875 170.21875,22.1875 C173.906268,22.1875 176.802073,22.5104134 178.90625,23.15625 L177.84375,29.34375 C175.489572,28.4270788 172.94793,27.96875 170.21875,27.96875 C166.8854,27.96875 165.21875,28.8229081 165.21875,30.53125 C165.21875,31.4062544 165.572913,32.1093723 166.28125,32.640625 C166.989587,33.1718777 168.437489,33.8437459 170.625,34.65625 C173.645848,35.7604222 175.843743,36.8958275 177.21875,38.0625 C179.177093,39.729175 180.15625,41.8645703 180.15625,44.46875 Z M207,44.46875 C207,50.7187813 202.375046,53.84375 193.125,53.84375 C189.749983,53.84375 186.802096,53.4791703 184.28125,52.75 L185.34375,46.59375 C187.94793,47.5312547 190.541654,48 193.125,48 C195.625013,48 197.35937,47.7916687 198.328125,47.375 C199.29688,46.9583313 199.78125,46.2604216 199.78125,45.28125 C199.78125,43.7604091 198.031268,42.3125069 194.53125,40.9375 C191.468735,39.7291606 189.23959,38.5416725 187.84375,37.375 C185.927074,35.7499919 184.96875,33.7604284 184.96875,31.40625 C184.96875,28.6354028 185.99999,26.4062584 188.0625,24.71875 C190.12501,23.0312416 193.12498,22.1875 197.0625,22.1875 C200.750018,22.1875 203.645823,22.5104134 205.75,23.15625 L204.6875,29.34375 C202.333322,28.4270788 199.79168,27.96875 197.0625,27.96875 C193.72915,27.96875 192.0625,28.8229081 192.0625,30.53125 C192.0625,31.4062544 192.416663,32.1093723 193.125,32.640625 C193.833337,33.1718777 195.281239,33.8437459 197.46875,34.65625 C200.489598,35.7604222 202.687493,36.8958275 204.0625,38.0625 C206.020843,39.729175 207,41.8645703 207,44.46875 Z M236.25,46.4375 L235.71875,52.40625 C233.822907,53.406255 231.250016,53.90625 228,53.90625 C222.624973,53.90625 218.494806,52.406265 215.609375,49.40625 C212.723944,46.406235 211.28125,42.8021044 211.28125,38.59375 C211.28125,34.2187281 212.791652,30.401058 215.8125,27.140625 C218.833348,23.880192 222.968724,22.25 228.21875,22.25 C230.781263,22.25 233.06249,22.5416637 235.0625,23.125 L234,29.5 C232.083324,28.7083294 229.937512,28.3125 227.5625,28.3125 C225.041654,28.3125 223.052091,29.2031161 221.59375,30.984375 C220.135409,32.7656339 219.40625,34.9583203 219.40625,37.5625 C219.40625,40.3958475 220.270825,42.7916569 222,44.75 C223.729175,46.7083431 226.177068,47.6875 229.34375,47.6875 C231.197926,47.6875 233.499986,47.2708375 236.25,46.4375 Z M266.53125,52.96875 L259.15625,53.21875 C258.822915,52.3437456 258.65625,51.5520869 258.65625,50.84375 L258.25,50.84375 C255.958322,52.8020931 252.864603,53.78125 248.96875,53.78125 C246.36457,53.78125 244.203134,53.0572989 242.484375,51.609375 C240.765616,50.1614511 239.90625,48.2395953 239.90625,45.84375 C239.90625,42.6770675 241.244778,40.0833434 243.921875,38.0625 C246.598972,36.0416566 251.291633,34.9687506 258,34.84375 C258.041667,34.4687481 258.0625,34.114585 258.0625,33.78125 C258.0625,31.5312387 257.520839,30.0468786 256.4375,29.328125 C255.354161,28.6093714 253.364598,28.25 250.46875,28.25 C247.322901,28.25 244.250015,28.6666625 241.25,29.5 L241.9375,23.75 C244.770848,22.7708284 248.770807,22.28125 253.9375,22.28125 C257.708352,22.28125 260.619781,23.0729088 262.671875,24.65625 C264.723969,26.2395912 265.75,29.0103969 265.75,32.96875 C265.75,33.8437544 265.713542,35.4374884 265.640625,37.75 C265.567708,40.0625116 265.53125,41.6041628 265.53125,42.375 C265.53125,46.6875216 265.86458,50.2187363 266.53125,52.96875 Z M258.1875,46.46875 C258.062499,43.6562359 258,41.2291769 258,39.1875 C250.895798,39.1875 247.34375,40.9895653 247.34375,44.59375 C247.34375,47.0729291 248.906234,48.3125 252.03125,48.3125 C254.489596,48.3125 256.541658,47.6979228 258.1875,46.46875 Z M302.6875,36.875 C302.6875,41.3958559 301.395846,45.3645662 298.8125,48.78125 C296.229154,52.1979338 292.697939,53.90625 288.21875,53.90625 C284.8854,53.90625 282.593756,53.1979237 281.34375,51.78125 L280.96875,51.78125 C280.96875,56.8854422 281.041666,62.0520572 281.1875,67.28125 L272.6875,67.28125 C273.062502,61.3020534 273.25,54.4062891 273.25,46.59375 C273.25,36.5103663 272.708339,28.8229431 271.625,23.53125 L279.625,22.65625 L280.09375,25.34375 L280.59375,25.34375 C282.822928,23.2812397 285.854148,22.25 289.6875,22.25 C293.68752,22.25 296.854155,23.6926939 299.1875,26.578125 C301.520845,29.4635561 302.6875,32.8958134 302.6875,36.875 Z M294.375,37.6875 C294.375,35.0624869 293.718757,32.8020928 292.40625,30.90625 C291.093743,29.0104072 289.281262,28.0625 286.96875,28.0625 C284.093736,28.0625 281.98959,28.9062416 280.65625,30.59375 C280.968752,36.4479459 281.125,41.8124756 281.125,46.6875 C282.437507,47.7083384 284.135406,48.21875 286.21875,48.21875 C288.989597,48.21875 291.04166,47.1927186 292.375,45.140625 C293.70834,43.0885314 294.375,40.6041813 294.375,37.6875 Z M329.59375,44.46875 C329.59375,50.7187813 324.968796,53.84375 315.71875,53.84375 C312.343733,53.84375 309.395846,53.4791703 306.875,52.75 L307.9375,46.59375 C310.54168,47.5312547 313.135404,48 315.71875,48 C318.218763,48 319.95312,47.7916687 320.921875,47.375 C321.89063,46.9583313 322.375,46.2604216 322.375,45.28125 C322.375,43.7604091 320.625018,42.3125069 317.125,40.9375 C314.062485,39.7291606 311.83334,38.5416725 310.4375,37.375 C308.520824,35.7499919 307.5625,33.7604284 307.5625,31.40625 C307.5625,28.6354028 308.59374,26.4062584 310.65625,24.71875 C312.71876,23.0312416 315.71873,22.1875 319.65625,22.1875 C323.343768,22.1875 326.239573,22.5104134 328.34375,23.15625 L327.28125,29.34375 C324.927072,28.4270788 322.38543,27.96875 319.65625,27.96875 C316.3229,27.96875 314.65625,28.8229081 314.65625,30.53125 C314.65625,31.4062544 315.010413,32.1093723 315.71875,32.640625 C316.427087,33.1718777 317.874989,33.8437459 320.0625,34.65625 C323.083348,35.7604222 325.281243,36.8958275 326.65625,38.0625 C328.614593,39.729175 329.59375,41.8645703 329.59375,44.46875 Z" fill="url(#linearGradient-2)"></path>
                <path d="M36.0417867,58.3094416 L36.0417867,58.4337445 C24.357056,58.4002022 14.8951191,48.917563 14.8951191,37.22497 C14.8951191,25.5822257 24.2765504,16.130632 35.892463,16.0171392 L35.8924642,16.0171392 C35.9421562,16.0164514 35.9919312,16.0161063 36.0417867,16.0161063 C41.8812777,16.0161063 46.6151205,20.7499491 46.6151205,26.5894401 C46.6151205,32.4289311 41.8812777,37.1627739 36.0417867,37.1627739 C30.2022957,37.1627739 25.4684529,41.8966167 25.4684529,47.7361077 C25.4684529,53.5755988 30.2022957,58.3094416 36.0417867,58.3094416 L36.0417867,58.3094416 Z" id="Combined-Shape" fill="#FFFFFF" transform="translate(30.755120, 37.224925) scale(1, -1) rotate(30.000000) translate(-30.755120, -37.224925) "></path>
            </g>
        </g>
    </g>
</svg>