<?xml version="1.0" encoding="UTF-8" standalone="no"?>
<svg width="426px" height="259px" viewBox="0 0 426 259" version="1.1" xmlns="http://www.w3.org/2000/svg" xmlns:xlink="http://www.w3.org/1999/xlink">
    <!-- Generator: Sketch 3.8.3 (29802) - http://www.bohemiancoding.com/sketch -->
    <title>diagram-2</title>
    <desc>Created with Sketch.</desc>
    <defs></defs>
    <g id="Page-1" stroke="none" stroke-width="1" fill="none" fill-rule="evenodd">
        <g id="diagram-2-for-export" transform="translate(-259.000000, -273.000000)">
            <g id="diagram-2" transform="translate(259.000000, 273.000000)">
                <rect id="Rectangle-1" fill-opacity="0.01" fill="#D8D8D8" x="0" y="0" width="426" height="259"></rect>
                <path d="M48.859375,190.076172 L45.6953125,190.076172 L45.6953125,200.476562 C45.6953125,201.075524 45.5618503,201.519855 45.2949219,201.80957 C45.0279935,202.099285 44.6829448,202.244141 44.2597656,202.244141 C43.830076,202.244141 43.4801446,202.097658 43.2099609,201.804688 C42.9397773,201.511717 42.8046875,201.069013 42.8046875,200.476562 L42.8046875,190.076172 L39.640625,190.076172 C39.1458309,190.076172 38.777996,189.967123 38.5371094,189.749023 C38.2962228,189.530923 38.1757812,189.24284 38.1757812,188.884766 C38.1757812,188.51367 38.3011055,188.220704 38.5517578,188.005859 C38.8024101,187.791015 39.1653622,187.683594 39.640625,187.683594 L48.859375,187.683594 C49.3606796,187.683594 49.7333972,187.79427 49.9775391,188.015625 C50.2216809,188.23698 50.34375,188.526691 50.34375,188.884766 C50.34375,189.24284 50.2200533,189.530923 49.9726562,189.749023 C49.7252592,189.967123 49.3541691,190.076172 48.859375,190.076172 L48.859375,190.076172 Z M54.2207031,189.060547 L54.2207031,193.015625 C54.5592465,192.624998 54.8896468,192.315756 55.2119141,192.087891 C55.5341813,191.860025 55.890623,191.689128 56.28125,191.575195 C56.671877,191.461262 57.0917946,191.404297 57.5410156,191.404297 C58.2181023,191.404297 58.8186823,191.547525 59.3427734,191.833984 C59.8668646,192.120444 60.2786443,192.537107 60.578125,193.083984 C60.766928,193.402996 60.8938799,193.759438 60.9589844,194.15332 C61.0240889,194.547202 61.0566406,195.0013 61.0566406,195.515625 L61.0566406,200.623047 C61.0566406,201.156904 60.9345715,201.560546 60.6904297,201.833984 C60.4462878,202.107423 60.1223979,202.244141 59.71875,202.244141 C58.8398394,202.244141 58.4003906,201.703781 58.4003906,200.623047 L58.4003906,196.121094 C58.4003906,195.268225 58.2734388,194.612307 58.0195312,194.15332 C57.7656237,193.694334 57.2838577,193.464844 56.5742188,193.464844 C56.098956,193.464844 55.6709003,193.599934 55.2900391,193.870117 C54.9091778,194.140301 54.6243499,194.509763 54.4355469,194.978516 C54.292317,195.375653 54.2207031,196.082026 54.2207031,197.097656 L54.2207031,200.623047 C54.2207031,201.150393 54.1018892,201.552407 53.8642578,201.829102 C53.6266264,202.105796 53.2962261,202.244141 52.8730469,202.244141 C51.9941362,202.244141 51.5546875,201.703781 51.5546875,200.623047 L51.5546875,189.060547 C51.5546875,188.52018 51.6702462,188.11491 51.9013672,187.844727 C52.1324881,187.574543 52.4563781,187.439453 52.8730469,187.439453 C53.2962261,187.439453 53.6266264,187.576171 53.8642578,187.849609 C54.1018892,188.123048 54.2207031,188.52669 54.2207031,189.060547 L54.2207031,189.060547 Z M71.1347656,197.478516 L65.9199219,197.478516 C65.9264323,198.083987 66.0485014,198.617836 66.2861328,199.080078 C66.5237642,199.54232 66.8395163,199.890624 67.2333984,200.125 C67.6272806,200.359376 68.0618466,200.476562 68.5371094,200.476562 C68.8561214,200.476562 69.1474596,200.439128 69.4111328,200.364258 C69.674806,200.289388 69.9303373,200.172201 70.1777344,200.012695 C70.4251314,199.853189 70.6529938,199.682293 70.8613281,199.5 C71.0696625,199.317707 71.3398421,199.070314 71.671875,198.757812 C71.8085944,198.640624 72.003905,198.582031 72.2578125,198.582031 C72.5312514,198.582031 72.7526033,198.6569 72.921875,198.806641 C73.0911467,198.956381 73.1757812,199.167967 73.1757812,199.441406 C73.1757812,199.682293 73.0813812,199.963866 72.8925781,200.286133 C72.7037751,200.6084 72.4189472,200.917642 72.0380859,201.213867 C71.6572247,201.510093 71.1787138,201.755858 70.6025391,201.951172 C70.0263643,202.146485 69.363936,202.244141 68.6152344,202.244141 C66.9029862,202.244141 65.5716193,201.755864 64.6210938,200.779297 C63.6705682,199.802729 63.1953125,198.477873 63.1953125,196.804688 C63.1953125,196.016923 63.3124988,195.286136 63.546875,194.612305 C63.7812512,193.938473 64.1230446,193.360679 64.5722656,192.878906 C65.0214866,192.397133 65.5748665,192.027671 66.2324219,191.770508 C66.8899772,191.513345 67.6191366,191.384766 68.4199219,191.384766 C69.4615938,191.384766 70.3551395,191.60449 71.1005859,192.043945 C71.8460324,192.483401 72.404295,193.051429 72.7753906,193.748047 C73.1464862,194.444665 73.3320312,195.154293 73.3320312,195.876953 C73.3320312,196.547529 73.1399759,196.982095 72.7558594,197.180664 C72.3717429,197.379233 71.8313837,197.478516 71.1347656,197.478516 L71.1347656,197.478516 Z M65.9199219,195.964844 L70.7539062,195.964844 C70.6888018,195.053381 70.443036,194.371422 70.0166016,193.918945 C69.5901671,193.466469 69.0286493,193.240234 68.3320312,193.240234 C67.6679654,193.240234 67.1227235,193.469724 66.6962891,193.928711 C66.2698546,194.387698 66.0110682,195.066402 65.9199219,195.964844 L65.9199219,195.964844 Z M87.5019531,200.740234 L87.5019531,200.398438 C87.1829411,200.802085 86.847658,201.140624 86.4960938,201.414062 C86.1445295,201.687501 85.7604187,201.89095 85.34375,202.024414 C84.9270813,202.157878 84.4518256,202.224609 83.9179688,202.224609 C83.2734343,202.224609 82.6956406,202.091147 82.1845703,201.824219 C81.6735,201.55729 81.2779962,201.189455 80.9980469,200.720703 C80.666014,200.154294 80.5,199.3405 80.5,198.279297 L80.5,192.996094 C80.5,192.462237 80.6204415,192.063478 80.8613281,191.799805 C81.1022147,191.536131 81.421222,191.404297 81.8183594,191.404297 C82.2220072,191.404297 82.5475248,191.537759 82.7949219,191.804688 C83.0423189,192.071616 83.1660156,192.468747 83.1660156,192.996094 L83.1660156,197.263672 C83.1660156,197.882165 83.2180984,198.401365 83.3222656,198.821289 C83.4264328,199.241213 83.6136054,199.569986 83.8837891,199.807617 C84.1539727,200.045249 84.52018,200.164062 84.9824219,200.164062 C85.4316429,200.164062 85.8548157,200.0306 86.2519531,199.763672 C86.6490905,199.496743 86.9388012,199.14844 87.1210938,198.71875 C87.2708341,198.341144 87.3457031,197.514329 87.3457031,196.238281 L87.3457031,192.996094 C87.3457031,192.468747 87.4693998,192.071616 87.7167969,191.804688 C87.9641939,191.537759 88.2864563,191.404297 88.6835938,191.404297 C89.0807312,191.404297 89.3997384,191.536131 89.640625,191.799805 C89.8815116,192.063478 90.0019531,192.462237 90.0019531,192.996094 L90.0019531,200.720703 C90.0019531,201.228518 89.8863944,201.609374 89.6552734,201.863281 C89.4241525,202.117189 89.1263039,202.244141 88.7617188,202.244141 C88.3971336,202.244141 88.0960298,202.112306 87.8583984,201.848633 C87.620767,201.58496 87.5019531,201.215497 87.5019531,200.740234 L87.5019531,200.740234 Z M101.242188,198.757812 C101.242188,199.493493 101.063153,200.12337 100.705078,200.647461 C100.347003,201.171552 99.8180374,201.568684 99.1181641,201.838867 C98.4182908,202.109051 97.5670623,202.244141 96.5644531,202.244141 C95.6074171,202.244141 94.7871128,202.097658 94.1035156,201.804688 C93.4199185,201.511717 92.9153662,201.14551 92.5898438,200.706055 C92.2643213,200.266599 92.1015625,199.825523 92.1015625,199.382812 C92.1015625,199.089842 92.2057281,198.839194 92.4140625,198.630859 C92.6223969,198.422525 92.8860661,198.318359 93.2050781,198.318359 C93.4850274,198.318359 93.699869,198.386718 93.8496094,198.523438 C93.9993497,198.660157 94.1425774,198.852212 94.2792969,199.099609 C94.5527357,199.574872 94.8798809,199.929686 95.2607422,200.164062 C95.6416035,200.398439 96.160804,200.515625 96.8183594,200.515625 C97.3522162,200.515625 97.7900374,200.396811 98.1318359,200.15918 C98.4736345,199.921548 98.6445312,199.649741 98.6445312,199.34375 C98.6445312,198.874998 98.4671242,198.533204 98.1123047,198.318359 C97.7574852,198.103515 97.1731812,197.898438 96.359375,197.703125 C95.4414017,197.475259 94.6943388,197.236004 94.1181641,196.985352 C93.5419893,196.734699 93.0813819,196.404299 92.7363281,195.994141 C92.3912743,195.583982 92.21875,195.07943 92.21875,194.480469 C92.21875,193.946612 92.3782536,193.44206 92.6972656,192.966797 C93.0162776,192.491534 93.4866505,192.112306 94.1083984,191.829102 C94.7301463,191.545897 95.4804644,191.404297 96.359375,191.404297 C97.0494826,191.404297 97.6695936,191.475911 98.2197266,191.619141 C98.7698595,191.762371 99.2288393,191.954426 99.5966797,192.195312 C99.9645201,192.436199 100.244465,192.703124 100.436523,192.996094 C100.628582,193.289064 100.724609,193.575519 100.724609,193.855469 C100.724609,194.16146 100.622071,194.412108 100.416992,194.607422 C100.211913,194.802735 99.9205748,194.900391 99.5429688,194.900391 C99.2695299,194.900391 99.0367848,194.822266 98.8447266,194.666016 C98.6526683,194.509765 98.4329439,194.275392 98.1855469,193.962891 C97.9837229,193.702473 97.7460951,193.494141 97.4726562,193.337891 C97.1992174,193.18164 96.8281273,193.103516 96.359375,193.103516 C95.8776018,193.103516 95.4772151,193.206054 95.1582031,193.411133 C94.8391911,193.616212 94.6796875,193.871743 94.6796875,194.177734 C94.6796875,194.457684 94.7968738,194.687174 95.03125,194.866211 C95.2656262,195.045248 95.5813782,195.193359 95.9785156,195.310547 C96.375653,195.427735 96.9225226,195.570963 97.6191406,195.740234 C98.4459677,195.942058 99.1214167,196.182941 99.6455078,196.462891 C100.169599,196.74284 100.56673,197.07324 100.836914,197.454102 C101.107098,197.834963 101.242188,198.269529 101.242188,198.757812 L101.242188,198.757812 Z M110.421875,200.740234 L110.421875,200.398438 C110.102863,200.802085 109.76758,201.140624 109.416016,201.414062 C109.064451,201.687501 108.680341,201.89095 108.263672,202.024414 C107.847003,202.157878 107.371747,202.224609 106.837891,202.224609 C106.193356,202.224609 105.615562,202.091147 105.104492,201.824219 C104.593422,201.55729 104.197918,201.189455 103.917969,200.720703 C103.585936,200.154294 103.419922,199.3405 103.419922,198.279297 L103.419922,192.996094 C103.419922,192.462237 103.540363,192.063478 103.78125,191.799805 C104.022137,191.536131 104.341144,191.404297 104.738281,191.404297 C105.141929,191.404297 105.467447,191.537759 105.714844,191.804688 C105.962241,192.071616 106.085938,192.468747 106.085938,192.996094 L106.085938,197.263672 C106.085938,197.882165 106.13802,198.401365 106.242188,198.821289 C106.346355,199.241213 106.533527,199.569986 106.803711,199.807617 C107.073895,200.045249 107.440102,200.164062 107.902344,200.164062 C108.351565,200.164062 108.774738,200.0306 109.171875,199.763672 C109.569012,199.496743 109.858723,199.14844 110.041016,198.71875 C110.190756,198.341144 110.265625,197.514329 110.265625,196.238281 L110.265625,192.996094 C110.265625,192.468747 110.389322,192.071616 110.636719,191.804688 C110.884116,191.537759 111.206378,191.404297 111.603516,191.404297 C112.000653,191.404297 112.31966,191.536131 112.560547,191.799805 C112.801433,192.063478 112.921875,192.462237 112.921875,192.996094 L112.921875,200.720703 C112.921875,201.228518 112.806316,201.609374 112.575195,201.863281 C112.344074,202.117189 112.046226,202.244141 111.681641,202.244141 C111.317055,202.244141 111.015952,202.112306 110.77832,201.848633 C110.540689,201.58496 110.421875,201.215497 110.421875,200.740234 L110.421875,200.740234 Z M122.316406,200.740234 C121.671872,201.241539 121.048506,201.617512 120.446289,201.868164 C119.844073,202.118816 119.168624,202.244141 118.419922,202.244141 C117.736325,202.244141 117.135745,202.109051 116.618164,201.838867 C116.100583,201.568684 115.701824,201.202476 115.421875,200.740234 C115.141926,200.277992 115.001953,199.776695 115.001953,199.236328 C115.001953,198.507158 115.233071,197.885419 115.695312,197.371094 C116.157554,196.856768 116.792314,196.51172 117.599609,196.335938 C117.768881,196.296875 118.188799,196.208985 118.859375,196.072266 C119.529951,195.935546 120.10449,195.810222 120.583008,195.696289 C121.061526,195.582356 121.580726,195.444011 122.140625,195.28125 C122.108073,194.578121 121.966473,194.062176 121.71582,193.733398 C121.465168,193.404621 120.945967,193.240234 120.158203,193.240234 C119.481116,193.240234 118.971681,193.334634 118.629883,193.523438 C118.288084,193.712241 117.995118,193.995441 117.750977,194.373047 C117.506835,194.750653 117.33431,194.999674 117.233398,195.120117 C117.132486,195.24056 116.916017,195.300781 116.583984,195.300781 C116.284504,195.300781 116.025717,195.204754 115.807617,195.012695 C115.589517,194.820637 115.480469,194.574871 115.480469,194.275391 C115.480469,193.806638 115.646483,193.350914 115.978516,192.908203 C116.310549,192.465493 116.828121,192.100913 117.53125,191.814453 C118.234379,191.527993 119.110021,191.384766 120.158203,191.384766 C121.330084,191.384766 122.251299,191.523111 122.921875,191.799805 C123.592451,192.076499 124.066079,192.51432 124.342773,193.113281 C124.619468,193.712243 124.757812,194.506505 124.757812,195.496094 C124.757812,196.121097 124.756185,196.651691 124.75293,197.087891 C124.749674,197.524091 124.744792,198.009112 124.738281,198.542969 C124.738281,199.044273 124.821288,199.566729 124.987305,200.110352 C125.153321,200.653974 125.236328,201.003905 125.236328,201.160156 C125.236328,201.433595 125.107749,201.682616 124.850586,201.907227 C124.593423,202.131837 124.302085,202.244141 123.976562,202.244141 C123.703124,202.244141 123.432944,202.115561 123.166016,201.858398 C122.899087,201.601236 122.615887,201.228518 122.316406,200.740234 L122.316406,200.740234 Z M122.140625,196.882812 C121.749998,197.026042 121.18197,197.177408 120.436523,197.336914 C119.691077,197.49642 119.175132,197.613606 118.888672,197.688477 C118.602212,197.763347 118.328777,197.90983 118.068359,198.12793 C117.807941,198.34603 117.677734,198.650389 117.677734,199.041016 C117.677734,199.444663 117.830728,199.788085 118.136719,200.071289 C118.44271,200.354494 118.843096,200.496094 119.337891,200.496094 C119.865237,200.496094 120.351886,200.380535 120.797852,200.149414 C121.243817,199.918293 121.570962,199.620445 121.779297,199.255859 C122.020183,198.852212 122.140625,198.188156 122.140625,197.263672 L122.140625,196.882812 Z M127.462891,200.623047 L127.462891,189.060547 C127.462891,188.52669 127.581705,188.123048 127.819336,187.849609 C128.056967,187.576171 128.377602,187.439453 128.78125,187.439453 C129.184898,187.439453 129.510415,187.574543 129.757812,187.844727 C130.00521,188.11491 130.128906,188.52018 130.128906,189.060547 L130.128906,200.623047 C130.128906,201.163414 130.003582,201.568684 129.75293,201.838867 C129.502277,202.109051 129.178387,202.244141 128.78125,202.244141 C128.390623,202.244141 128.073243,202.104168 127.829102,201.824219 C127.58496,201.544269 127.462891,201.143883 127.462891,200.623047 L127.462891,200.623047 Z M145.1875,200.720703 L145.1875,200.457031 C144.829425,200.86719 144.476239,201.200845 144.12793,201.458008 C143.779621,201.715171 143.40202,201.910481 142.995117,202.043945 C142.588214,202.17741 142.143883,202.244141 141.662109,202.244141 C141.024085,202.244141 140.433271,202.109051 139.889648,201.838867 C139.346026,201.568684 138.875653,201.182945 138.478516,200.681641 C138.081378,200.180336 137.780274,199.591149 137.575195,198.914062 C137.370116,198.236976 137.267578,197.504561 137.267578,196.716797 C137.267578,195.050122 137.674475,193.751307 138.488281,192.820312 C139.302087,191.889318 140.37304,191.423828 141.701172,191.423828 C142.469405,191.423828 143.117185,191.555663 143.644531,191.819336 C144.171878,192.083009 144.686195,192.488279 145.1875,193.035156 L145.1875,189.099609 C145.1875,188.552732 145.296548,188.139324 145.514648,187.859375 C145.732748,187.579426 146.043618,187.439453 146.447266,187.439453 C146.850913,187.439453 147.161783,187.568033 147.379883,187.825195 C147.597983,188.082358 147.707031,188.461586 147.707031,188.962891 L147.707031,200.720703 C147.707031,201.228518 147.589845,201.609374 147.355469,201.863281 C147.121093,202.117189 146.818361,202.244141 146.447266,202.244141 C146.08268,202.244141 145.781577,202.112306 145.543945,201.848633 C145.306314,201.58496 145.1875,201.208987 145.1875,200.720703 L145.1875,200.720703 Z M139.943359,196.804688 C139.943359,197.527347 140.055663,198.142576 140.280273,198.650391 C140.504884,199.158206 140.812498,199.540689 141.203125,199.797852 C141.593752,200.055014 142.02018,200.183594 142.482422,200.183594 C142.951174,200.183594 143.37923,200.061525 143.766602,199.817383 C144.153973,199.573241 144.463215,199.198896 144.694336,198.694336 C144.925457,198.189776 145.041016,197.5599 145.041016,196.804688 C145.041016,196.095049 144.925457,195.484703 144.694336,194.973633 C144.463215,194.462563 144.150718,194.071941 143.756836,193.801758 C143.362954,193.531574 142.931643,193.396484 142.462891,193.396484 C141.974607,193.396484 141.538413,193.534829 141.154297,193.811523 C140.77018,194.088218 140.472332,194.485349 140.260742,195.00293 C140.049153,195.52051 139.943359,196.12109 139.943359,196.804688 L139.943359,196.804688 Z M160.363281,196.824219 C160.363281,197.618494 160.239585,198.350908 159.992188,199.021484 C159.74479,199.692061 159.386721,200.268227 158.917969,200.75 C158.449216,201.231773 157.889326,201.601236 157.238281,201.858398 C156.587236,202.115561 155.854822,202.244141 155.041016,202.244141 C154.23372,202.244141 153.507816,202.113934 152.863281,201.853516 C152.218747,201.593098 151.660484,201.22038 151.188477,200.735352 C150.716469,200.250323 150.3584,199.677412 150.114258,199.016602 C149.870116,198.355791 149.748047,197.625004 149.748047,196.824219 C149.748047,196.016923 149.871744,195.277998 150.119141,194.607422 C150.366538,193.936846 150.721352,193.363935 151.183594,192.888672 C151.645836,192.413409 152.205726,192.047202 152.863281,191.790039 C153.520837,191.532876 154.246741,191.404297 155.041016,191.404297 C155.848311,191.404297 156.580726,191.534504 157.238281,191.794922 C157.895837,192.05534 158.458982,192.42643 158.927734,192.908203 C159.396487,193.389976 159.752928,193.962887 159.99707,194.626953 C160.241212,195.291019 160.363281,196.023433 160.363281,196.824219 L160.363281,196.824219 Z M157.6875,196.824219 C157.6875,195.736974 157.448245,194.890628 156.969727,194.285156 C156.491209,193.679684 155.848311,193.376953 155.041016,193.376953 C154.52018,193.376953 154.0612,193.512043 153.664062,193.782227 C153.266925,194.05241 152.960939,194.451169 152.746094,194.978516 C152.531249,195.505862 152.423828,196.12109 152.423828,196.824219 C152.423828,197.520837 152.529621,198.129555 152.741211,198.650391 C152.952801,199.171227 153.255532,199.569986 153.649414,199.84668 C154.043296,200.123374 154.507159,200.261719 155.041016,200.261719 C155.848311,200.261719 156.491209,199.95736 156.969727,199.348633 C157.448245,198.739906 157.6875,197.898443 157.6875,196.824219 L157.6875,196.824219 Z M171.330078,197.019531 L171.330078,200.564453 C171.330078,201.124352 171.203126,201.544269 170.949219,201.824219 C170.695311,202.104168 170.360028,202.244141 169.943359,202.244141 C169.539712,202.244141 169.212566,202.104168 168.961914,201.824219 C168.711262,201.544269 168.585938,201.124352 168.585938,200.564453 L168.585938,196.316406 C168.585938,195.64583 168.563151,195.125002 168.517578,194.753906 C168.472005,194.382811 168.348308,194.078452 168.146484,193.84082 C167.94466,193.603189 167.625653,193.484375 167.189453,193.484375 C166.317053,193.484375 165.742514,193.783851 165.46582,194.382812 C165.189126,194.981774 165.050781,195.84114 165.050781,196.960938 L165.050781,200.564453 C165.050781,201.117841 164.925457,201.536131 164.674805,201.819336 C164.424152,202.10254 164.093752,202.244141 163.683594,202.244141 C163.279946,202.244141 162.949546,202.10254 162.692383,201.819336 C162.43522,201.536131 162.306641,201.117841 162.306641,200.564453 L162.306641,192.9375 C162.306641,192.436195 162.422199,192.05534 162.65332,191.794922 C162.884441,191.534504 163.1888,191.404297 163.566406,191.404297 C163.930991,191.404297 164.23535,191.526366 164.479492,191.770508 C164.723634,192.01465 164.845703,192.35156 164.845703,192.78125 L164.845703,193.035156 C165.307945,192.481768 165.802732,192.074871 166.330078,191.814453 C166.857425,191.554035 167.443356,191.423828 168.087891,191.423828 C168.758467,191.423828 169.334633,191.55729 169.816406,191.824219 C170.298179,192.091147 170.695311,192.494789 171.007812,193.035156 C171.457033,192.488279 171.9388,192.083009 172.453125,191.819336 C172.96745,191.555663 173.537106,191.423828 174.162109,191.423828 C174.89128,191.423828 175.519529,191.567056 176.046875,191.853516 C176.574221,192.139975 176.968098,192.550128 177.228516,193.083984 C177.456381,193.565758 177.570312,194.324214 177.570312,195.359375 L177.570312,200.564453 C177.570312,201.124352 177.443361,201.544269 177.189453,201.824219 C176.935546,202.104168 176.600262,202.244141 176.183594,202.244141 C175.779946,202.244141 175.449546,202.10254 175.192383,201.819336 C174.93522,201.536131 174.806641,201.117841 174.806641,200.564453 L174.806641,196.082031 C174.806641,195.509112 174.782227,195.050132 174.733398,194.705078 C174.68457,194.360024 174.552735,194.070314 174.337891,193.835938 C174.123046,193.601561 173.797528,193.484375 173.361328,193.484375 C173.009764,193.484375 172.676108,193.588541 172.360352,193.796875 C172.044595,194.005209 171.798829,194.285154 171.623047,194.636719 C171.427733,195.08594 171.330078,195.880203 171.330078,197.019531 L171.330078,197.019531 Z" id="The-usual-dom" fill="#333333"></path>
                <path d="M237.9375,198.943359 C237.9375,199.275392 237.838217,199.630206 237.639648,200.007812 C237.44108,200.385419 237.138348,200.745115 236.731445,201.086914 C236.324542,201.428713 235.811852,201.703775 235.193359,201.912109 C234.574867,202.120444 233.878259,202.224609 233.103516,202.224609 C231.456372,202.224609 230.170578,201.744471 229.246094,200.78418 C228.32161,199.823888 227.859375,198.536466 227.859375,196.921875 C227.859375,195.82812 228.070961,194.861332 228.494141,194.021484 C228.91732,193.181636 229.529293,192.532229 230.330078,192.073242 C231.130863,191.614256 232.087885,191.384766 233.201172,191.384766 C233.891279,191.384766 234.524411,191.485676 235.100586,191.6875 C235.676761,191.889324 236.165037,192.149738 236.56543,192.46875 C236.965822,192.787762 237.271809,193.127928 237.483398,193.489258 C237.694988,193.850588 237.800781,194.187498 237.800781,194.5 C237.800781,194.819012 237.681967,195.089192 237.444336,195.310547 C237.206705,195.531902 236.918621,195.642578 236.580078,195.642578 C236.358723,195.642578 236.174805,195.585613 236.02832,195.47168 C235.881835,195.357747 235.717449,195.173829 235.535156,194.919922 C235.209634,194.425128 234.869468,194.054038 234.514648,193.806641 C234.159829,193.559244 233.708987,193.435547 233.162109,193.435547 C232.374345,193.435547 231.739586,193.743161 231.257812,194.358398 C230.776039,194.973636 230.535156,195.815099 230.535156,196.882812 C230.535156,197.384117 230.597005,197.844724 230.720703,198.264648 C230.844402,198.684572 231.023436,199.042642 231.257812,199.338867 C231.492189,199.635093 231.775389,199.8597 232.107422,200.012695 C232.439455,200.165691 232.804034,200.242188 233.201172,200.242188 C233.735029,200.242188 234.192381,200.118491 234.573242,199.871094 C234.954103,199.623697 235.291014,199.246096 235.583984,198.738281 C235.746746,198.438801 235.922525,198.204428 236.111328,198.035156 C236.300131,197.865885 236.531249,197.78125 236.804688,197.78125 C237.13021,197.78125 237.40039,197.904947 237.615234,198.152344 C237.830079,198.399741 237.9375,198.66341 237.9375,198.943359 L237.9375,198.943359 Z M239.763672,200.623047 L239.763672,189.060547 C239.763672,188.52669 239.882486,188.123048 240.120117,187.849609 C240.357749,187.576171 240.678383,187.439453 241.082031,187.439453 C241.485679,187.439453 241.811197,187.574543 242.058594,187.844727 C242.305991,188.11491 242.429688,188.52018 242.429688,189.060547 L242.429688,200.623047 C242.429688,201.163414 242.304363,201.568684 242.053711,201.838867 C241.803059,202.109051 241.479169,202.244141 241.082031,202.244141 C240.691404,202.244141 240.374025,202.104168 240.129883,201.824219 C239.885741,201.544269 239.763672,201.143883 239.763672,200.623047 L239.763672,200.623047 Z M251.921875,200.740234 C251.277341,201.241539 250.653974,201.617512 250.051758,201.868164 C249.449541,202.118816 248.774092,202.244141 248.025391,202.244141 C247.341793,202.244141 246.741214,202.109051 246.223633,201.838867 C245.706052,201.568684 245.307293,201.202476 245.027344,200.740234 C244.747394,200.277992 244.607422,199.776695 244.607422,199.236328 C244.607422,198.507158 244.838539,197.885419 245.300781,197.371094 C245.763023,196.856768 246.397782,196.51172 247.205078,196.335938 C247.37435,196.296875 247.794267,196.208985 248.464844,196.072266 C249.13542,195.935546 249.709959,195.810222 250.188477,195.696289 C250.666995,195.582356 251.186195,195.444011 251.746094,195.28125 C251.713542,194.578121 251.571941,194.062176 251.321289,193.733398 C251.070637,193.404621 250.551436,193.240234 249.763672,193.240234 C249.086585,193.240234 248.57715,193.334634 248.235352,193.523438 C247.893553,193.712241 247.600587,193.995441 247.356445,194.373047 C247.112303,194.750653 246.939779,194.999674 246.838867,195.120117 C246.737955,195.24056 246.521486,195.300781 246.189453,195.300781 C245.889972,195.300781 245.631186,195.204754 245.413086,195.012695 C245.194986,194.820637 245.085938,194.574871 245.085938,194.275391 C245.085938,193.806638 245.251951,193.350914 245.583984,192.908203 C245.916017,192.465493 246.43359,192.100913 247.136719,191.814453 C247.839847,191.527993 248.71549,191.384766 249.763672,191.384766 C250.935553,191.384766 251.856767,191.523111 252.527344,191.799805 C253.19792,192.076499 253.671548,192.51432 253.948242,193.113281 C254.224936,193.712243 254.363281,194.506505 254.363281,195.496094 C254.363281,196.121097 254.361654,196.651691 254.358398,197.087891 C254.355143,197.524091 254.35026,198.009112 254.34375,198.542969 C254.34375,199.044273 254.426757,199.566729 254.592773,200.110352 C254.75879,200.653974 254.841797,201.003905 254.841797,201.160156 C254.841797,201.433595 254.713217,201.682616 254.456055,201.907227 C254.198892,202.131837 253.907554,202.244141 253.582031,202.244141 C253.308592,202.244141 253.038413,202.115561 252.771484,201.858398 C252.504556,201.601236 252.221356,201.228518 251.921875,200.740234 L251.921875,200.740234 Z M251.746094,196.882812 C251.355467,197.026042 250.787439,197.177408 250.041992,197.336914 C249.296546,197.49642 248.7806,197.613606 248.494141,197.688477 C248.207681,197.763347 247.934246,197.90983 247.673828,198.12793 C247.41341,198.34603 247.283203,198.650389 247.283203,199.041016 C247.283203,199.444663 247.436196,199.788085 247.742188,200.071289 C248.048179,200.354494 248.448565,200.496094 248.943359,200.496094 C249.470706,200.496094 249.957355,200.380535 250.40332,200.149414 C250.849286,199.918293 251.176431,199.620445 251.384766,199.255859 C251.625652,198.852212 251.746094,198.188156 251.746094,197.263672 L251.746094,196.882812 Z M265.652344,198.757812 C265.652344,199.493493 265.473309,200.12337 265.115234,200.647461 C264.75716,201.171552 264.228194,201.568684 263.52832,201.838867 C262.828447,202.109051 261.977219,202.244141 260.974609,202.244141 C260.017573,202.244141 259.197269,202.097658 258.513672,201.804688 C257.830075,201.511717 257.325522,201.14551 257,200.706055 C256.674478,200.266599 256.511719,199.825523 256.511719,199.382812 C256.511719,199.089842 256.615884,198.839194 256.824219,198.630859 C257.032553,198.422525 257.296222,198.318359 257.615234,198.318359 C257.895184,198.318359 258.110025,198.386718 258.259766,198.523438 C258.409506,198.660157 258.552734,198.852212 258.689453,199.099609 C258.962892,199.574872 259.290037,199.929686 259.670898,200.164062 C260.05176,200.398439 260.57096,200.515625 261.228516,200.515625 C261.762372,200.515625 262.200194,200.396811 262.541992,200.15918 C262.883791,199.921548 263.054688,199.649741 263.054688,199.34375 C263.054688,198.874998 262.87728,198.533204 262.522461,198.318359 C262.167641,198.103515 261.583337,197.898438 260.769531,197.703125 C259.851558,197.475259 259.104495,197.236004 258.52832,196.985352 C257.952146,196.734699 257.491538,196.404299 257.146484,195.994141 C256.801431,195.583982 256.628906,195.07943 256.628906,194.480469 C256.628906,193.946612 256.78841,193.44206 257.107422,192.966797 C257.426434,192.491534 257.896807,192.112306 258.518555,191.829102 C259.140303,191.545897 259.890621,191.404297 260.769531,191.404297 C261.459639,191.404297 262.07975,191.475911 262.629883,191.619141 C263.180016,191.762371 263.638996,191.954426 264.006836,192.195312 C264.374676,192.436199 264.654621,192.703124 264.84668,192.996094 C265.038738,193.289064 265.134766,193.575519 265.134766,193.855469 C265.134766,194.16146 265.032228,194.412108 264.827148,194.607422 C264.622069,194.802735 264.330731,194.900391 263.953125,194.900391 C263.679686,194.900391 263.446941,194.822266 263.254883,194.666016 C263.062825,194.509765 262.8431,194.275392 262.595703,193.962891 C262.393879,193.702473 262.156251,193.494141 261.882812,193.337891 C261.609374,193.18164 261.238284,193.103516 260.769531,193.103516 C260.287758,193.103516 259.887371,193.206054 259.568359,193.411133 C259.249347,193.616212 259.089844,193.871743 259.089844,194.177734 C259.089844,194.457684 259.20703,194.687174 259.441406,194.866211 C259.675782,195.045248 259.991534,195.193359 260.388672,195.310547 C260.785809,195.427735 261.332679,195.570963 262.029297,195.740234 C262.856124,195.942058 263.531573,196.182941 264.055664,196.462891 C264.579755,196.74284 264.976887,197.07324 265.24707,197.454102 C265.517254,197.834963 265.652344,198.269529 265.652344,198.757812 L265.652344,198.757812 Z M276.492188,198.757812 C276.492188,199.493493 276.313153,200.12337 275.955078,200.647461 C275.597003,201.171552 275.068037,201.568684 274.368164,201.838867 C273.668291,202.109051 272.817062,202.244141 271.814453,202.244141 C270.857417,202.244141 270.037113,202.097658 269.353516,201.804688 C268.669918,201.511717 268.165366,201.14551 267.839844,200.706055 C267.514321,200.266599 267.351562,199.825523 267.351562,199.382812 C267.351562,199.089842 267.455728,198.839194 267.664062,198.630859 C267.872397,198.422525 268.136066,198.318359 268.455078,198.318359 C268.735027,198.318359 268.949869,198.386718 269.099609,198.523438 C269.24935,198.660157 269.392577,198.852212 269.529297,199.099609 C269.802736,199.574872 270.129881,199.929686 270.510742,200.164062 C270.891603,200.398439 271.410804,200.515625 272.068359,200.515625 C272.602216,200.515625 273.040037,200.396811 273.381836,200.15918 C273.723635,199.921548 273.894531,199.649741 273.894531,199.34375 C273.894531,198.874998 273.717124,198.533204 273.362305,198.318359 C273.007485,198.103515 272.423181,197.898438 271.609375,197.703125 C270.691402,197.475259 269.944339,197.236004 269.368164,196.985352 C268.791989,196.734699 268.331382,196.404299 267.986328,195.994141 C267.641274,195.583982 267.46875,195.07943 267.46875,194.480469 C267.46875,193.946612 267.628254,193.44206 267.947266,192.966797 C268.266278,192.491534 268.736651,192.112306 269.358398,191.829102 C269.980146,191.545897 270.730464,191.404297 271.609375,191.404297 C272.299483,191.404297 272.919594,191.475911 273.469727,191.619141 C274.01986,191.762371 274.478839,191.954426 274.84668,192.195312 C275.21452,192.436199 275.494465,192.703124 275.686523,192.996094 C275.878582,193.289064 275.974609,193.575519 275.974609,193.855469 C275.974609,194.16146 275.872071,194.412108 275.666992,194.607422 C275.461913,194.802735 275.170575,194.900391 274.792969,194.900391 C274.51953,194.900391 274.286785,194.822266 274.094727,194.666016 C273.902668,194.509765 273.682944,194.275392 273.435547,193.962891 C273.233723,193.702473 272.996095,193.494141 272.722656,193.337891 C272.449217,193.18164 272.078127,193.103516 271.609375,193.103516 C271.127602,193.103516 270.727215,193.206054 270.408203,193.411133 C270.089191,193.616212 269.929688,193.871743 269.929688,194.177734 C269.929688,194.457684 270.046874,194.687174 270.28125,194.866211 C270.515626,195.045248 270.831378,195.193359 271.228516,195.310547 C271.625653,195.427735 272.172523,195.570963 272.869141,195.740234 C273.695968,195.942058 274.371417,196.182941 274.895508,196.462891 C275.419599,196.74284 275.81673,197.07324 276.086914,197.454102 C276.357098,197.834963 276.492188,198.269529 276.492188,198.757812 L276.492188,198.757812 Z M282.253906,197.976562 L279.167969,197.976562 C278.699216,197.976562 278.342775,197.867514 278.098633,197.649414 C277.854491,197.431314 277.732422,197.149741 277.732422,196.804688 C277.732422,196.453123 277.851236,196.168295 278.088867,195.950195 C278.326499,195.732095 278.686196,195.623047 279.167969,195.623047 L282.253906,195.623047 C282.735679,195.623047 283.095376,195.732095 283.333008,195.950195 C283.570639,196.168295 283.689453,196.453123 283.689453,196.804688 C283.689453,197.149741 283.572267,197.431314 283.337891,197.649414 C283.103514,197.867514 282.74219,197.976562 282.253906,197.976562 L282.253906,197.976562 Z M294.96875,198.943359 C294.96875,199.275392 294.869467,199.630206 294.670898,200.007812 C294.47233,200.385419 294.169598,200.745115 293.762695,201.086914 C293.355792,201.428713 292.843102,201.703775 292.224609,201.912109 C291.606117,202.120444 290.909509,202.224609 290.134766,202.224609 C288.487622,202.224609 287.201828,201.744471 286.277344,200.78418 C285.35286,199.823888 284.890625,198.536466 284.890625,196.921875 C284.890625,195.82812 285.102211,194.861332 285.525391,194.021484 C285.94857,193.181636 286.560543,192.532229 287.361328,192.073242 C288.162113,191.614256 289.119135,191.384766 290.232422,191.384766 C290.922529,191.384766 291.555661,191.485676 292.131836,191.6875 C292.708011,191.889324 293.196287,192.149738 293.59668,192.46875 C293.997072,192.787762 294.303059,193.127928 294.514648,193.489258 C294.726238,193.850588 294.832031,194.187498 294.832031,194.5 C294.832031,194.819012 294.713217,195.089192 294.475586,195.310547 C294.237955,195.531902 293.949871,195.642578 293.611328,195.642578 C293.389973,195.642578 293.206055,195.585613 293.05957,195.47168 C292.913085,195.357747 292.748699,195.173829 292.566406,194.919922 C292.240884,194.425128 291.900718,194.054038 291.545898,193.806641 C291.191079,193.559244 290.740237,193.435547 290.193359,193.435547 C289.405595,193.435547 288.770836,193.743161 288.289062,194.358398 C287.807289,194.973636 287.566406,195.815099 287.566406,196.882812 C287.566406,197.384117 287.628255,197.844724 287.751953,198.264648 C287.875652,198.684572 288.054686,199.042642 288.289062,199.338867 C288.523439,199.635093 288.806639,199.8597 289.138672,200.012695 C289.470705,200.165691 289.835284,200.242188 290.232422,200.242188 C290.766279,200.242188 291.223631,200.118491 291.604492,199.871094 C291.985353,199.623697 292.322264,199.246096 292.615234,198.738281 C292.777996,198.438801 292.953775,198.204428 293.142578,198.035156 C293.331381,197.865885 293.562499,197.78125 293.835938,197.78125 C294.16146,197.78125 294.43164,197.904947 294.646484,198.152344 C294.861329,198.399741 294.96875,198.66341 294.96875,198.943359 L294.96875,198.943359 Z M307.273438,196.824219 C307.273438,197.618494 307.149741,198.350908 306.902344,199.021484 C306.654947,199.692061 306.296877,200.268227 305.828125,200.75 C305.359373,201.231773 304.799482,201.601236 304.148438,201.858398 C303.497393,202.115561 302.764978,202.244141 301.951172,202.244141 C301.143876,202.244141 300.417972,202.113934 299.773438,201.853516 C299.128903,201.593098 298.57064,201.22038 298.098633,200.735352 C297.626625,200.250323 297.268556,199.677412 297.024414,199.016602 C296.780272,198.355791 296.658203,197.625004 296.658203,196.824219 C296.658203,196.016923 296.7819,195.277998 297.029297,194.607422 C297.276694,193.936846 297.631508,193.363935 298.09375,192.888672 C298.555992,192.413409 299.115882,192.047202 299.773438,191.790039 C300.430993,191.532876 301.156897,191.404297 301.951172,191.404297 C302.758468,191.404297 303.490882,191.534504 304.148438,191.794922 C304.805993,192.05534 305.369138,192.42643 305.837891,192.908203 C306.306643,193.389976 306.663085,193.962887 306.907227,194.626953 C307.151368,195.291019 307.273438,196.023433 307.273438,196.824219 L307.273438,196.824219 Z M304.597656,196.824219 C304.597656,195.736974 304.358401,194.890628 303.879883,194.285156 C303.401365,193.679684 302.758468,193.376953 301.951172,193.376953 C301.430336,193.376953 300.971356,193.512043 300.574219,193.782227 C300.177081,194.05241 299.871095,194.451169 299.65625,194.978516 C299.441405,195.505862 299.333984,196.12109 299.333984,196.824219 C299.333984,197.520837 299.439778,198.129555 299.651367,198.650391 C299.862957,199.171227 300.165688,199.569986 300.55957,199.84668 C300.953452,200.123374 301.417315,200.261719 301.951172,200.261719 C302.758468,200.261719 303.401365,199.95736 303.879883,199.348633 C304.358401,198.739906 304.597656,197.898443 304.597656,196.824219 L304.597656,196.824219 Z M318.240234,197.019531 L318.240234,200.564453 C318.240234,201.124352 318.113283,201.544269 317.859375,201.824219 C317.605467,202.104168 317.270184,202.244141 316.853516,202.244141 C316.449868,202.244141 316.122723,202.104168 315.87207,201.824219 C315.621418,201.544269 315.496094,201.124352 315.496094,200.564453 L315.496094,196.316406 C315.496094,195.64583 315.473308,195.125002 315.427734,194.753906 C315.382161,194.382811 315.258465,194.078452 315.056641,193.84082 C314.854817,193.603189 314.535809,193.484375 314.099609,193.484375 C313.227209,193.484375 312.652671,193.783851 312.375977,194.382812 C312.099282,194.981774 311.960938,195.84114 311.960938,196.960938 L311.960938,200.564453 C311.960938,201.117841 311.835613,201.536131 311.584961,201.819336 C311.334309,202.10254 311.003908,202.244141 310.59375,202.244141 C310.190102,202.244141 309.859702,202.10254 309.602539,201.819336 C309.345376,201.536131 309.216797,201.117841 309.216797,200.564453 L309.216797,192.9375 C309.216797,192.436195 309.332356,192.05534 309.563477,191.794922 C309.794598,191.534504 310.098956,191.404297 310.476562,191.404297 C310.841148,191.404297 311.145507,191.526366 311.389648,191.770508 C311.63379,192.01465 311.755859,192.35156 311.755859,192.78125 L311.755859,193.035156 C312.218101,192.481768 312.712888,192.074871 313.240234,191.814453 C313.767581,191.554035 314.353512,191.423828 314.998047,191.423828 C315.668623,191.423828 316.244789,191.55729 316.726562,191.824219 C317.208336,192.091147 317.605467,192.494789 317.917969,193.035156 C318.36719,192.488279 318.848956,192.083009 319.363281,191.819336 C319.877607,191.555663 320.447262,191.423828 321.072266,191.423828 C321.801436,191.423828 322.429685,191.567056 322.957031,191.853516 C323.484378,192.139975 323.878254,192.550128 324.138672,193.083984 C324.366538,193.565758 324.480469,194.324214 324.480469,195.359375 L324.480469,200.564453 C324.480469,201.124352 324.353517,201.544269 324.099609,201.824219 C323.845702,202.104168 323.510419,202.244141 323.09375,202.244141 C322.690102,202.244141 322.359702,202.10254 322.102539,201.819336 C321.845376,201.536131 321.716797,201.117841 321.716797,200.564453 L321.716797,196.082031 C321.716797,195.509112 321.692383,195.050132 321.643555,194.705078 C321.594726,194.360024 321.462892,194.070314 321.248047,193.835938 C321.033202,193.601561 320.707684,193.484375 320.271484,193.484375 C319.91992,193.484375 319.586265,193.588541 319.270508,193.796875 C318.954751,194.005209 318.708985,194.285154 318.533203,194.636719 C318.33789,195.08594 318.240234,195.880203 318.240234,197.019531 L318.240234,197.019531 Z M329.529297,192.898438 L329.529297,193.220703 C330.030601,192.60221 330.55143,192.148113 331.091797,191.858398 C331.632164,191.568683 332.244137,191.423828 332.927734,191.423828 C333.748051,191.423828 334.503252,191.635415 335.193359,192.058594 C335.883467,192.481773 336.428709,193.100256 336.829102,193.914062 C337.229494,194.727869 337.429688,195.691401 337.429688,196.804688 C337.429688,197.625004 337.314129,198.378577 337.083008,199.06543 C336.851887,199.752282 336.534507,200.328448 336.130859,200.793945 C335.727212,201.259442 335.250328,201.617512 334.700195,201.868164 C334.150062,202.118816 333.559248,202.244141 332.927734,202.244141 C332.166012,202.244141 331.52637,202.091147 331.008789,201.785156 C330.491208,201.479165 329.998049,201.029951 329.529297,200.4375 L329.529297,204.441406 C329.529297,205.613287 329.102869,206.199219 328.25,206.199219 C327.748695,206.199219 327.416667,206.047853 327.253906,205.745117 C327.091145,205.442381 327.009766,205.001305 327.009766,204.421875 L327.009766,192.917969 C327.009766,192.410154 327.120442,192.030926 327.341797,191.780273 C327.563152,191.529621 327.865883,191.404297 328.25,191.404297 C328.627606,191.404297 328.93522,191.532876 329.172852,191.790039 C329.410483,192.047202 329.529297,192.416664 329.529297,192.898438 L329.529297,192.898438 Z M334.753906,196.775391 C334.753906,196.072262 334.646485,195.468427 334.431641,194.963867 C334.216796,194.459307 333.918947,194.071941 333.538086,193.801758 C333.157225,193.531574 332.735679,193.396484 332.273438,193.396484 C331.537757,193.396484 330.917646,193.686195 330.413086,194.265625 C329.908526,194.845055 329.65625,195.697911 329.65625,196.824219 C329.65625,197.885422 329.906899,198.710609 330.408203,199.299805 C330.909508,199.889 331.531246,200.183594 332.273438,200.183594 C332.716148,200.183594 333.1263,200.055014 333.503906,199.797852 C333.881512,199.540689 334.184244,199.15495 334.412109,198.640625 C334.639975,198.1263 334.753906,197.504561 334.753906,196.775391 L334.753906,196.775391 Z M349.548828,196.824219 C349.548828,197.618494 349.425131,198.350908 349.177734,199.021484 C348.930337,199.692061 348.572268,200.268227 348.103516,200.75 C347.634763,201.231773 347.074873,201.601236 346.423828,201.858398 C345.772783,202.115561 345.040369,202.244141 344.226562,202.244141 C343.419267,202.244141 342.693363,202.113934 342.048828,201.853516 C341.404294,201.593098 340.846031,201.22038 340.374023,200.735352 C339.902016,200.250323 339.543947,199.677412 339.299805,199.016602 C339.055663,198.355791 338.933594,197.625004 338.933594,196.824219 C338.933594,196.016923 339.05729,195.277998 339.304688,194.607422 C339.552085,193.936846 339.906899,193.363935 340.369141,192.888672 C340.831383,192.413409 341.391273,192.047202 342.048828,191.790039 C342.706383,191.532876 343.432288,191.404297 344.226562,191.404297 C345.033858,191.404297 345.766273,191.534504 346.423828,191.794922 C347.081383,192.05534 347.644529,192.42643 348.113281,192.908203 C348.582034,193.389976 348.938475,193.962887 349.182617,194.626953 C349.426759,195.291019 349.548828,196.023433 349.548828,196.824219 L349.548828,196.824219 Z M346.873047,196.824219 C346.873047,195.736974 346.633791,194.890628 346.155273,194.285156 C345.676755,193.679684 345.033858,193.376953 344.226562,193.376953 C343.705727,193.376953 343.246747,193.512043 342.849609,193.782227 C342.452472,194.05241 342.146485,194.451169 341.931641,194.978516 C341.716796,195.505862 341.609375,196.12109 341.609375,196.824219 C341.609375,197.520837 341.715168,198.129555 341.926758,198.650391 C342.138347,199.171227 342.441079,199.569986 342.834961,199.84668 C343.228843,200.123374 343.692706,200.261719 344.226562,200.261719 C345.033858,200.261719 345.676755,199.95736 346.155273,199.348633 C346.633791,198.739906 346.873047,197.898443 346.873047,196.824219 L346.873047,196.824219 Z M354.070312,192.878906 L354.070312,193.201172 C354.539065,192.582679 355.051755,192.128582 355.608398,191.838867 C356.165042,191.549152 356.804684,191.404297 357.527344,191.404297 C358.230472,191.404297 358.858721,191.55729 359.412109,191.863281 C359.965498,192.169272 360.378905,192.602211 360.652344,193.162109 C360.828126,193.487632 360.942057,193.839191 360.994141,194.216797 C361.046224,194.594403 361.072266,195.076169 361.072266,195.662109 L361.072266,200.623047 C361.072266,201.156904 360.950197,201.560546 360.706055,201.833984 C360.461913,202.107423 360.144533,202.244141 359.753906,202.244141 C359.356769,202.244141 359.034506,202.104168 358.787109,201.824219 C358.539712,201.544269 358.416016,201.143883 358.416016,200.623047 L358.416016,196.179688 C358.416016,195.300777 358.293947,194.628583 358.049805,194.163086 C357.805663,193.697589 357.319014,193.464844 356.589844,193.464844 C356.114581,193.464844 355.681643,193.606444 355.291016,193.889648 C354.900389,194.172853 354.613933,194.561846 354.431641,195.056641 C354.301432,195.453778 354.236328,196.195958 354.236328,197.283203 L354.236328,200.623047 C354.236328,201.163414 354.111004,201.568684 353.860352,201.838867 C353.609699,202.109051 353.285809,202.244141 352.888672,202.244141 C352.504555,202.244141 352.188803,202.104168 351.941406,201.824219 C351.694009,201.544269 351.570312,201.143883 351.570312,200.623047 L351.570312,192.917969 C351.570312,192.410154 351.680988,192.030926 351.902344,191.780273 C352.123699,191.529621 352.42643,191.404297 352.810547,191.404297 C353.044923,191.404297 353.256509,191.459635 353.445312,191.570312 C353.634116,191.68099 353.785481,191.847004 353.899414,192.068359 C354.013347,192.289715 354.070312,192.559894 354.070312,192.878906 L354.070312,192.878906 Z M371.169922,197.478516 L365.955078,197.478516 C365.961589,198.083987 366.083658,198.617836 366.321289,199.080078 C366.55892,199.54232 366.874673,199.890624 367.268555,200.125 C367.662437,200.359376 368.097003,200.476562 368.572266,200.476562 C368.891278,200.476562 369.182616,200.439128 369.446289,200.364258 C369.709962,200.289388 369.965494,200.172201 370.212891,200.012695 C370.460288,199.853189 370.68815,199.682293 370.896484,199.5 C371.104819,199.317707 371.374998,199.070314 371.707031,198.757812 C371.843751,198.640624 372.039061,198.582031 372.292969,198.582031 C372.566408,198.582031 372.78776,198.6569 372.957031,198.806641 C373.126303,198.956381 373.210938,199.167967 373.210938,199.441406 C373.210938,199.682293 373.116537,199.963866 372.927734,200.286133 C372.738931,200.6084 372.454103,200.917642 372.073242,201.213867 C371.692381,201.510093 371.21387,201.755858 370.637695,201.951172 C370.061521,202.146485 369.399092,202.244141 368.650391,202.244141 C366.938142,202.244141 365.606776,201.755864 364.65625,200.779297 C363.705724,199.802729 363.230469,198.477873 363.230469,196.804688 C363.230469,196.016923 363.347655,195.286136 363.582031,194.612305 C363.816407,193.938473 364.158201,193.360679 364.607422,192.878906 C365.056643,192.397133 365.610023,192.027671 366.267578,191.770508 C366.925133,191.513345 367.654293,191.384766 368.455078,191.384766 C369.49675,191.384766 370.390296,191.60449 371.135742,192.043945 C371.881189,192.483401 372.439451,193.051429 372.810547,193.748047 C373.181642,194.444665 373.367188,195.154293 373.367188,195.876953 C373.367188,196.547529 373.175132,196.982095 372.791016,197.180664 C372.406899,197.379233 371.86654,197.478516 371.169922,197.478516 L371.169922,197.478516 Z M365.955078,195.964844 L370.789062,195.964844 C370.723958,195.053381 370.478192,194.371422 370.051758,193.918945 C369.625323,193.466469 369.063806,193.240234 368.367188,193.240234 C367.703122,193.240234 367.15788,193.469724 366.731445,193.928711 C366.305011,194.387698 366.046224,195.066402 365.955078,195.964844 L365.955078,195.964844 Z M378.035156,192.878906 L378.035156,193.201172 C378.503909,192.582679 379.016599,192.128582 379.573242,191.838867 C380.129886,191.549152 380.769528,191.404297 381.492188,191.404297 C382.195316,191.404297 382.823565,191.55729 383.376953,191.863281 C383.930341,192.169272 384.343749,192.602211 384.617188,193.162109 C384.79297,193.487632 384.906901,193.839191 384.958984,194.216797 C385.011068,194.594403 385.037109,195.076169 385.037109,195.662109 L385.037109,200.623047 C385.037109,201.156904 384.91504,201.560546 384.670898,201.833984 C384.426757,202.107423 384.109377,202.244141 383.71875,202.244141 C383.321613,202.244141 382.99935,202.104168 382.751953,201.824219 C382.504556,201.544269 382.380859,201.143883 382.380859,200.623047 L382.380859,196.179688 C382.380859,195.300777 382.25879,194.628583 382.014648,194.163086 C381.770507,193.697589 381.283858,193.464844 380.554688,193.464844 C380.079425,193.464844 379.646486,193.606444 379.255859,193.889648 C378.865232,194.172853 378.578777,194.561846 378.396484,195.056641 C378.266275,195.453778 378.201172,196.195958 378.201172,197.283203 L378.201172,200.623047 C378.201172,201.163414 378.075848,201.568684 377.825195,201.838867 C377.574543,202.109051 377.250653,202.244141 376.853516,202.244141 C376.469399,202.244141 376.153647,202.104168 375.90625,201.824219 C375.658853,201.544269 375.535156,201.143883 375.535156,200.623047 L375.535156,192.917969 C375.535156,192.410154 375.645832,192.030926 375.867188,191.780273 C376.088543,191.529621 376.391274,191.404297 376.775391,191.404297 C377.009767,191.404297 377.221353,191.459635 377.410156,191.570312 C377.598959,191.68099 377.750325,191.847004 377.864258,192.068359 C377.978191,192.289715 378.035156,192.559894 378.035156,192.878906 L378.035156,192.878906 Z M387.839844,191.638672 L388.132812,191.638672 L388.132812,190.037109 C388.132812,189.60742 388.144206,189.270509 388.166992,189.026367 C388.189779,188.782225 388.253255,188.572267 388.357422,188.396484 C388.461589,188.214192 388.611327,188.066081 388.806641,187.952148 C389.001954,187.838216 389.220051,187.78125 389.460938,187.78125 C389.799481,187.78125 390.105467,187.908202 390.378906,188.162109 C390.561199,188.331381 390.676758,188.538085 390.725586,188.782227 C390.774414,189.026368 390.798828,189.373045 390.798828,189.822266 L390.798828,191.638672 L391.775391,191.638672 C392.152997,191.638672 392.44108,191.728189 392.639648,191.907227 C392.838217,192.086264 392.9375,192.315754 392.9375,192.595703 C392.9375,192.953778 392.7959,193.204426 392.512695,193.347656 C392.229491,193.490886 391.824221,193.5625 391.296875,193.5625 L390.798828,193.5625 L390.798828,198.464844 C390.798828,198.881512 390.813476,199.202147 390.842773,199.426758 C390.87207,199.651368 390.950195,199.833658 391.077148,199.973633 C391.204102,200.113607 391.410806,200.183594 391.697266,200.183594 C391.853516,200.183594 392.065103,200.155925 392.332031,200.100586 C392.59896,200.045247 392.807291,200.017578 392.957031,200.017578 C393.171876,200.017578 393.365559,200.10384 393.538086,200.276367 C393.710613,200.448894 393.796875,200.662108 393.796875,200.916016 C393.796875,201.345705 393.562502,201.674478 393.09375,201.902344 C392.624998,202.130209 391.951176,202.244141 391.072266,202.244141 C390.238928,202.244141 389.607424,202.104168 389.177734,201.824219 C388.748045,201.544269 388.466472,201.156904 388.333008,200.662109 C388.199544,200.167315 388.132812,199.506515 388.132812,198.679688 L388.132812,193.5625 L387.78125,193.5625 C387.397133,193.5625 387.104168,193.471355 386.902344,193.289062 C386.70052,193.10677 386.599609,192.875652 386.599609,192.595703 C386.599609,192.315754 386.705403,192.086264 386.916992,191.907227 C387.128582,191.728189 387.436196,191.638672 387.839844,191.638672 L387.839844,191.638672 Z" id="class-component" fill="#333333"></path>
                <path d="M100.542969,52.4433594 L100.542969,53.4980469 C101.239587,53.5696618 101.836912,53.7128896 102.334961,53.9277344 C102.83301,54.1425792 103.267576,54.4680968 103.638672,54.9042969 C103.931642,55.2363298 104.157877,55.5781232 104.317383,55.9296875 C104.476889,56.2812518 104.556641,56.6035142 104.556641,56.8964844 C104.556641,57.2220068 104.437827,57.5035795 104.200195,57.7412109 C103.962564,57.9788423 103.674481,58.0976562 103.335938,58.0976562 C102.697913,58.0976562 102.284506,57.7526076 102.095703,57.0625 C101.880858,56.2486938 101.363285,55.7083347 100.542969,55.4414062 L100.542969,59.5039062 C101.350264,59.7252615 101.993162,59.9270824 102.47168,60.109375 C102.950198,60.2916676 103.378253,60.5553368 103.755859,60.9003906 C104.159507,61.2584653 104.470377,61.6865209 104.688477,62.1845703 C104.906577,62.6826197 105.015625,63.2278616 105.015625,63.8203125 C105.015625,64.5625037 104.841473,65.2574837 104.493164,65.9052734 C104.144855,66.5530631 103.632165,67.0820292 102.955078,67.4921875 C102.277991,67.9023458 101.473963,68.146484 100.542969,68.2246094 L100.542969,70.65625 C100.542969,71.0403665 100.505534,71.3203116 100.430664,71.4960938 C100.355794,71.6718759 100.191408,71.7597656 99.9375,71.7597656 C99.7031238,71.7597656 99.5387375,71.6881518 99.4443359,71.5449219 C99.3499344,71.401692 99.3027344,71.18034 99.3027344,70.8808594 L99.3027344,68.2441406 C98.5410118,68.1595048 97.8753284,67.9804701 97.3056641,67.7070312 C96.7359998,67.4335924 96.2607441,67.0934265 95.8798828,66.6865234 C95.4990215,66.2796204 95.2174488,65.8564475 95.0351562,65.4169922 C94.8528637,64.9775369 94.7617188,64.5462261 94.7617188,64.1230469 C94.7617188,63.8105453 94.8837878,63.5289726 95.1279297,63.2783203 C95.3720715,63.027668 95.6764305,62.9023438 96.0410156,62.9023438 C96.3339858,62.9023438 96.5813792,62.9707024 96.7832031,63.1074219 C96.9850271,63.2441413 97.1249996,63.4361967 97.203125,63.6835938 C97.3789071,64.2174506 97.5319004,64.6259751 97.6621094,64.9091797 C97.7923184,65.1923842 97.9892565,65.4511707 98.2529297,65.6855469 C98.5166029,65.919923 98.8665343,66.0989577 99.3027344,66.2226562 L99.3027344,61.6816406 C98.4303342,61.440754 97.7011748,61.172202 97.1152344,60.8759766 C96.5292939,60.5797511 96.0540383,60.1582059 95.6894531,59.6113281 C95.324868,59.0644504 95.1425781,58.3613324 95.1425781,57.5019531 C95.1425781,56.3821559 95.4990199,55.4641963 96.2119141,54.7480469 C96.9248083,54.0318975 97.9550714,53.615235 99.3027344,53.4980469 L99.3027344,52.4628906 C99.3027344,51.9160129 99.5078104,51.6425781 99.9179688,51.6425781 C100.334637,51.6425781 100.542969,51.9095025 100.542969,52.4433594 L100.542969,52.4433594 Z M99.3027344,59.1425781 L99.3027344,55.4023438 C98.7558566,55.565105 98.3294286,55.7799466 98.0234375,56.046875 C97.7174464,56.3138034 97.5644531,56.7174452 97.5644531,57.2578125 C97.5644531,57.772138 97.7076809,58.1611315 97.9941406,58.4248047 C98.2806004,58.6884779 98.7167939,58.9277333 99.3027344,59.1425781 L99.3027344,59.1425781 Z M100.542969,62.0429688 L100.542969,66.3203125 C101.200524,66.1901035 101.708332,65.9264343 102.066406,65.5292969 C102.424481,65.1321595 102.603516,64.6699245 102.603516,64.1425781 C102.603516,63.576169 102.429364,63.1383479 102.081055,62.8291016 C101.732746,62.5198552 101.220055,62.2578136 100.542969,62.0429688 L100.542969,62.0429688 Z M109.029297,68.2441406 C108.625649,68.2441406 108.277345,68.1139336 107.984375,67.8535156 C107.691405,67.5930977 107.544922,67.228518 107.544922,66.7597656 C107.544922,66.3626282 107.684894,66.0208348 107.964844,65.734375 C108.244793,65.4479152 108.589842,65.3046875 109,65.3046875 C109.410158,65.3046875 109.76009,65.4462876 110.049805,65.7294922 C110.33952,66.0126967 110.484375,66.3561178 110.484375,66.7597656 C110.484375,67.2220075 110.33952,67.5849596 110.049805,67.8486328 C109.76009,68.112306 109.419924,68.2441406 109.029297,68.2441406 L109.029297,68.2441406 Z M123.082031,64.9433594 C123.082031,65.2753923 122.982748,65.6302064 122.78418,66.0078125 C122.585611,66.3854186 122.28288,66.7451155 121.875977,67.0869141 C121.469073,67.4287126 120.956383,67.703775 120.337891,67.9121094 C119.719398,68.1204437 119.02279,68.2246094 118.248047,68.2246094 C116.600903,68.2246094 115.315109,67.7444709 114.390625,66.7841797 C113.466141,65.8238884 113.003906,64.5364664 113.003906,62.921875 C113.003906,61.8281195 113.215493,60.8613323 113.638672,60.0214844 C114.061851,59.1816364 114.673824,58.5322289 115.474609,58.0732422 C116.275395,57.6142555 117.232416,57.3847656 118.345703,57.3847656 C119.035811,57.3847656 119.668942,57.4856761 120.245117,57.6875 C120.821292,57.8893239 121.309568,58.149738 121.709961,58.46875 C122.110354,58.787762 122.41634,59.1279279 122.62793,59.4892578 C122.839519,59.8505877 122.945312,60.1874984 122.945312,60.5 C122.945312,60.819012 122.826499,61.0891916 122.588867,61.3105469 C122.351236,61.5319021 122.063153,61.6425781 121.724609,61.6425781 C121.503254,61.6425781 121.319337,61.5856125 121.172852,61.4716797 C121.026366,61.3577468 120.86198,61.1738294 120.679688,60.9199219 C120.354165,60.4251277 120.013999,60.0540377 119.65918,59.8066406 C119.30436,59.5592436 118.853518,59.4355469 118.306641,59.4355469 C117.518876,59.4355469 116.884117,59.743161 116.402344,60.3583984 C115.920571,60.9736359 115.679688,61.8150988 115.679688,62.8828125 C115.679688,63.3841171 115.741536,63.8447245 115.865234,64.2646484 C115.988933,64.6845724 116.167968,65.0426417 116.402344,65.3388672 C116.63672,65.6350926 116.91992,65.8596998 117.251953,66.0126953 C117.583986,66.1656909 117.948566,66.2421875 118.345703,66.2421875 C118.87956,66.2421875 119.336912,66.1184908 119.717773,65.8710938 C120.098635,65.6236967 120.435545,65.2460963 120.728516,64.7382812 C120.891277,64.4388006 121.067056,64.2044279 121.255859,64.0351562 C121.444662,63.8658846 121.67578,63.78125 121.949219,63.78125 C122.274741,63.78125 122.544921,63.9049467 122.759766,64.1523438 C122.97461,64.3997408 123.082031,64.6634101 123.082031,64.9433594 L123.082031,64.9433594 Z M134.966797,64.9433594 C134.966797,65.2753923 134.867514,65.6302064 134.668945,66.0078125 C134.470377,66.3854186 134.167645,66.7451155 133.760742,67.0869141 C133.353839,67.4287126 132.841149,67.703775 132.222656,67.9121094 C131.604164,68.1204437 130.907556,68.2246094 130.132812,68.2246094 C128.485669,68.2246094 127.199874,67.7444709 126.275391,66.7841797 C125.350907,65.8238884 124.888672,64.5364664 124.888672,62.921875 C124.888672,61.8281195 125.100258,60.8613323 125.523438,60.0214844 C125.946617,59.1816364 126.55859,58.5322289 127.359375,58.0732422 C128.16016,57.6142555 129.117182,57.3847656 130.230469,57.3847656 C130.920576,57.3847656 131.553708,57.4856761 132.129883,57.6875 C132.706058,57.8893239 133.194334,58.149738 133.594727,58.46875 C133.995119,58.787762 134.301106,59.1279279 134.512695,59.4892578 C134.724285,59.8505877 134.830078,60.1874984 134.830078,60.5 C134.830078,60.819012 134.711264,61.0891916 134.473633,61.3105469 C134.236001,61.5319021 133.947918,61.6425781 133.609375,61.6425781 C133.38802,61.6425781 133.204102,61.5856125 133.057617,61.4716797 C132.911132,61.3577468 132.746746,61.1738294 132.564453,60.9199219 C132.238931,60.4251277 131.898765,60.0540377 131.543945,59.8066406 C131.189126,59.5592436 130.738284,59.4355469 130.191406,59.4355469 C129.403642,59.4355469 128.768883,59.743161 128.287109,60.3583984 C127.805336,60.9736359 127.564453,61.8150988 127.564453,62.8828125 C127.564453,63.3841171 127.626301,63.8447245 127.75,64.2646484 C127.873699,64.6845724 128.052733,65.0426417 128.287109,65.3388672 C128.521486,65.6350926 128.804686,65.8596998 129.136719,66.0126953 C129.468752,66.1656909 129.833331,66.2421875 130.230469,66.2421875 C130.764326,66.2421875 131.221678,66.1184908 131.602539,65.8710938 C131.9834,65.6236967 132.320311,65.2460963 132.613281,64.7382812 C132.776042,64.4388006 132.951822,64.2044279 133.140625,64.0351562 C133.329428,63.8658846 133.560546,63.78125 133.833984,63.78125 C134.159507,63.78125 134.429686,63.9049467 134.644531,64.1523438 C134.859376,64.3997408 134.966797,64.6634101 134.966797,64.9433594 L134.966797,64.9433594 Z M144.957031,58.9179688 L144.957031,66.6230469 C144.957031,67.1569037 144.830079,67.5605455 144.576172,67.8339844 C144.322264,68.1074232 144.000002,68.2441406 143.609375,68.2441406 C143.218748,68.2441406 142.901368,68.1041681 142.657227,67.8242188 C142.413085,67.5442694 142.291016,67.1438828 142.291016,66.6230469 L142.291016,58.9960938 C142.291016,58.4687474 142.413085,58.0716159 142.657227,57.8046875 C142.901368,57.5377591 143.218748,57.4042969 143.609375,57.4042969 C144.000002,57.4042969 144.322264,57.5377591 144.576172,57.8046875 C144.830079,58.0716159 144.957031,58.442706 144.957031,58.9179688 L144.957031,58.9179688 Z M143.638672,56.1640625 C143.267576,56.1640625 142.950197,56.0501313 142.686523,55.8222656 C142.42285,55.5943999 142.291016,55.2721375 142.291016,54.8554688 C142.291016,54.4778627 142.426105,54.1669934 142.696289,53.9228516 C142.966473,53.6787097 143.280597,53.5566406 143.638672,53.5566406 C143.983726,53.5566406 144.289712,53.6673166 144.556641,53.8886719 C144.823569,54.1100271 144.957031,54.4322896 144.957031,54.8554688 C144.957031,55.2656271 144.826824,55.5862619 144.566406,55.8173828 C144.305988,56.0485038 143.996747,56.1640625 143.638672,56.1640625 L143.638672,56.1640625 Z M156.294922,64.7578125 C156.294922,65.4934933 156.115887,66.1233698 155.757812,66.6474609 C155.399738,67.1715521 154.870772,67.5686835 154.170898,67.8388672 C153.471025,68.1090508 152.619797,68.2441406 151.617188,68.2441406 C150.660151,68.2441406 149.839847,68.0976577 149.15625,67.8046875 C148.472653,67.5117173 147.968101,67.14551 147.642578,66.7060547 C147.317056,66.2665994 147.154297,65.825523 147.154297,65.3828125 C147.154297,65.0898423 147.258463,64.8391937 147.466797,64.6308594 C147.675131,64.422525 147.9388,64.3183594 148.257812,64.3183594 C148.537762,64.3183594 148.752603,64.3867181 148.902344,64.5234375 C149.052084,64.6601569 149.195312,64.8522123 149.332031,65.0996094 C149.60547,65.5748722 149.932615,65.9296863 150.313477,66.1640625 C150.694338,66.3984387 151.213538,66.515625 151.871094,66.515625 C152.404951,66.515625 152.842772,66.3968111 153.18457,66.1591797 C153.526369,65.9215483 153.697266,65.6497411 153.697266,65.34375 C153.697266,64.8749977 153.519859,64.5332042 153.165039,64.3183594 C152.81022,64.1035146 152.225916,63.8984385 151.412109,63.703125 C150.494136,63.4752593 149.747073,63.2360039 149.170898,62.9853516 C148.594724,62.7346993 148.134116,62.4042989 147.789062,61.9941406 C147.444009,61.5839823 147.271484,61.0794301 147.271484,60.4804688 C147.271484,59.9466119 147.430988,59.4420597 147.75,58.9667969 C148.069012,58.4915341 148.539385,58.1123061 149.161133,57.8291016 C149.782881,57.545897 150.533199,57.4042969 151.412109,57.4042969 C152.102217,57.4042969 152.722328,57.4759107 153.272461,57.6191406 C153.822594,57.7623705 154.281574,57.9544259 154.649414,58.1953125 C155.017254,58.4361991 155.2972,58.7031235 155.489258,58.9960938 C155.681316,59.289064 155.777344,59.5755194 155.777344,59.8554688 C155.777344,60.1614599 155.674806,60.4121084 155.469727,60.6074219 C155.264647,60.8027354 154.973309,60.9003906 154.595703,60.9003906 C154.322264,60.9003906 154.089519,60.8222664 153.897461,60.6660156 C153.705403,60.5097648 153.485678,60.2753922 153.238281,59.9628906 C153.036457,59.7024727 152.798829,59.4941414 152.525391,59.3378906 C152.251952,59.1816398 151.880862,59.1035156 151.412109,59.1035156 C150.930336,59.1035156 150.52995,59.2060537 150.210938,59.4111328 C149.891925,59.616212 149.732422,59.8717433 149.732422,60.1777344 C149.732422,60.4576837 149.849608,60.6871736 150.083984,60.8662109 C150.318361,61.0452483 150.634113,61.1933588 151.03125,61.3105469 C151.428387,61.427735 151.975257,61.5709627 152.671875,61.7402344 C153.498702,61.9420583 154.174151,62.1829413 154.698242,62.4628906 C155.222333,62.7428399 155.619465,63.0732403 155.889648,63.4541016 C156.159832,63.8349628 156.294922,64.2695288 156.294922,64.7578125 L156.294922,64.7578125 Z M166.197266,64.3964844 L166.197266,66.6230469 C166.197266,67.1634142 166.070314,67.5686835 165.816406,67.8388672 C165.562499,68.1090508 165.240236,68.2441406 164.849609,68.2441406 C164.465493,68.2441406 164.149741,68.1074232 163.902344,67.8339844 C163.654947,67.5605455 163.53125,67.1569037 163.53125,66.6230469 L163.53125,59.2011719 C163.53125,58.0032492 163.964188,57.4042969 164.830078,57.4042969 C165.272789,57.4042969 165.591796,57.5442694 165.787109,57.8242188 C165.982423,58.1041681 166.089844,58.5175754 166.109375,59.0644531 C166.428387,58.5175754 166.755532,58.1041681 167.09082,57.8242188 C167.426108,57.5442694 167.873695,57.4042969 168.433594,57.4042969 C168.993492,57.4042969 169.537107,57.5442694 170.064453,57.8242188 C170.5918,58.1041681 170.855469,58.4752581 170.855469,58.9375 C170.855469,59.2630225 170.743165,59.5315745 170.518555,59.7431641 C170.293944,59.9547537 170.051434,60.0605469 169.791016,60.0605469 C169.693359,60.0605469 169.457359,60.0003261 169.083008,59.8798828 C168.708657,59.7594395 168.378257,59.6992188 168.091797,59.6992188 C167.70117,59.6992188 167.382163,59.8017568 167.134766,60.0068359 C166.887369,60.2119151 166.695313,60.516274 166.558594,60.9199219 C166.421874,61.3235697 166.327474,61.8037082 166.275391,62.3603516 C166.223307,62.916995 166.197266,63.5956991 166.197266,64.3964844 L166.197266,64.3964844 Z M179.253906,63.4785156 L174.039062,63.4785156 C174.045573,64.0839874 174.167642,64.6178362 174.405273,65.0800781 C174.642905,65.54232 174.958657,65.8906238 175.352539,66.125 C175.746421,66.3593762 176.180987,66.4765625 176.65625,66.4765625 C176.975262,66.4765625 177.2666,66.439128 177.530273,66.3642578 C177.793947,66.2893876 178.049478,66.1722013 178.296875,66.0126953 C178.544272,65.8531893 178.772134,65.6822926 178.980469,65.5 C179.188803,65.3177074 179.458983,65.0703141 179.791016,64.7578125 C179.927735,64.6406244 180.123046,64.5820312 180.376953,64.5820312 C180.650392,64.5820312 180.871744,64.6569003 181.041016,64.8066406 C181.210287,64.956381 181.294922,65.1679674 181.294922,65.4414062 C181.294922,65.6822929 181.200522,65.9638656 181.011719,66.2861328 C180.822916,66.6084 180.538088,66.9176417 180.157227,67.2138672 C179.776365,67.5100926 179.297854,67.7558584 178.72168,67.9511719 C178.145505,68.1464854 177.483077,68.2441406 176.734375,68.2441406 C175.022127,68.2441406 173.69076,67.7558643 172.740234,66.7792969 C171.789709,65.8027295 171.314453,64.4778729 171.314453,62.8046875 C171.314453,62.0169231 171.431639,61.2861362 171.666016,60.6123047 C171.900392,59.9384732 172.242185,59.3606795 172.691406,58.8789062 C173.140627,58.397133 173.694007,58.0276706 174.351562,57.7705078 C175.009118,57.5133451 175.738277,57.3847656 176.539062,57.3847656 C177.580734,57.3847656 178.47428,57.60449 179.219727,58.0439453 C179.965173,58.4834006 180.523436,59.0514288 180.894531,59.7480469 C181.265627,60.4446649 181.451172,61.1542933 181.451172,61.8769531 C181.451172,62.5475294 181.259117,62.9820954 180.875,63.1806641 C180.490883,63.3792328 179.950524,63.4785156 179.253906,63.4785156 L179.253906,63.4785156 Z M174.039062,61.9648438 L178.873047,61.9648438 C178.807942,61.0533809 178.562177,60.3714215 178.135742,59.9189453 C177.709308,59.4664691 177.14779,59.2402344 176.451172,59.2402344 C175.787106,59.2402344 175.241864,59.4697243 174.81543,59.9287109 C174.388995,60.3876976 174.130209,61.0664018 174.039062,61.9648438 L174.039062,61.9648438 Z M192.28125,64.7578125 C192.28125,65.4934933 192.102215,66.1233698 191.744141,66.6474609 C191.386066,67.1715521 190.8571,67.5686835 190.157227,67.8388672 C189.457353,68.1090508 188.606125,68.2441406 187.603516,68.2441406 C186.64648,68.2441406 185.826175,68.0976577 185.142578,67.8046875 C184.458981,67.5117173 183.954429,67.14551 183.628906,66.7060547 C183.303384,66.2665994 183.140625,65.825523 183.140625,65.3828125 C183.140625,65.0898423 183.244791,64.8391937 183.453125,64.6308594 C183.661459,64.422525 183.925129,64.3183594 184.244141,64.3183594 C184.52409,64.3183594 184.738932,64.3867181 184.888672,64.5234375 C185.038412,64.6601569 185.18164,64.8522123 185.318359,65.0996094 C185.591798,65.5748722 185.918943,65.9296863 186.299805,66.1640625 C186.680666,66.3984387 187.199867,66.515625 187.857422,66.515625 C188.391279,66.515625 188.8291,66.3968111 189.170898,66.1591797 C189.512697,65.9215483 189.683594,65.6497411 189.683594,65.34375 C189.683594,64.8749977 189.506187,64.5332042 189.151367,64.3183594 C188.796548,64.1035146 188.212244,63.8984385 187.398438,63.703125 C186.480464,63.4752593 185.733401,63.2360039 185.157227,62.9853516 C184.581052,62.7346993 184.120444,62.4042989 183.775391,61.9941406 C183.430337,61.5839823 183.257812,61.0794301 183.257812,60.4804688 C183.257812,59.9466119 183.417316,59.4420597 183.736328,58.9667969 C184.05534,58.4915341 184.525713,58.1123061 185.147461,57.8291016 C185.769209,57.545897 186.519527,57.4042969 187.398438,57.4042969 C188.088545,57.4042969 188.708656,57.4759107 189.258789,57.6191406 C189.808922,57.7623705 190.267902,57.9544259 190.635742,58.1953125 C191.003583,58.4361991 191.283528,58.7031235 191.475586,58.9960938 C191.667644,59.289064 191.763672,59.5755194 191.763672,59.8554688 C191.763672,60.1614599 191.661134,60.4121084 191.456055,60.6074219 C191.250976,60.8027354 190.959637,60.9003906 190.582031,60.9003906 C190.308592,60.9003906 190.075847,60.8222664 189.883789,60.6660156 C189.691731,60.5097648 189.472006,60.2753922 189.224609,59.9628906 C189.022785,59.7024727 188.785158,59.4941414 188.511719,59.3378906 C188.23828,59.1816398 187.86719,59.1035156 187.398438,59.1035156 C186.916664,59.1035156 186.516278,59.2060537 186.197266,59.4111328 C185.878254,59.616212 185.71875,59.8717433 185.71875,60.1777344 C185.71875,60.4576837 185.835936,60.6871736 186.070312,60.8662109 C186.304689,61.0452483 186.620441,61.1933588 187.017578,61.3105469 C187.414716,61.427735 187.961585,61.5709627 188.658203,61.7402344 C189.48503,61.9420583 190.160479,62.1829413 190.68457,62.4628906 C191.208661,62.7428399 191.605793,63.0732403 191.875977,63.4541016 C192.14616,63.8349628 192.28125,64.2695288 192.28125,64.7578125 L192.28125,64.7578125 Z M196.998047,58.8984375 L196.998047,59.2207031 C197.499351,58.6022104 198.02018,58.1481134 198.560547,57.8583984 C199.100914,57.5686834 199.712887,57.4238281 200.396484,57.4238281 C201.216801,57.4238281 201.972002,57.6354146 202.662109,58.0585938 C203.352217,58.4817729 203.897459,59.1002563 204.297852,59.9140625 C204.698244,60.7278687 204.898438,61.6914007 204.898438,62.8046875 C204.898438,63.6250041 204.782879,64.3785773 204.551758,65.0654297 C204.320637,65.7522821 204.003257,66.3284482 203.599609,66.7939453 C203.195962,67.2594424 202.719078,67.6175118 202.168945,67.8681641 C201.618812,68.1188164 201.027998,68.2441406 200.396484,68.2441406 C199.634762,68.2441406 198.99512,68.0911474 198.477539,67.7851562 C197.959958,67.4791651 197.466799,67.0299509 196.998047,66.4375 L196.998047,70.4414062 C196.998047,71.6132871 196.571619,72.1992188 195.71875,72.1992188 C195.217445,72.1992188 194.885417,72.0478531 194.722656,71.7451172 C194.559895,71.4423813 194.478516,71.001305 194.478516,70.421875 L194.478516,58.9179688 C194.478516,58.4101537 194.589192,58.0309257 194.810547,57.7802734 C195.031902,57.5296211 195.334633,57.4042969 195.71875,57.4042969 C196.096356,57.4042969 196.40397,57.5328763 196.641602,57.7900391 C196.879233,58.0472018 196.998047,58.4166643 196.998047,58.8984375 L196.998047,58.8984375 Z M202.222656,62.7753906 C202.222656,62.0722621 202.115235,61.468427 201.900391,60.9638672 C201.685546,60.4593074 201.387697,60.0719415 201.006836,59.8017578 C200.625975,59.5315742 200.204429,59.3964844 199.742188,59.3964844 C199.006507,59.3964844 198.386396,59.686195 197.881836,60.265625 C197.377276,60.845055 197.125,61.697911 197.125,62.8242188 C197.125,63.885422 197.375649,64.710609 197.876953,65.2998047 C198.378258,65.8890003 198.999996,66.1835938 199.742188,66.1835938 C200.184898,66.1835938 200.59505,66.0550143 200.972656,65.7978516 C201.350262,65.5406888 201.652994,65.1549505 201.880859,64.640625 C202.108725,64.1262995 202.222656,63.5045609 202.222656,62.7753906 L202.222656,62.7753906 Z M217.017578,62.8242188 C217.017578,63.6184936 216.893881,64.3509081 216.646484,65.0214844 C216.399087,65.6920606 216.041018,66.2682268 215.572266,66.75 C215.103513,67.2317732 214.543623,67.6012357 213.892578,67.8583984 C213.241533,68.1155612 212.509119,68.2441406 211.695312,68.2441406 C210.888017,68.2441406 210.162113,68.1139336 209.517578,67.8535156 C208.873044,67.5930977 208.314781,67.22038 207.842773,66.7353516 C207.370766,66.2503231 207.012697,65.6774122 206.768555,65.0166016 C206.524413,64.355791 206.402344,63.625004 206.402344,62.8242188 C206.402344,62.016923 206.52604,61.2779981 206.773438,60.6074219 C207.020835,59.9368456 207.375649,59.3639347 207.837891,58.8886719 C208.300133,58.4134091 208.860023,58.0472018 209.517578,57.7900391 C210.175133,57.5328763 210.901038,57.4042969 211.695312,57.4042969 C212.502608,57.4042969 213.235023,57.5345039 213.892578,57.7949219 C214.550133,58.0553398 215.113279,58.4264299 215.582031,58.9082031 C216.050784,59.3899764 216.407225,59.9628873 216.651367,60.6269531 C216.895509,61.2910189 217.017578,62.0234335 217.017578,62.8242188 L217.017578,62.8242188 Z M214.341797,62.8242188 C214.341797,61.7369737 214.102541,60.890628 213.624023,60.2851562 C213.145505,59.6796845 212.502608,59.3769531 211.695312,59.3769531 C211.174477,59.3769531 210.715497,59.5120429 210.318359,59.7822266 C209.921222,60.0524102 209.615235,60.4511692 209.400391,60.9785156 C209.185546,61.505862 209.078125,62.1210902 209.078125,62.8242188 C209.078125,63.5208368 209.183918,64.1295547 209.395508,64.6503906 C209.607097,65.1712266 209.909829,65.5699856 210.303711,65.8466797 C210.697593,66.1233738 211.161456,66.2617188 211.695312,66.2617188 C212.502608,66.2617188 213.145505,65.9573598 213.624023,65.3486328 C214.102541,64.7399058 214.341797,63.8984429 214.341797,62.8242188 L214.341797,62.8242188 Z M221.539062,58.8789062 L221.539062,59.2011719 C222.007815,58.5826792 222.520505,58.1285822 223.077148,57.8388672 C223.633792,57.5491522 224.273434,57.4042969 224.996094,57.4042969 C225.699222,57.4042969 226.327471,57.5572901 226.880859,57.8632812 C227.434248,58.1692724 227.847655,58.6022107 228.121094,59.1621094 C228.296876,59.4876318 228.410807,59.8391908 228.462891,60.2167969 C228.514974,60.5944029 228.541016,61.0761689 228.541016,61.6621094 L228.541016,66.6230469 C228.541016,67.1569037 228.418947,67.5605455 228.174805,67.8339844 C227.930663,68.1074232 227.613283,68.2441406 227.222656,68.2441406 C226.825519,68.2441406 226.503256,68.1041681 226.255859,67.8242188 C226.008462,67.5442694 225.884766,67.1438828 225.884766,66.6230469 L225.884766,62.1796875 C225.884766,61.3007769 225.762697,60.6285831 225.518555,60.1630859 C225.274413,59.6975888 224.787764,59.4648438 224.058594,59.4648438 C223.583331,59.4648438 223.150393,59.6064439 222.759766,59.8896484 C222.369139,60.172853 222.082683,60.5618465 221.900391,61.0566406 C221.770182,61.453778 221.705078,62.1959581 221.705078,63.2832031 L221.705078,66.6230469 C221.705078,67.1634142 221.579754,67.5686835 221.329102,67.8388672 C221.078449,68.1090508 220.754559,68.2441406 220.357422,68.2441406 C219.973305,68.2441406 219.657553,68.1041681 219.410156,67.8242188 C219.162759,67.5442694 219.039062,67.1438828 219.039062,66.6230469 L219.039062,58.9179688 C219.039062,58.4101537 219.149738,58.0309257 219.371094,57.7802734 C219.592449,57.5296211 219.89518,57.4042969 220.279297,57.4042969 C220.513673,57.4042969 220.725259,57.4596349 220.914062,57.5703125 C221.102866,57.6809901 221.254231,57.8470041 221.368164,58.0683594 C221.482097,58.2897146 221.539062,58.5598942 221.539062,58.8789062 L221.539062,58.8789062 Z M239.78125,64.7578125 C239.78125,65.4934933 239.602215,66.1233698 239.244141,66.6474609 C238.886066,67.1715521 238.3571,67.5686835 237.657227,67.8388672 C236.957353,68.1090508 236.106125,68.2441406 235.103516,68.2441406 C234.14648,68.2441406 233.326175,68.0976577 232.642578,67.8046875 C231.958981,67.5117173 231.454429,67.14551 231.128906,66.7060547 C230.803384,66.2665994 230.640625,65.825523 230.640625,65.3828125 C230.640625,65.0898423 230.744791,64.8391937 230.953125,64.6308594 C231.161459,64.422525 231.425129,64.3183594 231.744141,64.3183594 C232.02409,64.3183594 232.238932,64.3867181 232.388672,64.5234375 C232.538412,64.6601569 232.68164,64.8522123 232.818359,65.0996094 C233.091798,65.5748722 233.418943,65.9296863 233.799805,66.1640625 C234.180666,66.3984387 234.699867,66.515625 235.357422,66.515625 C235.891279,66.515625 236.3291,66.3968111 236.670898,66.1591797 C237.012697,65.9215483 237.183594,65.6497411 237.183594,65.34375 C237.183594,64.8749977 237.006187,64.5332042 236.651367,64.3183594 C236.296548,64.1035146 235.712244,63.8984385 234.898438,63.703125 C233.980464,63.4752593 233.233401,63.2360039 232.657227,62.9853516 C232.081052,62.7346993 231.620444,62.4042989 231.275391,61.9941406 C230.930337,61.5839823 230.757812,61.0794301 230.757812,60.4804688 C230.757812,59.9466119 230.917316,59.4420597 231.236328,58.9667969 C231.55534,58.4915341 232.025713,58.1123061 232.647461,57.8291016 C233.269209,57.545897 234.019527,57.4042969 234.898438,57.4042969 C235.588545,57.4042969 236.208656,57.4759107 236.758789,57.6191406 C237.308922,57.7623705 237.767902,57.9544259 238.135742,58.1953125 C238.503583,58.4361991 238.783528,58.7031235 238.975586,58.9960938 C239.167644,59.289064 239.263672,59.5755194 239.263672,59.8554688 C239.263672,60.1614599 239.161134,60.4121084 238.956055,60.6074219 C238.750976,60.8027354 238.459637,60.9003906 238.082031,60.9003906 C237.808592,60.9003906 237.575847,60.8222664 237.383789,60.6660156 C237.191731,60.5097648 236.972006,60.2753922 236.724609,59.9628906 C236.522785,59.7024727 236.285158,59.4941414 236.011719,59.3378906 C235.73828,59.1816398 235.36719,59.1035156 234.898438,59.1035156 C234.416664,59.1035156 234.016278,59.2060537 233.697266,59.4111328 C233.378254,59.616212 233.21875,59.8717433 233.21875,60.1777344 C233.21875,60.4576837 233.335936,60.6871736 233.570312,60.8662109 C233.804689,61.0452483 234.120441,61.1933588 234.517578,61.3105469 C234.914716,61.427735 235.461585,61.5709627 236.158203,61.7402344 C236.98503,61.9420583 237.660479,62.1829413 238.18457,62.4628906 C238.708661,62.7428399 239.105793,63.0732403 239.375977,63.4541016 C239.64616,63.8349628 239.78125,64.2695288 239.78125,64.7578125 L239.78125,64.7578125 Z M244.703125,58.9179688 L244.703125,66.6230469 C244.703125,67.1569037 244.576173,67.5605455 244.322266,67.8339844 C244.068358,68.1074232 243.746096,68.2441406 243.355469,68.2441406 C242.964842,68.2441406 242.647462,68.1041681 242.40332,67.8242188 C242.159178,67.5442694 242.037109,67.1438828 242.037109,66.6230469 L242.037109,58.9960938 C242.037109,58.4687474 242.159178,58.0716159 242.40332,57.8046875 C242.647462,57.5377591 242.964842,57.4042969 243.355469,57.4042969 C243.746096,57.4042969 244.068358,57.5377591 244.322266,57.8046875 C244.576173,58.0716159 244.703125,58.442706 244.703125,58.9179688 L244.703125,58.9179688 Z M243.384766,56.1640625 C243.01367,56.1640625 242.69629,56.0501313 242.432617,55.8222656 C242.168944,55.5943999 242.037109,55.2721375 242.037109,54.8554688 C242.037109,54.4778627 242.172199,54.1669934 242.442383,53.9228516 C242.712566,53.6787097 243.026691,53.5566406 243.384766,53.5566406 C243.729819,53.5566406 244.035806,53.6673166 244.302734,53.8886719 C244.569663,54.1100271 244.703125,54.4322896 244.703125,54.8554688 C244.703125,55.2656271 244.572918,55.5862619 244.3125,55.8173828 C244.052082,56.0485038 243.74284,56.1640625 243.384766,56.1640625 L243.384766,56.1640625 Z M249.917969,54.9628906 L249.917969,59.0351562 C250.419273,58.5143203 250.930336,58.1155613 251.451172,57.8388672 C251.972008,57.5621731 252.616533,57.4238281 253.384766,57.4238281 C254.270187,57.4238281 255.046546,57.633787 255.713867,58.0537109 C256.381188,58.4736349 256.898761,59.0823528 257.266602,59.8798828 C257.634442,60.6774128 257.818359,61.6230414 257.818359,62.7167969 C257.818359,63.5240926 257.715821,64.2646451 257.510742,64.9384766 C257.305663,65.6123081 257.007814,66.1966121 256.617188,66.6914062 C256.226561,67.1862004 255.752932,67.5686835 255.196289,67.8388672 C254.639646,68.1090508 254.026045,68.2441406 253.355469,68.2441406 C252.94531,68.2441406 252.559572,68.195313 252.198242,68.0976562 C251.836912,67.9999995 251.529298,67.8714201 251.275391,67.7119141 C251.021483,67.5524081 250.805014,67.3880217 250.625977,67.21875 C250.446939,67.0494783 250.210939,66.7955746 249.917969,66.4570312 L249.917969,66.7207031 C249.917969,67.2220077 249.797527,67.6012357 249.556641,67.8583984 C249.315754,68.1155612 249.009767,68.2441406 248.638672,68.2441406 C248.261066,68.2441406 247.959962,68.1155612 247.735352,67.8583984 C247.510741,67.6012357 247.398438,67.2220077 247.398438,66.7207031 L247.398438,55.0800781 C247.398438,54.5397108 247.507486,54.1311863 247.725586,53.8544922 C247.943686,53.5777981 248.248045,53.4394531 248.638672,53.4394531 C249.04883,53.4394531 249.364582,53.5712877 249.585938,53.8349609 C249.807293,54.0986341 249.917969,54.4746069 249.917969,54.9628906 L249.917969,54.9628906 Z M250.044922,62.8828125 C250.044922,63.9440157 250.287432,64.7594373 250.772461,65.3291016 C251.257489,65.8987659 251.893876,66.1835938 252.681641,66.1835938 C253.352217,66.1835938 253.930011,65.8922555 254.415039,65.3095703 C254.900068,64.7268851 255.142578,63.8919325 255.142578,62.8046875 C255.142578,62.101559 255.041668,61.4960963 254.839844,60.9882812 C254.63802,60.4804662 254.351564,60.0882175 253.980469,59.8115234 C253.609373,59.5348293 253.176435,59.3964844 252.681641,59.3964844 C252.173826,59.3964844 251.721356,59.5348293 251.324219,59.8115234 C250.927081,60.0882175 250.614584,60.4886042 250.386719,61.0126953 C250.158853,61.5367865 250.044922,62.1601526 250.044922,62.8828125 L250.044922,62.8828125 Z M259.693359,66.6230469 L259.693359,55.0605469 C259.693359,54.52669 259.812173,54.1230482 260.049805,53.8496094 C260.287436,53.5761705 260.608071,53.4394531 261.011719,53.4394531 C261.415367,53.4394531 261.740884,53.5745429 261.988281,53.8447266 C262.235678,54.1149102 262.359375,54.5201796 262.359375,55.0605469 L262.359375,66.6230469 C262.359375,67.1634142 262.234051,67.5686835 261.983398,67.8388672 C261.732746,68.1090508 261.408856,68.2441406 261.011719,68.2441406 C260.621092,68.2441406 260.303712,68.1041681 260.05957,67.8242188 C259.815428,67.5442694 259.693359,67.1438828 259.693359,66.6230469 L259.693359,66.6230469 Z M272.554688,63.4785156 L267.339844,63.4785156 C267.346354,64.0839874 267.468423,64.6178362 267.706055,65.0800781 C267.943686,65.54232 268.259438,65.8906238 268.65332,66.125 C269.047202,66.3593762 269.481768,66.4765625 269.957031,66.4765625 C270.276043,66.4765625 270.567381,66.439128 270.831055,66.3642578 C271.094728,66.2893876 271.350259,66.1722013 271.597656,66.0126953 C271.845053,65.8531893 272.072916,65.6822926 272.28125,65.5 C272.489584,65.3177074 272.759764,65.0703141 273.091797,64.7578125 C273.228516,64.6406244 273.423827,64.5820312 273.677734,64.5820312 C273.951173,64.5820312 274.172525,64.6569003 274.341797,64.8066406 C274.511069,64.956381 274.595703,65.1679674 274.595703,65.4414062 C274.595703,65.6822929 274.501303,65.9638656 274.3125,66.2861328 C274.123697,66.6084 273.838869,66.9176417 273.458008,67.2138672 C273.077147,67.5100926 272.598636,67.7558584 272.022461,67.9511719 C271.446286,68.1464854 270.783858,68.2441406 270.035156,68.2441406 C268.322908,68.2441406 266.991541,67.7558643 266.041016,66.7792969 C265.09049,65.8027295 264.615234,64.4778729 264.615234,62.8046875 C264.615234,62.0169231 264.732421,61.2861362 264.966797,60.6123047 C265.201173,59.9384732 265.542967,59.3606795 265.992188,58.8789062 C266.441408,58.397133 266.994788,58.0276706 267.652344,57.7705078 C268.309899,57.5133451 269.039058,57.3847656 269.839844,57.3847656 C270.881516,57.3847656 271.775061,57.60449 272.520508,58.0439453 C273.265954,58.4834006 273.824217,59.0514288 274.195312,59.7480469 C274.566408,60.4446649 274.751953,61.1542933 274.751953,61.8769531 C274.751953,62.5475294 274.559898,62.9820954 274.175781,63.1806641 C273.791665,63.3792328 273.251306,63.4785156 272.554688,63.4785156 L272.554688,63.4785156 Z M267.339844,61.9648438 L272.173828,61.9648438 C272.108724,61.0533809 271.862958,60.3714215 271.436523,59.9189453 C271.010089,59.4664691 270.448571,59.2402344 269.751953,59.2402344 C269.087887,59.2402344 268.542645,59.4697243 268.116211,59.9287109 C267.689777,60.3876976 267.43099,61.0664018 267.339844,61.9648438 L267.339844,61.9648438 Z M281.783203,57.6386719 L282.417969,57.6386719 L282.417969,56.8378906 C282.417969,56.0045531 282.523762,55.3421249 282.735352,54.8505859 C282.946941,54.359047 283.30501,54.0009777 283.80957,53.7763672 C284.31413,53.5517567 285.005855,53.4394531 285.884766,53.4394531 C287.440763,53.4394531 288.21875,53.8203087 288.21875,54.5820312 C288.21875,54.8294283 288.137371,55.0410147 287.974609,55.2167969 C287.811848,55.392579 287.619793,55.4804688 287.398438,55.4804688 C287.29427,55.4804688 287.115236,55.4609377 286.861328,55.421875 C286.607421,55.3828123 286.392579,55.3632812 286.216797,55.3632812 C285.735024,55.3632812 285.425782,55.5048814 285.289062,55.7880859 C285.152343,56.0712905 285.083984,56.4765599 285.083984,57.0039062 L285.083984,57.6386719 L285.738281,57.6386719 C286.753911,57.6386719 287.261719,57.9446584 287.261719,58.5566406 C287.261719,58.9928407 287.126629,59.2695307 286.856445,59.3867188 C286.586262,59.5039068 286.213544,59.5625 285.738281,59.5625 L285.083984,59.5625 L285.083984,66.6230469 C285.083984,67.1503933 284.95866,67.5524075 284.708008,67.8291016 C284.457356,68.1057957 284.133466,68.2441406 283.736328,68.2441406 C283.358722,68.2441406 283.044598,68.1057957 282.793945,67.8291016 C282.543293,67.5524075 282.417969,67.1503933 282.417969,66.6230469 L282.417969,59.5625 L281.685547,59.5625 C281.288409,59.5625 280.982423,59.4729827 280.767578,59.2939453 C280.552733,59.114908 280.445312,58.8821629 280.445312,58.5957031 C280.445312,57.9576791 280.891272,57.6386719 281.783203,57.6386719 L281.783203,57.6386719 Z M298.375,62.8242188 C298.375,63.6184936 298.251303,64.3509081 298.003906,65.0214844 C297.756509,65.6920606 297.39844,66.2682268 296.929688,66.75 C296.460935,67.2317732 295.901045,67.6012357 295.25,67.8583984 C294.598955,68.1155612 293.866541,68.2441406 293.052734,68.2441406 C292.245439,68.2441406 291.519534,68.1139336 290.875,67.8535156 C290.230466,67.5930977 289.672203,67.22038 289.200195,66.7353516 C288.728188,66.2503231 288.370118,65.6774122 288.125977,65.0166016 C287.881835,64.355791 287.759766,63.625004 287.759766,62.8242188 C287.759766,62.016923 287.883462,61.2779981 288.130859,60.6074219 C288.378256,59.9368456 288.733071,59.3639347 289.195312,58.8886719 C289.657554,58.4134091 290.217445,58.0472018 290.875,57.7900391 C291.532555,57.5328763 292.25846,57.4042969 293.052734,57.4042969 C293.86003,57.4042969 294.592445,57.5345039 295.25,57.7949219 C295.907555,58.0553398 296.470701,58.4264299 296.939453,58.9082031 C297.408205,59.3899764 297.764647,59.9628873 298.008789,60.6269531 C298.252931,61.2910189 298.375,62.0234335 298.375,62.8242188 L298.375,62.8242188 Z M295.699219,62.8242188 C295.699219,61.7369737 295.459963,60.890628 294.981445,60.2851562 C294.502927,59.6796845 293.86003,59.3769531 293.052734,59.3769531 C292.531898,59.3769531 292.072919,59.5120429 291.675781,59.7822266 C291.278644,60.0524102 290.972657,60.4511692 290.757812,60.9785156 C290.542968,61.505862 290.435547,62.1210902 290.435547,62.8242188 C290.435547,63.5208368 290.54134,64.1295547 290.75293,64.6503906 C290.964519,65.1712266 291.267251,65.5699856 291.661133,65.8466797 C292.055015,66.1233738 292.518878,66.2617188 293.052734,66.2617188 C293.86003,66.2617188 294.502927,65.9573598 294.981445,65.3486328 C295.459963,64.7399058 295.699219,63.8984429 295.699219,62.8242188 L295.699219,62.8242188 Z M303.121094,64.3964844 L303.121094,66.6230469 C303.121094,67.1634142 302.994142,67.5686835 302.740234,67.8388672 C302.486327,68.1090508 302.164064,68.2441406 301.773438,68.2441406 C301.389321,68.2441406 301.073569,68.1074232 300.826172,67.8339844 C300.578775,67.5605455 300.455078,67.1569037 300.455078,66.6230469 L300.455078,59.2011719 C300.455078,58.0032492 300.888017,57.4042969 301.753906,57.4042969 C302.196617,57.4042969 302.515624,57.5442694 302.710938,57.8242188 C302.906251,58.1041681 303.013672,58.5175754 303.033203,59.0644531 C303.352215,58.5175754 303.67936,58.1041681 304.014648,57.8242188 C304.349937,57.5442694 304.797523,57.4042969 305.357422,57.4042969 C305.917321,57.4042969 306.460935,57.5442694 306.988281,57.8242188 C307.515628,58.1041681 307.779297,58.4752581 307.779297,58.9375 C307.779297,59.2630225 307.666993,59.5315745 307.442383,59.7431641 C307.217772,59.9547537 306.975262,60.0605469 306.714844,60.0605469 C306.617187,60.0605469 306.381187,60.0003261 306.006836,59.8798828 C305.632485,59.7594395 305.302085,59.6992188 305.015625,59.6992188 C304.624998,59.6992188 304.305991,59.8017568 304.058594,60.0068359 C303.811197,60.2119151 303.619141,60.516274 303.482422,60.9199219 C303.345702,61.3235697 303.251302,61.8037082 303.199219,62.3603516 C303.147135,62.916995 303.121094,63.5956991 303.121094,64.3964844 L303.121094,64.3964844 Z M310.738281,68.2441406 C310.334633,68.2441406 309.98633,68.1139336 309.693359,67.8535156 C309.400389,67.5930977 309.253906,67.228518 309.253906,66.7597656 C309.253906,66.3626282 309.393879,66.0208348 309.673828,65.734375 C309.953777,65.4479152 310.298826,65.3046875 310.708984,65.3046875 C311.119143,65.3046875 311.469074,65.4462876 311.758789,65.7294922 C312.048504,66.0126967 312.193359,66.3561178 312.193359,66.7597656 C312.193359,67.2220075 312.048504,67.5849596 311.758789,67.8486328 C311.469074,68.112306 311.128908,68.2441406 310.738281,68.2441406 L310.738281,68.2441406 Z M309.253906,58.859375 C309.253906,58.3971331 309.398762,58.0390638 309.688477,57.7851562 C309.978192,57.5312487 310.328123,57.4042969 310.738281,57.4042969 C311.135419,57.4042969 311.477212,57.5328763 311.763672,57.7900391 C312.050132,58.0472018 312.193359,58.4036436 312.193359,58.859375 C312.193359,59.2239602 312.037111,59.5592433 311.724609,59.8652344 C311.412108,60.1712255 311.07357,60.3242188 310.708984,60.3242188 C310.311847,60.3242188 309.970054,60.1777358 309.683594,59.8847656 C309.397134,59.5917954 309.253906,59.250002 309.253906,58.859375 L309.253906,58.859375 Z" id="$.cc-is-responsible-" fill="#333333"></path>
                <g id="The-usual-dom" transform="translate(73.000000, 111.000000)">
                    <circle id="Oval-1" fill="#333333" cx="35.5" cy="35.5" r="35.5"></circle>
                    <circle id="Oval-13" fill="#D8D8D8" cx="35.0849991" cy="35.0849991" r="29.0849991"></circle>
                </g>
                <g id="class-componnet" transform="translate(261.000000, 112.000000)">
                    <circle id="Oval-1" fill="#333333" cx="35.5" cy="35.5" r="35.5"></circle>
                    <path d="M35.5,64.5011442 L35.5,64.6716167 C19.4752265,64.6256159 6.49885584,51.6208536 6.49885584,35.5852975 C6.49885584,19.6181052 19.3648189,6.65591969 35.2952133,6.50027242 L35.2952148,6.5002724 C35.363364,6.49932906 35.4316267,6.49885584 35.5,6.49885584 C43.5084448,6.49885584 50.0005721,12.9909831 50.0005721,20.9994279 C50.0005721,29.0078727 43.5084448,35.5 35.5,35.5 C27.4915552,35.5 20.9994279,41.9921273 20.9994279,50.0005721 C20.9994279,58.0090169 27.4915552,64.5011442 35.5,64.5011442 L35.5,64.5011442 Z" id="Combined-Shape" fill="#D8D8D8"></path>
                    <path d="M50.171167,64.3305492 L50.171167,64.5010218 C34.1463935,64.455021 21.1700229,51.4502586 21.1700229,35.4147025 C21.1700229,19.4475103 34.0359859,6.48532472 49.9663803,6.32967745 L49.9663819,6.32967743 C50.034531,6.32873409 50.1027938,6.32826087 50.171167,6.32826087 C58.1796119,6.32826087 64.6717391,12.8203881 64.6717391,20.828833 C64.6717391,28.8372778 58.1796119,35.329405 50.171167,35.329405 C42.1627222,35.329405 35.670595,41.8215323 35.670595,49.8299771 C35.670595,57.8384219 42.1627222,64.3305492 50.171167,64.3305492 L50.171167,64.3305492 Z" id="Combined-Shape" fill="#333333" transform="translate(42.920881, 35.414641) scale(-1, -1) translate(-42.920881, -35.414641) "></path>
                </g>
                <g id="Group" transform="translate(203.500000, 147.000000) scale(-1, 1) rotate(90.000000) translate(-203.500000, -147.000000) translate(193.500000, 123.500000)" fill="#333333">
                    <polygon id="Line" points="7 1.875 7 37.125 7 39 13 39 13 37.125 13 1.875 13 0 7 0"></polygon>
                    <path d="M10,31 C15,31 20,47 20,47 L0,47 C0,47 5,31 10,31 Z" id="Triangle-1" transform="translate(10.000000, 39.000000) scale(1, -1) translate(-10.000000, -39.000000) "></path>
                </g>
            </g>
        </g>
    </g>
</svg>