<?xml version="1.0" encoding="UTF-8" standalone="no"?>
<svg width="380px" height="458px" viewBox="0 0 380 458" version="1.1" xmlns="http://www.w3.org/2000/svg" xmlns:xlink="http://www.w3.org/1999/xlink">
    <!-- Generator: Sketch 3.7 (28169) - http://www.bohemiancoding.com/sketch -->
    <title>diagram-1-for-export</title>
    <desc>Created with Sketch.</desc>
    <defs></defs>
    <g id="Page-1" stroke="none" stroke-width="1" fill="none" fill-rule="evenodd">
        <g id="for-export" transform="translate(-348.000000, -284.000000)">
            <g id="diagram-1-for-export" transform="translate(348.000000, 284.000000)">
                <circle id="Oval-1" fill="#333333" cx="190" cy="190" r="190"></circle>
                <path d="M190,360 L190,360.999282 C96.0653786,360.729633 20,284.497827 20,190.5 C20,96.9029107 95.418187,20.9206828 188.799574,20.0083038 L188.799583,20.0083037 C189.199062,20.0027739 189.599207,20 190,20 C236.944204,20 275,58.0557963 275,105 C275,151.944204 236.944204,190 190,190 C143.055796,190 105,228.055796 105,275 C105,321.944204 143.055796,360 190,360 L190,360 Z" id="Combined-Shape" fill="#D8D8D8"></path>
                <path d="M276,359 L276,359.999282 C182.065379,359.729633 106,283.497827 106,189.5 C106,95.9029107 181.418187,19.9206828 274.799574,19.0083038 L274.799583,19.0083037 C275.199062,19.0027739 275.599207,19 276,19 C322.944204,19 361,57.0557963 361,104 C361,150.944204 322.944204,189 276,189 C229.055796,189 191,227.055796 191,274 C191,320.944204 229.055796,359 276,359 L276,359 Z" id="Combined-Shape" fill="#333333" transform="translate(233.500000, 189.499641) scale(-1, -1) translate(-233.500000, -189.499641) "></path>
                <path d="M147.40625,277.415039 C147.40625,277.913088 147.257326,278.44531 146.959473,279.011719 C146.66162,279.578128 146.207523,280.117673 145.597168,280.630371 C144.986813,281.143069 144.217778,281.555663 143.290039,281.868164 C142.3623,282.180666 141.317389,282.336914 140.155273,282.336914 C137.684558,282.336914 135.755866,281.616706 134.369141,280.17627 C132.982415,278.735833 132.289062,276.8047 132.289062,274.382812 C132.289062,272.742179 132.606442,271.291998 133.241211,270.032227 C133.87598,268.772455 134.793939,267.798343 135.995117,267.109863 C137.196295,266.421383 138.631828,266.077148 140.301758,266.077148 C141.336919,266.077148 142.286617,266.228514 143.150879,266.53125 C144.015141,266.833986 144.747556,267.224607 145.348145,267.703125 C145.948733,268.181643 146.407713,268.691892 146.725098,269.233887 C147.042482,269.775882 147.201172,270.281248 147.201172,270.75 C147.201172,271.228518 147.022951,271.633787 146.666504,271.96582 C146.310057,272.297853 145.877932,272.463867 145.370117,272.463867 C145.038084,272.463867 144.762208,272.378419 144.54248,272.20752 C144.322753,272.03662 144.076173,271.760744 143.802734,271.379883 C143.314451,270.637692 142.804202,270.081057 142.271973,269.709961 C141.739743,269.338865 141.063481,269.15332 140.243164,269.15332 C139.061518,269.15332 138.109379,269.614741 137.386719,270.537598 C136.664059,271.460454 136.302734,272.722648 136.302734,274.324219 C136.302734,275.076176 136.395507,275.767087 136.581055,276.396973 C136.766602,277.026859 137.035154,277.563963 137.386719,278.008301 C137.738283,278.452639 138.163083,278.78955 138.661133,279.019043 C139.159182,279.248536 139.706052,279.363281 140.301758,279.363281 C141.102543,279.363281 141.788571,279.177736 142.359863,278.806641 C142.931155,278.435545 143.436521,277.869144 143.875977,277.107422 C144.120118,276.658201 144.383788,276.306642 144.666992,276.052734 C144.950197,275.798827 145.296873,275.671875 145.707031,275.671875 C146.195315,275.671875 146.600584,275.85742 146.922852,276.228516 C147.245119,276.599611 147.40625,276.995115 147.40625,277.415039 L147.40625,277.415039 Z M165.863281,274.236328 C165.863281,275.42774 165.677736,276.526362 165.306641,277.532227 C164.935545,278.538091 164.398441,279.40234 163.695312,280.125 C162.992184,280.84766 162.152349,281.401854 161.175781,281.787598 C160.199214,282.173342 159.100592,282.366211 157.879883,282.366211 C156.668939,282.366211 155.580083,282.1709 154.613281,281.780273 C153.64648,281.389646 152.809086,280.83057 152.101074,280.103027 C151.393063,279.375485 150.855959,278.516118 150.489746,277.524902 C150.123533,276.533686 149.94043,275.437506 149.94043,274.236328 C149.94043,273.025385 150.125975,271.916997 150.49707,270.911133 C150.868166,269.905268 151.400387,269.045902 152.09375,268.333008 C152.787113,267.620114 153.626948,267.070803 154.613281,266.685059 C155.599614,266.299314 156.688471,266.106445 157.879883,266.106445 C159.090826,266.106445 160.189448,266.301756 161.175781,266.692383 C162.162114,267.08301 163.006832,267.639645 163.709961,268.362305 C164.413089,269.084965 164.947752,269.944331 165.313965,270.94043 C165.680178,271.936528 165.863281,273.03515 165.863281,274.236328 L165.863281,274.236328 Z M161.849609,274.236328 C161.849609,272.605461 161.490726,271.335942 160.772949,270.427734 C160.055172,269.519527 159.090826,269.06543 157.879883,269.06543 C157.098629,269.06543 156.410159,269.268064 155.814453,269.67334 C155.218747,270.078615 154.759767,270.676754 154.4375,271.467773 C154.115233,272.258793 153.954102,273.181635 153.954102,274.236328 C153.954102,275.281255 154.112791,276.194332 154.430176,276.975586 C154.74756,277.75684 155.201657,278.354978 155.79248,278.77002 C156.383304,279.185061 157.079098,279.392578 157.879883,279.392578 C159.090826,279.392578 160.055172,278.93604 160.772949,278.022949 C161.490726,277.109859 161.849609,275.847664 161.849609,274.236328 L161.849609,274.236328 Z M180.174805,275.217773 L172.352539,275.217773 C172.362305,276.125981 172.545408,276.926754 172.901855,277.620117 C173.258303,278.31348 173.731931,278.835936 174.322754,279.1875 C174.913577,279.539064 175.565426,279.714844 176.27832,279.714844 C176.756838,279.714844 177.193846,279.658692 177.589355,279.546387 C177.984865,279.434081 178.368162,279.258302 178.739258,279.019043 C179.110353,278.779784 179.452147,278.523439 179.764648,278.25 C180.07715,277.976561 180.482419,277.605471 180.980469,277.136719 C181.185548,276.960937 181.478514,276.873047 181.859375,276.873047 C182.269533,276.873047 182.601561,276.98535 182.855469,277.209961 C183.109376,277.434571 183.236328,277.751951 183.236328,278.162109 C183.236328,278.523439 183.094728,278.945798 182.811523,279.429199 C182.528319,279.9126 182.101077,280.376463 181.529785,280.820801 C180.958493,281.265139 180.240727,281.633788 179.376465,281.926758 C178.512203,282.219728 177.51856,282.366211 176.395508,282.366211 C173.827136,282.366211 171.830085,281.633796 170.404297,280.168945 C168.978508,278.704094 168.265625,276.716809 168.265625,274.207031 C168.265625,273.025385 168.441404,271.929204 168.792969,270.918457 C169.144533,269.90771 169.657223,269.041019 170.331055,268.318359 C171.004886,267.5957 171.834956,267.041506 172.821289,266.655762 C173.807622,266.270018 174.901361,266.077148 176.102539,266.077148 C177.665047,266.077148 179.005366,266.406735 180.123535,267.065918 C181.241705,267.725101 182.079099,268.577143 182.635742,269.62207 C183.192386,270.666997 183.470703,271.73144 183.470703,272.81543 C183.470703,273.821294 183.18262,274.473143 182.606445,274.770996 C182.030271,275.068849 181.219732,275.217773 180.174805,275.217773 L180.174805,275.217773 Z M172.352539,272.947266 L179.603516,272.947266 C179.505859,271.580071 179.13721,270.557132 178.497559,269.878418 C177.857907,269.199704 177.01563,268.860352 175.970703,268.860352 C174.974604,268.860352 174.156741,269.204586 173.51709,269.893066 C172.877438,270.581546 172.489258,271.599603 172.352539,272.947266 L172.352539,272.947266 Z M186.839844,279.93457 L186.839844,262.59082 C186.839844,261.790035 187.018065,261.184572 187.374512,260.774414 C187.730959,260.364256 188.211911,260.15918 188.817383,260.15918 C189.422855,260.15918 189.911131,260.361814 190.282227,260.76709 C190.653322,261.172365 190.838867,261.780269 190.838867,262.59082 L190.838867,279.93457 C190.838867,280.745121 190.650881,281.353025 190.274902,281.758301 C189.898924,282.163576 189.413089,282.366211 188.817383,282.366211 C188.231442,282.366211 187.755373,282.156252 187.38916,281.736328 C187.022947,281.316404 186.839844,280.715824 186.839844,279.93457 L186.839844,279.93457 Z M206.131836,275.217773 L198.30957,275.217773 C198.319336,276.125981 198.50244,276.926754 198.858887,277.620117 C199.215334,278.31348 199.688962,278.835936 200.279785,279.1875 C200.870608,279.539064 201.522457,279.714844 202.235352,279.714844 C202.71387,279.714844 203.150877,279.658692 203.546387,279.546387 C203.941897,279.434081 204.325193,279.258302 204.696289,279.019043 C205.067385,278.779784 205.409178,278.523439 205.72168,278.25 C206.034181,277.976561 206.439451,277.605471 206.9375,277.136719 C207.142579,276.960937 207.435545,276.873047 207.816406,276.873047 C208.226565,276.873047 208.558592,276.98535 208.8125,277.209961 C209.066408,277.434571 209.193359,277.751951 209.193359,278.162109 C209.193359,278.523439 209.051759,278.945798 208.768555,279.429199 C208.48535,279.9126 208.058108,280.376463 207.486816,280.820801 C206.915524,281.265139 206.197758,281.633788 205.333496,281.926758 C204.469234,282.219728 203.475592,282.366211 202.352539,282.366211 C199.784167,282.366211 197.787117,281.633796 196.361328,280.168945 C194.93554,278.704094 194.222656,276.716809 194.222656,274.207031 C194.222656,273.025385 194.398436,271.929204 194.75,270.918457 C195.101564,269.90771 195.614254,269.041019 196.288086,268.318359 C196.961917,267.5957 197.791987,267.041506 198.77832,266.655762 C199.764653,266.270018 200.858392,266.077148 202.05957,266.077148 C203.622078,266.077148 204.962397,266.406735 206.080566,267.065918 C207.198736,267.725101 208.03613,268.577143 208.592773,269.62207 C209.149417,270.666997 209.427734,271.73144 209.427734,272.81543 C209.427734,273.821294 209.139651,274.473143 208.563477,274.770996 C207.987302,275.068849 207.176763,275.217773 206.131836,275.217773 L206.131836,275.217773 Z M198.30957,272.947266 L205.560547,272.947266 C205.46289,271.580071 205.094241,270.557132 204.45459,269.878418 C203.814938,269.199704 202.972661,268.860352 201.927734,268.860352 C200.931636,268.860352 200.113773,269.204586 199.474121,269.893066 C198.834469,270.581546 198.44629,271.599603 198.30957,272.947266 L198.30957,272.947266 Z M226.097656,274.529297 L226.097656,279.84668 C226.097656,280.686528 225.907228,281.316404 225.526367,281.736328 C225.145506,282.156252 224.642581,282.366211 224.017578,282.366211 C223.412106,282.366211 222.921389,282.156252 222.54541,281.736328 C222.169432,281.316404 221.981445,280.686528 221.981445,279.84668 L221.981445,273.474609 C221.981445,272.468745 221.947266,271.687503 221.878906,271.130859 C221.810547,270.574216 221.625002,270.117678 221.322266,269.76123 C221.01953,269.404783 220.541019,269.226562 219.886719,269.226562 C218.578118,269.226562 217.716311,269.675777 217.30127,270.574219 C216.886228,271.472661 216.678711,272.76171 216.678711,274.441406 L216.678711,279.84668 C216.678711,280.676762 216.490725,281.304197 216.114746,281.729004 C215.738768,282.153811 215.243167,282.366211 214.62793,282.366211 C214.022458,282.366211 213.526857,282.153811 213.141113,281.729004 C212.755369,281.304197 212.5625,280.676762 212.5625,279.84668 L212.5625,268.40625 C212.5625,267.654293 212.735838,267.08301 213.08252,266.692383 C213.429201,266.301756 213.885739,266.106445 214.452148,266.106445 C214.999026,266.106445 215.455565,266.289549 215.821777,266.655762 C216.18799,267.021974 216.371094,267.527341 216.371094,268.171875 L216.371094,268.552734 C217.064457,267.722652 217.806637,267.112307 218.597656,266.72168 C219.388676,266.331053 220.267573,266.135742 221.234375,266.135742 C222.240239,266.135742 223.104489,266.335935 223.827148,266.736328 C224.549808,267.136721 225.145505,267.742183 225.614258,268.552734 C226.288089,267.732418 227.010738,267.124514 227.782227,266.729004 C228.553715,266.333494 229.408198,266.135742 230.345703,266.135742 C231.439459,266.135742 232.381832,266.350584 233.172852,266.780273 C233.963871,267.209963 234.554686,267.825191 234.945312,268.625977 C235.287111,269.348636 235.458008,270.48632 235.458008,272.039062 L235.458008,279.84668 C235.458008,280.686528 235.26758,281.316404 234.886719,281.736328 C234.505857,282.156252 234.002933,282.366211 233.37793,282.366211 C232.772458,282.366211 232.276857,282.153811 231.891113,281.729004 C231.505369,281.304197 231.3125,280.676762 231.3125,279.84668 L231.3125,273.123047 C231.3125,272.263668 231.275879,271.575198 231.202637,271.057617 C231.129394,270.540036 230.931642,270.105471 230.609375,269.753906 C230.287108,269.402342 229.798831,269.226562 229.144531,269.226562 C228.617185,269.226562 228.116702,269.382811 227.643066,269.695312 C227.169431,270.007814 226.800783,270.427732 226.537109,270.955078 C226.244139,271.62891 226.097656,272.820304 226.097656,274.529297 L226.097656,274.529297 Z M250.501953,275.217773 L242.679688,275.217773 C242.689453,276.125981 242.872557,276.926754 243.229004,277.620117 C243.585451,278.31348 244.059079,278.835936 244.649902,279.1875 C245.240726,279.539064 245.892575,279.714844 246.605469,279.714844 C247.083987,279.714844 247.520994,279.658692 247.916504,279.546387 C248.312014,279.434081 248.695311,279.258302 249.066406,279.019043 C249.437502,278.779784 249.779295,278.523439 250.091797,278.25 C250.404298,277.976561 250.809568,277.605471 251.307617,277.136719 C251.512696,276.960937 251.805662,276.873047 252.186523,276.873047 C252.596682,276.873047 252.92871,276.98535 253.182617,277.209961 C253.436525,277.434571 253.563477,277.751951 253.563477,278.162109 C253.563477,278.523439 253.421876,278.945798 253.138672,279.429199 C252.855467,279.9126 252.428226,280.376463 251.856934,280.820801 C251.285642,281.265139 250.567875,281.633788 249.703613,281.926758 C248.839351,282.219728 247.845709,282.366211 246.722656,282.366211 C244.154284,282.366211 242.157234,281.633796 240.731445,280.168945 C239.305657,278.704094 238.592773,276.716809 238.592773,274.207031 C238.592773,273.025385 238.768553,271.929204 239.120117,270.918457 C239.471681,269.90771 239.984372,269.041019 240.658203,268.318359 C241.332035,267.5957 242.162104,267.041506 243.148438,266.655762 C244.134771,266.270018 245.22851,266.077148 246.429688,266.077148 C247.992195,266.077148 249.332514,266.406735 250.450684,267.065918 C251.568853,267.725101 252.406247,268.577143 252.962891,269.62207 C253.519534,270.666997 253.797852,271.73144 253.797852,272.81543 C253.797852,273.821294 253.509769,274.473143 252.933594,274.770996 C252.357419,275.068849 251.54688,275.217773 250.501953,275.217773 L250.501953,275.217773 Z M242.679688,272.947266 L249.930664,272.947266 C249.833007,271.580071 249.464359,270.557132 248.824707,269.878418 C248.185055,269.199704 247.342779,268.860352 246.297852,268.860352 C245.301753,268.860352 244.48389,269.204586 243.844238,269.893066 C243.204587,270.581546 242.816407,271.599603 242.679688,272.947266 L242.679688,272.947266 Z M260.799805,268.318359 L260.799805,268.801758 C261.502933,267.874019 262.271968,267.192873 263.106934,266.758301 C263.941899,266.323728 264.901362,266.106445 265.985352,266.106445 C267.040044,266.106445 267.982418,266.335935 268.8125,266.794922 C269.642582,267.253909 270.262693,267.903316 270.672852,268.743164 C270.936525,269.231448 271.107421,269.758786 271.185547,270.325195 C271.263672,270.891604 271.302734,271.614253 271.302734,272.493164 L271.302734,279.93457 C271.302734,280.735356 271.119631,281.340818 270.753418,281.750977 C270.387205,282.161135 269.911136,282.366211 269.325195,282.366211 C268.729489,282.366211 268.246096,282.156252 267.875,281.736328 C267.503904,281.316404 267.318359,280.715824 267.318359,279.93457 L267.318359,273.269531 C267.318359,271.951165 267.135256,270.942875 266.769043,270.244629 C266.40283,269.546383 265.672857,269.197266 264.579102,269.197266 C263.866207,269.197266 263.2168,269.409666 262.630859,269.834473 C262.044919,270.259279 261.615236,270.84277 261.341797,271.584961 C261.146483,272.180667 261.048828,273.293937 261.048828,274.924805 L261.048828,279.93457 C261.048828,280.745121 260.860842,281.353025 260.484863,281.758301 C260.108885,282.163576 259.62305,282.366211 259.027344,282.366211 C258.451169,282.366211 257.977541,282.156252 257.606445,281.736328 C257.23535,281.316404 257.049805,280.715824 257.049805,279.93457 L257.049805,268.376953 C257.049805,267.615231 257.215819,267.046389 257.547852,266.67041 C257.879884,266.294432 258.333981,266.106445 258.910156,266.106445 C259.261721,266.106445 259.5791,266.189452 259.862305,266.355469 C260.145509,266.521485 260.372558,266.770506 260.543457,267.102539 C260.714356,267.434572 260.799805,267.839841 260.799805,268.318359 L260.799805,268.318359 Z M275.506836,266.458008 L275.946289,266.458008 L275.946289,264.055664 C275.946289,263.41113 275.963379,262.905764 275.997559,262.539551 C276.031738,262.173338 276.126952,261.8584 276.283203,261.594727 C276.439454,261.321288 276.664061,261.099122 276.957031,260.928223 C277.250001,260.757323 277.577147,260.671875 277.938477,260.671875 C278.446292,260.671875 278.905271,260.862303 279.31543,261.243164 C279.588869,261.497072 279.762207,261.807127 279.835449,262.17334 C279.908692,262.539553 279.945312,263.059567 279.945312,263.733398 L279.945312,266.458008 L281.410156,266.458008 C281.976565,266.458008 282.40869,266.592284 282.706543,266.86084 C283.004396,267.129396 283.15332,267.473631 283.15332,267.893555 C283.15332,268.430667 282.94092,268.80664 282.516113,269.021484 C282.091306,269.236329 281.483402,269.34375 280.692383,269.34375 L279.945312,269.34375 L279.945312,276.697266 C279.945312,277.322269 279.967285,277.803221 280.01123,278.140137 C280.055176,278.477052 280.172362,278.750487 280.362793,278.960449 C280.553224,279.170411 280.863279,279.275391 281.292969,279.275391 C281.527345,279.275391 281.844725,279.233887 282.245117,279.150879 C282.64551,279.067871 282.958007,279.026367 283.182617,279.026367 C283.504884,279.026367 283.795409,279.15576 284.054199,279.414551 C284.31299,279.673341 284.442383,279.993162 284.442383,280.374023 C284.442383,281.018558 284.090824,281.511717 283.387695,281.853516 C282.684567,282.195314 281.673835,282.366211 280.355469,282.366211 C279.105462,282.366211 278.158206,282.156252 277.513672,281.736328 C276.869137,281.316404 276.446778,280.735355 276.246582,279.993164 C276.046386,279.250973 275.946289,278.259772 275.946289,277.019531 L275.946289,269.34375 L275.418945,269.34375 C274.842771,269.34375 274.403322,269.207033 274.100586,268.933594 C273.79785,268.660155 273.646484,268.313479 273.646484,267.893555 C273.646484,267.473631 273.805174,267.129396 274.122559,266.86084 C274.439943,266.592284 274.901364,266.458008 275.506836,266.458008 L275.506836,266.458008 Z" id="coelement" fill="#D8D8D8"></path>
                <path d="M103.227539,113.217773 L95.4052734,113.217773 C95.4150391,114.125981 95.5981427,114.926754 95.9545898,115.620117 C96.3110369,116.31348 96.784665,116.835936 97.3754883,117.1875 C97.9663115,117.539064 98.6181605,117.714844 99.3310547,117.714844 C99.8095727,117.714844 100.24658,117.658692 100.64209,117.546387 C101.0376,117.434081 101.420897,117.258302 101.791992,117.019043 C102.163088,116.779784 102.504881,116.523439 102.817383,116.25 C103.129884,115.976561 103.535154,115.605471 104.033203,115.136719 C104.238282,114.960937 104.531248,114.873047 104.912109,114.873047 C105.322268,114.873047 105.654296,114.98535 105.908203,115.209961 C106.162111,115.434571 106.289062,115.751951 106.289062,116.162109 C106.289062,116.523439 106.147462,116.945798 105.864258,117.429199 C105.581053,117.9126 105.153811,118.376463 104.58252,118.820801 C104.011228,119.265139 103.293461,119.633788 102.429199,119.926758 C101.564937,120.219728 100.571295,120.366211 99.4482422,120.366211 C96.87987,120.366211 94.8828196,119.633796 93.4570312,118.168945 C92.0312429,116.704094 91.3183594,114.716809 91.3183594,112.207031 C91.3183594,111.025385 91.4941389,109.929204 91.8457031,108.918457 C92.1972674,107.90771 92.7099576,107.041019 93.3837891,106.318359 C94.0576206,105.5957 94.8876904,105.041506 95.8740234,104.655762 C96.8603565,104.270018 97.9540956,104.077148 99.1552734,104.077148 C100.717781,104.077148 102.0581,104.406735 103.17627,105.065918 C104.294439,105.725101 105.131833,106.577143 105.688477,107.62207 C106.24512,108.666997 106.523438,109.73144 106.523438,110.81543 C106.523438,111.821294 106.235354,112.473143 105.65918,112.770996 C105.083005,113.068849 104.272466,113.217773 103.227539,113.217773 L103.227539,113.217773 Z M95.4052734,110.947266 L102.65625,110.947266 C102.558593,109.580071 102.189945,108.557132 101.550293,107.878418 C100.910641,107.199704 100.068365,106.860352 99.0234375,106.860352 C98.0273388,106.860352 97.2094759,107.204586 96.5698242,107.893066 C95.9301726,108.581546 95.5419929,109.599603 95.4052734,110.947266 L95.4052734,110.947266 Z M109.892578,117.93457 L109.892578,100.59082 C109.892578,99.7900351 110.070799,99.1845724 110.427246,98.7744141 C110.783693,98.3642558 111.264645,98.1591797 111.870117,98.1591797 C112.475589,98.1591797 112.963865,98.3618144 113.334961,98.7670898 C113.706057,99.1723653 113.891602,99.7802694 113.891602,100.59082 L113.891602,117.93457 C113.891602,118.745121 113.703615,119.353025 113.327637,119.758301 C112.951658,120.163576 112.465823,120.366211 111.870117,120.366211 C111.284177,120.366211 110.808107,120.156252 110.441895,119.736328 C110.075682,119.316404 109.892578,118.715824 109.892578,117.93457 L109.892578,117.93457 Z M129.18457,113.217773 L121.362305,113.217773 C121.37207,114.125981 121.555174,114.926754 121.911621,115.620117 C122.268068,116.31348 122.741696,116.835936 123.33252,117.1875 C123.923343,117.539064 124.575192,117.714844 125.288086,117.714844 C125.766604,117.714844 126.203611,117.658692 126.599121,117.546387 C126.994631,117.434081 127.377928,117.258302 127.749023,117.019043 C128.120119,116.779784 128.461912,116.523439 128.774414,116.25 C129.086916,115.976561 129.492185,115.605471 129.990234,115.136719 C130.195314,114.960937 130.488279,114.873047 130.869141,114.873047 C131.279299,114.873047 131.611327,114.98535 131.865234,115.209961 C132.119142,115.434571 132.246094,115.751951 132.246094,116.162109 C132.246094,116.523439 132.104494,116.945798 131.821289,117.429199 C131.538085,117.9126 131.110843,118.376463 130.539551,118.820801 C129.968259,119.265139 129.250493,119.633788 128.38623,119.926758 C127.521968,120.219728 126.528326,120.366211 125.405273,120.366211 C122.836901,120.366211 120.839851,119.633796 119.414062,118.168945 C117.988274,116.704094 117.275391,114.716809 117.275391,112.207031 C117.275391,111.025385 117.45117,109.929204 117.802734,108.918457 C118.154299,107.90771 118.666989,107.041019 119.34082,106.318359 C120.014652,105.5957 120.844722,105.041506 121.831055,104.655762 C122.817388,104.270018 123.911127,104.077148 125.112305,104.077148 C126.674813,104.077148 128.015131,104.406735 129.133301,105.065918 C130.25147,105.725101 131.088864,106.577143 131.645508,107.62207 C132.202151,108.666997 132.480469,109.73144 132.480469,110.81543 C132.480469,111.821294 132.192386,112.473143 131.616211,112.770996 C131.040036,113.068849 130.229497,113.217773 129.18457,113.217773 L129.18457,113.217773 Z M121.362305,110.947266 L128.613281,110.947266 C128.515625,109.580071 128.146976,108.557132 127.507324,107.878418 C126.867673,107.199704 126.025396,106.860352 124.980469,106.860352 C123.98437,106.860352 123.166507,107.204586 122.526855,107.893066 C121.887204,108.581546 121.499024,109.599603 121.362305,110.947266 L121.362305,110.947266 Z M149.150391,112.529297 L149.150391,117.84668 C149.150391,118.686528 148.959963,119.316404 148.579102,119.736328 C148.19824,120.156252 147.695316,120.366211 147.070312,120.366211 C146.464841,120.366211 145.974123,120.156252 145.598145,119.736328 C145.222166,119.316404 145.03418,118.686528 145.03418,117.84668 L145.03418,111.474609 C145.03418,110.468745 145,109.687503 144.931641,109.130859 C144.863281,108.574216 144.677736,108.117678 144.375,107.76123 C144.072264,107.404783 143.593753,107.226562 142.939453,107.226562 C141.630853,107.226562 140.769045,107.675777 140.354004,108.574219 C139.938963,109.472661 139.731445,110.76171 139.731445,112.441406 L139.731445,117.84668 C139.731445,118.676762 139.543459,119.304197 139.16748,119.729004 C138.791502,120.153811 138.295902,120.366211 137.680664,120.366211 C137.075192,120.366211 136.579592,120.153811 136.193848,119.729004 C135.808104,119.304197 135.615234,118.676762 135.615234,117.84668 L135.615234,106.40625 C135.615234,105.654293 135.788572,105.08301 136.135254,104.692383 C136.481935,104.301756 136.938474,104.106445 137.504883,104.106445 C138.051761,104.106445 138.508299,104.289549 138.874512,104.655762 C139.240724,105.021974 139.423828,105.527341 139.423828,106.171875 L139.423828,106.552734 C140.117191,105.722652 140.859371,105.112307 141.650391,104.72168 C142.44141,104.331053 143.320308,104.135742 144.287109,104.135742 C145.292974,104.135742 146.157223,104.335935 146.879883,104.736328 C147.602543,105.136721 148.19824,105.742183 148.666992,106.552734 C149.340824,105.732418 150.063473,105.124514 150.834961,104.729004 C151.606449,104.333494 152.460933,104.135742 153.398438,104.135742 C154.492193,104.135742 155.434566,104.350584 156.225586,104.780273 C157.016606,105.209963 157.60742,105.825191 157.998047,106.625977 C158.339845,107.348636 158.510742,108.48632 158.510742,110.039062 L158.510742,117.84668 C158.510742,118.686528 158.320314,119.316404 157.939453,119.736328 C157.558592,120.156252 157.055667,120.366211 156.430664,120.366211 C155.825192,120.366211 155.329592,120.153811 154.943848,119.729004 C154.558104,119.304197 154.365234,118.676762 154.365234,117.84668 L154.365234,111.123047 C154.365234,110.263668 154.328614,109.575198 154.255371,109.057617 C154.182129,108.540036 153.984377,108.105471 153.662109,107.753906 C153.339842,107.402342 152.851566,107.226562 152.197266,107.226562 C151.669919,107.226562 151.169436,107.382811 150.695801,107.695312 C150.222166,108.007814 149.853517,108.427732 149.589844,108.955078 C149.296874,109.62891 149.150391,110.820304 149.150391,112.529297 L149.150391,112.529297 Z M173.554688,113.217773 L165.732422,113.217773 C165.742188,114.125981 165.925291,114.926754 166.281738,115.620117 C166.638185,116.31348 167.111813,116.835936 167.702637,117.1875 C168.29346,117.539064 168.945309,117.714844 169.658203,117.714844 C170.136721,117.714844 170.573728,117.658692 170.969238,117.546387 C171.364748,117.434081 171.748045,117.258302 172.119141,117.019043 C172.490236,116.779784 172.83203,116.523439 173.144531,116.25 C173.457033,115.976561 173.862302,115.605471 174.360352,115.136719 C174.565431,114.960937 174.858397,114.873047 175.239258,114.873047 C175.649416,114.873047 175.981444,114.98535 176.235352,115.209961 C176.489259,115.434571 176.616211,115.751951 176.616211,116.162109 C176.616211,116.523439 176.474611,116.945798 176.191406,117.429199 C175.908202,117.9126 175.48096,118.376463 174.909668,118.820801 C174.338376,119.265139 173.62061,119.633788 172.756348,119.926758 C171.892086,120.219728 170.898443,120.366211 169.775391,120.366211 C167.207018,120.366211 165.209968,119.633796 163.78418,118.168945 C162.358391,116.704094 161.645508,114.716809 161.645508,112.207031 C161.645508,111.025385 161.821287,109.929204 162.172852,108.918457 C162.524416,107.90771 163.037106,107.041019 163.710938,106.318359 C164.384769,105.5957 165.214839,105.041506 166.201172,104.655762 C167.187505,104.270018 168.281244,104.077148 169.482422,104.077148 C171.04493,104.077148 172.385248,104.406735 173.503418,105.065918 C174.621588,105.725101 175.458982,106.577143 176.015625,107.62207 C176.572268,108.666997 176.850586,109.73144 176.850586,110.81543 C176.850586,111.821294 176.562503,112.473143 175.986328,112.770996 C175.410153,113.068849 174.599615,113.217773 173.554688,113.217773 L173.554688,113.217773 Z M165.732422,110.947266 L172.983398,110.947266 C172.885742,109.580071 172.517093,108.557132 171.877441,107.878418 C171.23779,107.199704 170.395513,106.860352 169.350586,106.860352 C168.354487,106.860352 167.536624,107.204586 166.896973,107.893066 C166.257321,108.581546 165.869141,109.599603 165.732422,110.947266 L165.732422,110.947266 Z M183.852539,106.318359 L183.852539,106.801758 C184.555668,105.874019 185.324703,105.192873 186.159668,104.758301 C186.994633,104.323728 187.954096,104.106445 189.038086,104.106445 C190.092779,104.106445 191.035152,104.335935 191.865234,104.794922 C192.695317,105.253909 193.315428,105.903316 193.725586,106.743164 C193.989259,107.231448 194.160156,107.758786 194.238281,108.325195 C194.316407,108.891604 194.355469,109.614253 194.355469,110.493164 L194.355469,117.93457 C194.355469,118.735356 194.172365,119.340818 193.806152,119.750977 C193.43994,120.161135 192.96387,120.366211 192.37793,120.366211 C191.782224,120.366211 191.29883,120.156252 190.927734,119.736328 C190.556639,119.316404 190.371094,118.715824 190.371094,117.93457 L190.371094,111.269531 C190.371094,109.951165 190.18799,108.942875 189.821777,108.244629 C189.455565,107.546383 188.725591,107.197266 187.631836,107.197266 C186.918942,107.197266 186.269534,107.409666 185.683594,107.834473 C185.097653,108.259279 184.66797,108.84277 184.394531,109.584961 C184.199218,110.180667 184.101562,111.293937 184.101562,112.924805 L184.101562,117.93457 C184.101562,118.745121 183.913576,119.353025 183.537598,119.758301 C183.161619,120.163576 182.675784,120.366211 182.080078,120.366211 C181.503903,120.366211 181.030275,120.156252 180.65918,119.736328 C180.288084,119.316404 180.102539,118.715824 180.102539,117.93457 L180.102539,106.376953 C180.102539,105.615231 180.268553,105.046389 180.600586,104.67041 C180.932619,104.294432 181.386716,104.106445 181.962891,104.106445 C182.314455,104.106445 182.631835,104.189452 182.915039,104.355469 C183.198244,104.521485 183.425292,104.770506 183.596191,105.102539 C183.767091,105.434572 183.852539,105.839841 183.852539,106.318359 L183.852539,106.318359 Z M198.55957,104.458008 L198.999023,104.458008 L198.999023,102.055664 C198.999023,101.41113 199.016113,100.905764 199.050293,100.539551 C199.084473,100.173338 199.179687,99.8583998 199.335938,99.5947266 C199.492188,99.3212877 199.716795,99.0991219 200.009766,98.9282227 C200.302736,98.7573234 200.629881,98.671875 200.991211,98.671875 C201.499026,98.671875 201.958006,98.8623028 202.368164,99.2431641 C202.641603,99.4970716 202.814941,99.8071271 202.888184,100.17334 C202.961426,100.539553 202.998047,101.059567 202.998047,101.733398 L202.998047,104.458008 L204.462891,104.458008 C205.0293,104.458008 205.461424,104.592284 205.759277,104.86084 C206.05713,105.129396 206.206055,105.473631 206.206055,105.893555 C206.206055,106.430667 205.993654,106.80664 205.568848,107.021484 C205.144041,107.236329 204.536137,107.34375 203.745117,107.34375 L202.998047,107.34375 L202.998047,114.697266 C202.998047,115.322269 203.020019,115.803221 203.063965,116.140137 C203.10791,116.477052 203.225097,116.750487 203.415527,116.960449 C203.605958,117.170411 203.916013,117.275391 204.345703,117.275391 C204.580079,117.275391 204.897459,117.233887 205.297852,117.150879 C205.698244,117.067871 206.010741,117.026367 206.235352,117.026367 C206.557619,117.026367 206.848143,117.15576 207.106934,117.414551 C207.365724,117.673341 207.495117,117.993162 207.495117,118.374023 C207.495117,119.018558 207.143558,119.511717 206.44043,119.853516 C205.737301,120.195314 204.726569,120.366211 203.408203,120.366211 C202.158197,120.366211 201.210941,120.156252 200.566406,119.736328 C199.921872,119.316404 199.499513,118.735355 199.299316,117.993164 C199.09912,117.250973 198.999023,116.259772 198.999023,115.019531 L198.999023,107.34375 L198.47168,107.34375 C197.895505,107.34375 197.456056,107.207033 197.15332,106.933594 C196.850584,106.660155 196.699219,106.313479 196.699219,105.893555 C196.699219,105.473631 196.857909,105.129396 197.175293,104.86084 C197.492677,104.592284 197.954099,104.458008 198.55957,104.458008 L198.55957,104.458008 Z" id="element" fill="#333333"></path>
                <path d="M59.6875,444.498047 C59.6875,445.095706 59.5087908,445.734372 59.1513672,446.414062 C58.7939435,447.093753 58.2490271,447.741208 57.5166016,448.356445 C56.784176,448.971683 55.8613337,449.466795 54.7480469,449.841797 C53.6347601,450.216799 52.3808663,450.404297 50.9863281,450.404297 C48.0214696,450.404297 45.7070396,449.540048 44.0429688,447.811523 C42.3788979,446.082999 41.546875,443.76564 41.546875,440.859375 C41.546875,438.890615 41.9277306,437.150398 42.6894531,435.638672 C43.4511757,434.126946 44.5527272,432.958012 45.9941406,432.131836 C47.4355541,431.30566 49.1581931,430.892578 51.1621094,430.892578 C52.4043031,430.892578 53.5439401,431.074217 54.5810547,431.4375 C55.6181692,431.800783 56.4970667,432.269528 57.2177734,432.84375 C57.9384802,433.417972 58.4892559,434.03027 58.8701172,434.680664 C59.2509785,435.331058 59.4414062,435.937497 59.4414062,436.5 C59.4414062,437.074222 59.2275412,437.560545 58.7998047,437.958984 C58.3720682,438.357424 57.8535187,438.556641 57.2441406,438.556641 C56.8457011,438.556641 56.5146498,438.454103 56.2509766,438.249023 C55.9873034,438.043944 55.6914079,437.712893 55.3632812,437.255859 C54.7773408,436.36523 54.1650423,435.697268 53.5263672,435.251953 C52.8876921,434.806638 52.0761768,434.583984 51.0917969,434.583984 C49.673821,434.583984 48.5312543,435.13769 47.6640625,436.245117 C46.7968707,437.352545 46.3632812,438.867178 46.3632812,440.789062 C46.3632812,441.691411 46.4746083,442.520504 46.6972656,443.276367 C46.919923,444.03223 47.2421854,444.676755 47.6640625,445.209961 C48.0859396,445.743167 48.5957001,446.14746 49.1933594,446.422852 C49.7910186,446.698244 50.4472621,446.835938 51.1621094,446.835938 C52.1230517,446.835938 52.9462856,446.613283 53.6318359,446.167969 C54.3173862,445.722654 54.9238255,445.042973 55.4511719,444.128906 C55.7441421,443.589841 56.0605452,443.16797 56.4003906,442.863281 C56.7402361,442.558592 57.1562475,442.40625 57.6484375,442.40625 C58.2343779,442.40625 58.7207012,442.628904 59.1074219,443.074219 C59.4941426,443.519533 59.6875,443.994138 59.6875,444.498047 L59.6875,444.498047 Z M62.9746094,447.521484 L62.9746094,426.708984 C62.9746094,425.748042 63.1884744,425.021487 63.6162109,424.529297 C64.0439475,424.037107 64.6210901,423.791016 65.3476562,423.791016 C66.0742224,423.791016 66.660154,424.034177 67.1054688,424.520508 C67.5507835,425.006838 67.7734375,425.736323 67.7734375,426.708984 L67.7734375,447.521484 C67.7734375,448.494145 67.5478538,449.22363 67.0966797,449.709961 C66.6455056,450.196291 66.0625036,450.439453 65.3476562,450.439453 C64.6445277,450.439453 64.0732444,450.187503 63.6337891,449.683594 C63.1943337,449.179685 62.9746094,448.458989 62.9746094,447.521484 L62.9746094,447.521484 Z M84.859375,447.732422 C83.6992129,448.63477 82.5771539,449.311521 81.4931641,449.762695 C80.4091743,450.213869 79.1933661,450.439453 77.8457031,450.439453 C76.6152282,450.439453 75.5341843,450.196291 74.6025391,449.709961 C73.6708938,449.22363 72.9531275,448.564457 72.4492188,447.732422 C71.94531,446.900386 71.6933594,445.998052 71.6933594,445.025391 C71.6933594,443.712884 72.1093708,442.593755 72.9414062,441.667969 C73.7734417,440.742183 74.9160084,440.121095 76.3691406,439.804688 C76.6738296,439.734375 77.4296815,439.576173 78.6367188,439.330078 C79.843756,439.083983 80.8779254,438.858399 81.7392578,438.65332 C82.6005902,438.448241 83.5351512,438.19922 84.5429688,437.90625 C84.4843747,436.640619 84.2294944,435.711917 83.7783203,435.120117 C83.3271462,434.528317 82.3925852,434.232422 80.9746094,434.232422 C79.7558533,434.232422 78.8388703,434.402342 78.2236328,434.742188 C77.6083954,435.082033 77.0810569,435.591793 76.6416016,436.271484 C76.2021462,436.951175 75.8916025,437.399413 75.7099609,437.616211 C75.5283194,437.833009 75.1386749,437.941406 74.5410156,437.941406 C74.0019504,437.941406 73.5361348,437.768556 73.1435547,437.422852 C72.7509746,437.077147 72.5546875,436.634768 72.5546875,436.095703 C72.5546875,435.251949 72.8535126,434.431645 73.4511719,433.634766 C74.0488311,432.837887 74.9804624,432.181643 76.2460938,431.666016 C77.5117251,431.150388 79.0878812,430.892578 80.9746094,430.892578 C83.0839949,430.892578 84.7421815,431.141599 85.9492188,431.639648 C87.156256,432.137698 88.0087866,432.925776 88.5068359,434.003906 C89.0048853,435.082037 89.2539062,436.51171 89.2539062,438.292969 C89.2539062,439.417974 89.2509766,440.373043 89.2451172,441.158203 C89.2392578,441.943363 89.2304688,442.816401 89.21875,443.777344 C89.21875,444.679692 89.3681626,445.620112 89.6669922,446.598633 C89.9658218,447.577153 90.1152344,448.20703 90.1152344,448.488281 C90.1152344,448.980471 89.8837914,449.428709 89.4208984,449.833008 C88.9580055,450.237307 88.4335967,450.439453 87.8476562,450.439453 C87.3554663,450.439453 86.869143,450.20801 86.3886719,449.745117 C85.9082007,449.282224 85.3984402,448.611333 84.859375,447.732422 L84.859375,447.732422 Z M84.5429688,440.789062 C83.8398402,441.046876 82.8173895,441.319335 81.4755859,441.606445 C80.1337824,441.893556 79.2050807,442.104492 78.6894531,442.239258 C78.1738255,442.374024 77.681643,442.637693 77.2128906,443.030273 C76.7441383,443.422854 76.5097656,443.9707 76.5097656,444.673828 C76.5097656,445.400394 76.7851535,446.018552 77.3359375,446.52832 C77.8867215,447.038088 78.6074174,447.292969 79.4980469,447.292969 C80.4472704,447.292969 81.3232382,447.084963 82.1259766,446.668945 C82.928715,446.252928 83.5175762,445.7168 83.8925781,445.060547 C84.326174,444.333981 84.5429688,443.13868 84.5429688,441.474609 L84.5429688,440.789062 Z M109.574219,444.164062 C109.574219,445.488288 109.251956,446.622066 108.607422,447.56543 C107.962887,448.508794 107.010748,449.22363 105.750977,449.709961 C104.491205,450.196291 102.958993,450.439453 101.154297,450.439453 C99.431632,450.439453 97.9550843,450.175784 96.7246094,449.648438 C95.4941345,449.121091 94.5859404,448.461918 94,447.670898 C93.4140596,446.879879 93.1210938,446.085941 93.1210938,445.289062 C93.1210938,444.761716 93.3085919,444.310549 93.6835938,443.935547 C94.0585956,443.560545 94.5332003,443.373047 95.1074219,443.373047 C95.6113306,443.373047 95.9980455,443.496093 96.2675781,443.742188 C96.5371107,443.988282 96.7949206,444.333982 97.0410156,444.779297 C97.5332056,445.63477 98.1220669,446.273435 98.8076172,446.695312 C99.4931675,447.11719 100.427728,447.328125 101.611328,447.328125 C102.57227,447.328125 103.360348,447.11426 103.975586,446.686523 C104.590823,446.258787 104.898438,445.769534 104.898438,445.21875 C104.898438,444.374996 104.579105,443.759768 103.94043,443.373047 C103.301755,442.986326 102.250007,442.617189 100.785156,442.265625 C99.1328042,441.855467 97.7880911,441.424807 96.7509766,440.973633 C95.713862,440.522459 94.8847687,439.927738 94.2636719,439.189453 C93.642575,438.451168 93.3320312,437.542974 93.3320312,436.464844 C93.3320312,435.503901 93.6191378,434.595707 94.1933594,433.740234 C94.767581,432.884761 95.6142522,432.202151 96.7333984,431.692383 C97.8525447,431.182615 99.2031171,430.927734 100.785156,430.927734 C102.02735,430.927734 103.14355,431.056639 104.133789,431.314453 C105.124028,431.572267 105.950192,431.917967 106.612305,432.351562 C107.274417,432.785158 107.778319,433.265622 108.124023,433.792969 C108.469728,434.320315 108.642578,434.835935 108.642578,435.339844 C108.642578,435.890628 108.45801,436.341795 108.088867,436.693359 C107.719725,437.044924 107.195316,437.220703 106.515625,437.220703 C106.023435,437.220703 105.604494,437.08008 105.258789,436.798828 C104.913084,436.517577 104.51758,436.095706 104.072266,435.533203 C103.708983,435.064451 103.281252,434.689455 102.789062,434.408203 C102.296873,434.126952 101.62891,433.986328 100.785156,433.986328 C99.9179644,433.986328 99.1972685,434.170897 98.6230469,434.540039 C98.0488253,434.909182 97.7617188,435.369138 97.7617188,435.919922 C97.7617188,436.423831 97.9726541,436.836912 98.3945312,437.15918 C98.8164084,437.481447 99.3847621,437.748046 100.099609,437.958984 C100.814457,438.169923 101.798822,438.427733 103.052734,438.732422 C104.541023,439.095705 105.756831,439.529294 106.700195,440.033203 C107.643559,440.537112 108.358396,441.131833 108.844727,441.817383 C109.331057,442.502933 109.574219,443.285152 109.574219,444.164062 L109.574219,444.164062 Z M129.085938,444.164062 C129.085938,445.488288 128.763675,446.622066 128.119141,447.56543 C127.474606,448.508794 126.522467,449.22363 125.262695,449.709961 C124.002923,450.196291 122.470712,450.439453 120.666016,450.439453 C118.943351,450.439453 117.466803,450.175784 116.236328,449.648438 C115.005853,449.121091 114.097659,448.461918 113.511719,447.670898 C112.925778,446.879879 112.632812,446.085941 112.632812,445.289062 C112.632812,444.761716 112.820311,444.310549 113.195312,443.935547 C113.570314,443.560545 114.044919,443.373047 114.619141,443.373047 C115.123049,443.373047 115.509764,443.496093 115.779297,443.742188 C116.048829,443.988282 116.306639,444.333982 116.552734,444.779297 C117.044924,445.63477 117.633786,446.273435 118.319336,446.695312 C119.004886,447.11719 119.939447,447.328125 121.123047,447.328125 C122.083989,447.328125 122.872067,447.11426 123.487305,446.686523 C124.102542,446.258787 124.410156,445.769534 124.410156,445.21875 C124.410156,444.374996 124.090824,443.759768 123.452148,443.373047 C122.813473,442.986326 121.761726,442.617189 120.296875,442.265625 C118.644523,441.855467 117.29981,441.424807 116.262695,440.973633 C115.225581,440.522459 114.396487,439.927738 113.775391,439.189453 C113.154294,438.451168 112.84375,437.542974 112.84375,436.464844 C112.84375,435.503901 113.130857,434.595707 113.705078,433.740234 C114.2793,432.884761 115.125971,432.202151 116.245117,431.692383 C117.364263,431.182615 118.714836,430.927734 120.296875,430.927734 C121.539069,430.927734 122.655268,431.056639 123.645508,431.314453 C124.635747,431.572267 125.461911,431.917967 126.124023,432.351562 C126.786136,432.785158 127.290037,433.265622 127.635742,433.792969 C127.981447,434.320315 128.154297,434.835935 128.154297,435.339844 C128.154297,435.890628 127.969728,436.341795 127.600586,436.693359 C127.231443,437.044924 126.707035,437.220703 126.027344,437.220703 C125.535154,437.220703 125.116213,437.08008 124.770508,436.798828 C124.424803,436.517577 124.029299,436.095706 123.583984,435.533203 C123.220701,435.064451 122.792971,434.689455 122.300781,434.408203 C121.808591,434.126952 121.140629,433.986328 120.296875,433.986328 C119.429683,433.986328 118.708987,434.170897 118.134766,434.540039 C117.560544,434.909182 117.273438,435.369138 117.273438,435.919922 C117.273438,436.423831 117.484373,436.836912 117.90625,437.15918 C118.328127,437.481447 118.896481,437.748046 119.611328,437.958984 C120.326175,438.169923 121.310541,438.427733 122.564453,438.732422 C124.052742,439.095705 125.26855,439.529294 126.211914,440.033203 C127.155278,440.537112 127.870115,441.131833 128.356445,441.817383 C128.842776,442.502933 129.085938,443.285152 129.085938,444.164062 L129.085938,444.164062 Z M139.457031,442.757812 L133.902344,442.757812 C133.05859,442.757812 132.416994,442.561525 131.977539,442.168945 C131.538084,441.776365 131.318359,441.269534 131.318359,440.648438 C131.318359,440.015622 131.532224,439.502932 131.959961,439.110352 C132.387697,438.717771 133.035152,438.521484 133.902344,438.521484 L139.457031,438.521484 C140.324223,438.521484 140.971678,438.717771 141.399414,439.110352 C141.827151,439.502932 142.041016,440.015622 142.041016,440.648438 C142.041016,441.269534 141.83008,441.776365 141.408203,442.168945 C140.986326,442.561525 140.335942,442.757812 139.457031,442.757812 L139.457031,442.757812 Z M162.34375,444.498047 C162.34375,445.095706 162.165041,445.734372 161.807617,446.414062 C161.450194,447.093753 160.905277,447.741208 160.172852,448.356445 C159.440426,448.971683 158.517584,449.466795 157.404297,449.841797 C156.29101,450.216799 155.037116,450.404297 153.642578,450.404297 C150.67772,450.404297 148.36329,449.540048 146.699219,447.811523 C145.035148,446.082999 144.203125,443.76564 144.203125,440.859375 C144.203125,438.890615 144.583981,437.150398 145.345703,435.638672 C146.107426,434.126946 147.208977,432.958012 148.650391,432.131836 C150.091804,431.30566 151.814443,430.892578 153.818359,430.892578 C155.060553,430.892578 156.20019,431.074217 157.237305,431.4375 C158.274419,431.800783 159.153317,432.269528 159.874023,432.84375 C160.59473,433.417972 161.145506,434.03027 161.526367,434.680664 C161.907228,435.331058 162.097656,435.937497 162.097656,436.5 C162.097656,437.074222 161.883791,437.560545 161.456055,437.958984 C161.028318,438.357424 160.509769,438.556641 159.900391,438.556641 C159.501951,438.556641 159.1709,438.454103 158.907227,438.249023 C158.643553,438.043944 158.347658,437.712893 158.019531,437.255859 C157.433591,436.36523 156.821292,435.697268 156.182617,435.251953 C155.543942,434.806638 154.732427,434.583984 153.748047,434.583984 C152.330071,434.583984 151.187504,435.13769 150.320312,436.245117 C149.453121,437.352545 149.019531,438.867178 149.019531,440.789062 C149.019531,441.691411 149.130858,442.520504 149.353516,443.276367 C149.576173,444.03223 149.898435,444.676755 150.320312,445.209961 C150.74219,445.743167 151.25195,446.14746 151.849609,446.422852 C152.447269,446.698244 153.103512,446.835938 153.818359,446.835938 C154.779302,446.835938 155.602536,446.613283 156.288086,446.167969 C156.973636,445.722654 157.580075,445.042973 158.107422,444.128906 C158.400392,443.589841 158.716795,443.16797 159.056641,442.863281 C159.396486,442.558592 159.812498,442.40625 160.304688,442.40625 C160.890628,442.40625 161.376951,442.628904 161.763672,443.074219 C162.150393,443.519533 162.34375,443.994138 162.34375,444.498047 L162.34375,444.498047 Z M184.492188,440.683594 C184.492188,442.113288 184.269533,443.431635 183.824219,444.638672 C183.378904,445.845709 182.734379,446.882808 181.890625,447.75 C181.046871,448.617192 180.039068,449.282224 178.867188,449.745117 C177.695307,450.20801 176.37696,450.439453 174.912109,450.439453 C173.458977,450.439453 172.15235,450.20508 170.992188,449.736328 C169.832025,449.267576 168.827153,448.596684 167.977539,447.723633 C167.127925,446.850582 166.483401,445.819342 166.043945,444.629883 C165.60449,443.440424 165.384766,442.125007 165.384766,440.683594 C165.384766,439.230461 165.60742,437.900397 166.052734,436.693359 C166.498049,435.486322 167.136715,434.455082 167.96875,433.599609 C168.800785,432.744136 169.808588,432.084963 170.992188,431.62207 C172.175787,431.159177 173.482415,430.927734 174.912109,430.927734 C176.365242,430.927734 177.683588,431.162107 178.867188,431.630859 C180.050787,432.099612 181.064449,432.767574 181.908203,433.634766 C182.751957,434.501957 183.393552,435.533197 183.833008,436.728516 C184.272463,437.923834 184.492188,439.24218 184.492188,440.683594 L184.492188,440.683594 Z M179.675781,440.683594 C179.675781,438.726553 179.245121,437.20313 178.383789,436.113281 C177.522457,435.023432 176.365242,434.478516 174.912109,434.478516 C173.974605,434.478516 173.148441,434.721677 172.433594,435.208008 C171.718746,435.694338 171.167971,436.412105 170.78125,437.361328 C170.394529,438.310552 170.201172,439.417962 170.201172,440.683594 C170.201172,441.937506 170.3916,443.033198 170.772461,443.970703 C171.153322,444.908208 171.698239,445.625974 172.407227,446.124023 C173.116214,446.622073 173.951167,446.871094 174.912109,446.871094 C176.365242,446.871094 177.522457,446.323248 178.383789,445.227539 C179.245121,444.13183 179.675781,442.617197 179.675781,440.683594 L179.675781,440.683594 Z M204.232422,441.035156 L204.232422,447.416016 C204.232422,448.423833 204.003909,449.179685 203.546875,449.683594 C203.089841,450.187503 202.486332,450.439453 201.736328,450.439453 C201.009762,450.439453 200.420901,450.187503 199.969727,449.683594 C199.518552,449.179685 199.292969,448.423833 199.292969,447.416016 L199.292969,439.769531 C199.292969,438.562494 199.251954,437.625003 199.169922,436.957031 C199.08789,436.289059 198.865236,435.741213 198.501953,435.313477 C198.13867,434.88574 197.564457,434.671875 196.779297,434.671875 C195.208977,434.671875 194.174807,435.210932 193.676758,436.289062 C193.178708,437.367193 192.929688,438.914052 192.929688,440.929688 L192.929688,447.416016 C192.929688,448.412114 192.704104,449.165037 192.25293,449.674805 C191.801756,450.184573 191.207035,450.439453 190.46875,450.439453 C189.742184,450.439453 189.147463,450.184573 188.68457,449.674805 C188.221677,449.165037 187.990234,448.412114 187.990234,447.416016 L187.990234,433.6875 C187.990234,432.785152 188.19824,432.099612 188.614258,431.630859 C189.030276,431.162107 189.578122,430.927734 190.257812,430.927734 C190.914066,430.927734 191.461912,431.147459 191.901367,431.586914 C192.340823,432.026369 192.560547,432.632809 192.560547,433.40625 L192.560547,433.863281 C193.392582,432.867183 194.283198,432.134768 195.232422,431.666016 C196.181645,431.197263 197.236322,430.962891 198.396484,430.962891 C199.603522,430.962891 200.640621,431.203123 201.507812,431.683594 C202.375004,432.164065 203.089841,432.89062 203.652344,433.863281 C204.460942,432.878901 205.32812,432.149416 206.253906,431.674805 C207.179692,431.200193 208.205073,430.962891 209.330078,430.962891 C210.642585,430.962891 211.773433,431.220701 212.722656,431.736328 C213.67188,432.251956 214.380857,432.99023 214.849609,433.951172 C215.259768,434.818364 215.464844,436.183584 215.464844,438.046875 L215.464844,447.416016 C215.464844,448.423833 215.23633,449.179685 214.779297,449.683594 C214.322263,450.187503 213.718754,450.439453 212.96875,450.439453 C212.242184,450.439453 211.647463,450.184573 211.18457,449.674805 C210.721677,449.165037 210.490234,448.412114 210.490234,447.416016 L210.490234,439.347656 C210.490234,438.316401 210.44629,437.490237 210.358398,436.869141 C210.270507,436.248044 210.033205,435.726565 209.646484,435.304688 C209.259764,434.88281 208.673832,434.671875 207.888672,434.671875 C207.255856,434.671875 206.655276,434.859373 206.086914,435.234375 C205.518552,435.609377 205.076173,436.113278 204.759766,436.746094 C204.408201,437.554692 204.232422,438.984365 204.232422,441.035156 L204.232422,441.035156 Z M224.552734,433.617188 L224.552734,434.197266 C225.455083,433.083979 226.392573,432.266604 227.365234,431.745117 C228.337895,431.22363 229.439447,430.962891 230.669922,430.962891 C232.146492,430.962891 233.505853,431.343746 234.748047,432.105469 C235.990241,432.867191 236.971676,433.980461 237.692383,435.445312 C238.41309,436.910164 238.773438,438.644521 238.773438,440.648438 C238.773438,442.125007 238.565432,443.481439 238.149414,444.717773 C237.733396,445.954108 237.162113,446.991207 236.435547,447.829102 C235.708981,448.666996 234.850591,449.311521 233.860352,449.762695 C232.870112,450.213869 231.806646,450.439453 230.669922,450.439453 C229.298821,450.439453 228.147466,450.164065 227.21582,449.613281 C226.284175,449.062497 225.396489,448.253912 224.552734,447.1875 L224.552734,454.394531 C224.552734,456.503917 223.785164,457.558594 222.25,457.558594 C221.347652,457.558594 220.750001,457.286136 220.457031,456.741211 C220.164061,456.196286 220.017578,455.402349 220.017578,454.359375 L220.017578,433.652344 C220.017578,432.738277 220.216795,432.055666 220.615234,431.604492 C221.013674,431.153318 221.55859,430.927734 222.25,430.927734 C222.929691,430.927734 223.483396,431.159177 223.911133,431.62207 C224.338869,432.084963 224.552734,432.749996 224.552734,433.617188 L224.552734,433.617188 Z M233.957031,440.595703 C233.957031,439.330072 233.763674,438.243169 233.376953,437.334961 C232.990232,436.426753 232.454105,435.729495 231.768555,435.243164 C231.083004,434.756834 230.324223,434.513672 229.492188,434.513672 C228.167962,434.513672 227.051762,435.035151 226.143555,436.078125 C225.235347,437.121099 224.78125,438.65624 224.78125,440.683594 C224.78125,442.59376 225.232417,444.079096 226.134766,445.139648 C227.037114,446.200201 228.156243,446.730469 229.492188,446.730469 C230.289066,446.730469 231.02734,446.499026 231.707031,446.036133 C232.386722,445.57324 232.931639,444.878911 233.341797,443.953125 C233.751955,443.027339 233.957031,441.90821 233.957031,440.595703 L233.957031,440.595703 Z M260.587891,440.683594 C260.587891,442.113288 260.365237,443.431635 259.919922,444.638672 C259.474607,445.845709 258.830082,446.882808 257.986328,447.75 C257.142574,448.617192 256.134771,449.282224 254.962891,449.745117 C253.79101,450.20801 252.472664,450.439453 251.007812,450.439453 C249.55468,450.439453 248.248053,450.20508 247.087891,449.736328 C245.927729,449.267576 244.922856,448.596684 244.073242,447.723633 C243.223629,446.850582 242.579104,445.819342 242.139648,444.629883 C241.700193,443.440424 241.480469,442.125007 241.480469,440.683594 C241.480469,439.230461 241.703123,437.900397 242.148437,436.693359 C242.593752,435.486322 243.232418,434.455082 244.064453,433.599609 C244.896489,432.744136 245.904291,432.084963 247.087891,431.62207 C248.27149,431.159177 249.578118,430.927734 251.007812,430.927734 C252.460945,430.927734 253.779291,431.162107 254.962891,431.630859 C256.14649,432.099612 257.160152,432.767574 258.003906,433.634766 C258.84766,434.501957 259.489256,435.533197 259.928711,436.728516 C260.368166,437.923834 260.587891,439.24218 260.587891,440.683594 L260.587891,440.683594 Z M255.771484,440.683594 C255.771484,438.726553 255.340825,437.20313 254.479492,436.113281 C253.61816,435.023432 252.460945,434.478516 251.007813,434.478516 C250.070308,434.478516 249.244144,434.721677 248.529297,435.208008 C247.81445,435.694338 247.263674,436.412105 246.876953,437.361328 C246.490232,438.310552 246.296875,439.417962 246.296875,440.683594 C246.296875,441.937506 246.487303,443.033198 246.868164,443.970703 C247.249025,444.908208 247.793942,445.625974 248.50293,446.124023 C249.211918,446.622073 250.04687,446.871094 251.007813,446.871094 C252.460945,446.871094 253.61816,446.323248 254.479492,445.227539 C255.340825,444.13183 255.771484,442.617197 255.771484,440.683594 L255.771484,440.683594 Z M268.726562,433.582031 L268.726562,434.162109 C269.570317,433.048823 270.493159,432.231448 271.495117,431.709961 C272.497075,431.188474 273.648431,430.927734 274.949219,430.927734 C276.21485,430.927734 277.345698,431.203122 278.341797,431.753906 C279.337896,432.30469 280.082029,433.083979 280.574219,434.091797 C280.890627,434.677737 281.095703,435.310543 281.189453,435.990234 C281.283204,436.669925 281.330078,437.537104 281.330078,438.591797 L281.330078,447.521484 C281.330078,448.482427 281.110354,449.208982 280.670898,449.701172 C280.231443,450.193362 279.66016,450.439453 278.957031,450.439453 C278.242184,450.439453 277.662112,450.187503 277.216797,449.683594 C276.771482,449.179685 276.548828,448.458989 276.548828,447.521484 L276.548828,439.523438 C276.548828,437.941398 276.329104,436.73145 275.889648,435.893555 C275.450193,435.05566 274.574225,434.636719 273.261719,434.636719 C272.406246,434.636719 271.626957,434.891599 270.923828,435.401367 C270.2207,435.911135 269.70508,436.611324 269.376953,437.501953 C269.142577,438.2168 269.025391,439.552725 269.025391,441.509766 L269.025391,447.521484 C269.025391,448.494145 268.799807,449.22363 268.348633,449.709961 C267.897459,450.196291 267.314457,450.439453 266.599609,450.439453 C265.9082,450.439453 265.339846,450.187503 264.894531,449.683594 C264.449217,449.179685 264.226562,448.458989 264.226562,447.521484 L264.226562,433.652344 C264.226562,432.738277 264.425779,432.055666 264.824219,431.604492 C265.222658,431.153318 265.767575,430.927734 266.458984,430.927734 C266.880861,430.927734 267.261717,431.027343 267.601562,431.226562 C267.941408,431.425782 268.213866,431.724607 268.418945,432.123047 C268.624024,432.521486 268.726562,433.00781 268.726562,433.582031 L268.726562,433.582031 Z M299.505859,441.861328 L290.119141,441.861328 C290.130859,442.951177 290.350584,443.912105 290.77832,444.744141 C291.206057,445.576176 291.774411,446.203123 292.483398,446.625 C293.192386,447.046877 293.974605,447.257812 294.830078,447.257812 C295.4043,447.257812 295.928709,447.19043 296.40332,447.055664 C296.877932,446.920898 297.337888,446.709962 297.783203,446.422852 C298.228518,446.135741 298.63867,445.828127 299.013672,445.5 C299.388674,445.171873 299.874997,444.726565 300.472656,444.164062 C300.718751,443.953124 301.07031,443.847656 301.527344,443.847656 C302.019534,443.847656 302.417967,443.982421 302.722656,444.251953 C303.027345,444.521486 303.179688,444.902341 303.179688,445.394531 C303.179688,445.828127 303.009767,446.334958 302.669922,446.915039 C302.330076,447.49512 301.817386,448.051755 301.131836,448.584961 C300.446286,449.118167 299.584966,449.560545 298.547852,449.912109 C297.510737,450.263674 296.318366,450.439453 294.970703,450.439453 C291.888656,450.439453 289.492196,449.560556 287.78125,447.802734 C286.070304,446.044913 285.214844,443.660171 285.214844,440.648438 C285.214844,439.230462 285.425779,437.915045 285.847656,436.702148 C286.269533,435.489252 286.884762,434.449223 287.693359,433.582031 C288.501957,432.714839 289.498041,432.049807 290.681641,431.586914 C291.86524,431.124021 293.177727,430.892578 294.619141,430.892578 C296.49415,430.892578 298.102532,431.288082 299.444336,432.079102 C300.78614,432.870121 301.791012,433.892572 302.458984,435.146484 C303.126956,436.400397 303.460938,437.677728 303.460938,438.978516 C303.460938,440.185553 303.115238,440.967772 302.423828,441.325195 C301.732418,441.682619 300.759772,441.861328 299.505859,441.861328 L299.505859,441.861328 Z M290.119141,439.136719 L298.820312,439.136719 C298.703124,437.496086 298.260746,436.268559 297.493164,435.454102 C296.725582,434.639644 295.71485,434.232422 294.460938,434.232422 C293.265619,434.232422 292.284184,434.645504 291.516602,435.47168 C290.74902,436.297856 290.283204,437.519523 290.119141,439.136719 L290.119141,439.136719 Z M311.863281,433.582031 L311.863281,434.162109 C312.707035,433.048823 313.629878,432.231448 314.631836,431.709961 C315.633794,431.188474 316.78515,430.927734 318.085938,430.927734 C319.351569,430.927734 320.482417,431.203122 321.478516,431.753906 C322.474614,432.30469 323.218748,433.083979 323.710938,434.091797 C324.027345,434.677737 324.232421,435.310543 324.326172,435.990234 C324.419922,436.669925 324.466797,437.537104 324.466797,438.591797 L324.466797,447.521484 C324.466797,448.482427 324.247073,449.208982 323.807617,449.701172 C323.368162,450.193362 322.796879,450.439453 322.09375,450.439453 C321.378903,450.439453 320.79883,450.187503 320.353516,449.683594 C319.908201,449.179685 319.685547,448.458989 319.685547,447.521484 L319.685547,439.523438 C319.685547,437.941398 319.465823,436.73145 319.026367,435.893555 C318.586912,435.05566 317.710944,434.636719 316.398438,434.636719 C315.542964,434.636719 314.763675,434.891599 314.060547,435.401367 C313.357418,435.911135 312.841799,436.611324 312.513672,437.501953 C312.279296,438.2168 312.162109,439.552725 312.162109,441.509766 L312.162109,447.521484 C312.162109,448.494145 311.936526,449.22363 311.485352,449.709961 C311.034177,450.196291 310.451175,450.439453 309.736328,450.439453 C309.044918,450.439453 308.476565,450.187503 308.03125,449.683594 C307.585935,449.179685 307.363281,448.458989 307.363281,447.521484 L307.363281,433.652344 C307.363281,432.738277 307.562498,432.055666 307.960938,431.604492 C308.359377,431.153318 308.904293,430.927734 309.595703,430.927734 C310.01758,430.927734 310.398436,431.027343 310.738281,431.226562 C311.078127,431.425782 311.350585,431.724607 311.555664,432.123047 C311.760743,432.521486 311.863281,433.00781 311.863281,433.582031 L311.863281,433.582031 Z M329.511719,431.349609 L330.039062,431.349609 L330.039062,428.466797 C330.039062,427.693356 330.05957,427.086916 330.100586,426.647461 C330.141602,426.208006 330.255858,425.83008 330.443359,425.513672 C330.63086,425.185545 330.900389,424.918946 331.251953,424.713867 C331.603517,424.508788 331.996092,424.40625 332.429688,424.40625 C333.039066,424.40625 333.589841,424.634763 334.082031,425.091797 C334.410158,425.396486 334.618164,425.768552 334.706055,426.208008 C334.793946,426.647463 334.837891,427.27148 334.837891,428.080078 L334.837891,431.349609 L336.595703,431.349609 C337.275394,431.349609 337.793944,431.510741 338.151367,431.833008 C338.508791,432.155275 338.6875,432.568357 338.6875,433.072266 C338.6875,433.7168 338.43262,434.167967 337.922852,434.425781 C337.413083,434.683595 336.683598,434.8125 335.734375,434.8125 L334.837891,434.8125 L334.837891,443.636719 C334.837891,444.386723 334.864258,444.963865 334.916992,445.368164 C334.969727,445.772463 335.11035,446.100585 335.338867,446.352539 C335.567384,446.604493 335.939451,446.730469 336.455078,446.730469 C336.73633,446.730469 337.117185,446.680665 337.597656,446.581055 C338.078127,446.481445 338.453124,446.431641 338.722656,446.431641 C339.109377,446.431641 339.458006,446.586913 339.768555,446.897461 C340.079103,447.208009 340.234375,447.591795 340.234375,448.048828 C340.234375,448.822269 339.812504,449.41406 338.96875,449.824219 C338.124996,450.234377 336.912117,450.439453 335.330078,450.439453 C333.830071,450.439453 332.693363,450.187503 331.919922,449.683594 C331.146481,449.179685 330.63965,448.482426 330.399414,447.591797 C330.159178,446.701167 330.039062,445.511726 330.039062,444.023438 L330.039062,434.8125 L329.40625,434.8125 C328.71484,434.8125 328.187502,434.648439 327.824219,434.320312 C327.460936,433.992186 327.279297,433.576174 327.279297,433.072266 C327.279297,432.568357 327.469725,432.155275 327.850586,431.833008 C328.231447,431.510741 328.785153,431.349609 329.511719,431.349609 L329.511719,431.349609 Z" id="class-component" fill="#333333"></path>
            </g>
        </g>
    </g>
</svg>