<?xml version="1.0" encoding="UTF-8" standalone="no"?>
<svg width="388px" height="225px" viewBox="0 0 388 225" version="1.1" xmlns="http://www.w3.org/2000/svg" xmlns:xlink="http://www.w3.org/1999/xlink">
    <!-- Generator: Sketch 3.8.3 (29802) - http://www.bohemiancoding.com/sketch -->
    <title>diagram-2-for-export</title>
    <desc>Created with Sketch.</desc>
    <defs></defs>
    <g id="Page-1" stroke="none" stroke-width="1" fill="none" fill-rule="evenodd">
        <g id="diagram-2-for-export" transform="translate(-332.000000, -384.000000)">
            <g transform="translate(332.000000, 384.000000)">
                <path d="M106.546875,23.5371094 L100.851562,23.5371094 L100.851562,42.2578125 C100.851562,43.3359429 100.611331,44.1357396 100.130859,44.6572266 C99.6503882,45.1787135 99.0293007,45.4394531 98.2675781,45.4394531 C97.4941368,45.4394531 96.8642602,45.1757839 96.3779297,44.6484375 C95.8915991,44.1210911 95.6484375,43.3242241 95.6484375,42.2578125 L95.6484375,23.5371094 L89.953125,23.5371094 C89.0624955,23.5371094 88.4003928,23.3408223 87.9667969,22.9482422 C87.533201,22.5556621 87.3164062,22.0371126 87.3164062,21.3925781 C87.3164062,20.724606 87.5419899,20.1972676 87.9931641,19.8105469 C88.4443382,19.4238262 89.097652,19.2304688 89.953125,19.2304688 L106.546875,19.2304688 C107.449223,19.2304688 108.120115,19.4296855 108.55957,19.828125 C108.999026,20.2265645 109.21875,20.7480437 109.21875,21.3925781 C109.21875,22.0371126 108.996096,22.5556621 108.550781,22.9482422 C108.105467,23.3408223 107.437504,23.5371094 106.546875,23.5371094 L106.546875,23.5371094 Z M116.197266,21.7089844 L116.197266,28.828125 C116.806644,28.1249965 117.401364,27.5683614 117.981445,27.1582031 C118.561526,26.7480448 119.203121,26.4404307 119.90625,26.2353516 C120.609379,26.0302724 121.36523,25.9277344 122.173828,25.9277344 C123.392584,25.9277344 124.473628,26.1855443 125.416992,26.7011719 C126.360356,27.2167995 127.10156,27.966792 127.640625,28.9511719 C127.98047,29.5253935 128.208984,30.1669886 128.326172,30.8759766 C128.44336,31.5849645 128.501953,32.4023391 128.501953,33.328125 L128.501953,42.5214844 C128.501953,43.4824267 128.282229,44.2089819 127.842773,44.7011719 C127.403318,45.1933618 126.820316,45.4394531 126.09375,45.4394531 C124.511711,45.4394531 123.720703,44.4668066 123.720703,42.5214844 L123.720703,34.4179688 C123.720703,32.8828048 123.49219,31.7021526 123.035156,30.8759766 C122.578123,30.0498006 121.710944,29.6367188 120.433594,29.6367188 C119.578121,29.6367188 118.807621,29.8798804 118.12207,30.3662109 C117.43652,30.8525415 116.92383,31.5175739 116.583984,32.3613281 C116.326171,33.0761754 116.197266,34.3476471 116.197266,36.1757812 L116.197266,42.5214844 C116.197266,43.4707079 115.983401,44.1943334 115.555664,44.6923828 C115.127928,45.1904322 114.533207,45.4394531 113.771484,45.4394531 C112.189445,45.4394531 111.398438,44.4668066 111.398438,42.5214844 L111.398438,21.7089844 C111.398438,20.7363233 111.606443,20.0068384 112.022461,19.5205078 C112.438479,19.0341773 113.021481,18.7910156 113.771484,18.7910156 C114.533207,18.7910156 115.127928,19.0371069 115.555664,19.5292969 C115.983401,20.0214868 116.197266,20.7480421 116.197266,21.7089844 L116.197266,21.7089844 Z M146.642578,36.8613281 L137.255859,36.8613281 C137.267578,37.9511773 137.487303,38.9121052 137.915039,39.7441406 C138.342776,40.576176 138.911129,41.2031229 139.620117,41.625 C140.329105,42.0468771 141.111324,42.2578125 141.966797,42.2578125 C142.541018,42.2578125 143.065427,42.1904304 143.540039,42.0556641 C144.014651,41.9208978 144.474607,41.7099624 144.919922,41.4228516 C145.365237,41.1357408 145.775389,40.8281266 146.150391,40.5 C146.525393,40.1718734 147.011716,39.7265653 147.609375,39.1640625 C147.85547,38.9531239 148.207029,38.8476562 148.664062,38.8476562 C149.156252,38.8476562 149.554686,38.9824205 149.859375,39.2519531 C150.164064,39.5214857 150.316406,39.9023413 150.316406,40.3945312 C150.316406,40.8281272 150.146486,41.334958 149.806641,41.9150391 C149.466795,42.4951201 148.954105,43.0517551 148.268555,43.5849609 C147.583004,44.1181667 146.721685,44.5605451 145.68457,44.9121094 C144.647456,45.2636736 143.455085,45.4394531 142.107422,45.4394531 C139.025375,45.4394531 136.628915,44.5605557 134.917969,42.8027344 C133.207023,41.0449131 132.351562,38.6601713 132.351562,35.6484375 C132.351562,34.2304617 132.562498,32.9150451 132.984375,31.7021484 C133.406252,30.4892517 134.02148,29.4492231 134.830078,28.5820312 C135.638676,27.7148394 136.63476,27.049807 137.818359,26.5869141 C139.001959,26.1240211 140.314446,25.8925781 141.755859,25.8925781 C143.630869,25.8925781 145.239251,26.288082 146.581055,27.0791016 C147.922858,27.8701211 148.927731,28.8925719 149.595703,30.1464844 C150.263675,31.4003969 150.597656,32.6777279 150.597656,33.9785156 C150.597656,35.1855529 150.251957,35.9677717 149.560547,36.3251953 C148.869137,36.682619 147.896491,36.8613281 146.642578,36.8613281 L146.642578,36.8613281 Z M137.255859,34.1367188 L145.957031,34.1367188 C145.839843,32.4960855 145.397465,31.2685588 144.629883,30.4541016 C143.862301,29.6396444 142.851569,29.2324219 141.597656,29.2324219 C140.402338,29.2324219 139.420902,29.6455037 138.65332,30.4716797 C137.885738,31.2978557 137.419923,32.5195232 137.255859,34.1367188 L137.255859,34.1367188 Z M176.103516,42.7324219 L176.103516,42.1171875 C175.529294,42.8437536 174.925784,43.4531225 174.292969,43.9453125 C173.660153,44.4375025 172.968754,44.8037097 172.21875,45.0439453 C171.468746,45.2841809 170.613286,45.4042969 169.652344,45.4042969 C168.492182,45.4042969 167.452153,45.1640649 166.532227,44.6835938 C165.6123,44.2031226 164.900393,43.5410198 164.396484,42.6972656 C163.798825,41.6777293 163.5,40.2129002 163.5,38.3027344 L163.5,28.7929688 C163.5,27.8320264 163.716795,27.1142602 164.150391,26.6396484 C164.583987,26.1650367 165.1582,25.9277344 165.873047,25.9277344 C166.599613,25.9277344 167.185545,26.1679663 167.630859,26.6484375 C168.076174,27.1289087 168.298828,27.8437453 168.298828,28.7929688 L168.298828,36.4746094 C168.298828,37.5878962 168.392577,38.5224572 168.580078,39.2783203 C168.767579,40.0341835 169.10449,40.6259744 169.59082,41.0537109 C170.077151,41.4814475 170.736324,41.6953125 171.568359,41.6953125 C172.376957,41.6953125 173.138668,41.4550805 173.853516,40.9746094 C174.568363,40.4941382 175.089842,39.8671914 175.417969,39.09375 C175.687501,38.4140591 175.822266,36.9257927 175.822266,34.6289062 L175.822266,28.7929688 C175.822266,27.8437453 176.04492,27.1289087 176.490234,26.6484375 C176.935549,26.1679663 177.515621,25.9277344 178.230469,25.9277344 C178.945316,25.9277344 179.519529,26.1650367 179.953125,26.6396484 C180.386721,27.1142602 180.603516,27.8320264 180.603516,28.7929688 L180.603516,42.6972656 C180.603516,43.6113327 180.39551,44.2968727 179.979492,44.7539062 C179.563474,45.2109398 179.027347,45.4394531 178.371094,45.4394531 C177.71484,45.4394531 177.172854,45.2021508 176.745117,44.7275391 C176.317381,44.2529273 176.103516,43.5878949 176.103516,42.7324219 L176.103516,42.7324219 Z M200.835938,39.1640625 C200.835938,40.4882879 200.513675,41.6220656 199.869141,42.5654297 C199.224606,43.5087938 198.272467,44.2236304 197.012695,44.7099609 C195.752923,45.1962915 194.220712,45.4394531 192.416016,45.4394531 C190.693351,45.4394531 189.216803,45.1757839 187.986328,44.6484375 C186.755853,44.1210911 185.847659,43.461918 185.261719,42.6708984 C184.675778,41.8798789 184.382812,41.0859415 184.382812,40.2890625 C184.382812,39.7617161 184.570311,39.3105488 184.945312,38.9355469 C185.320314,38.560545 185.794919,38.3730469 186.369141,38.3730469 C186.873049,38.3730469 187.259764,38.4960925 187.529297,38.7421875 C187.798829,38.9882825 188.056639,39.3339821 188.302734,39.7792969 C188.794924,40.6347699 189.383786,41.2734354 190.069336,41.6953125 C190.754886,42.1171896 191.689447,42.328125 192.873047,42.328125 C193.833989,42.328125 194.622067,42.11426 195.237305,41.6865234 C195.852542,41.2587869 196.160156,40.769534 196.160156,40.21875 C196.160156,39.3749958 195.840824,38.7597676 195.202148,38.3730469 C194.563473,37.9863262 193.511726,37.6171893 192.046875,37.265625 C190.394523,36.8554667 189.04981,36.4248069 188.012695,35.9736328 C186.975581,35.5224587 186.146487,34.9277381 185.525391,34.1894531 C184.904294,33.4511682 184.59375,32.5429741 184.59375,31.4648438 C184.59375,30.5039014 184.880857,29.5957074 185.455078,28.7402344 C186.0293,27.8847613 186.875971,27.202151 187.995117,26.6923828 C189.114263,26.1826146 190.464836,25.9277344 192.046875,25.9277344 C193.289069,25.9277344 194.405268,26.0566393 195.395508,26.3144531 C196.385747,26.5722669 197.211911,26.9179666 197.874023,27.3515625 C198.536136,27.7851584 199.040037,28.2656224 199.385742,28.7929688 C199.731447,29.3203151 199.904297,29.835935 199.904297,30.3398438 C199.904297,30.8906278 199.719728,31.3417951 199.350586,31.6933594 C198.981443,32.0449236 198.457035,32.2207031 197.777344,32.2207031 C197.285154,32.2207031 196.866213,32.0800795 196.520508,31.7988281 C196.174803,31.5175767 195.779299,31.0957059 195.333984,30.5332031 C194.970701,30.0644508 194.542971,29.6894545 194.050781,29.4082031 C193.558591,29.1269517 192.890629,28.9863281 192.046875,28.9863281 C191.179683,28.9863281 190.458987,29.1708966 189.884766,29.5400391 C189.310544,29.9091815 189.023438,30.3691379 189.023438,30.9199219 C189.023438,31.4238306 189.234373,31.8369125 189.65625,32.1591797 C190.078127,32.4814469 190.646481,32.7480458 191.361328,32.9589844 C192.076175,33.1699229 193.060541,33.4277329 194.314453,33.7324219 C195.802742,34.0957049 197.01855,34.5292944 197.961914,35.0332031 C198.905278,35.5371119 199.620115,36.1318325 200.106445,36.8173828 C200.592776,37.5029331 200.835938,38.2851519 200.835938,39.1640625 L200.835938,39.1640625 Z M217.359375,42.7324219 L217.359375,42.1171875 C216.785153,42.8437536 216.181644,43.4531225 215.548828,43.9453125 C214.916012,44.4375025 214.224613,44.8037097 213.474609,45.0439453 C212.724606,45.2841809 211.869145,45.4042969 210.908203,45.4042969 C209.748041,45.4042969 208.708012,45.1640649 207.788086,44.6835938 C206.868159,44.2031226 206.156253,43.5410198 205.652344,42.6972656 C205.054685,41.6777293 204.755859,40.2129002 204.755859,38.3027344 L204.755859,28.7929688 C204.755859,27.8320264 204.972654,27.1142602 205.40625,26.6396484 C205.839846,26.1650367 206.414059,25.9277344 207.128906,25.9277344 C207.855472,25.9277344 208.441404,26.1679663 208.886719,26.6484375 C209.332033,27.1289087 209.554688,27.8437453 209.554688,28.7929688 L209.554688,36.4746094 C209.554688,37.5878962 209.648437,38.5224572 209.835938,39.2783203 C210.023438,40.0341835 210.360349,40.6259744 210.84668,41.0537109 C211.33301,41.4814475 211.992183,41.6953125 212.824219,41.6953125 C213.632817,41.6953125 214.394528,41.4550805 215.109375,40.9746094 C215.824222,40.4941382 216.345701,39.8671914 216.673828,39.09375 C216.943361,38.4140591 217.078125,36.9257927 217.078125,34.6289062 L217.078125,28.7929688 C217.078125,27.8437453 217.300779,27.1289087 217.746094,26.6484375 C218.191408,26.1679663 218.771481,25.9277344 219.486328,25.9277344 C220.201175,25.9277344 220.775388,26.1650367 221.208984,26.6396484 C221.64258,27.1142602 221.859375,27.8320264 221.859375,28.7929688 L221.859375,42.6972656 C221.859375,43.6113327 221.651369,44.2968727 221.235352,44.7539062 C220.819334,45.2109398 220.283206,45.4394531 219.626953,45.4394531 C218.9707,45.4394531 218.428713,45.2021508 218.000977,44.7275391 C217.57324,44.2529273 217.359375,43.5878949 217.359375,42.7324219 L217.359375,42.7324219 Z M238.769531,42.7324219 C237.609369,43.6347701 236.48731,44.3115212 235.40332,44.7626953 C234.319331,45.2138694 233.103522,45.4394531 231.755859,45.4394531 C230.525384,45.4394531 229.444341,45.1962915 228.512695,44.7099609 C227.58105,44.2236304 226.863284,43.5644573 226.359375,42.7324219 C225.855466,41.9003865 225.603516,40.9980517 225.603516,40.0253906 C225.603516,38.7128841 226.019527,37.5937546 226.851562,36.6679688 C227.683598,35.7421829 228.826165,35.1210953 230.279297,34.8046875 C230.583986,34.7343746 231.339838,34.5761731 232.546875,34.3300781 C233.753912,34.0839831 234.788082,33.8583995 235.649414,33.6533203 C236.510746,33.4482412 237.445307,33.1992202 238.453125,32.90625 C238.394531,31.6406187 238.139651,30.711917 237.688477,30.1201172 C237.237302,29.5283174 236.302741,29.2324219 234.884766,29.2324219 C233.66601,29.2324219 232.749027,29.4023421 232.133789,29.7421875 C231.518552,30.0820329 230.991213,30.5917935 230.551758,31.2714844 C230.112302,31.9511753 229.801759,32.399413 229.620117,32.6162109 C229.438476,32.8330089 229.048831,32.9414062 228.451172,32.9414062 C227.912107,32.9414062 227.446291,32.7685564 227.053711,32.4228516 C226.661131,32.0771467 226.464844,31.6347683 226.464844,31.0957031 C226.464844,30.2519489 226.763669,29.4316446 227.361328,28.6347656 C227.958987,27.8378866 228.890619,27.1816432 230.15625,26.6660156 C231.421881,26.150388 232.998037,25.8925781 234.884766,25.8925781 C236.994151,25.8925781 238.652338,26.1415991 239.859375,26.6396484 C241.066412,27.1376978 241.918943,27.9257759 242.416992,29.0039062 C242.915042,30.0820366 243.164062,31.5117098 243.164062,33.2929688 C243.164062,34.4179744 243.161133,35.3730429 243.155273,36.1582031 C243.149414,36.9433633 243.140625,37.8164014 243.128906,38.7773438 C243.128906,39.679692 243.278319,40.6201123 243.577148,41.5986328 C243.875978,42.5771533 244.025391,43.2070298 244.025391,43.4882812 C244.025391,43.9804712 243.793948,44.4287089 243.331055,44.8330078 C242.868162,45.2373067 242.343753,45.4394531 241.757812,45.4394531 C241.265623,45.4394531 240.779299,45.2080101 240.298828,44.7451172 C239.818357,44.2822242 239.308596,43.6113325 238.769531,42.7324219 L238.769531,42.7324219 Z M238.453125,35.7890625 C237.749996,36.0468763 236.727546,36.3193345 235.385742,36.6064453 C234.043939,36.8935561 233.115237,37.1044915 232.599609,37.2392578 C232.083982,37.3740241 231.591799,37.6376933 231.123047,38.0302734 C230.654295,38.4228535 230.419922,38.9706996 230.419922,39.6738281 C230.419922,40.4003943 230.69531,41.0185521 231.246094,41.5283203 C231.796878,42.0380885 232.517574,42.2929688 233.408203,42.2929688 C234.357427,42.2929688 235.233394,42.084963 236.036133,41.6689453 C236.838871,41.2529276 237.427733,40.7168002 237.802734,40.0605469 C238.23633,39.3339807 238.453125,38.1386802 238.453125,36.4746094 L238.453125,35.7890625 Z M248.033203,42.5214844 L248.033203,21.7089844 C248.033203,20.7480421 248.247068,20.0214868 248.674805,19.5292969 C249.102541,19.0371069 249.679684,18.7910156 250.40625,18.7910156 C251.132816,18.7910156 251.718748,19.0341773 252.164062,19.5205078 C252.609377,20.0068384 252.832031,20.7363233 252.832031,21.7089844 L252.832031,42.5214844 C252.832031,43.4941455 252.606448,44.2236304 252.155273,44.7099609 C251.704099,45.1962915 251.121097,45.4394531 250.40625,45.4394531 C249.703121,45.4394531 249.131838,45.1875025 248.692383,44.6835938 C248.252927,44.179685 248.033203,43.4589891 248.033203,42.5214844 L248.033203,42.5214844 Z M279.9375,42.6972656 L279.9375,42.2226562 C279.292966,42.9609412 278.65723,43.5615211 278.030273,44.0244141 C277.403317,44.487307 276.723636,44.838866 275.991211,45.0791016 C275.258785,45.3193371 274.458989,45.4394531 273.591797,45.4394531 C272.443354,45.4394531 271.379888,45.1962915 270.401367,44.7099609 C269.422847,44.2236304 268.576175,43.5293014 267.861328,42.6269531 C267.146481,41.7246049 266.604494,40.6640686 266.235352,39.4453125 C265.866209,38.2265564 265.681641,36.9082102 265.681641,35.4902344 C265.681641,32.4902194 266.414055,30.1523521 267.878906,28.4765625 C269.343757,26.8007729 271.271472,25.9628906 273.662109,25.9628906 C275.044929,25.9628906 276.210933,26.2001929 277.160156,26.6748047 C278.10938,27.1494164 279.035152,27.8789013 279.9375,28.8632812 L279.9375,21.7792969 C279.9375,20.794917 280.133787,20.0507838 280.526367,19.546875 C280.918947,19.0429662 281.478512,18.7910156 282.205078,18.7910156 C282.931644,18.7910156 283.491209,19.0224586 283.883789,19.4853516 C284.276369,19.9482445 284.472656,20.6308549 284.472656,21.5332031 L284.472656,42.6972656 C284.472656,43.6113327 284.261721,44.2968727 283.839844,44.7539062 C283.417967,45.2109398 282.87305,45.4394531 282.205078,45.4394531 C281.548825,45.4394531 281.006838,45.2021508 280.579102,44.7275391 C280.151365,44.2529273 279.9375,43.5761763 279.9375,42.6972656 L279.9375,42.6972656 Z M270.498047,35.6484375 C270.498047,36.9492253 270.700193,38.0566361 271.104492,38.9707031 C271.508791,39.8847702 272.062496,40.5732399 272.765625,41.0361328 C273.468754,41.4990258 274.236324,41.7304688 275.068359,41.7304688 C275.912114,41.7304688 276.682614,41.5107444 277.379883,41.0712891 C278.077152,40.6318337 278.633787,39.9580124 279.049805,39.0498047 C279.465822,38.141597 279.673828,37.0078193 279.673828,35.6484375 C279.673828,34.3710874 279.465822,33.2724655 279.049805,32.3525391 C278.633787,31.4326126 278.071293,30.7294946 277.362305,30.2431641 C276.653317,29.7568335 275.876957,29.5136719 275.033203,29.5136719 C274.154292,29.5136719 273.369144,29.7626928 272.677734,30.2607422 C271.986325,30.7587916 271.450197,31.4736282 271.069336,32.4052734 C270.688475,33.3369187 270.498047,34.4179626 270.498047,35.6484375 L270.498047,35.6484375 Z M307.253906,35.6835938 C307.253906,37.1132884 307.031252,38.4316346 306.585938,39.6386719 C306.140623,40.8457092 305.496098,41.8828082 304.652344,42.75 C303.80859,43.6171918 302.800787,44.2822242 301.628906,44.7451172 C300.457025,45.2080101 299.138679,45.4394531 297.673828,45.4394531 C296.220696,45.4394531 294.914068,45.2050805 293.753906,44.7363281 C292.593744,44.2675758 291.588871,43.5966841 290.739258,42.7236328 C289.889644,41.8505816 289.245119,40.8193419 288.805664,39.6298828 C288.366209,38.4404237 288.146484,37.1250072 288.146484,35.6835938 C288.146484,34.2304615 288.369138,32.9003967 288.814453,31.6933594 C289.259768,30.4863221 289.898433,29.4550824 290.730469,28.5996094 C291.562504,27.7441363 292.570307,27.0849633 293.753906,26.6220703 C294.937506,26.1591774 296.244133,25.9277344 297.673828,25.9277344 C299.12696,25.9277344 300.445307,26.162107 301.628906,26.6308594 C302.812506,27.0996117 303.826168,27.7675738 304.669922,28.6347656 C305.513676,29.5019575 306.155271,30.5331971 306.594727,31.7285156 C307.034182,32.9238341 307.253906,34.2421803 307.253906,35.6835938 L307.253906,35.6835938 Z M302.4375,35.6835938 C302.4375,33.7265527 302.00684,32.2031304 301.145508,31.1132812 C300.284175,30.0234321 299.12696,29.4785156 297.673828,29.4785156 C296.736323,29.4785156 295.91016,29.7216773 295.195312,30.2080078 C294.480465,30.6943384 293.929689,31.4121046 293.542969,32.3613281 C293.156248,33.3105516 292.962891,34.4179624 292.962891,35.6835938 C292.962891,36.9375063 293.153318,38.0331984 293.53418,38.9707031 C293.915041,39.9082078 294.459957,40.6259741 295.168945,41.1240234 C295.877933,41.6220728 296.712886,41.8710938 297.673828,41.8710938 C299.12696,41.8710938 300.284175,41.3232477 301.145508,40.2275391 C302.00684,39.1318305 302.4375,37.6171972 302.4375,35.6835938 L302.4375,35.6835938 Z M326.994141,36.0351562 L326.994141,42.4160156 C326.994141,43.4238332 326.765627,44.179685 326.308594,44.6835938 C325.85156,45.1875025 325.248051,45.4394531 324.498047,45.4394531 C323.771481,45.4394531 323.182619,45.1875025 322.731445,44.6835938 C322.280271,44.179685 322.054688,43.4238332 322.054688,42.4160156 L322.054688,34.7695312 C322.054688,33.562494 322.013672,32.6250033 321.931641,31.9570312 C321.849609,31.2890592 321.626955,30.7412131 321.263672,30.3134766 C320.900389,29.88574 320.326176,29.671875 319.541016,29.671875 C317.970695,29.671875 316.936526,30.2109321 316.438477,31.2890625 C315.940427,32.3671929 315.691406,33.9140524 315.691406,35.9296875 L315.691406,42.4160156 C315.691406,43.4121144 315.465823,44.1650365 315.014648,44.6748047 C314.563474,45.1845729 313.968754,45.4394531 313.230469,45.4394531 C312.503903,45.4394531 311.909182,45.1845729 311.446289,44.6748047 C310.983396,44.1650365 310.751953,43.4121144 310.751953,42.4160156 L310.751953,28.6875 C310.751953,27.7851517 310.959959,27.0996117 311.375977,26.6308594 C311.791994,26.162107 312.33984,25.9277344 313.019531,25.9277344 C313.675785,25.9277344 314.223631,26.1474587 314.663086,26.5869141 C315.102541,27.0263694 315.322266,27.6328086 315.322266,28.40625 L315.322266,28.8632812 C316.154301,27.8671825 317.044917,27.134768 317.994141,26.6660156 C318.943364,26.1972633 319.998041,25.9628906 321.158203,25.9628906 C322.36524,25.9628906 323.402339,26.2031226 324.269531,26.6835938 C325.136723,27.1640649 325.85156,27.8906201 326.414062,28.8632812 C327.22266,27.8789013 328.089839,27.1494164 329.015625,26.6748047 C329.941411,26.2001929 330.966791,25.9628906 332.091797,25.9628906 C333.404303,25.9628906 334.535152,26.2207005 335.484375,26.7363281 C336.433598,27.2519557 337.142576,27.9902296 337.611328,28.9511719 C338.021486,29.8183637 338.226562,31.1835844 338.226562,33.046875 L338.226562,42.4160156 C338.226562,43.4238332 337.998049,44.179685 337.541016,44.6835938 C337.083982,45.1875025 336.480473,45.4394531 335.730469,45.4394531 C335.003903,45.4394531 334.409182,45.1845729 333.946289,44.6748047 C333.483396,44.1650365 333.251953,43.4121144 333.251953,42.4160156 L333.251953,34.3476562 C333.251953,33.3164011 333.208008,32.4902375 333.120117,31.8691406 C333.032226,31.2480438 332.794924,30.7265646 332.408203,30.3046875 C332.021482,29.8828104 331.435551,29.671875 330.650391,29.671875 C330.017575,29.671875 329.416995,29.8593731 328.848633,30.234375 C328.280271,30.6093769 327.837892,31.1132781 327.521484,31.7460938 C327.16992,32.5546915 326.994141,33.9843647 326.994141,36.0351562 L326.994141,36.0351562 Z" id="The-usual-dom" fill="#333333"></path>
                <path d="M106.6875,193.498047 C106.6875,194.095706 106.508791,194.734372 106.151367,195.414062 C105.793944,196.093753 105.249027,196.741208 104.516602,197.356445 C103.784176,197.971683 102.861334,198.466795 101.748047,198.841797 C100.63476,199.216799 99.3808663,199.404297 97.9863281,199.404297 C95.0214696,199.404297 92.7070396,198.540048 91.0429688,196.811523 C89.3788979,195.082999 88.546875,192.76564 88.546875,189.859375 C88.546875,187.890615 88.9277306,186.150398 89.6894531,184.638672 C90.4511757,183.126946 91.5527272,181.958012 92.9941406,181.131836 C94.4355541,180.30566 96.1581931,179.892578 98.1621094,179.892578 C99.4043031,179.892578 100.54394,180.074217 101.581055,180.4375 C102.618169,180.800783 103.497067,181.269528 104.217773,181.84375 C104.93848,182.417972 105.489256,183.03027 105.870117,183.680664 C106.250978,184.331058 106.441406,184.937497 106.441406,185.5 C106.441406,186.074222 106.227541,186.560545 105.799805,186.958984 C105.372068,187.357424 104.853519,187.556641 104.244141,187.556641 C103.845701,187.556641 103.51465,187.454103 103.250977,187.249023 C102.987303,187.043944 102.691408,186.712893 102.363281,186.255859 C101.777341,185.36523 101.165042,184.697268 100.526367,184.251953 C99.8876921,183.806638 99.0761768,183.583984 98.0917969,183.583984 C96.673821,183.583984 95.5312543,184.13769 94.6640625,185.245117 C93.7968707,186.352545 93.3632812,187.867178 93.3632812,189.789062 C93.3632812,190.691411 93.4746083,191.520504 93.6972656,192.276367 C93.919923,193.03223 94.2421854,193.676755 94.6640625,194.209961 C95.0859396,194.743167 95.5957001,195.14746 96.1933594,195.422852 C96.7910186,195.698244 97.4472621,195.835938 98.1621094,195.835938 C99.1230517,195.835938 99.9462856,195.613283 100.631836,195.167969 C101.317386,194.722654 101.923825,194.042973 102.451172,193.128906 C102.744142,192.589841 103.060545,192.16797 103.400391,191.863281 C103.740236,191.558592 104.156248,191.40625 104.648438,191.40625 C105.234378,191.40625 105.720701,191.628904 106.107422,192.074219 C106.494143,192.519533 106.6875,192.994138 106.6875,193.498047 L106.6875,193.498047 Z M109.974609,196.521484 L109.974609,175.708984 C109.974609,174.748042 110.188474,174.021487 110.616211,173.529297 C111.043947,173.037107 111.62109,172.791016 112.347656,172.791016 C113.074222,172.791016 113.660154,173.034177 114.105469,173.520508 C114.550783,174.006838 114.773438,174.736323 114.773438,175.708984 L114.773438,196.521484 C114.773438,197.494145 114.547854,198.22363 114.09668,198.709961 C113.645506,199.196291 113.062504,199.439453 112.347656,199.439453 C111.644528,199.439453 111.073244,199.187503 110.633789,198.683594 C110.194334,198.179685 109.974609,197.458989 109.974609,196.521484 L109.974609,196.521484 Z M131.859375,196.732422 C130.699213,197.63477 129.577154,198.311521 128.493164,198.762695 C127.409174,199.213869 126.193366,199.439453 124.845703,199.439453 C123.615228,199.439453 122.534184,199.196291 121.602539,198.709961 C120.670894,198.22363 119.953128,197.564457 119.449219,196.732422 C118.94531,195.900386 118.693359,194.998052 118.693359,194.025391 C118.693359,192.712884 119.109371,191.593755 119.941406,190.667969 C120.773442,189.742183 121.916008,189.121095 123.369141,188.804688 C123.67383,188.734375 124.429681,188.576173 125.636719,188.330078 C126.843756,188.083983 127.877925,187.858399 128.739258,187.65332 C129.60059,187.448241 130.535151,187.19922 131.542969,186.90625 C131.484375,185.640619 131.229494,184.711917 130.77832,184.120117 C130.327146,183.528317 129.392585,183.232422 127.974609,183.232422 C126.755853,183.232422 125.83887,183.402342 125.223633,183.742188 C124.608395,184.082033 124.081057,184.591793 123.641602,185.271484 C123.202146,185.951175 122.891602,186.399413 122.709961,186.616211 C122.528319,186.833009 122.138675,186.941406 121.541016,186.941406 C121.00195,186.941406 120.536135,186.768556 120.143555,186.422852 C119.750975,186.077147 119.554688,185.634768 119.554688,185.095703 C119.554688,184.251949 119.853513,183.431645 120.451172,182.634766 C121.048831,181.837887 121.980462,181.181643 123.246094,180.666016 C124.511725,180.150388 126.087881,179.892578 127.974609,179.892578 C130.083995,179.892578 131.742181,180.141599 132.949219,180.639648 C134.156256,181.137698 135.008787,181.925776 135.506836,183.003906 C136.004885,184.082037 136.253906,185.51171 136.253906,187.292969 C136.253906,188.417974 136.250977,189.373043 136.245117,190.158203 C136.239258,190.943363 136.230469,191.816401 136.21875,192.777344 C136.21875,193.679692 136.368163,194.620112 136.666992,195.598633 C136.965822,196.577153 137.115234,197.20703 137.115234,197.488281 C137.115234,197.980471 136.883791,198.428709 136.420898,198.833008 C135.958005,199.237307 135.433597,199.439453 134.847656,199.439453 C134.355466,199.439453 133.869143,199.20801 133.388672,198.745117 C132.908201,198.282224 132.39844,197.611333 131.859375,196.732422 L131.859375,196.732422 Z M131.542969,189.789062 C130.83984,190.046876 129.81739,190.319335 128.475586,190.606445 C127.133782,190.893556 126.205081,191.104492 125.689453,191.239258 C125.173826,191.374024 124.681643,191.637693 124.212891,192.030273 C123.744138,192.422854 123.509766,192.9707 123.509766,193.673828 C123.509766,194.400394 123.785153,195.018552 124.335938,195.52832 C124.886722,196.038088 125.607417,196.292969 126.498047,196.292969 C127.44727,196.292969 128.323238,196.084963 129.125977,195.668945 C129.928715,195.252928 130.517576,194.7168 130.892578,194.060547 C131.326174,193.333981 131.542969,192.13868 131.542969,190.474609 L131.542969,189.789062 Z M156.574219,193.164062 C156.574219,194.488288 156.251956,195.622066 155.607422,196.56543 C154.962887,197.508794 154.010748,198.22363 152.750977,198.709961 C151.491205,199.196291 149.958993,199.439453 148.154297,199.439453 C146.431632,199.439453 144.955084,199.175784 143.724609,198.648438 C142.494134,198.121091 141.58594,197.461918 141,196.670898 C140.41406,195.879879 140.121094,195.085941 140.121094,194.289062 C140.121094,193.761716 140.308592,193.310549 140.683594,192.935547 C141.058596,192.560545 141.5332,192.373047 142.107422,192.373047 C142.611331,192.373047 142.998046,192.496093 143.267578,192.742188 C143.537111,192.988282 143.794921,193.333982 144.041016,193.779297 C144.533206,194.63477 145.122067,195.273435 145.807617,195.695312 C146.493167,196.11719 147.427728,196.328125 148.611328,196.328125 C149.57227,196.328125 150.360348,196.11426 150.975586,195.686523 C151.590823,195.258787 151.898438,194.769534 151.898438,194.21875 C151.898438,193.374996 151.579105,192.759768 150.94043,192.373047 C150.301755,191.986326 149.250007,191.617189 147.785156,191.265625 C146.132804,190.855467 144.788091,190.424807 143.750977,189.973633 C142.713862,189.522459 141.884769,188.927738 141.263672,188.189453 C140.642575,187.451168 140.332031,186.542974 140.332031,185.464844 C140.332031,184.503901 140.619138,183.595707 141.193359,182.740234 C141.767581,181.884761 142.614252,181.202151 143.733398,180.692383 C144.852545,180.182615 146.203117,179.927734 147.785156,179.927734 C149.02735,179.927734 150.14355,180.056639 151.133789,180.314453 C152.124028,180.572267 152.950192,180.917967 153.612305,181.351562 C154.274417,181.785158 154.778319,182.265622 155.124023,182.792969 C155.469728,183.320315 155.642578,183.835935 155.642578,184.339844 C155.642578,184.890628 155.45801,185.341795 155.088867,185.693359 C154.719725,186.044924 154.195316,186.220703 153.515625,186.220703 C153.023435,186.220703 152.604494,186.08008 152.258789,185.798828 C151.913084,185.517577 151.51758,185.095706 151.072266,184.533203 C150.708983,184.064451 150.281252,183.689455 149.789062,183.408203 C149.296873,183.126952 148.62891,182.986328 147.785156,182.986328 C146.917964,182.986328 146.197268,183.170897 145.623047,183.540039 C145.048825,183.909182 144.761719,184.369138 144.761719,184.919922 C144.761719,185.423831 144.972654,185.836912 145.394531,186.15918 C145.816408,186.481447 146.384762,186.748046 147.099609,186.958984 C147.814457,187.169923 148.798822,187.427733 150.052734,187.732422 C151.541023,188.095705 152.756831,188.529294 153.700195,189.033203 C154.643559,189.537112 155.358396,190.131833 155.844727,190.817383 C156.331057,191.502933 156.574219,192.285152 156.574219,193.164062 L156.574219,193.164062 Z M176.085938,193.164062 C176.085938,194.488288 175.763675,195.622066 175.119141,196.56543 C174.474606,197.508794 173.522467,198.22363 172.262695,198.709961 C171.002923,199.196291 169.470712,199.439453 167.666016,199.439453 C165.943351,199.439453 164.466803,199.175784 163.236328,198.648438 C162.005853,198.121091 161.097659,197.461918 160.511719,196.670898 C159.925778,195.879879 159.632812,195.085941 159.632812,194.289062 C159.632812,193.761716 159.820311,193.310549 160.195312,192.935547 C160.570314,192.560545 161.044919,192.373047 161.619141,192.373047 C162.123049,192.373047 162.509764,192.496093 162.779297,192.742188 C163.048829,192.988282 163.306639,193.333982 163.552734,193.779297 C164.044924,194.63477 164.633786,195.273435 165.319336,195.695312 C166.004886,196.11719 166.939447,196.328125 168.123047,196.328125 C169.083989,196.328125 169.872067,196.11426 170.487305,195.686523 C171.102542,195.258787 171.410156,194.769534 171.410156,194.21875 C171.410156,193.374996 171.090824,192.759768 170.452148,192.373047 C169.813473,191.986326 168.761726,191.617189 167.296875,191.265625 C165.644523,190.855467 164.29981,190.424807 163.262695,189.973633 C162.225581,189.522459 161.396487,188.927738 160.775391,188.189453 C160.154294,187.451168 159.84375,186.542974 159.84375,185.464844 C159.84375,184.503901 160.130857,183.595707 160.705078,182.740234 C161.2793,181.884761 162.125971,181.202151 163.245117,180.692383 C164.364263,180.182615 165.714836,179.927734 167.296875,179.927734 C168.539069,179.927734 169.655268,180.056639 170.645508,180.314453 C171.635747,180.572267 172.461911,180.917967 173.124023,181.351562 C173.786136,181.785158 174.290037,182.265622 174.635742,182.792969 C174.981447,183.320315 175.154297,183.835935 175.154297,184.339844 C175.154297,184.890628 174.969728,185.341795 174.600586,185.693359 C174.231443,186.044924 173.707035,186.220703 173.027344,186.220703 C172.535154,186.220703 172.116213,186.08008 171.770508,185.798828 C171.424803,185.517577 171.029299,185.095706 170.583984,184.533203 C170.220701,184.064451 169.792971,183.689455 169.300781,183.408203 C168.808591,183.126952 168.140629,182.986328 167.296875,182.986328 C166.429683,182.986328 165.708987,183.170897 165.134766,183.540039 C164.560544,183.909182 164.273438,184.369138 164.273438,184.919922 C164.273438,185.423831 164.484373,185.836912 164.90625,186.15918 C165.328127,186.481447 165.896481,186.748046 166.611328,186.958984 C167.326175,187.169923 168.310541,187.427733 169.564453,187.732422 C171.052742,188.095705 172.26855,188.529294 173.211914,189.033203 C174.155278,189.537112 174.870115,190.131833 175.356445,190.817383 C175.842776,191.502933 176.085938,192.285152 176.085938,193.164062 L176.085938,193.164062 Z M186.457031,191.757812 L180.902344,191.757812 C180.05859,191.757812 179.416994,191.561525 178.977539,191.168945 C178.538084,190.776365 178.318359,190.269534 178.318359,189.648438 C178.318359,189.015622 178.532224,188.502932 178.959961,188.110352 C179.387697,187.717771 180.035152,187.521484 180.902344,187.521484 L186.457031,187.521484 C187.324223,187.521484 187.971678,187.717771 188.399414,188.110352 C188.827151,188.502932 189.041016,189.015622 189.041016,189.648438 C189.041016,190.269534 188.83008,190.776365 188.408203,191.168945 C187.986326,191.561525 187.335942,191.757812 186.457031,191.757812 L186.457031,191.757812 Z M209.34375,193.498047 C209.34375,194.095706 209.165041,194.734372 208.807617,195.414062 C208.450194,196.093753 207.905277,196.741208 207.172852,197.356445 C206.440426,197.971683 205.517584,198.466795 204.404297,198.841797 C203.29101,199.216799 202.037116,199.404297 200.642578,199.404297 C197.67772,199.404297 195.36329,198.540048 193.699219,196.811523 C192.035148,195.082999 191.203125,192.76564 191.203125,189.859375 C191.203125,187.890615 191.583981,186.150398 192.345703,184.638672 C193.107426,183.126946 194.208977,181.958012 195.650391,181.131836 C197.091804,180.30566 198.814443,179.892578 200.818359,179.892578 C202.060553,179.892578 203.20019,180.074217 204.237305,180.4375 C205.274419,180.800783 206.153317,181.269528 206.874023,181.84375 C207.59473,182.417972 208.145506,183.03027 208.526367,183.680664 C208.907228,184.331058 209.097656,184.937497 209.097656,185.5 C209.097656,186.074222 208.883791,186.560545 208.456055,186.958984 C208.028318,187.357424 207.509769,187.556641 206.900391,187.556641 C206.501951,187.556641 206.1709,187.454103 205.907227,187.249023 C205.643553,187.043944 205.347658,186.712893 205.019531,186.255859 C204.433591,185.36523 203.821292,184.697268 203.182617,184.251953 C202.543942,183.806638 201.732427,183.583984 200.748047,183.583984 C199.330071,183.583984 198.187504,184.13769 197.320312,185.245117 C196.453121,186.352545 196.019531,187.867178 196.019531,189.789062 C196.019531,190.691411 196.130858,191.520504 196.353516,192.276367 C196.576173,193.03223 196.898435,193.676755 197.320312,194.209961 C197.74219,194.743167 198.25195,195.14746 198.849609,195.422852 C199.447269,195.698244 200.103512,195.835938 200.818359,195.835938 C201.779302,195.835938 202.602536,195.613283 203.288086,195.167969 C203.973636,194.722654 204.580075,194.042973 205.107422,193.128906 C205.400392,192.589841 205.716795,192.16797 206.056641,191.863281 C206.396486,191.558592 206.812498,191.40625 207.304688,191.40625 C207.890628,191.40625 208.376951,191.628904 208.763672,192.074219 C209.150393,192.519533 209.34375,192.994138 209.34375,193.498047 L209.34375,193.498047 Z M231.492188,189.683594 C231.492188,191.113288 231.269533,192.431635 230.824219,193.638672 C230.378904,194.845709 229.734379,195.882808 228.890625,196.75 C228.046871,197.617192 227.039068,198.282224 225.867188,198.745117 C224.695307,199.20801 223.37696,199.439453 221.912109,199.439453 C220.458977,199.439453 219.15235,199.20508 217.992188,198.736328 C216.832025,198.267576 215.827153,197.596684 214.977539,196.723633 C214.127925,195.850582 213.483401,194.819342 213.043945,193.629883 C212.60449,192.440424 212.384766,191.125007 212.384766,189.683594 C212.384766,188.230461 212.60742,186.900397 213.052734,185.693359 C213.498049,184.486322 214.136715,183.455082 214.96875,182.599609 C215.800785,181.744136 216.808588,181.084963 217.992188,180.62207 C219.175787,180.159177 220.482415,179.927734 221.912109,179.927734 C223.365242,179.927734 224.683588,180.162107 225.867188,180.630859 C227.050787,181.099612 228.064449,181.767574 228.908203,182.634766 C229.751957,183.501957 230.393552,184.533197 230.833008,185.728516 C231.272463,186.923834 231.492188,188.24218 231.492188,189.683594 L231.492188,189.683594 Z M226.675781,189.683594 C226.675781,187.726553 226.245121,186.20313 225.383789,185.113281 C224.522457,184.023432 223.365242,183.478516 221.912109,183.478516 C220.974605,183.478516 220.148441,183.721677 219.433594,184.208008 C218.718746,184.694338 218.167971,185.412105 217.78125,186.361328 C217.394529,187.310552 217.201172,188.417962 217.201172,189.683594 C217.201172,190.937506 217.3916,192.033198 217.772461,192.970703 C218.153322,193.908208 218.698239,194.625974 219.407227,195.124023 C220.116214,195.622073 220.951167,195.871094 221.912109,195.871094 C223.365242,195.871094 224.522457,195.323248 225.383789,194.227539 C226.245121,193.13183 226.675781,191.617197 226.675781,189.683594 L226.675781,189.683594 Z M251.232422,190.035156 L251.232422,196.416016 C251.232422,197.423833 251.003909,198.179685 250.546875,198.683594 C250.089841,199.187503 249.486332,199.439453 248.736328,199.439453 C248.009762,199.439453 247.420901,199.187503 246.969727,198.683594 C246.518552,198.179685 246.292969,197.423833 246.292969,196.416016 L246.292969,188.769531 C246.292969,187.562494 246.251954,186.625003 246.169922,185.957031 C246.08789,185.289059 245.865236,184.741213 245.501953,184.313477 C245.13867,183.88574 244.564457,183.671875 243.779297,183.671875 C242.208977,183.671875 241.174807,184.210932 240.676758,185.289062 C240.178708,186.367193 239.929688,187.914052 239.929688,189.929688 L239.929688,196.416016 C239.929688,197.412114 239.704104,198.165037 239.25293,198.674805 C238.801756,199.184573 238.207035,199.439453 237.46875,199.439453 C236.742184,199.439453 236.147463,199.184573 235.68457,198.674805 C235.221677,198.165037 234.990234,197.412114 234.990234,196.416016 L234.990234,182.6875 C234.990234,181.785152 235.19824,181.099612 235.614258,180.630859 C236.030276,180.162107 236.578122,179.927734 237.257812,179.927734 C237.914066,179.927734 238.461912,180.147459 238.901367,180.586914 C239.340823,181.026369 239.560547,181.632809 239.560547,182.40625 L239.560547,182.863281 C240.392582,181.867183 241.283198,181.134768 242.232422,180.666016 C243.181645,180.197263 244.236322,179.962891 245.396484,179.962891 C246.603522,179.962891 247.640621,180.203123 248.507812,180.683594 C249.375004,181.164065 250.089841,181.89062 250.652344,182.863281 C251.460942,181.878901 252.32812,181.149416 253.253906,180.674805 C254.179692,180.200193 255.205073,179.962891 256.330078,179.962891 C257.642585,179.962891 258.773433,180.220701 259.722656,180.736328 C260.67188,181.251956 261.380857,181.99023 261.849609,182.951172 C262.259768,183.818364 262.464844,185.183584 262.464844,187.046875 L262.464844,196.416016 C262.464844,197.423833 262.23633,198.179685 261.779297,198.683594 C261.322263,199.187503 260.718754,199.439453 259.96875,199.439453 C259.242184,199.439453 258.647463,199.184573 258.18457,198.674805 C257.721677,198.165037 257.490234,197.412114 257.490234,196.416016 L257.490234,188.347656 C257.490234,187.316401 257.44629,186.490237 257.358398,185.869141 C257.270507,185.248044 257.033205,184.726565 256.646484,184.304688 C256.259764,183.88281 255.673832,183.671875 254.888672,183.671875 C254.255856,183.671875 253.655276,183.859373 253.086914,184.234375 C252.518552,184.609377 252.076173,185.113278 251.759766,185.746094 C251.408201,186.554692 251.232422,187.984365 251.232422,190.035156 L251.232422,190.035156 Z M271.552734,182.617188 L271.552734,183.197266 C272.455083,182.083979 273.392573,181.266604 274.365234,180.745117 C275.337895,180.22363 276.439447,179.962891 277.669922,179.962891 C279.146492,179.962891 280.505853,180.343746 281.748047,181.105469 C282.990241,181.867191 283.971676,182.980461 284.692383,184.445312 C285.41309,185.910164 285.773438,187.644521 285.773438,189.648438 C285.773438,191.125007 285.565432,192.481439 285.149414,193.717773 C284.733396,194.954108 284.162113,195.991207 283.435547,196.829102 C282.708981,197.666996 281.850591,198.311521 280.860352,198.762695 C279.870112,199.213869 278.806646,199.439453 277.669922,199.439453 C276.298821,199.439453 275.147466,199.164065 274.21582,198.613281 C273.284175,198.062497 272.396489,197.253912 271.552734,196.1875 L271.552734,203.394531 C271.552734,205.503917 270.785164,206.558594 269.25,206.558594 C268.347652,206.558594 267.750001,206.286136 267.457031,205.741211 C267.164061,205.196286 267.017578,204.402349 267.017578,203.359375 L267.017578,182.652344 C267.017578,181.738277 267.216795,181.055666 267.615234,180.604492 C268.013674,180.153318 268.55859,179.927734 269.25,179.927734 C269.929691,179.927734 270.483396,180.159177 270.911133,180.62207 C271.338869,181.084963 271.552734,181.749996 271.552734,182.617188 L271.552734,182.617188 Z M280.957031,189.595703 C280.957031,188.330072 280.763674,187.243169 280.376953,186.334961 C279.990232,185.426753 279.454105,184.729495 278.768555,184.243164 C278.083004,183.756834 277.324223,183.513672 276.492188,183.513672 C275.167962,183.513672 274.051762,184.035151 273.143555,185.078125 C272.235347,186.121099 271.78125,187.65624 271.78125,189.683594 C271.78125,191.59376 272.232417,193.079096 273.134766,194.139648 C274.037114,195.200201 275.156243,195.730469 276.492188,195.730469 C277.289066,195.730469 278.02734,195.499026 278.707031,195.036133 C279.386722,194.57324 279.931639,193.878911 280.341797,192.953125 C280.751955,192.027339 280.957031,190.90821 280.957031,189.595703 L280.957031,189.595703 Z M307.587891,189.683594 C307.587891,191.113288 307.365237,192.431635 306.919922,193.638672 C306.474607,194.845709 305.830082,195.882808 304.986328,196.75 C304.142574,197.617192 303.134771,198.282224 301.962891,198.745117 C300.79101,199.20801 299.472664,199.439453 298.007812,199.439453 C296.55468,199.439453 295.248053,199.20508 294.087891,198.736328 C292.927729,198.267576 291.922856,197.596684 291.073242,196.723633 C290.223629,195.850582 289.579104,194.819342 289.139648,193.629883 C288.700193,192.440424 288.480469,191.125007 288.480469,189.683594 C288.480469,188.230461 288.703123,186.900397 289.148438,185.693359 C289.593752,184.486322 290.232418,183.455082 291.064453,182.599609 C291.896489,181.744136 292.904291,181.084963 294.087891,180.62207 C295.27149,180.159177 296.578118,179.927734 298.007812,179.927734 C299.460945,179.927734 300.779291,180.162107 301.962891,180.630859 C303.14649,181.099612 304.160152,181.767574 305.003906,182.634766 C305.84766,183.501957 306.489256,184.533197 306.928711,185.728516 C307.368166,186.923834 307.587891,188.24218 307.587891,189.683594 L307.587891,189.683594 Z M302.771484,189.683594 C302.771484,187.726553 302.340825,186.20313 301.479492,185.113281 C300.61816,184.023432 299.460945,183.478516 298.007812,183.478516 C297.070308,183.478516 296.244144,183.721677 295.529297,184.208008 C294.81445,184.694338 294.263674,185.412105 293.876953,186.361328 C293.490232,187.310552 293.296875,188.417962 293.296875,189.683594 C293.296875,190.937506 293.487303,192.033198 293.868164,192.970703 C294.249025,193.908208 294.793942,194.625974 295.50293,195.124023 C296.211918,195.622073 297.04687,195.871094 298.007812,195.871094 C299.460945,195.871094 300.61816,195.323248 301.479492,194.227539 C302.340825,193.13183 302.771484,191.617197 302.771484,189.683594 L302.771484,189.683594 Z M315.726562,182.582031 L315.726562,183.162109 C316.570317,182.048823 317.493159,181.231448 318.495117,180.709961 C319.497075,180.188474 320.648431,179.927734 321.949219,179.927734 C323.21485,179.927734 324.345698,180.203122 325.341797,180.753906 C326.337896,181.30469 327.082029,182.083979 327.574219,183.091797 C327.890627,183.677737 328.095703,184.310543 328.189453,184.990234 C328.283204,185.669925 328.330078,186.537104 328.330078,187.591797 L328.330078,196.521484 C328.330078,197.482427 328.110354,198.208982 327.670898,198.701172 C327.231443,199.193362 326.66016,199.439453 325.957031,199.439453 C325.242184,199.439453 324.662112,199.187503 324.216797,198.683594 C323.771482,198.179685 323.548828,197.458989 323.548828,196.521484 L323.548828,188.523438 C323.548828,186.941398 323.329104,185.73145 322.889648,184.893555 C322.450193,184.05566 321.574225,183.636719 320.261719,183.636719 C319.406246,183.636719 318.626957,183.891599 317.923828,184.401367 C317.2207,184.911135 316.70508,185.611324 316.376953,186.501953 C316.142577,187.2168 316.025391,188.552725 316.025391,190.509766 L316.025391,196.521484 C316.025391,197.494145 315.799807,198.22363 315.348633,198.709961 C314.897459,199.196291 314.314457,199.439453 313.599609,199.439453 C312.9082,199.439453 312.339846,199.187503 311.894531,198.683594 C311.449217,198.179685 311.226562,197.458989 311.226562,196.521484 L311.226562,182.652344 C311.226562,181.738277 311.425779,181.055666 311.824219,180.604492 C312.222658,180.153318 312.767575,179.927734 313.458984,179.927734 C313.880861,179.927734 314.261717,180.027343 314.601562,180.226562 C314.941408,180.425782 315.213866,180.724607 315.418945,181.123047 C315.624024,181.521486 315.726562,182.00781 315.726562,182.582031 L315.726562,182.582031 Z M346.505859,190.861328 L337.119141,190.861328 C337.130859,191.951177 337.350584,192.912105 337.77832,193.744141 C338.206057,194.576176 338.774411,195.203123 339.483398,195.625 C340.192386,196.046877 340.974605,196.257812 341.830078,196.257812 C342.4043,196.257812 342.928709,196.19043 343.40332,196.055664 C343.877932,195.920898 344.337888,195.709962 344.783203,195.422852 C345.228518,195.135741 345.63867,194.828127 346.013672,194.5 C346.388674,194.171873 346.874997,193.726565 347.472656,193.164062 C347.718751,192.953124 348.07031,192.847656 348.527344,192.847656 C349.019534,192.847656 349.417967,192.982421 349.722656,193.251953 C350.027345,193.521486 350.179688,193.902341 350.179688,194.394531 C350.179688,194.828127 350.009767,195.334958 349.669922,195.915039 C349.330076,196.49512 348.817386,197.051755 348.131836,197.584961 C347.446286,198.118167 346.584966,198.560545 345.547852,198.912109 C344.510737,199.263674 343.318366,199.439453 341.970703,199.439453 C338.888656,199.439453 336.492196,198.560556 334.78125,196.802734 C333.070304,195.044913 332.214844,192.660171 332.214844,189.648438 C332.214844,188.230462 332.425779,186.915045 332.847656,185.702148 C333.269533,184.489252 333.884762,183.449223 334.693359,182.582031 C335.501957,181.714839 336.498041,181.049807 337.681641,180.586914 C338.86524,180.124021 340.177727,179.892578 341.619141,179.892578 C343.49415,179.892578 345.102532,180.288082 346.444336,181.079102 C347.78614,181.870121 348.791012,182.892572 349.458984,184.146484 C350.126956,185.400397 350.460938,186.677728 350.460938,187.978516 C350.460938,189.185553 350.115238,189.967772 349.423828,190.325195 C348.732418,190.682619 347.759772,190.861328 346.505859,190.861328 L346.505859,190.861328 Z M337.119141,188.136719 L345.820312,188.136719 C345.703124,186.496086 345.260746,185.268559 344.493164,184.454102 C343.725582,183.639644 342.71485,183.232422 341.460938,183.232422 C340.265619,183.232422 339.284184,183.645504 338.516602,184.47168 C337.74902,185.297856 337.283204,186.519523 337.119141,188.136719 L337.119141,188.136719 Z M358.863281,182.582031 L358.863281,183.162109 C359.707035,182.048823 360.629878,181.231448 361.631836,180.709961 C362.633794,180.188474 363.78515,179.927734 365.085938,179.927734 C366.351569,179.927734 367.482417,180.203122 368.478516,180.753906 C369.474614,181.30469 370.218748,182.083979 370.710938,183.091797 C371.027345,183.677737 371.232421,184.310543 371.326172,184.990234 C371.419922,185.669925 371.466797,186.537104 371.466797,187.591797 L371.466797,196.521484 C371.466797,197.482427 371.247073,198.208982 370.807617,198.701172 C370.368162,199.193362 369.796879,199.439453 369.09375,199.439453 C368.378903,199.439453 367.79883,199.187503 367.353516,198.683594 C366.908201,198.179685 366.685547,197.458989 366.685547,196.521484 L366.685547,188.523438 C366.685547,186.941398 366.465823,185.73145 366.026367,184.893555 C365.586912,184.05566 364.710944,183.636719 363.398438,183.636719 C362.542964,183.636719 361.763675,183.891599 361.060547,184.401367 C360.357418,184.911135 359.841799,185.611324 359.513672,186.501953 C359.279296,187.2168 359.162109,188.552725 359.162109,190.509766 L359.162109,196.521484 C359.162109,197.494145 358.936526,198.22363 358.485352,198.709961 C358.034177,199.196291 357.451175,199.439453 356.736328,199.439453 C356.044918,199.439453 355.476565,199.187503 355.03125,198.683594 C354.585935,198.179685 354.363281,197.458989 354.363281,196.521484 L354.363281,182.652344 C354.363281,181.738277 354.562498,181.055666 354.960938,180.604492 C355.359377,180.153318 355.904293,179.927734 356.595703,179.927734 C357.01758,179.927734 357.398436,180.027343 357.738281,180.226562 C358.078127,180.425782 358.350585,180.724607 358.555664,181.123047 C358.760743,181.521486 358.863281,182.00781 358.863281,182.582031 L358.863281,182.582031 Z M376.511719,180.349609 L377.039062,180.349609 L377.039062,177.466797 C377.039062,176.693356 377.05957,176.086916 377.100586,175.647461 C377.141602,175.208006 377.255858,174.83008 377.443359,174.513672 C377.63086,174.185545 377.900389,173.918946 378.251953,173.713867 C378.603517,173.508788 378.996092,173.40625 379.429688,173.40625 C380.039066,173.40625 380.589841,173.634763 381.082031,174.091797 C381.410158,174.396486 381.618164,174.768552 381.706055,175.208008 C381.793946,175.647463 381.837891,176.27148 381.837891,177.080078 L381.837891,180.349609 L383.595703,180.349609 C384.275394,180.349609 384.793944,180.510741 385.151367,180.833008 C385.508791,181.155275 385.6875,181.568357 385.6875,182.072266 C385.6875,182.7168 385.43262,183.167967 384.922852,183.425781 C384.413083,183.683595 383.683598,183.8125 382.734375,183.8125 L381.837891,183.8125 L381.837891,192.636719 C381.837891,193.386723 381.864258,193.963865 381.916992,194.368164 C381.969727,194.772463 382.11035,195.100585 382.338867,195.352539 C382.567384,195.604493 382.939451,195.730469 383.455078,195.730469 C383.73633,195.730469 384.117185,195.680665 384.597656,195.581055 C385.078127,195.481445 385.453124,195.431641 385.722656,195.431641 C386.109377,195.431641 386.458006,195.586913 386.768555,195.897461 C387.079103,196.208009 387.234375,196.591795 387.234375,197.048828 C387.234375,197.822269 386.812504,198.41406 385.96875,198.824219 C385.124996,199.234377 383.912117,199.439453 382.330078,199.439453 C380.830071,199.439453 379.693363,199.187503 378.919922,198.683594 C378.146481,198.179685 377.63965,197.482426 377.399414,196.591797 C377.159178,195.701167 377.039062,194.511726 377.039062,193.023438 L377.039062,183.8125 L376.40625,183.8125 C375.71484,183.8125 375.187502,183.648439 374.824219,183.320312 C374.460936,182.992186 374.279297,182.576174 374.279297,182.072266 C374.279297,181.568357 374.469725,181.155275 374.850586,180.833008 C375.231447,180.510741 375.785153,180.349609 376.511719,180.349609 L376.511719,180.349609 Z" id="class-component" fill="#333333"></path>
                <g id="The-usual-dom">
                    <circle id="Oval-1" fill="#333333" cx="35.5" cy="35.5" r="35.5"></circle>
                    <circle id="Oval-13" fill="#D8D8D8" cx="35.0849991" cy="35.0849991" r="29.0849991"></circle>
                </g>
                <g id="class-componnet" transform="translate(0.000000, 154.000000)">
                    <circle id="Oval-1" fill="#333333" cx="35.5" cy="35.5" r="35.5"></circle>
                    <path d="M35.5,64.5011442 L35.5,64.6716167 C19.4752265,64.6256159 6.49885584,51.6208536 6.49885584,35.5852975 C6.49885584,19.6181052 19.3648189,6.65591969 35.2952133,6.50027242 L35.2952148,6.5002724 C35.363364,6.49932906 35.4316267,6.49885584 35.5,6.49885584 C43.5084448,6.49885584 50.0005721,12.9909831 50.0005721,20.9994279 C50.0005721,29.0078727 43.5084448,35.5 35.5,35.5 C27.4915552,35.5 20.9994279,41.9921273 20.9994279,50.0005721 C20.9994279,58.0090169 27.4915552,64.5011442 35.5,64.5011442 L35.5,64.5011442 Z" id="Combined-Shape" fill="#D8D8D8"></path>
                    <path d="M50.171167,64.3305492 L50.171167,64.5010218 C34.1463935,64.455021 21.1700229,51.4502586 21.1700229,35.4147025 C21.1700229,19.4475103 34.0359859,6.48532472 49.9663803,6.32967745 L49.9663819,6.32967743 C50.034531,6.32873409 50.1027938,6.32826087 50.171167,6.32826087 C58.1796119,6.32826087 64.6717391,12.8203881 64.6717391,20.828833 C64.6717391,28.8372778 58.1796119,35.329405 50.171167,35.329405 C42.1627222,35.329405 35.670595,41.8215323 35.670595,49.8299771 C35.670595,57.8384219 42.1627222,64.3305492 50.171167,64.3305492 L50.171167,64.3305492 Z" id="Combined-Shape" fill="#333333" transform="translate(42.920881, 35.414641) scale(-1, -1) translate(-42.920881, -35.414641) "></path>
                </g>
                <g id="Group" transform="translate(26.000000, 89.000000)" fill="#333333">
                    <polygon id="Line" points="7 1.875 7 37.125 7 39 13 39 13 37.125 13 1.875 13 0 7 0"></polygon>
                    <path d="M10,31 C15,31 20,47 20,47 L0,47 C0,47 5,31 10,31 Z" id="Triangle-1" transform="translate(10.000000, 39.000000) scale(1, -1) translate(-10.000000, -39.000000) "></path>
                </g>
            </g>
        </g>
    </g>
</svg>