<?xml version="1.0" encoding="UTF-8" standalone="no"?>
<svg width="615px" height="71px" viewBox="0 0 615 71" version="1.1" xmlns="http://www.w3.org/2000/svg" xmlns:xlink="http://www.w3.org/1999/xlink">
    <!-- Generator: Sketch 3.8.3 (29802) - http://www.bohemiancoding.com/sketch -->
    <title>logo-for-export</title>
    <desc>Created with Sketch.</desc>
    <defs></defs>
    <g id="Page-1" stroke="none" stroke-width="1" fill="none" fill-rule="evenodd">
        <g id="logo-for-export" transform="translate(-170.000000, -373.000000)">
            <g transform="translate(170.000000, 373.000000)">
                <g id="Group">
                    <circle id="Oval-1" fill="#333333" cx="35.5" cy="35.5" r="35.5"></circle>
                    <path d="M35.5,64.5011442 L35.5,64.6716167 C19.4752265,64.6256159 6.49885584,51.6208536 6.49885584,35.5852975 C6.49885584,19.6181052 19.3648189,6.65591969 35.2952133,6.50027242 L35.2952148,6.5002724 C35.363364,6.49932906 35.4316267,6.49885584 35.5,6.49885584 C43.5084448,6.49885584 50.0005721,12.9909831 50.0005721,20.9994279 C50.0005721,29.0078727 43.5084448,35.5 35.5,35.5 C27.4915552,35.5 20.9994279,41.9921273 20.9994279,50.0005721 C20.9994279,58.0090169 27.4915552,64.5011442 35.5,64.5011442 L35.5,64.5011442 Z" id="Combined-Shape" fill="#D8D8D8"></path>
                    <path d="M50.171167,64.3305492 L50.171167,64.5010218 C34.1463935,64.455021 21.1700229,51.4502586 21.1700229,35.4147025 C21.1700229,19.4475103 34.0359859,6.48532472 49.9663803,6.32967745 L49.9663819,6.32967743 C50.034531,6.32873409 50.1027938,6.32826087 50.171167,6.32826087 C58.1796119,6.32826087 64.6717391,12.8203881 64.6717391,20.828833 C64.6717391,28.8372778 58.1796119,35.329405 50.171167,35.329405 C42.1627222,35.329405 35.670595,41.8215323 35.670595,49.8299771 C35.670595,57.8384219 42.1627222,64.3305492 50.171167,64.3305492 L50.171167,64.3305492 Z" id="Combined-Shape" fill="#333333" transform="translate(42.920881, 35.414641) scale(-1, -1) translate(-42.920881, -35.414641) "></path>
                </g>
                <path d="M116,43.21875 C116,44.2812553 115.682295,45.4166606 115.046875,46.625 C114.411455,47.8333394 113.442715,48.9843695 112.140625,50.078125 C110.838535,51.1718805 109.197927,52.05208 107.21875,52.71875 C105.239573,53.38542 103.010429,53.71875 100.53125,53.71875 C95.2603903,53.71875 91.1458481,52.182307 88.1875,49.109375 C85.2291519,46.036443 83.75,41.9166925 83.75,36.75 C83.75,33.2499825 84.4270766,30.1562634 85.78125,27.46875 C87.1354234,24.7812366 89.0937372,22.7031323 91.65625,21.234375 C94.2187628,19.7656177 97.2812322,19.03125 100.84375,19.03125 C103.052094,19.03125 105.078116,19.3541634 106.921875,20 C108.765634,20.6458366 110.328119,21.4791616 111.609375,22.5 C112.890631,23.5208384 113.869788,24.6093692 114.546875,25.765625 C115.223962,26.9218808 115.5625,27.999995 115.5625,29 C115.5625,30.0208384 115.182295,30.8854131 114.421875,31.59375 C113.661455,32.3020869 112.739589,32.65625 111.65625,32.65625 C110.947913,32.65625 110.359377,32.4739602 109.890625,32.109375 C109.421873,31.7447898 108.895836,31.1562541 108.3125,30.34375 C107.270828,28.7604088 106.182297,27.5729206 105.046875,26.78125 C103.911453,25.9895794 102.468759,25.59375 100.71875,25.59375 C98.1979041,25.59375 96.1666744,26.5781152 94.625,28.546875 C93.0833256,30.5156348 92.3125,33.2083162 92.3125,36.625 C92.3125,38.2291747 92.5104147,39.7031183 92.90625,41.046875 C93.3020853,42.3906317 93.8749962,43.5364536 94.625,44.484375 C95.3750038,45.4322964 96.2812447,46.1510392 97.34375,46.640625 C98.4062553,47.1302108 99.5729103,47.375 100.84375,47.375 C102.552092,47.375 104.015619,46.9791706 105.234375,46.1875 C106.453131,45.3958294 107.531245,44.1875081 108.46875,42.5625 C108.989586,41.6041619 109.55208,40.8541694 110.15625,40.3125 C110.76042,39.7708306 111.499996,39.5 112.375,39.5 C113.416672,39.5 114.281247,39.8958294 114.96875,40.6875 C115.656253,41.4791706 116,42.3229122 116,43.21875 L116,43.21875 Z M121.84375,48.59375 L121.84375,11.59375 C121.84375,9.88540813 122.223955,8.59375438 122.984375,7.71875 C123.744795,6.84374562 124.770827,6.40625 126.0625,6.40625 C127.354173,6.40625 128.395829,6.83853734 129.1875,7.703125 C129.979171,8.56771266 130.375,9.86457469 130.375,11.59375 L130.375,48.59375 C130.375,50.3229253 129.973962,51.6197873 129.171875,52.484375 C128.369788,53.3489627 127.33334,53.78125 126.0625,53.78125 C124.812494,53.78125 123.796879,53.3333378 123.015625,52.4375 C122.234371,51.5416622 121.84375,50.260425 121.84375,48.59375 L121.84375,48.59375 Z M160.75,48.96875 C158.68749,50.5729247 156.692718,51.7760377 154.765625,52.578125 C152.838532,53.3802123 150.677095,53.78125 148.28125,53.78125 C146.093739,53.78125 144.171883,53.3489627 142.515625,52.484375 C140.859367,51.6197873 139.583338,50.4479241 138.6875,48.96875 C137.791662,47.4895759 137.34375,45.8854253 137.34375,44.15625 C137.34375,41.822905 138.083326,39.8333416 139.5625,38.1875 C141.041674,36.5416584 143.072904,35.4375028 145.65625,34.875 C146.197919,34.7499994 147.541656,34.4687522 149.6875,34.03125 C151.833344,33.5937478 153.671867,33.1927102 155.203125,32.828125 C156.734383,32.4635398 158.395824,32.0208359 160.1875,31.5 C160.083333,29.2499887 159.630212,27.5989636 158.828125,26.546875 C158.026038,25.4947864 156.364596,24.96875 153.84375,24.96875 C151.677073,24.96875 150.04688,25.2708303 148.953125,25.875 C147.85937,26.4791697 146.921879,27.3854106 146.140625,28.59375 C145.359371,29.8020894 144.807293,30.5989564 144.484375,30.984375 C144.161457,31.3697936 143.468755,31.5625 142.40625,31.5625 C141.447912,31.5625 140.619795,31.2552114 139.921875,30.640625 C139.223955,30.0260386 138.875,29.2395881 138.875,28.28125 C138.875,26.7812425 139.406245,25.3229237 140.46875,23.90625 C141.531255,22.4895763 143.187489,21.3229212 145.4375,20.40625 C147.687511,19.4895788 150.489567,19.03125 153.84375,19.03125 C157.593769,19.03125 160.541656,19.4739539 162.6875,20.359375 C164.833344,21.2447961 166.348954,22.6458237 167.234375,24.5625 C168.119796,26.4791763 168.5625,29.0208175 168.5625,32.1875 C168.5625,34.18751 168.557292,35.8854097 168.546875,37.28125 C168.536458,38.6770903 168.520833,40.2291581 168.5,41.9375 C168.5,43.5416747 168.765622,45.213533 169.296875,46.953125 C169.828128,48.692717 170.09375,49.8124975 170.09375,50.3125 C170.09375,51.1875044 169.682296,51.9843714 168.859375,52.703125 C168.036454,53.4218786 167.104172,53.78125 166.0625,53.78125 C165.187496,53.78125 164.322921,53.3697958 163.46875,52.546875 C162.614579,51.7239542 161.708338,50.5312578 160.75,48.96875 L160.75,48.96875 Z M160.1875,36.625 C158.937494,37.0833356 157.119804,37.5677058 154.734375,38.078125 C152.348946,38.5885442 150.697921,38.9635405 149.78125,39.203125 C148.864579,39.4427095 147.989587,39.9114548 147.15625,40.609375 C146.322913,41.3072952 145.90625,42.2812437 145.90625,43.53125 C145.90625,44.8229231 146.395828,45.9218705 147.375,46.828125 C148.354172,47.7343795 149.635409,48.1875 151.21875,48.1875 C152.906258,48.1875 154.463535,47.817712 155.890625,47.078125 C157.317715,46.338538 158.36458,45.3854225 159.03125,44.21875 C159.802087,42.9270769 160.1875,40.8020981 160.1875,37.84375 L160.1875,36.625 Z M204.6875,42.625 C204.6875,44.9791784 204.114589,46.9947833 202.96875,48.671875 C201.822911,50.3489667 200.13022,51.6197873 197.890625,52.484375 C195.65103,53.3489627 192.927099,53.78125 189.71875,53.78125 C186.656235,53.78125 184.031261,53.3125047 181.84375,52.375 C179.656239,51.4374953 178.041672,50.265632 177,48.859375 C175.958328,47.453118 175.4375,46.0416737 175.4375,44.625 C175.4375,43.6874953 175.77083,42.88542 176.4375,42.21875 C177.10417,41.55208 177.947912,41.21875 178.96875,41.21875 C179.864588,41.21875 180.552081,41.4374978 181.03125,41.875 C181.510419,42.3125022 181.968748,42.9270794 182.40625,43.71875 C183.281254,45.2395909 184.328119,46.3749962 185.546875,47.125 C186.765631,47.8750038 188.427073,48.25 190.53125,48.25 C192.239592,48.25 193.64062,47.8697955 194.734375,47.109375 C195.82813,46.3489545 196.375,45.4791716 196.375,44.5 C196.375,42.9999925 195.807297,41.9062534 194.671875,41.21875 C193.536453,40.5312466 191.66668,39.8750031 189.0625,39.25 C186.124985,38.5208297 183.734384,37.7552123 181.890625,36.953125 C180.046866,36.1510377 178.572922,35.0937566 177.46875,33.78125 C176.364578,32.4687434 175.8125,30.8541763 175.8125,28.9375 C175.8125,27.2291581 176.322912,25.6145909 177.34375,24.09375 C178.364588,22.5729091 179.869782,21.3593795 181.859375,20.453125 C183.848968,19.5468705 186.249986,19.09375 189.0625,19.09375 C191.270844,19.09375 193.2552,19.3229144 195.015625,19.78125 C196.77605,20.2395856 198.244786,20.8541628 199.421875,21.625 C200.598964,22.3958372 201.494789,23.2499953 202.109375,24.1875 C202.723961,25.1250047 203.03125,26.0416622 203.03125,26.9375 C203.03125,27.9166716 202.703128,28.7187469 202.046875,29.34375 C201.390622,29.9687531 200.458339,30.28125 199.25,30.28125 C198.374996,30.28125 197.630211,30.0312525 197.015625,29.53125 C196.401039,29.0312475 195.697921,28.281255 194.90625,27.28125 C194.260413,26.4479125 193.500004,25.7812525 192.625,25.28125 C191.749996,24.7812475 190.562508,24.53125 189.0625,24.53125 C187.520826,24.53125 186.239588,24.8593717 185.21875,25.515625 C184.197912,26.1718783 183.6875,26.9895784 183.6875,27.96875 C183.6875,28.8645878 184.062496,29.5989555 184.8125,30.171875 C185.562504,30.7447945 186.57291,31.2187481 187.84375,31.59375 C189.11459,31.9687519 190.864572,32.4270806 193.09375,32.96875 C195.739597,33.6145866 197.901033,34.3854122 199.578125,35.28125 C201.255217,36.1770878 202.526037,37.2343689 203.390625,38.453125 C204.255213,39.6718811 204.6875,41.0624922 204.6875,42.625 L204.6875,42.625 Z M239.375,42.625 C239.375,44.9791784 238.802089,46.9947833 237.65625,48.671875 C236.510411,50.3489667 234.81772,51.6197873 232.578125,52.484375 C230.33853,53.3489627 227.614599,53.78125 224.40625,53.78125 C221.343735,53.78125 218.718761,53.3125047 216.53125,52.375 C214.343739,51.4374953 212.729172,50.265632 211.6875,48.859375 C210.645828,47.453118 210.125,46.0416737 210.125,44.625 C210.125,43.6874953 210.45833,42.88542 211.125,42.21875 C211.79167,41.55208 212.635412,41.21875 213.65625,41.21875 C214.552088,41.21875 215.239581,41.4374978 215.71875,41.875 C216.197919,42.3125022 216.656248,42.9270794 217.09375,43.71875 C217.968754,45.2395909 219.015619,46.3749962 220.234375,47.125 C221.453131,47.8750038 223.114573,48.25 225.21875,48.25 C226.927092,48.25 228.32812,47.8697955 229.421875,47.109375 C230.51563,46.3489545 231.0625,45.4791716 231.0625,44.5 C231.0625,42.9999925 230.494797,41.9062534 229.359375,41.21875 C228.223953,40.5312466 226.35418,39.8750031 223.75,39.25 C220.812485,38.5208297 218.421884,37.7552123 216.578125,36.953125 C214.734366,36.1510377 213.260422,35.0937566 212.15625,33.78125 C211.052078,32.4687434 210.5,30.8541763 210.5,28.9375 C210.5,27.2291581 211.010412,25.6145909 212.03125,24.09375 C213.052088,22.5729091 214.557282,21.3593795 216.546875,20.453125 C218.536468,19.5468705 220.937486,19.09375 223.75,19.09375 C225.958344,19.09375 227.9427,19.3229144 229.703125,19.78125 C231.46355,20.2395856 232.932286,20.8541628 234.109375,21.625 C235.286464,22.3958372 236.182289,23.2499953 236.796875,24.1875 C237.411461,25.1250047 237.71875,26.0416622 237.71875,26.9375 C237.71875,27.9166716 237.390628,28.7187469 236.734375,29.34375 C236.078122,29.9687531 235.145839,30.28125 233.9375,30.28125 C233.062496,30.28125 232.317711,30.0312525 231.703125,29.53125 C231.088539,29.0312475 230.385421,28.281255 229.59375,27.28125 C228.947913,26.4479125 228.187504,25.7812525 227.3125,25.28125 C226.437496,24.7812475 225.250007,24.53125 223.75,24.53125 C222.208326,24.53125 220.927088,24.8593717 219.90625,25.515625 C218.885412,26.1718783 218.375,26.9895784 218.375,27.96875 C218.375,28.8645878 218.749996,29.5989555 219.5,30.171875 C220.250004,30.7447945 221.26041,31.2187481 222.53125,31.59375 C223.80209,31.9687519 225.552072,32.4270806 227.78125,32.96875 C230.427097,33.6145866 232.588533,34.3854122 234.265625,35.28125 C235.942717,36.1770878 237.213537,37.2343689 238.078125,38.453125 C238.942713,39.6718811 239.375,41.0624922 239.375,42.625 L239.375,42.625 Z M257.8125,40.125 L247.9375,40.125 C246.437492,40.125 245.296879,39.7760452 244.515625,39.078125 C243.734371,38.3802048 243.34375,37.4791722 243.34375,36.375 C243.34375,35.2499944 243.723955,34.3385452 244.484375,33.640625 C245.244795,32.9427048 246.395826,32.59375 247.9375,32.59375 L257.8125,32.59375 C259.354174,32.59375 260.505205,32.9427048 261.265625,33.640625 C262.026045,34.3385452 262.40625,35.2499944 262.40625,36.375 C262.40625,37.4791722 262.031254,38.3802048 261.28125,39.078125 C260.531246,39.7760452 259.375008,40.125 257.8125,40.125 L257.8125,40.125 Z M298.5,43.21875 C298.5,44.2812553 298.182295,45.4166606 297.546875,46.625 C296.911455,47.8333394 295.942715,48.9843695 294.640625,50.078125 C293.338535,51.1718805 291.697927,52.05208 289.71875,52.71875 C287.739573,53.38542 285.510429,53.71875 283.03125,53.71875 C277.76039,53.71875 273.645848,52.182307 270.6875,49.109375 C267.729152,46.036443 266.25,41.9166925 266.25,36.75 C266.25,33.2499825 266.927077,30.1562634 268.28125,27.46875 C269.635423,24.7812366 271.593737,22.7031323 274.15625,21.234375 C276.718763,19.7656177 279.781232,19.03125 283.34375,19.03125 C285.552094,19.03125 287.578116,19.3541634 289.421875,20 C291.265634,20.6458366 292.828119,21.4791616 294.109375,22.5 C295.390631,23.5208384 296.369788,24.6093692 297.046875,25.765625 C297.723962,26.9218808 298.0625,27.999995 298.0625,29 C298.0625,30.0208384 297.682295,30.8854131 296.921875,31.59375 C296.161455,32.3020869 295.239589,32.65625 294.15625,32.65625 C293.447913,32.65625 292.859377,32.4739602 292.390625,32.109375 C291.921873,31.7447898 291.395836,31.1562541 290.8125,30.34375 C289.770828,28.7604088 288.682297,27.5729206 287.546875,26.78125 C286.411453,25.9895794 284.968759,25.59375 283.21875,25.59375 C280.697904,25.59375 278.666674,26.5781152 277.125,28.546875 C275.583326,30.5156348 274.8125,33.2083162 274.8125,36.625 C274.8125,38.2291747 275.010415,39.7031183 275.40625,41.046875 C275.802085,42.3906317 276.374996,43.5364536 277.125,44.484375 C277.875004,45.4322964 278.781245,46.1510392 279.84375,46.640625 C280.906255,47.1302108 282.07291,47.375 283.34375,47.375 C285.052092,47.375 286.515619,46.9791706 287.734375,46.1875 C288.953131,45.3958294 290.031245,44.1875081 290.96875,42.5625 C291.489586,41.6041619 292.05208,40.8541694 292.65625,40.3125 C293.26042,39.7708306 293.999996,39.5 294.875,39.5 C295.916672,39.5 296.781247,39.8958294 297.46875,40.6875 C298.156253,41.4791706 298.5,42.3229122 298.5,43.21875 L298.5,43.21875 Z M337.875,36.4375 C337.875,38.9791794 337.479171,41.3229059 336.6875,43.46875 C335.895829,45.6145941 334.750008,47.4583256 333.25,49 C331.749992,50.5416744 329.958344,51.7239542 327.875,52.546875 C325.791656,53.3697958 323.44793,53.78125 320.84375,53.78125 C318.260404,53.78125 315.93751,53.3645875 313.875,52.53125 C311.81249,51.6979125 310.026049,50.5052161 308.515625,48.953125 C307.005201,47.4010339 305.859379,45.5677189 305.078125,43.453125 C304.296871,41.3385311 303.90625,39.0000128 303.90625,36.4375 C303.90625,33.8541538 304.302079,31.4895941 305.09375,29.34375 C305.885421,27.1979059 307.020826,25.3645909 308.5,23.84375 C309.979174,22.3229091 311.770823,21.1510458 313.875,20.328125 C315.979177,19.5052042 318.302071,19.09375 320.84375,19.09375 C323.427096,19.09375 325.770823,19.5104125 327.875,20.34375 C329.979177,21.1770875 331.781243,22.3645756 333.28125,23.90625 C334.781257,25.4479244 335.921871,27.2812394 336.703125,29.40625 C337.484379,31.5312606 337.875,33.8749872 337.875,36.4375 L337.875,36.4375 Z M329.3125,36.4375 C329.3125,32.9583159 328.546883,30.2500097 327.015625,28.3125 C325.484367,26.3749903 323.427096,25.40625 320.84375,25.40625 C319.177075,25.40625 317.70834,25.8385373 316.4375,26.703125 C315.16666,27.5677127 314.187503,28.8437416 313.5,30.53125 C312.812497,32.2187584 312.46875,34.1874887 312.46875,36.4375 C312.46875,38.6666778 312.807288,40.614575 313.484375,42.28125 C314.161462,43.947925 315.130202,45.2239539 316.390625,46.109375 C317.651048,46.9947961 319.135408,47.4375 320.84375,47.4375 C323.427096,47.4375 325.484367,46.4635514 327.015625,44.515625 C328.546883,42.5676986 329.3125,39.8750172 329.3125,36.4375 L329.3125,36.4375 Z M372.96875,37.0625 L372.96875,48.40625 C372.96875,50.1979256 372.562504,51.5416622 371.75,52.4375 C370.937496,53.3333378 369.86459,53.78125 368.53125,53.78125 C367.239577,53.78125 366.192712,53.3333378 365.390625,52.4375 C364.588538,51.5416622 364.1875,50.1979256 364.1875,48.40625 L364.1875,34.8125 C364.1875,32.6666559 364.114584,31.0000059 363.96875,29.8125 C363.822916,28.6249941 363.427087,27.6510455 362.78125,26.890625 C362.135413,26.1302045 361.11459,25.75 359.71875,25.75 C356.927069,25.75 355.088546,26.7083237 354.203125,28.625 C353.317704,30.5416763 352.875,33.2916487 352.875,36.875 L352.875,48.40625 C352.875,50.1770922 352.473962,51.5156205 351.671875,52.421875 C350.869788,53.3281295 349.812507,53.78125 348.5,53.78125 C347.208327,53.78125 346.151046,53.3281295 345.328125,52.421875 C344.505204,51.5156205 344.09375,50.1770922 344.09375,48.40625 L344.09375,24 C344.09375,22.3958253 344.463538,21.1770875 345.203125,20.34375 C345.942712,19.5104125 346.916661,19.09375 348.125,19.09375 C349.291673,19.09375 350.265621,19.4843711 351.046875,20.265625 C351.828129,21.0468789 352.21875,22.1249931 352.21875,23.5 L352.21875,24.3125 C353.697924,22.5416578 355.281242,21.2395875 356.96875,20.40625 C358.656258,19.5729125 360.53124,19.15625 362.59375,19.15625 C364.739594,19.15625 366.583326,19.5833291 368.125,20.4375 C369.666674,21.2916709 370.937495,22.5833247 371.9375,24.3125 C373.375007,22.5624912 374.916658,21.2656292 376.5625,20.421875 C378.208342,19.5781208 380.03124,19.15625 382.03125,19.15625 C384.364595,19.15625 386.374992,19.6145788 388.0625,20.53125 C389.750008,21.4479212 391.010413,22.7604081 391.84375,24.46875 C392.57292,26.0104244 392.9375,28.4374834 392.9375,31.75 L392.9375,48.40625 C392.9375,50.1979256 392.531254,51.5416622 391.71875,52.4375 C390.906246,53.3333378 389.83334,53.78125 388.5,53.78125 C387.208327,53.78125 386.151046,53.3281295 385.328125,52.421875 C384.505204,51.5156205 384.09375,50.1770922 384.09375,48.40625 L384.09375,34.0625 C384.09375,32.2291575 384.015626,30.7604222 383.859375,29.65625 C383.703124,28.5520778 383.281253,27.6250038 382.59375,26.875 C381.906247,26.1249962 380.86459,25.75 379.46875,25.75 C378.343744,25.75 377.276047,26.08333 376.265625,26.75 C375.255203,27.41667 374.468753,28.3124944 373.90625,29.4375 C373.281247,30.8750072 372.96875,33.4166484 372.96875,37.0625 L372.96875,37.0625 Z M409.09375,23.875 L409.09375,24.90625 C410.697925,22.9270734 412.364575,21.473963 414.09375,20.546875 C415.822925,19.619787 417.781239,19.15625 419.96875,19.15625 C422.593763,19.15625 425.010406,19.8333266 427.21875,21.1875 C429.427094,22.5416734 431.171869,24.5208203 432.453125,27.125 C433.734381,29.7291797 434.375,32.8124822 434.375,36.375 C434.375,39.0000131 434.005212,41.4114473 433.265625,43.609375 C432.526038,45.8073027 431.510423,47.6510342 430.21875,49.140625 C428.927077,50.6302158 427.40105,51.7760377 425.640625,52.578125 C423.8802,53.3802123 421.989593,53.78125 419.96875,53.78125 C417.531238,53.78125 415.484383,53.2916716 413.828125,52.3125 C412.171867,51.3333284 410.593758,49.8958428 409.09375,48 L409.09375,60.8125 C409.09375,64.5625187 407.72918,66.4375 405,66.4375 C403.395825,66.4375 402.333336,65.9531298 401.8125,64.984375 C401.291664,64.0156202 401.03125,62.6041759 401.03125,60.75 L401.03125,23.9375 C401.03125,22.3124919 401.385413,21.0989623 402.09375,20.296875 C402.802087,19.4947877 403.770827,19.09375 405,19.09375 C406.208339,19.09375 407.192705,19.5052042 407.953125,20.328125 C408.713545,21.1510458 409.09375,22.3333256 409.09375,23.875 L409.09375,23.875 Z M425.8125,36.28125 C425.8125,34.0312387 425.468753,32.0989664 424.78125,30.484375 C424.093747,28.8697836 423.140631,27.6302127 421.921875,26.765625 C420.703119,25.9010373 419.354174,25.46875 417.875,25.46875 C415.520822,25.46875 413.536466,26.3958241 411.921875,28.25 C410.307284,30.1041759 409.5,32.8333153 409.5,36.4375 C409.5,39.8333503 410.302075,42.4739489 411.90625,44.359375 C413.510425,46.2448011 415.499988,47.1875 417.875,47.1875 C419.291674,47.1875 420.604161,46.7760458 421.8125,45.953125 C423.020839,45.1302042 423.98958,43.8958416 424.71875,42.25 C425.44792,40.6041584 425.8125,38.614595 425.8125,36.28125 L425.8125,36.28125 Z M473.15625,36.4375 C473.15625,38.9791794 472.760421,41.3229059 471.96875,43.46875 C471.177079,45.6145941 470.031258,47.4583256 468.53125,49 C467.031242,50.5416744 465.239594,51.7239542 463.15625,52.546875 C461.072906,53.3697958 458.72918,53.78125 456.125,53.78125 C453.541654,53.78125 451.21876,53.3645875 449.15625,52.53125 C447.09374,51.6979125 445.307299,50.5052161 443.796875,48.953125 C442.286451,47.4010339 441.140629,45.5677189 440.359375,43.453125 C439.578121,41.3385311 439.1875,39.0000128 439.1875,36.4375 C439.1875,33.8541538 439.583329,31.4895941 440.375,29.34375 C441.166671,27.1979059 442.302076,25.3645909 443.78125,23.84375 C445.260424,22.3229091 447.052073,21.1510458 449.15625,20.328125 C451.260427,19.5052042 453.583321,19.09375 456.125,19.09375 C458.708346,19.09375 461.052073,19.5104125 463.15625,20.34375 C465.260427,21.1770875 467.062492,22.3645756 468.5625,23.90625 C470.062508,25.4479244 471.203121,27.2812394 471.984375,29.40625 C472.765629,31.5312606 473.15625,33.8749872 473.15625,36.4375 L473.15625,36.4375 Z M464.59375,36.4375 C464.59375,32.9583159 463.828133,30.2500097 462.296875,28.3125 C460.765617,26.3749903 458.708346,25.40625 456.125,25.40625 C454.458325,25.40625 452.98959,25.8385373 451.71875,26.703125 C450.44791,27.5677127 449.468753,28.8437416 448.78125,30.53125 C448.093747,32.2187584 447.75,34.1874887 447.75,36.4375 C447.75,38.6666778 448.088538,40.614575 448.765625,42.28125 C449.442712,43.947925 450.411452,45.2239539 451.671875,46.109375 C452.932298,46.9947961 454.416658,47.4375 456.125,47.4375 C458.708346,47.4375 460.765617,46.4635514 462.296875,44.515625 C463.828133,42.5676986 464.59375,39.8750172 464.59375,36.4375 L464.59375,36.4375 Z M487.625,23.8125 L487.625,24.84375 C489.125008,22.8645734 490.765616,21.411463 492.546875,20.484375 C494.328134,19.557287 496.374988,19.09375 498.6875,19.09375 C500.937511,19.09375 502.947908,19.5833284 504.71875,20.5625 C506.489592,21.5416716 507.812496,22.9270744 508.6875,24.71875 C509.250003,25.7604219 509.614582,26.8854106 509.78125,28.09375 C509.947918,29.3020894 510.03125,30.8437406 510.03125,32.71875 L510.03125,48.59375 C510.03125,50.3020919 509.640629,51.5937456 508.859375,52.46875 C508.078121,53.3437544 507.062506,53.78125 505.8125,53.78125 C504.54166,53.78125 503.510421,53.3333378 502.71875,52.4375 C501.927079,51.5416622 501.53125,50.260425 501.53125,48.59375 L501.53125,34.375 C501.53125,31.5624859 501.140629,29.4114658 500.359375,27.921875 C499.578121,26.4322842 498.020845,25.6875 495.6875,25.6875 C494.166659,25.6875 492.781256,26.1406205 491.53125,27.046875 C490.281244,27.9531295 489.364586,29.1979088 488.78125,30.78125 C488.364581,32.0520897 488.15625,34.4270659 488.15625,37.90625 L488.15625,48.59375 C488.15625,50.3229253 487.755212,51.6197873 486.953125,52.484375 C486.151038,53.3489627 485.11459,53.78125 483.84375,53.78125 C482.614577,53.78125 481.604171,53.3333378 480.8125,52.4375 C480.020829,51.5416622 479.625,50.260425 479.625,48.59375 L479.625,23.9375 C479.625,22.3124919 479.979163,21.0989623 480.6875,20.296875 C481.395837,19.4947877 482.364577,19.09375 483.59375,19.09375 C484.343754,19.09375 485.02083,19.2708316 485.625,19.625 C486.22917,19.9791684 486.71354,20.5104131 487.078125,21.21875 C487.44271,21.9270869 487.625,22.7916616 487.625,23.8125 L487.625,23.8125 Z M542.34375,38.53125 L525.65625,38.53125 C525.677083,40.4687597 526.067705,42.1770759 526.828125,43.65625 C527.588545,45.1354241 528.598952,46.2499962 529.859375,47 C531.119798,47.7500038 532.510409,48.125 534.03125,48.125 C535.052088,48.125 535.984371,48.0052095 536.828125,47.765625 C537.671879,47.5260405 538.489579,47.1510442 539.28125,46.640625 C540.072921,46.1302058 540.80208,45.5833363 541.46875,45 C542.13542,44.4166637 542.999995,43.625005 544.0625,42.625 C544.500002,42.2499981 545.124996,42.0625 545.9375,42.0625 C546.812504,42.0625 547.520831,42.3020809 548.0625,42.78125 C548.604169,43.2604191 548.875,43.9374956 548.875,44.8125 C548.875,45.5833372 548.57292,46.4843698 547.96875,47.515625 C547.36458,48.5468802 546.453131,49.5364536 545.234375,50.484375 C544.015619,51.4322964 542.484384,52.2187469 540.640625,52.84375 C538.796866,53.4687531 536.677095,53.78125 534.28125,53.78125 C528.802056,53.78125 524.541682,52.2187656 521.5,49.09375 C518.458318,45.9687344 516.9375,41.7291934 516.9375,36.375 C516.9375,33.8541541 517.312496,31.5156358 518.0625,29.359375 C518.812504,27.2031142 519.906243,25.3541744 521.34375,23.8125 C522.781257,22.2708256 524.552073,21.0885458 526.65625,20.265625 C528.760427,19.4427042 531.093737,19.03125 533.65625,19.03125 C536.9896,19.03125 539.848946,19.734368 542.234375,21.140625 C544.619804,22.546882 546.406244,24.3645722 547.59375,26.59375 C548.781256,28.8229278 549.375,31.0937384 549.375,33.40625 C549.375,35.5520941 548.760423,36.9427052 547.53125,37.578125 C546.302077,38.2135448 544.572928,38.53125 542.34375,38.53125 L542.34375,38.53125 Z M525.65625,33.6875 L541.125,33.6875 C540.916666,30.7708187 540.130215,28.5885489 538.765625,27.140625 C537.401035,25.6927011 535.604178,24.96875 533.375,24.96875 C531.249989,24.96875 529.505215,25.7031177 528.140625,27.171875 C526.776035,28.6406323 525.947918,30.8124856 525.65625,33.6875 L525.65625,33.6875 Z M564.3125,23.8125 L564.3125,24.84375 C565.812508,22.8645734 567.453116,21.411463 569.234375,20.484375 C571.015634,19.557287 573.062488,19.09375 575.375,19.09375 C577.625011,19.09375 579.635408,19.5833284 581.40625,20.5625 C583.177092,21.5416716 584.499996,22.9270744 585.375,24.71875 C585.937503,25.7604219 586.302082,26.8854106 586.46875,28.09375 C586.635418,29.3020894 586.71875,30.8437406 586.71875,32.71875 L586.71875,48.59375 C586.71875,50.3020919 586.328129,51.5937456 585.546875,52.46875 C584.765621,53.3437544 583.750006,53.78125 582.5,53.78125 C581.22916,53.78125 580.197921,53.3333378 579.40625,52.4375 C578.614579,51.5416622 578.21875,50.260425 578.21875,48.59375 L578.21875,34.375 C578.21875,31.5624859 577.828129,29.4114658 577.046875,27.921875 C576.265621,26.4322842 574.708345,25.6875 572.375,25.6875 C570.854159,25.6875 569.468756,26.1406205 568.21875,27.046875 C566.968744,27.9531295 566.052086,29.1979088 565.46875,30.78125 C565.052081,32.0520897 564.84375,34.4270659 564.84375,37.90625 L564.84375,48.59375 C564.84375,50.3229253 564.442712,51.6197873 563.640625,52.484375 C562.838538,53.3489627 561.80209,53.78125 560.53125,53.78125 C559.302077,53.78125 558.291671,53.3333378 557.5,52.4375 C556.708329,51.5416622 556.3125,50.260425 556.3125,48.59375 L556.3125,23.9375 C556.3125,22.3124919 556.666663,21.0989623 557.375,20.296875 C558.083337,19.4947877 559.052077,19.09375 560.28125,19.09375 C561.031254,19.09375 561.70833,19.2708316 562.3125,19.625 C562.91667,19.9791684 563.40104,20.5104131 563.765625,21.21875 C564.13021,21.9270869 564.3125,22.7916616 564.3125,23.8125 L564.3125,23.8125 Z M595.6875,19.84375 L596.625,19.84375 L596.625,14.71875 C596.625,13.3437431 596.661458,12.2656289 596.734375,11.484375 C596.807292,10.7031211 597.010415,10.0312528 597.34375,9.46875 C597.677085,8.88541375 598.156247,8.41146016 598.78125,8.046875 C599.406253,7.68228984 600.104163,7.5 600.875,7.5 C601.958339,7.5 602.937496,7.90624594 603.8125,8.71875 C604.395836,9.26041937 604.765624,9.92187109 604.921875,10.703125 C605.078126,11.4843789 605.15625,12.5937428 605.15625,14.03125 L605.15625,19.84375 L608.28125,19.84375 C609.489589,19.84375 610.411455,20.1302055 611.046875,20.703125 C611.682295,21.2760445 612,22.0104122 612,22.90625 C612,24.0520891 611.54688,24.8541644 610.640625,25.3125 C609.73437,25.7708356 608.437508,26 606.75,26 L605.15625,26 L605.15625,41.6875 C605.15625,43.02084 605.203125,44.0468714 605.296875,44.765625 C605.390625,45.4843786 605.640623,46.0677061 606.046875,46.515625 C606.453127,46.9635439 607.114579,47.1875 608.03125,47.1875 C608.531252,47.1875 609.208329,47.0989592 610.0625,46.921875 C610.916671,46.7447908 611.583331,46.65625 612.0625,46.65625 C612.750003,46.65625 613.369789,46.9322889 613.921875,47.484375 C614.473961,48.0364611 614.75,48.7187459 614.75,49.53125 C614.75,50.9062569 614.000008,51.9583297 612.5,52.6875 C610.999992,53.4166703 608.843764,53.78125 606.03125,53.78125 C603.36457,53.78125 601.343757,53.3333378 599.96875,52.4375 C598.593743,51.5416622 597.69271,50.3020912 597.265625,48.71875 C596.83854,47.1354088 596.625,45.0208466 596.625,42.375 L596.625,26 L595.5,26 C594.270827,26 593.333337,25.7083363 592.6875,25.125 C592.041663,24.5416637 591.71875,23.8020878 591.71875,22.90625 C591.71875,22.0104122 592.057288,21.2760445 592.734375,20.703125 C593.411462,20.1302055 594.395827,19.84375 595.6875,19.84375 L595.6875,19.84375 Z" id="class-component" fill="#333333"></path>
            </g>
        </g>
    </g>
</svg>