<?xml version="1.0" encoding="UTF-8"?>
<svg width="254px" height="70px" viewBox="0 0 254 70" version="1.1" xmlns="http://www.w3.org/2000/svg" xmlns:xlink="http://www.w3.org/1999/xlink">
    <!-- Generator: Sketch 42 (36781) - http://www.bohemiancoding.com/sketch -->
    <title>logo</title>
    <desc>Created with Sketch.</desc>
    <defs>
        <linearGradient x1="50%" y1="0%" x2="50%" y2="100%" id="linearGradient-1">
            <stop stop-color="#0E1963" offset="0%"></stop>
            <stop stop-color="#050923" offset="100%"></stop>
        </linearGradient>
        <linearGradient x1="50%" y1="0%" x2="50%" y2="100%" id="linearGradient-2">
            <stop stop-color="#0E1963" offset="0%"></stop>
            <stop stop-color="#050923" offset="100%"></stop>
        </linearGradient>
    </defs>
    <g id="Page-1" stroke="none" stroke-width="1" fill="none" fill-rule="evenodd">
        <g id="logo-for-export" transform="translate(-575.000000, -658.000000)">
            <g id="logo" transform="translate(575.000000, 658.000000)">
                <path d="M35,0 C54.3299662,0 70,15.6700338 70,35 C70,54.3299662 54.3299662,70 35,70 C15.6700338,70 0,54.3299662 0,35 C0,15.6700338 15.6700338,0 35,0 Z M24.7912495,16.3218653 L24.7290981,16.2142158 C14.6265956,22.0856296 11.1736374,35.0288045 17.0199339,45.1548871 C22.8413061,55.2377995 35.6916608,58.732404 45.8080826,53.0227353 L45.8080836,53.0227348 C45.8514621,52.9984844 45.894741,52.9738958 45.9379171,52.948968 C50.9950647,50.0292225 52.7277714,43.562673 49.8080259,38.5055254 C46.8882804,33.4483779 40.4217309,31.7156712 35.3645833,34.6354167 C30.3074358,37.5551622 23.8408863,35.8224555 20.9211407,30.7653079 C18.0013952,25.7081603 19.734102,19.2416108 24.7912495,16.3218653 L24.7912495,16.3218653 Z" id="Combined-Shape" fill="url(#linearGradient-1)"></path>
                <path d="M112.712,26.488 C111.207992,25.6719959 109.720007,25.264 108.248,25.264 C106.551992,25.264 105.008007,25.6879958 103.616,26.536 C102.223993,27.3840042 101.128004,28.5519926 100.328,30.04 C99.527996,31.5280074 99.128,33.1839909 99.128,35.008 C99.128,36.8320091 99.527996,38.4879926 100.328,39.976 C101.128004,41.4640074 102.223993,42.6319958 103.616,43.48 C105.008007,44.3280042 106.551992,44.752 108.248,44.752 C109.624007,44.752 111.063992,44.4000035 112.568,43.696 C114.072008,42.9919965 115.415994,42.0320061 116.6,40.816 L121.736,46.336 C119.911991,48.2560096 117.744013,49.7839943 115.232,50.92 C112.719987,52.0560057 110.232012,52.624 107.768,52.624 C104.439983,52.624 101.432013,51.8560077 98.744,50.32 C96.0559866,48.7839923 93.9440077,46.6880133 92.408,44.032 C90.8719923,41.3759867 90.104,38.4000165 90.104,35.104 C90.104,31.8399837 90.8879922,28.8960131 92.456,26.272 C94.0240078,23.6479869 96.1759863,21.5840075 98.912,20.08 C101.648014,18.5759925 104.711983,17.824 108.104,17.824 C110.600012,17.824 113.063988,18.3439948 115.496,19.384 C117.928012,20.4240052 119.991992,21.839991 121.688,23.632 L116.6,29.776 C115.511995,28.3999931 114.216008,27.3040041 112.712,26.488 Z M145.256,28.168 C147.24001,29.8160082 148.248,32.1279851 148.28,35.104 L148.28,52 L139.88,52 L139.88,49.072 C138.151991,51.280011 135.544017,52.384 132.056,52.384 C129.303986,52.384 127.136008,51.6400074 125.552,50.152 C123.967992,48.6639926 123.176,46.7040122 123.176,44.272 C123.176,41.8079877 124.031991,39.8880069 125.744,38.512 C127.456009,37.1359931 129.911984,36.4320002 133.112,36.4 L139.88,36.4 L139.88,36.112 C139.88,34.8639938 139.456004,33.9040034 138.608,33.232 C137.759996,32.5599966 136.536008,32.224 134.936,32.224 C133.847995,32.224 132.624007,32.3999982 131.264,32.752 C129.903993,33.1040018 128.536007,33.6159966 127.16,34.288 L124.808,28.528 C126.920011,27.5679952 128.94399,26.8560023 130.88,26.392 C132.81601,25.9279977 134.82399,25.696 136.904,25.696 C140.488018,25.696 143.27199,26.5199918 145.256,28.168 Z M138.056,45.64 C139.016005,45.0159969 139.623999,44.208005 139.88,43.216 L139.88,40.96 L134.792,40.96 C132.391988,40.96 131.192,41.855991 131.192,43.648 C131.192,44.5440045 131.503997,45.2559974 132.128,45.784 C132.752003,46.3120026 133.607995,46.576 134.696,46.576 C135.976006,46.576 137.095995,46.2640031 138.056,45.64 Z M176.792,27.4 C178.616009,28.5040055 180.031995,30.0719898 181.04,32.104 C182.048005,34.1360102 182.552,36.4799867 182.552,39.136 C182.552,41.7600131 182.064005,44.0639901 181.088,46.048 C180.111995,48.0320099 178.720009,49.5679946 176.912,50.656 C175.103991,51.7440054 173.016012,52.288 170.648,52.288 C169.015992,52.288 167.536007,51.9760031 166.208,51.352 C164.879993,50.7279969 163.752005,49.8240059 162.824,48.64 L162.824,61.312 L154.28,61.312 L154.28,26.032 L162.824,26.032 L162.824,29.392 C164.712009,26.9599878 167.255984,25.744 170.456,25.744 C172.856012,25.744 174.967991,26.2959945 176.792,27.4 Z M172.4,43.6 C173.440005,42.4159941 173.96,40.8640096 173.96,38.944 C173.96,37.0239904 173.440005,35.464006 172.4,34.264 C171.359995,33.063994 170.008008,32.464 168.344,32.464 C166.711992,32.464 165.384005,33.063994 164.36,34.264 C163.335995,35.464006 162.824,37.0239904 162.824,38.944 C162.824,40.8640096 163.335995,42.4159941 164.36,43.6 C165.384005,44.7840059 166.711992,45.376 168.344,45.376 C170.008008,45.376 171.359995,44.7840059 172.4,43.6 Z M196.04,31.6 C195.303996,31.6 194.712002,31.7359986 194.264,32.008 C193.815998,32.2800014 193.592,32.6879973 193.592,33.232 C193.592,33.8080029 193.943996,34.2719982 194.648,34.624 C195.352004,34.9760018 196.471992,35.3599979 198.008,35.776 C199.864009,36.3200027 201.407994,36.8559974 202.64,37.384 C203.872006,37.9120026 204.935996,38.7119946 205.832,39.784 C206.728004,40.8560054 207.176,42.2559914 207.176,43.984 C207.176,46.6080131 206.16001,48.6639926 204.128,50.152 C202.09599,51.6400074 199.448016,52.384 196.184,52.384 C193.975989,52.384 191.86401,52.0720031 189.848,51.448 C187.83199,50.8239969 186.040008,49.9040061 184.472,48.688 L187.16,43.168 C188.632007,44.1920051 190.175992,44.9839972 191.792,45.544 C193.408008,46.1040028 194.935993,46.384 196.376,46.384 C197.208004,46.384 197.871998,46.2480014 198.368,45.976 C198.864002,45.7039986 199.112,45.3120026 199.112,44.8 C199.112,44.1599968 198.752004,43.6640018 198.032,43.312 C197.311996,42.9599982 196.184008,42.5760021 194.648,42.16 C192.823991,41.6159973 191.320006,41.0800026 190.136,40.552 C188.951994,40.0239974 187.920004,39.2320053 187.04,38.176 C186.159996,37.1199947 185.72,35.7440085 185.72,34.048 C185.72,31.4239869 186.71199,29.3680074 188.696,27.88 C190.68001,26.3919926 193.239984,25.648 196.376,25.648 C198.264009,25.648 200.127991,25.9039974 201.968,26.416 C203.808009,26.9280026 205.543992,27.679995 207.176,28.672 L204.296,34.24 C200.935983,32.4799912 198.184011,31.6 196.04,31.6 Z M211.784,26.032 L220.28,26.032 L220.28,52 L211.784,52 L211.784,26.032 Z M219.2,15.352 C220.048004,16.2000042 220.472,17.2959933 220.472,18.64 C220.472,19.9520066 220.048004,21.0399957 219.2,21.904 C218.351996,22.7680043 217.272007,23.2 215.96,23.2 C214.647993,23.2 213.568004,22.7680043 212.72,21.904 C211.871996,21.0399957 211.448,19.9520066 211.448,18.64 C211.448,17.2959933 211.871996,16.2000042 212.72,15.352 C213.568004,14.5039958 214.647993,14.08 215.96,14.08 C217.272007,14.08 218.351996,14.5039958 219.2,15.352 Z M253.016,16.384 L253.016,52 L244.472,52 L244.472,48.64 C243.575996,49.8560061 242.480006,50.7759969 241.184,51.4 C239.887994,52.0240031 238.424008,52.336 236.792,52.336 C234.391988,52.336 232.280009,51.7760056 230.456,50.656 C228.631991,49.5359944 227.216005,47.9600102 226.208,45.928 C225.199995,43.8959898 224.696,41.5520133 224.696,38.896 C224.696,36.2719869 225.191995,33.9680099 226.184,31.984 C227.176005,29.9999901 228.567991,28.4640054 230.36,27.376 C232.152009,26.2879946 234.231988,25.744 236.6,25.744 C238.264008,25.744 239.759993,26.0639968 241.088,26.704 C242.416007,27.3440032 243.543995,28.2559941 244.472,29.44 L244.472,16.384 L253.016,16.384 Z M242.936,43.816 C243.960005,42.615994 244.472,41.0560096 244.472,39.136 C244.472,37.1839902 243.960005,35.6160059 242.936,34.432 C241.911995,33.2479941 240.568008,32.656 238.904,32.656 C237.239992,32.656 235.888005,33.255994 234.848,34.456 C233.807995,35.656006 233.288,37.2159904 233.288,39.136 C233.288,41.0560096 233.807995,42.615994 234.848,43.816 C235.888005,45.016006 237.239992,45.616 238.904,45.616 C240.568008,45.616 241.911995,45.016006 242.936,43.816 Z" id="Capsid" fill="url(#linearGradient-2)"></path>
            </g>
        </g>
    </g>
</svg>