<?xml version="1.0" encoding="UTF-8"?>
<svg width="149px" height="149px" viewBox="0 0 149 149" version="1.1" xmlns="http://www.w3.org/2000/svg" xmlns:xlink="http://www.w3.org/1999/xlink">
    <!-- Generator: Sketch 43.2 (39069) - http://www.bohemiancoding.com/sketch -->
    <title>Group 2</title>
    <desc>Created with Sketch.</desc>
    <defs></defs>
    <g id="Page-1" stroke="none" stroke-width="1" fill="none" fill-rule="evenodd">
        <g id="sketch" transform="translate(-914.000000, -221.000000)">
            <g id="Group-2" transform="translate(914.000000, 221.000000)">
                <g id="jade" transform="translate(114.000000, 114.000000) scale(-1, -1) translate(-114.000000, -114.000000) translate(79.000000, 79.000000)">
                    <circle id="Oval" fill="#050923" cx="35" cy="35" r="35"></circle>
                    <path d="M36.0417867,53.8595908 L36.0417867,53.9838937 C24.357056,53.9503514 14.8951191,44.4677122 14.8951191,32.7751192 C14.8951191,21.1323749 24.2765504,11.6807813 35.892463,11.5672885 L35.8924642,11.5672885 C35.9421562,11.5666006 35.9919312,11.5662555 36.0417867,11.5662555 C41.8812777,11.5662555 46.6151205,16.3000983 46.6151205,22.1395894 C46.6151205,27.9790804 41.8812777,32.7129232 36.0417867,32.7129232 C30.2022957,32.7129232 25.4684529,37.446766 25.4684529,43.286257 C25.4684529,49.125748 30.2022957,53.8595908 36.0417867,53.8595908 L36.0417867,53.8595908 Z" id="Combined-Shape" fill="#FFFFFF" transform="translate(30.755120, 32.775075) rotate(30.000000) translate(-30.755120, -32.775075) "></path>
                </g>
                <g id="jade" transform="translate(114.000000, 35.000000) scale(-1, 1) translate(-114.000000, -35.000000) translate(79.000000, 0.000000)">
                    <circle id="Oval" fill="#050923" cx="35" cy="35" r="35"></circle>
                    <path d="M36.0417867,53.8595908 L36.0417867,53.9838937 C24.357056,53.9503514 14.8951191,44.4677122 14.8951191,32.7751192 C14.8951191,21.1323749 24.2765504,11.6807813 35.892463,11.5672885 L35.8924642,11.5672885 C35.9421562,11.5666006 35.9919312,11.5662555 36.0417867,11.5662555 C41.8812777,11.5662555 46.6151205,16.3000983 46.6151205,22.1395894 C46.6151205,27.9790804 41.8812777,32.7129232 36.0417867,32.7129232 C30.2022957,32.7129232 25.4684529,37.446766 25.4684529,43.286257 C25.4684529,49.125748 30.2022957,53.8595908 36.0417867,53.8595908 L36.0417867,53.8595908 Z" id="Combined-Shape" fill="#FFFFFF" transform="translate(30.755120, 32.775075) rotate(30.000000) translate(-30.755120, -32.775075) "></path>
                </g>
                <g id="jade">
                    <circle id="Oval" fill="#050923" cx="35" cy="35" r="35"></circle>
                    <path d="M36.0417867,53.8595908 L36.0417867,53.9838937 C24.357056,53.9503514 14.8951191,44.4677122 14.8951191,32.7751192 C14.8951191,21.1323749 24.2765504,11.6807813 35.892463,11.5672885 L35.8924642,11.5672885 C35.9421562,11.5666006 35.9919312,11.5662555 36.0417867,11.5662555 C41.8812777,11.5662555 46.6151205,16.3000983 46.6151205,22.1395894 C46.6151205,27.9790804 41.8812777,32.7129232 36.0417867,32.7129232 C30.2022957,32.7129232 25.4684529,37.446766 25.4684529,43.286257 C25.4684529,49.125748 30.2022957,53.8595908 36.0417867,53.8595908 L36.0417867,53.8595908 Z" id="Combined-Shape" fill="#FFFFFF" transform="translate(30.755120, 32.775075) rotate(30.000000) translate(-30.755120, -32.775075) "></path>
                </g>
                <g id="jade" transform="translate(35.000000, 114.000000) scale(1, -1) translate(-35.000000, -114.000000) translate(0.000000, 79.000000)">
                    <circle id="Oval" fill="#050923" cx="35" cy="35" r="35"></circle>
                    <path d="M36.0417867,53.8595908 L36.0417867,53.9838937 C24.357056,53.9503514 14.8951191,44.4677122 14.8951191,32.7751192 C14.8951191,21.1323749 24.2765504,11.6807813 35.892463,11.5672885 L35.8924642,11.5672885 C35.9421562,11.5666006 35.9919312,11.5662555 36.0417867,11.5662555 C41.8812777,11.5662555 46.6151205,16.3000983 46.6151205,22.1395894 C46.6151205,27.9790804 41.8812777,32.7129232 36.0417867,32.7129232 C30.2022957,32.7129232 25.4684529,37.446766 25.4684529,43.286257 C25.4684529,49.125748 30.2022957,53.8595908 36.0417867,53.8595908 L36.0417867,53.8595908 Z" id="Combined-Shape" fill="#FFFFFF" transform="translate(30.755120, 32.775075) rotate(30.000000) translate(-30.755120, -32.775075) "></path>
                </g>
            </g>
        </g>
    </g>
</svg>